<svg width="452" height="137" viewBox="0 0 452 137" fill="none" xmlns="http://www.w3.org/2000/svg">
<path d="M106.526 39.216C105.602 39.216 104.786 39.06 104.078 38.748C103.37 38.424 102.812 37.968 102.404 37.38C101.996 36.78 101.786 36.054 101.774 35.202H104.204C104.228 35.79 104.438 36.288 104.834 36.696C105.242 37.092 105.8 37.29 106.508 37.29C107.12 37.29 107.606 37.146 107.966 36.858C108.326 36.558 108.506 36.162 108.506 35.67C108.506 35.154 108.344 34.752 108.02 34.464C107.708 34.176 107.288 33.942 106.76 33.762C106.232 33.582 105.668 33.39 105.068 33.186C104.096 32.85 103.352 32.418 102.836 31.89C102.332 31.362 102.08 30.66 102.08 29.784C102.068 29.04 102.242 28.404 102.602 27.876C102.974 27.336 103.478 26.922 104.114 26.634C104.75 26.334 105.482 26.184 106.31 26.184C107.15 26.184 107.888 26.334 108.524 26.634C109.172 26.934 109.676 27.354 110.036 27.894C110.408 28.434 110.606 29.076 110.63 29.82H108.164C108.152 29.376 107.978 28.986 107.642 28.65C107.318 28.302 106.862 28.128 106.274 28.128C105.77 28.116 105.344 28.242 104.996 28.506C104.66 28.758 104.492 29.13 104.492 29.622C104.492 30.042 104.624 30.378 104.888 30.63C105.152 30.87 105.512 31.074 105.968 31.242C106.424 31.41 106.946 31.59 107.534 31.782C108.158 31.998 108.728 32.25 109.244 32.538C109.76 32.826 110.174 33.21 110.486 33.69C110.798 34.158 110.954 34.764 110.954 35.508C110.954 36.168 110.786 36.78 110.45 37.344C110.114 37.908 109.616 38.364 108.956 38.712C108.296 39.048 107.486 39.216 106.526 39.216ZM112.91 39V30.072H114.944L115.142 31.278C115.43 30.846 115.808 30.504 116.276 30.252C116.756 29.988 117.308 29.856 117.932 29.856C119.312 29.856 120.29 30.39 120.866 31.458C121.19 30.966 121.622 30.576 122.162 30.288C122.714 30 123.314 29.856 123.962 29.856C125.126 29.856 126.02 30.204 126.644 30.9C127.268 31.596 127.58 32.616 127.58 33.96V39H125.276V34.176C125.276 33.408 125.126 32.82 124.826 32.412C124.538 32.004 124.088 31.8 123.476 31.8C122.852 31.8 122.348 32.028 121.964 32.484C121.592 32.94 121.406 33.576 121.406 34.392V39H119.102V34.176C119.102 33.408 118.952 32.82 118.652 32.412C118.352 32.004 117.89 31.8 117.266 31.8C116.654 31.8 116.156 32.028 115.772 32.484C115.4 32.94 115.214 33.576 115.214 34.392V39H112.91ZM132.846 39.216C132.078 39.216 131.448 39.096 130.956 38.856C130.464 38.604 130.098 38.274 129.858 37.866C129.618 37.458 129.498 37.008 129.498 36.516C129.498 35.688 129.822 35.016 130.47 34.5C131.118 33.984 132.09 33.726 133.386 33.726H135.654V33.51C135.654 32.898 135.48 32.448 135.132 32.16C134.784 31.872 134.352 31.728 133.836 31.728C133.368 31.728 132.96 31.842 132.612 32.07C132.264 32.286 132.048 32.61 131.964 33.042H129.714C129.774 32.394 129.99 31.83 130.362 31.35C130.746 30.87 131.238 30.504 131.838 30.252C132.438 29.988 133.11 29.856 133.854 29.856C135.126 29.856 136.128 30.174 136.86 30.81C137.592 31.446 137.958 32.346 137.958 33.51V39H135.996L135.78 37.56C135.516 38.04 135.144 38.436 134.664 38.748C134.196 39.06 133.59 39.216 132.846 39.216ZM133.368 37.416C134.028 37.416 134.538 37.2 134.898 36.768C135.27 36.336 135.504 35.802 135.6 35.166H133.638C133.026 35.166 132.588 35.28 132.324 35.508C132.06 35.724 131.928 35.994 131.928 36.318C131.928 36.666 132.06 36.936 132.324 37.128C132.588 37.32 132.936 37.416 133.368 37.416ZM140.156 39V30.072H142.208L142.424 31.746C142.748 31.17 143.186 30.714 143.738 30.378C144.302 30.03 144.962 29.856 145.718 29.856V32.286H145.07C144.566 32.286 144.116 32.364 143.72 32.52C143.324 32.676 143.012 32.946 142.784 33.33C142.568 33.714 142.46 34.248 142.46 34.932V39H140.156ZM151.271 39C150.335 39 149.585 38.772 149.021 38.316C148.457 37.86 148.175 37.05 148.175 35.886V31.998H146.645V30.072H148.175L148.445 27.678H150.479V30.072H152.891V31.998H150.479V35.904C150.479 36.336 150.569 36.636 150.749 36.804C150.941 36.96 151.265 37.038 151.721 37.038H152.837V39H151.271ZM159.212 39V26.4H167.348V28.254H161.516V31.782H166.232V33.6H161.516V39H159.212ZM172.936 39.216C172.036 39.216 171.238 39.024 170.542 38.64C169.846 38.256 169.3 37.716 168.904 37.02C168.508 36.324 168.31 35.52 168.31 34.608C168.31 33.684 168.502 32.862 168.886 32.142C169.282 31.422 169.822 30.864 170.506 30.468C171.202 30.06 172.018 29.856 172.954 29.856C173.83 29.856 174.604 30.048 175.276 30.432C175.948 30.816 176.47 31.344 176.842 32.016C177.226 32.676 177.418 33.414 177.418 34.23C177.418 34.362 177.412 34.5 177.4 34.644C177.4 34.788 177.394 34.938 177.382 35.094H170.596C170.644 35.79 170.884 36.336 171.316 36.732C171.76 37.128 172.294 37.326 172.918 37.326C173.386 37.326 173.776 37.224 174.088 37.02C174.412 36.804 174.652 36.528 174.808 36.192H177.148C176.98 36.756 176.698 37.272 176.302 37.74C175.918 38.196 175.438 38.556 174.862 38.82C174.298 39.084 173.656 39.216 172.936 39.216ZM172.954 31.728C172.39 31.728 171.892 31.89 171.46 32.214C171.028 32.526 170.752 33.006 170.632 33.654H175.078C175.042 33.066 174.826 32.598 174.43 32.25C174.034 31.902 173.542 31.728 172.954 31.728ZM182.434 39.216C181.666 39.216 181.036 39.096 180.544 38.856C180.052 38.604 179.686 38.274 179.446 37.866C179.206 37.458 179.086 37.008 179.086 36.516C179.086 35.688 179.41 35.016 180.058 34.5C180.706 33.984 181.678 33.726 182.974 33.726H185.242V33.51C185.242 32.898 185.068 32.448 184.72 32.16C184.372 31.872 183.94 31.728 183.424 31.728C182.956 31.728 182.548 31.842 182.2 32.07C181.852 32.286 181.636 32.61 181.552 33.042H179.302C179.362 32.394 179.578 31.83 179.95 31.35C180.334 30.87 180.826 30.504 181.426 30.252C182.026 29.988 182.698 29.856 183.442 29.856C184.714 29.856 185.716 30.174 186.448 30.81C187.18 31.446 187.546 32.346 187.546 33.51V39H185.584L185.368 37.56C185.104 38.04 184.732 38.436 184.252 38.748C183.784 39.06 183.178 39.216 182.434 39.216ZM182.956 37.416C183.616 37.416 184.126 37.2 184.486 36.768C184.858 36.336 185.092 35.802 185.188 35.166H183.226C182.614 35.166 182.176 35.28 181.912 35.508C181.648 35.724 181.516 35.994 181.516 36.318C181.516 36.666 181.648 36.936 181.912 37.128C182.176 37.32 182.524 37.416 182.956 37.416ZM193.599 39C192.663 39 191.913 38.772 191.349 38.316C190.785 37.86 190.503 37.05 190.503 35.886V31.998H188.973V30.072H190.503L190.773 27.678H192.807V30.072H195.219V31.998H192.807V35.904C192.807 36.336 192.897 36.636 193.077 36.804C193.269 36.96 193.593 37.038 194.049 37.038H195.165V39H193.599ZM205.801 30.072V39H203.767L203.587 37.488C203.311 38.016 202.909 38.436 202.381 38.748C201.865 39.06 201.253 39.216 200.545 39.216C199.441 39.216 198.583 38.868 197.971 38.172C197.359 37.476 197.053 36.456 197.053 35.112V30.072H199.357V34.896C199.357 35.664 199.513 36.252 199.825 36.66C200.137 37.068 200.623 37.272 201.283 37.272C201.931 37.272 202.459 37.044 202.867 36.588C203.287 36.132 203.497 35.496 203.497 34.68V30.072H205.801ZM208.149 39V30.072H210.201L210.417 31.746C210.741 31.17 211.179 30.714 211.731 30.378C212.295 30.03 212.955 29.856 213.711 29.856V32.286H213.063C212.559 32.286 212.109 32.364 211.713 32.52C211.317 32.676 211.005 32.946 210.777 33.33C210.561 33.714 210.453 34.248 210.453 34.932V39H208.149ZM219.465 39.216C218.565 39.216 217.767 39.024 217.071 38.64C216.375 38.256 215.829 37.716 215.433 37.02C215.037 36.324 214.839 35.52 214.839 34.608C214.839 33.684 215.031 32.862 215.415 32.142C215.811 31.422 216.351 30.864 217.035 30.468C217.731 30.06 218.547 29.856 219.483 29.856C220.359 29.856 221.133 30.048 221.805 30.432C222.477 30.816 222.999 31.344 223.371 32.016C223.755 32.676 223.947 33.414 223.947 34.23C223.947 34.362 223.941 34.5 223.929 34.644C223.929 34.788 223.923 34.938 223.911 35.094H217.125C217.173 35.79 217.413 36.336 217.845 36.732C218.289 37.128 218.823 37.326 219.447 37.326C219.915 37.326 220.305 37.224 220.617 37.02C220.941 36.804 221.181 36.528 221.337 36.192H223.677C223.509 36.756 223.227 37.272 222.831 37.74C222.447 38.196 221.967 38.556 221.391 38.82C220.827 39.084 220.185 39.216 219.465 39.216ZM219.483 31.728C218.919 31.728 218.421 31.89 217.989 32.214C217.557 32.526 217.281 33.006 217.161 33.654H221.607C221.571 33.066 221.355 32.598 220.959 32.25C220.563 31.902 220.071 31.728 219.483 31.728ZM229.575 39.216C228.783 39.216 228.087 39.09 227.487 38.838C226.887 38.574 226.407 38.214 226.047 37.758C225.687 37.302 225.471 36.774 225.399 36.174H227.721C227.793 36.522 227.985 36.822 228.297 37.074C228.621 37.314 229.035 37.434 229.539 37.434C230.043 37.434 230.409 37.332 230.637 37.128C230.877 36.924 230.997 36.69 230.997 36.426C230.997 36.042 230.829 35.784 230.493 35.652C230.157 35.508 229.689 35.37 229.089 35.238C228.705 35.154 228.315 35.052 227.919 34.932C227.523 34.812 227.157 34.662 226.821 34.482C226.497 34.29 226.233 34.05 226.029 33.762C225.825 33.462 225.723 33.096 225.723 32.664C225.723 31.872 226.035 31.206 226.659 30.666C227.295 30.126 228.183 29.856 229.323 29.856C230.379 29.856 231.219 30.102 231.843 30.594C232.479 31.086 232.857 31.764 232.977 32.628H230.799C230.667 31.968 230.169 31.638 229.305 31.638C228.873 31.638 228.537 31.722 228.297 31.89C228.069 32.058 227.955 32.268 227.955 32.52C227.955 32.784 228.129 32.994 228.477 33.15C228.825 33.306 229.287 33.45 229.863 33.582C230.487 33.726 231.057 33.888 231.573 34.068C232.101 34.236 232.521 34.494 232.833 34.842C233.145 35.178 233.301 35.664 233.301 36.3C233.313 36.852 233.169 37.35 232.869 37.794C232.569 38.238 232.137 38.586 231.573 38.838C231.009 39.09 230.343 39.216 229.575 39.216Z" fill="#0F2137"/>
<path d="M102.625 76.68C101.645 76.68 100.785 76.455 100.045 76.005C99.305 75.545 98.73 74.91 98.32 74.1C97.91 73.28 97.705 72.335 97.705 71.265C97.705 70.195 97.91 69.25 98.32 68.43C98.74 67.61 99.33 66.97 100.09 66.51C100.86 66.05 101.765 65.82 102.805 65.82C103.985 65.82 104.965 66.105 105.745 66.675C106.535 67.245 107.045 68.03 107.275 69.03H105.82C105.68 68.4 105.345 67.9 104.815 67.53C104.295 67.16 103.625 66.975 102.805 66.975C102.035 66.975 101.365 67.15 100.795 67.5C100.225 67.84 99.78 68.33 99.46 68.97C99.15 69.61 98.995 70.375 98.995 71.265C98.995 72.155 99.15 72.92 99.46 73.56C99.77 74.2 100.2 74.695 100.75 75.045C101.3 75.385 101.94 75.555 102.67 75.555C103.79 75.555 104.635 75.23 105.205 74.58C105.775 73.92 106.1 73.02 106.18 71.88H103.15V70.89H107.47V76.5H106.315L106.21 74.775C105.83 75.385 105.365 75.855 104.815 76.185C104.265 76.515 103.535 76.68 102.625 76.68ZM112.733 76.68C112.023 76.68 111.393 76.52 110.843 76.2C110.293 75.87 109.858 75.415 109.538 74.835C109.228 74.255 109.073 73.57 109.073 72.78C109.073 72 109.228 71.32 109.538 70.74C109.848 70.15 110.278 69.695 110.828 69.375C111.388 69.045 112.033 68.88 112.763 68.88C113.483 68.88 114.103 69.045 114.623 69.375C115.153 69.695 115.558 70.12 115.838 70.65C116.118 71.18 116.258 71.75 116.258 72.36C116.258 72.47 116.253 72.58 116.243 72.69C116.243 72.8 116.243 72.925 116.243 73.065H110.318C110.348 73.635 110.478 74.11 110.708 74.49C110.948 74.86 111.243 75.14 111.593 75.33C111.953 75.52 112.333 75.615 112.733 75.615C113.253 75.615 113.688 75.495 114.038 75.255C114.388 75.015 114.643 74.69 114.803 74.28H116.048C115.848 74.97 115.463 75.545 114.893 76.005C114.333 76.455 113.613 76.68 112.733 76.68ZM112.733 69.945C112.133 69.945 111.598 70.13 111.128 70.5C110.668 70.86 110.403 71.39 110.333 72.09H115.013C114.983 71.42 114.753 70.895 114.323 70.515C113.893 70.135 113.363 69.945 112.733 69.945ZM120.619 76.5C119.939 76.5 119.404 76.335 119.014 76.005C118.624 75.675 118.429 75.08 118.429 74.22V70.125H117.139V69.06H118.429L118.594 67.275H119.689V69.06H121.879V70.125H119.689V74.22C119.689 74.69 119.784 75.01 119.974 75.18C120.164 75.34 120.499 75.42 120.979 75.42H121.759V76.5H120.619ZM128.259 79.8L130.104 75.78H129.669L126.714 69.06H128.079L130.539 74.85L133.149 69.06H134.454L129.579 79.8H128.259ZM138.471 76.68C137.771 76.68 137.141 76.52 136.581 76.2C136.021 75.88 135.576 75.43 135.246 74.85C134.926 74.26 134.766 73.57 134.766 72.78C134.766 71.99 134.931 71.305 135.261 70.725C135.591 70.135 136.036 69.68 136.596 69.36C137.166 69.04 137.801 68.88 138.501 68.88C139.201 68.88 139.831 69.04 140.391 69.36C140.951 69.68 141.391 70.135 141.711 70.725C142.041 71.305 142.206 71.99 142.206 72.78C142.206 73.57 142.041 74.26 141.711 74.85C141.381 75.43 140.931 75.88 140.361 76.2C139.801 76.52 139.171 76.68 138.471 76.68ZM138.471 75.6C138.901 75.6 139.301 75.495 139.671 75.285C140.041 75.075 140.341 74.76 140.571 74.34C140.801 73.92 140.916 73.4 140.916 72.78C140.916 72.16 140.801 71.64 140.571 71.22C140.351 70.8 140.056 70.485 139.686 70.275C139.316 70.065 138.921 69.96 138.501 69.96C138.071 69.96 137.671 70.065 137.301 70.275C136.931 70.485 136.631 70.8 136.401 71.22C136.171 71.64 136.056 72.16 136.056 72.78C136.056 73.4 136.171 73.92 136.401 74.34C136.631 74.76 136.926 75.075 137.286 75.285C137.656 75.495 138.051 75.6 138.471 75.6ZM150.468 69.06V76.5H149.328L149.253 75.165C149.013 75.635 148.668 76.005 148.218 76.275C147.768 76.545 147.258 76.68 146.688 76.68C145.808 76.68 145.103 76.415 144.573 75.885C144.053 75.345 143.793 74.52 143.793 73.41V69.06H145.053V73.275C145.053 74.825 145.693 75.6 146.973 75.6C147.613 75.6 148.143 75.37 148.563 74.91C148.993 74.44 149.208 73.775 149.208 72.915V69.06H150.468ZM152.542 76.5V69.06H153.682L153.787 70.485C154.017 69.995 154.367 69.605 154.837 69.315C155.307 69.025 155.887 68.88 156.577 68.88V70.2H156.232C155.792 70.2 155.387 70.28 155.017 70.44C154.647 70.59 154.352 70.85 154.132 71.22C153.912 71.59 153.802 72.1 153.802 72.75V76.5H152.542ZM165.936 76.68C165.326 76.68 164.781 76.555 164.301 76.305C163.831 76.055 163.471 75.705 163.221 75.255L163.101 76.5H161.961V65.7H163.221V70.29C163.461 69.93 163.801 69.605 164.241 69.315C164.691 69.025 165.261 68.88 165.951 68.88C166.691 68.88 167.336 69.05 167.886 69.39C168.436 69.73 168.861 70.195 169.161 70.785C169.471 71.375 169.626 72.045 169.626 72.795C169.626 73.545 169.471 74.215 169.161 74.805C168.861 75.385 168.431 75.845 167.871 76.185C167.321 76.515 166.676 76.68 165.936 76.68ZM165.801 75.585C166.301 75.585 166.741 75.47 167.121 75.24C167.501 75 167.801 74.67 168.021 74.25C168.241 73.83 168.351 73.34 168.351 72.78C168.351 72.22 168.241 71.73 168.021 71.31C167.801 70.89 167.501 70.565 167.121 70.335C166.741 70.095 166.301 69.975 165.801 69.975C165.301 69.975 164.861 70.095 164.481 70.335C164.101 70.565 163.801 70.89 163.581 71.31C163.361 71.73 163.251 72.22 163.251 72.78C163.251 73.34 163.361 73.83 163.581 74.25C163.801 74.67 164.101 75 164.481 75.24C164.861 75.47 165.301 75.585 165.801 75.585ZM171.38 76.5V65.7H172.64V76.5H171.38ZM178.095 76.68C177.395 76.68 176.765 76.52 176.205 76.2C175.645 75.88 175.2 75.43 174.87 74.85C174.55 74.26 174.39 73.57 174.39 72.78C174.39 71.99 174.555 71.305 174.885 70.725C175.215 70.135 175.66 69.68 176.22 69.36C176.79 69.04 177.425 68.88 178.125 68.88C178.825 68.88 179.455 69.04 180.015 69.36C180.575 69.68 181.015 70.135 181.335 70.725C181.665 71.305 181.83 71.99 181.83 72.78C181.83 73.57 181.665 74.26 181.335 74.85C181.005 75.43 180.555 75.88 179.985 76.2C179.425 76.52 178.795 76.68 178.095 76.68ZM178.095 75.6C178.525 75.6 178.925 75.495 179.295 75.285C179.665 75.075 179.965 74.76 180.195 74.34C180.425 73.92 180.54 73.4 180.54 72.78C180.54 72.16 180.425 71.64 180.195 71.22C179.975 70.8 179.68 70.485 179.31 70.275C178.94 70.065 178.545 69.96 178.125 69.96C177.695 69.96 177.295 70.065 176.925 70.275C176.555 70.485 176.255 70.8 176.025 71.22C175.795 71.64 175.68 72.16 175.68 72.78C175.68 73.4 175.795 73.92 176.025 74.34C176.255 74.76 176.55 75.075 176.91 75.285C177.28 75.495 177.675 75.6 178.095 75.6ZM186.972 76.68C186.272 76.68 185.642 76.52 185.082 76.2C184.522 75.88 184.077 75.43 183.747 74.85C183.427 74.26 183.267 73.57 183.267 72.78C183.267 71.99 183.432 71.305 183.762 70.725C184.092 70.135 184.537 69.68 185.097 69.36C185.667 69.04 186.302 68.88 187.002 68.88C187.702 68.88 188.332 69.04 188.892 69.36C189.452 69.68 189.892 70.135 190.212 70.725C190.542 71.305 190.707 71.99 190.707 72.78C190.707 73.57 190.542 74.26 190.212 74.85C189.882 75.43 189.432 75.88 188.862 76.2C188.302 76.52 187.672 76.68 186.972 76.68ZM186.972 75.6C187.402 75.6 187.802 75.495 188.172 75.285C188.542 75.075 188.842 74.76 189.072 74.34C189.302 73.92 189.417 73.4 189.417 72.78C189.417 72.16 189.302 71.64 189.072 71.22C188.852 70.8 188.557 70.485 188.187 70.275C187.817 70.065 187.422 69.96 187.002 69.96C186.572 69.96 186.172 70.065 185.802 70.275C185.432 70.485 185.132 70.8 184.902 71.22C184.672 71.64 184.557 72.16 184.557 72.78C184.557 73.4 184.672 73.92 184.902 74.34C185.132 74.76 185.427 75.075 185.787 75.285C186.157 75.495 186.552 75.6 186.972 75.6ZM195.834 76.68C195.094 76.68 194.444 76.51 193.884 76.17C193.334 75.83 192.904 75.365 192.594 74.775C192.294 74.185 192.144 73.515 192.144 72.765C192.144 72.015 192.299 71.35 192.609 70.77C192.919 70.18 193.349 69.72 193.899 69.39C194.449 69.05 195.099 68.88 195.849 68.88C196.459 68.88 196.999 69.005 197.469 69.255C197.939 69.505 198.304 69.855 198.564 70.305V65.7H199.824V76.5H198.684L198.564 75.27C198.324 75.63 197.979 75.955 197.529 76.245C197.079 76.535 196.514 76.68 195.834 76.68ZM195.969 75.585C196.469 75.585 196.909 75.47 197.289 75.24C197.679 75 197.979 74.67 198.189 74.25C198.409 73.83 198.519 73.34 198.519 72.78C198.519 72.22 198.409 71.73 198.189 71.31C197.979 70.89 197.679 70.565 197.289 70.335C196.909 70.095 196.469 69.975 195.969 69.975C195.479 69.975 195.039 70.095 194.649 70.335C194.269 70.565 193.969 70.89 193.749 71.31C193.539 71.73 193.434 72.22 193.434 72.78C193.434 73.34 193.539 73.83 193.749 74.25C193.969 74.67 194.269 75 194.649 75.24C195.039 75.47 195.479 75.585 195.969 75.585ZM208.788 76.5C208.108 76.5 207.573 76.335 207.183 76.005C206.793 75.675 206.598 75.08 206.598 74.22V70.125H205.307V69.06H206.598L206.763 67.275H207.858V69.06H210.048V70.125H207.858V74.22C207.858 74.69 207.953 75.01 208.143 75.18C208.333 75.34 208.668 75.42 209.148 75.42H209.928V76.5H208.788ZM214.788 76.68C214.078 76.68 213.448 76.52 212.898 76.2C212.348 75.87 211.913 75.415 211.593 74.835C211.283 74.255 211.128 73.57 211.128 72.78C211.128 72 211.283 71.32 211.593 70.74C211.903 70.15 212.333 69.695 212.883 69.375C213.443 69.045 214.088 68.88 214.818 68.88C215.538 68.88 216.158 69.045 216.678 69.375C217.208 69.695 217.613 70.12 217.893 70.65C218.173 71.18 218.313 71.75 218.313 72.36C218.313 72.47 218.308 72.58 218.298 72.69C218.298 72.8 218.298 72.925 218.298 73.065H212.373C212.403 73.635 212.533 74.11 212.763 74.49C213.003 74.86 213.298 75.14 213.648 75.33C214.008 75.52 214.388 75.615 214.788 75.615C215.308 75.615 215.743 75.495 216.093 75.255C216.443 75.015 216.698 74.69 216.858 74.28H218.103C217.903 74.97 217.518 75.545 216.948 76.005C216.388 76.455 215.668 76.68 214.788 76.68ZM214.788 69.945C214.188 69.945 213.653 70.13 213.183 70.5C212.723 70.86 212.458 71.39 212.388 72.09H217.068C217.038 71.42 216.808 70.895 216.378 70.515C215.948 70.135 215.418 69.945 214.788 69.945ZM222.833 76.68C221.943 76.68 221.203 76.455 220.613 76.005C220.023 75.555 219.678 74.945 219.578 74.175H220.868C220.948 74.565 221.153 74.905 221.483 75.195C221.823 75.475 222.278 75.615 222.848 75.615C223.378 75.615 223.768 75.505 224.018 75.285C224.268 75.055 224.393 74.785 224.393 74.475C224.393 74.025 224.228 73.725 223.898 73.575C223.578 73.425 223.123 73.29 222.533 73.17C222.133 73.09 221.733 72.975 221.333 72.825C220.933 72.675 220.598 72.465 220.328 72.195C220.058 71.915 219.923 71.55 219.923 71.1C219.923 70.45 220.163 69.92 220.643 69.51C221.133 69.09 221.793 68.88 222.623 68.88C223.413 68.88 224.058 69.08 224.558 69.48C225.068 69.87 225.363 70.43 225.443 71.16H224.198C224.148 70.78 223.983 70.485 223.703 70.275C223.433 70.055 223.068 69.945 222.608 69.945C222.158 69.945 221.808 70.04 221.558 70.23C221.318 70.42 221.198 70.67 221.198 70.98C221.198 71.28 221.353 71.515 221.663 71.685C221.983 71.855 222.413 72 222.953 72.12C223.413 72.22 223.848 72.345 224.258 72.495C224.678 72.635 225.018 72.85 225.278 73.14C225.548 73.42 225.683 73.83 225.683 74.37C225.693 75.04 225.438 75.595 224.918 76.035C224.408 76.465 223.713 76.68 222.833 76.68ZM230.086 76.5C229.406 76.5 228.871 76.335 228.481 76.005C228.091 75.675 227.896 75.08 227.896 74.22V70.125H226.606V69.06H227.896L228.061 67.275H229.156V69.06H231.346V70.125H229.156V74.22C229.156 74.69 229.251 75.01 229.441 75.18C229.631 75.34 229.966 75.42 230.446 75.42H231.226V76.5H230.086ZM235.797 76.68C234.907 76.68 234.167 76.455 233.577 76.005C232.987 75.555 232.642 74.945 232.542 74.175H233.832C233.912 74.565 234.117 74.905 234.447 75.195C234.787 75.475 235.242 75.615 235.812 75.615C236.342 75.615 236.732 75.505 236.982 75.285C237.232 75.055 237.357 74.785 237.357 74.475C237.357 74.025 237.192 73.725 236.862 73.575C236.542 73.425 236.087 73.29 235.497 73.17C235.097 73.09 234.697 72.975 234.297 72.825C233.897 72.675 233.562 72.465 233.292 72.195C233.022 71.915 232.887 71.55 232.887 71.1C232.887 70.45 233.127 69.92 233.607 69.51C234.097 69.09 234.757 68.88 235.587 68.88C236.377 68.88 237.022 69.08 237.522 69.48C238.032 69.87 238.327 70.43 238.407 71.16H237.162C237.112 70.78 236.947 70.485 236.667 70.275C236.397 70.055 236.032 69.945 235.572 69.945C235.122 69.945 234.772 70.04 234.522 70.23C234.282 70.42 234.162 70.67 234.162 70.98C234.162 71.28 234.317 71.515 234.627 71.685C234.947 71.855 235.377 72 235.917 72.12C236.377 72.22 236.812 72.345 237.222 72.495C237.642 72.635 237.982 72.85 238.242 73.14C238.512 73.42 238.647 73.83 238.647 74.37C238.657 75.04 238.402 75.595 237.882 76.035C237.372 76.465 236.677 76.68 235.797 76.68ZM247.792 76.68C247.052 76.68 246.402 76.51 245.842 76.17C245.292 75.83 244.862 75.365 244.552 74.775C244.252 74.185 244.102 73.515 244.102 72.765C244.102 72.015 244.257 71.35 244.567 70.77C244.877 70.18 245.307 69.72 245.857 69.39C246.407 69.05 247.057 68.88 247.807 68.88C248.417 68.88 248.957 69.005 249.427 69.255C249.897 69.505 250.262 69.855 250.522 70.305V65.7H251.782V76.5H250.642L250.522 75.27C250.282 75.63 249.937 75.955 249.487 76.245C249.037 76.535 248.472 76.68 247.792 76.68ZM247.927 75.585C248.427 75.585 248.867 75.47 249.247 75.24C249.637 75 249.937 74.67 250.147 74.25C250.367 73.83 250.477 73.34 250.477 72.78C250.477 72.22 250.367 71.73 250.147 71.31C249.937 70.89 249.637 70.565 249.247 70.335C248.867 70.095 248.427 69.975 247.927 69.975C247.437 69.975 246.997 70.095 246.607 70.335C246.227 70.565 245.927 70.89 245.707 71.31C245.497 71.73 245.392 72.22 245.392 72.78C245.392 73.34 245.497 73.83 245.707 74.25C245.927 74.67 246.227 75 246.607 75.24C246.997 75.47 247.437 75.585 247.927 75.585ZM257.181 76.68C256.471 76.68 255.841 76.52 255.291 76.2C254.741 75.87 254.306 75.415 253.986 74.835C253.676 74.255 253.521 73.57 253.521 72.78C253.521 72 253.676 71.32 253.986 70.74C254.296 70.15 254.726 69.695 255.276 69.375C255.836 69.045 256.481 68.88 257.211 68.88C257.931 68.88 258.551 69.045 259.071 69.375C259.601 69.695 260.006 70.12 260.286 70.65C260.566 71.18 260.706 71.75 260.706 72.36C260.706 72.47 260.701 72.58 260.691 72.69C260.691 72.8 260.691 72.925 260.691 73.065H254.766C254.796 73.635 254.926 74.11 255.156 74.49C255.396 74.86 255.691 75.14 256.041 75.33C256.401 75.52 256.781 75.615 257.181 75.615C257.701 75.615 258.136 75.495 258.486 75.255C258.836 75.015 259.091 74.69 259.251 74.28H260.496C260.296 74.97 259.911 75.545 259.341 76.005C258.781 76.455 258.061 76.68 257.181 76.68ZM257.181 69.945C256.581 69.945 256.046 70.13 255.576 70.5C255.116 70.86 254.851 71.39 254.781 72.09H259.461C259.431 71.42 259.201 70.895 258.771 70.515C258.341 70.135 257.811 69.945 257.181 69.945ZM262.376 76.5V65.7H263.636V76.5H262.376ZM266.466 67.41C266.216 67.41 266.006 67.33 265.836 67.17C265.676 67 265.596 66.79 265.596 66.54C265.596 66.3 265.676 66.1 265.836 65.94C266.006 65.78 266.216 65.7 266.466 65.7C266.706 65.7 266.911 65.78 267.081 65.94C267.251 66.1 267.336 66.3 267.336 66.54C267.336 66.79 267.251 67 267.081 67.17C266.911 67.33 266.706 67.41 266.466 67.41ZM265.836 76.5V69.06H267.096V76.5H265.836ZM271.435 76.5L268.615 69.06H269.935L272.17 75.285L274.42 69.06H275.71L272.89 76.5H271.435ZM280.076 76.68C279.366 76.68 278.736 76.52 278.186 76.2C277.636 75.87 277.201 75.415 276.881 74.835C276.571 74.255 276.416 73.57 276.416 72.78C276.416 72 276.571 71.32 276.881 70.74C277.191 70.15 277.621 69.695 278.171 69.375C278.731 69.045 279.376 68.88 280.106 68.88C280.826 68.88 281.446 69.045 281.966 69.375C282.496 69.695 282.901 70.12 283.181 70.65C283.461 71.18 283.601 71.75 283.601 72.36C283.601 72.47 283.596 72.58 283.586 72.69C283.586 72.8 283.586 72.925 283.586 73.065H277.661C277.691 73.635 277.821 74.11 278.051 74.49C278.291 74.86 278.586 75.14 278.936 75.33C279.296 75.52 279.676 75.615 280.076 75.615C280.596 75.615 281.031 75.495 281.381 75.255C281.731 75.015 281.986 74.69 282.146 74.28H283.391C283.191 74.97 282.806 75.545 282.236 76.005C281.676 76.455 280.956 76.68 280.076 76.68ZM280.076 69.945C279.476 69.945 278.941 70.13 278.471 70.5C278.011 70.86 277.746 71.39 277.676 72.09H282.356C282.326 71.42 282.096 70.895 281.666 70.515C281.236 70.135 280.706 69.945 280.076 69.945ZM285.271 76.5V69.06H286.411L286.516 70.485C286.746 69.995 287.096 69.605 287.566 69.315C288.036 69.025 288.616 68.88 289.306 68.88V70.2H288.961C288.521 70.2 288.116 70.28 287.746 70.44C287.376 70.59 287.081 70.85 286.861 71.22C286.641 71.59 286.531 72.1 286.531 72.75V76.5H285.271ZM293.787 76.68C293.077 76.68 292.447 76.52 291.897 76.2C291.347 75.87 290.912 75.415 290.592 74.835C290.282 74.255 290.127 73.57 290.127 72.78C290.127 72 290.282 71.32 290.592 70.74C290.902 70.15 291.332 69.695 291.882 69.375C292.442 69.045 293.087 68.88 293.817 68.88C294.537 68.88 295.157 69.045 295.677 69.375C296.207 69.695 296.612 70.12 296.892 70.65C297.172 71.18 297.312 71.75 297.312 72.36C297.312 72.47 297.307 72.58 297.297 72.69C297.297 72.8 297.297 72.925 297.297 73.065H291.372C291.402 73.635 291.532 74.11 291.762 74.49C292.002 74.86 292.297 75.14 292.647 75.33C293.007 75.52 293.387 75.615 293.787 75.615C294.307 75.615 294.742 75.495 295.092 75.255C295.442 75.015 295.697 74.69 295.857 74.28H297.102C296.902 74.97 296.517 75.545 295.947 76.005C295.387 76.455 294.667 76.68 293.787 76.68ZM293.787 69.945C293.187 69.945 292.652 70.13 292.182 70.5C291.722 70.86 291.457 71.39 291.387 72.09H296.067C296.037 71.42 295.807 70.895 295.377 70.515C294.947 70.135 294.417 69.945 293.787 69.945ZM302.357 76.68C301.617 76.68 300.967 76.51 300.407 76.17C299.857 75.83 299.427 75.365 299.117 74.775C298.817 74.185 298.667 73.515 298.667 72.765C298.667 72.015 298.822 71.35 299.132 70.77C299.442 70.18 299.872 69.72 300.422 69.39C300.972 69.05 301.622 68.88 302.372 68.88C302.982 68.88 303.522 69.005 303.992 69.255C304.462 69.505 304.827 69.855 305.087 70.305V65.7H306.347V76.5H305.207L305.087 75.27C304.847 75.63 304.502 75.955 304.052 76.245C303.602 76.535 303.037 76.68 302.357 76.68ZM302.492 75.585C302.992 75.585 303.432 75.47 303.812 75.24C304.202 75 304.502 74.67 304.712 74.25C304.932 73.83 305.042 73.34 305.042 72.78C305.042 72.22 304.932 71.73 304.712 71.31C304.502 70.89 304.202 70.565 303.812 70.335C303.432 70.095 302.992 69.975 302.492 69.975C302.002 69.975 301.562 70.095 301.172 70.335C300.792 70.565 300.492 70.89 300.272 71.31C300.062 71.73 299.957 72.22 299.957 72.78C299.957 73.34 300.062 73.83 300.272 74.25C300.492 74.67 300.792 75 301.172 75.24C301.562 75.47 302.002 75.585 302.492 75.585ZM314.846 76.68C314.226 76.68 313.711 76.575 313.301 76.365C312.891 76.155 312.586 75.875 312.386 75.525C312.186 75.175 312.086 74.795 312.086 74.385C312.086 73.625 312.376 73.04 312.956 72.63C313.536 72.22 314.326 72.015 315.326 72.015H317.336V71.925C317.336 71.275 317.166 70.785 316.826 70.455C316.486 70.115 316.031 69.945 315.461 69.945C314.971 69.945 314.546 70.07 314.186 70.32C313.836 70.56 313.616 70.915 313.526 71.385H312.236C312.286 70.845 312.466 70.39 312.776 70.02C313.096 69.65 313.491 69.37 313.961 69.18C314.431 68.98 314.931 68.88 315.461 68.88C316.501 68.88 317.281 69.16 317.801 69.72C318.331 70.27 318.596 71.005 318.596 71.925V76.5H317.471L317.396 75.165C317.186 75.585 316.876 75.945 316.466 76.245C316.066 76.535 315.526 76.68 314.846 76.68ZM315.041 75.615C315.521 75.615 315.931 75.49 316.271 75.24C316.621 74.99 316.886 74.665 317.066 74.265C317.246 73.865 317.336 73.445 317.336 73.005V72.99H315.431C314.691 72.99 314.166 73.12 313.856 73.38C313.556 73.63 313.406 73.945 313.406 74.325C313.406 74.715 313.546 75.03 313.826 75.27C314.116 75.5 314.521 75.615 315.041 75.615ZM323.221 76.5C322.541 76.5 322.006 76.335 321.616 76.005C321.226 75.675 321.031 75.08 321.031 74.22V70.125H319.741V69.06H321.031L321.196 67.275H322.291V69.06H324.481V70.125H322.291V74.22C322.291 74.69 322.386 75.01 322.576 75.18C322.766 75.34 323.101 75.42 323.581 75.42H324.361V76.5H323.221ZM330.052 76.5V65.7H331.312V76.5H330.052ZM336.722 76.68C336.012 76.68 335.382 76.52 334.832 76.2C334.282 75.87 333.847 75.415 333.527 74.835C333.217 74.255 333.062 73.57 333.062 72.78C333.062 72 333.217 71.32 333.527 70.74C333.837 70.15 334.267 69.695 334.817 69.375C335.377 69.045 336.022 68.88 336.752 68.88C337.472 68.88 338.092 69.045 338.612 69.375C339.142 69.695 339.547 70.12 339.827 70.65C340.107 71.18 340.247 71.75 340.247 72.36C340.247 72.47 340.242 72.58 340.232 72.69C340.232 72.8 340.232 72.925 340.232 73.065H334.307C334.337 73.635 334.467 74.11 334.697 74.49C334.937 74.86 335.232 75.14 335.582 75.33C335.942 75.52 336.322 75.615 336.722 75.615C337.242 75.615 337.677 75.495 338.027 75.255C338.377 75.015 338.632 74.69 338.792 74.28H340.037C339.837 74.97 339.452 75.545 338.882 76.005C338.322 76.455 337.602 76.68 336.722 76.68ZM336.722 69.945C336.122 69.945 335.587 70.13 335.117 70.5C334.657 70.86 334.392 71.39 334.322 72.09H339.002C338.972 71.42 338.742 70.895 338.312 70.515C337.882 70.135 337.352 69.945 336.722 69.945ZM344.608 76.5C343.928 76.5 343.393 76.335 343.003 76.005C342.613 75.675 342.418 75.08 342.418 74.22V70.125H341.128V69.06H342.418L342.583 67.275H343.678V69.06H345.868V70.125H343.678V74.22C343.678 74.69 343.773 75.01 343.963 75.18C344.153 75.34 344.488 75.42 344.968 75.42H345.748V76.5H344.608ZM351.438 76.5V65.7H352.698V70.335C352.948 69.875 353.303 69.52 353.763 69.27C354.223 69.01 354.723 68.88 355.263 68.88C356.123 68.88 356.813 69.15 357.333 69.69C357.853 70.22 358.113 71.04 358.113 72.15V76.5H356.868V72.285C356.868 70.735 356.243 69.96 354.993 69.96C354.343 69.96 353.798 70.195 353.358 70.665C352.918 71.125 352.698 71.785 352.698 72.645V76.5H351.438ZM363.412 76.68C362.712 76.68 362.082 76.52 361.522 76.2C360.962 75.88 360.517 75.43 360.187 74.85C359.867 74.26 359.707 73.57 359.707 72.78C359.707 71.99 359.872 71.305 360.202 70.725C360.532 70.135 360.977 69.68 361.537 69.36C362.107 69.04 362.742 68.88 363.442 68.88C364.142 68.88 364.772 69.04 365.332 69.36C365.892 69.68 366.332 70.135 366.652 70.725C366.982 71.305 367.147 71.99 367.147 72.78C367.147 73.57 366.982 74.26 366.652 74.85C366.322 75.43 365.872 75.88 365.302 76.2C364.742 76.52 364.112 76.68 363.412 76.68ZM363.412 75.6C363.842 75.6 364.242 75.495 364.612 75.285C364.982 75.075 365.282 74.76 365.512 74.34C365.742 73.92 365.857 73.4 365.857 72.78C365.857 72.16 365.742 71.64 365.512 71.22C365.292 70.8 364.997 70.485 364.627 70.275C364.257 70.065 363.862 69.96 363.442 69.96C363.012 69.96 362.612 70.065 362.242 70.275C361.872 70.485 361.572 70.8 361.342 71.22C361.112 71.64 360.997 72.16 360.997 72.78C360.997 73.4 361.112 73.92 361.342 74.34C361.572 74.76 361.867 75.075 362.227 75.285C362.597 75.495 362.992 75.6 363.412 75.6ZM368.899 76.5V69.06H370.039L370.129 70.14C370.369 69.74 370.689 69.43 371.089 69.21C371.489 68.99 371.939 68.88 372.439 68.88C373.029 68.88 373.534 69 373.954 69.24C374.384 69.48 374.714 69.845 374.944 70.335C375.204 69.885 375.559 69.53 376.009 69.27C376.469 69.01 376.964 68.88 377.494 68.88C378.384 68.88 379.094 69.15 379.624 69.69C380.154 70.22 380.419 71.04 380.419 72.15V76.5H379.174V72.285C379.174 71.515 379.019 70.935 378.709 70.545C378.399 70.155 377.954 69.96 377.374 69.96C376.774 69.96 376.274 70.195 375.874 70.665C375.484 71.125 375.289 71.785 375.289 72.645V76.5H374.029V72.285C374.029 71.515 373.874 70.935 373.564 70.545C373.254 70.155 372.809 69.96 372.229 69.96C371.639 69.96 371.144 70.195 370.744 70.665C370.354 71.125 370.159 71.785 370.159 72.645V76.5H368.899ZM385.662 76.68C384.952 76.68 384.322 76.52 383.772 76.2C383.222 75.87 382.787 75.415 382.467 74.835C382.157 74.255 382.002 73.57 382.002 72.78C382.002 72 382.157 71.32 382.467 70.74C382.777 70.15 383.207 69.695 383.757 69.375C384.317 69.045 384.962 68.88 385.692 68.88C386.412 68.88 387.032 69.045 387.552 69.375C388.082 69.695 388.487 70.12 388.767 70.65C389.047 71.18 389.187 71.75 389.187 72.36C389.187 72.47 389.182 72.58 389.172 72.69C389.172 72.8 389.172 72.925 389.172 73.065H383.247C383.277 73.635 383.407 74.11 383.637 74.49C383.877 74.86 384.172 75.14 384.522 75.33C384.882 75.52 385.262 75.615 385.662 75.615C386.182 75.615 386.617 75.495 386.967 75.255C387.317 75.015 387.572 74.69 387.732 74.28H388.977C388.777 74.97 388.392 75.545 387.822 76.005C387.262 76.455 386.542 76.68 385.662 76.68ZM385.662 69.945C385.062 69.945 384.527 70.13 384.057 70.5C383.597 70.86 383.332 71.39 383.262 72.09H387.942C387.912 71.42 387.682 70.895 387.252 70.515C386.822 70.135 386.292 69.945 385.662 69.945ZM398.247 76.68C397.537 76.68 396.897 76.52 396.327 76.2C395.767 75.87 395.322 75.415 394.992 74.835C394.672 74.245 394.512 73.56 394.512 72.78C394.512 72 394.672 71.32 394.992 70.74C395.322 70.15 395.767 69.695 396.327 69.375C396.897 69.045 397.537 68.88 398.247 68.88C399.127 68.88 399.867 69.11 400.467 69.57C401.077 70.03 401.462 70.645 401.622 71.415H400.332C400.232 70.955 399.987 70.6 399.597 70.35C399.207 70.09 398.752 69.96 398.232 69.96C397.812 69.96 397.417 70.065 397.047 70.275C396.677 70.485 396.377 70.8 396.147 71.22C395.917 71.64 395.802 72.16 395.802 72.78C395.802 73.4 395.917 73.92 396.147 74.34C396.377 74.76 396.677 75.08 397.047 75.3C397.417 75.51 397.812 75.615 398.232 75.615C398.752 75.615 399.207 75.49 399.597 75.24C399.987 74.98 400.232 74.615 400.332 74.145H401.622C401.472 74.895 401.092 75.505 400.482 75.975C399.872 76.445 399.127 76.68 398.247 76.68ZM406.772 76.68C406.072 76.68 405.442 76.52 404.882 76.2C404.322 75.88 403.877 75.43 403.547 74.85C403.227 74.26 403.067 73.57 403.067 72.78C403.067 71.99 403.232 71.305 403.562 70.725C403.892 70.135 404.337 69.68 404.897 69.36C405.467 69.04 406.102 68.88 406.802 68.88C407.502 68.88 408.132 69.04 408.692 69.36C409.252 69.68 409.692 70.135 410.012 70.725C410.342 71.305 410.507 71.99 410.507 72.78C410.507 73.57 410.342 74.26 410.012 74.85C409.682 75.43 409.232 75.88 408.662 76.2C408.102 76.52 407.472 76.68 406.772 76.68ZM406.772 75.6C407.202 75.6 407.602 75.495 407.972 75.285C408.342 75.075 408.642 74.76 408.872 74.34C409.102 73.92 409.217 73.4 409.217 72.78C409.217 72.16 409.102 71.64 408.872 71.22C408.652 70.8 408.357 70.485 407.987 70.275C407.617 70.065 407.222 69.96 406.802 69.96C406.372 69.96 405.972 70.065 405.602 70.275C405.232 70.485 404.932 70.8 404.702 71.22C404.472 71.64 404.357 72.16 404.357 72.78C404.357 73.4 404.472 73.92 404.702 74.34C404.932 74.76 405.227 75.075 405.587 75.285C405.957 75.495 406.352 75.6 406.772 75.6ZM412.259 76.5V65.7H413.519V76.5H412.259ZM415.584 76.5V65.7H416.844V76.5H415.584ZM422.254 76.68C421.544 76.68 420.914 76.52 420.364 76.2C419.814 75.87 419.379 75.415 419.059 74.835C418.749 74.255 418.594 73.57 418.594 72.78C418.594 72 418.749 71.32 419.059 70.74C419.369 70.15 419.799 69.695 420.349 69.375C420.909 69.045 421.554 68.88 422.284 68.88C423.004 68.88 423.624 69.045 424.144 69.375C424.674 69.695 425.079 70.12 425.359 70.65C425.639 71.18 425.779 71.75 425.779 72.36C425.779 72.47 425.774 72.58 425.764 72.69C425.764 72.8 425.764 72.925 425.764 73.065H419.839C419.869 73.635 419.999 74.11 420.229 74.49C420.469 74.86 420.764 75.14 421.114 75.33C421.474 75.52 421.854 75.615 422.254 75.615C422.774 75.615 423.209 75.495 423.559 75.255C423.909 75.015 424.164 74.69 424.324 74.28H425.569C425.369 74.97 424.984 75.545 424.414 76.005C423.854 76.455 423.134 76.68 422.254 76.68ZM422.254 69.945C421.654 69.945 421.119 70.13 420.649 70.5C420.189 70.86 419.924 71.39 419.854 72.09H424.534C424.504 71.42 424.274 70.895 423.844 70.515C423.414 70.135 422.884 69.945 422.254 69.945ZM430.869 76.68C430.159 76.68 429.519 76.52 428.949 76.2C428.389 75.87 427.944 75.415 427.614 74.835C427.294 74.245 427.134 73.56 427.134 72.78C427.134 72 427.294 71.32 427.614 70.74C427.944 70.15 428.389 69.695 428.949 69.375C429.519 69.045 430.159 68.88 430.869 68.88C431.749 68.88 432.489 69.11 433.089 69.57C433.699 70.03 434.084 70.645 434.244 71.415H432.954C432.854 70.955 432.609 70.6 432.219 70.35C431.829 70.09 431.374 69.96 430.854 69.96C430.434 69.96 430.039 70.065 429.669 70.275C429.299 70.485 428.999 70.8 428.769 71.22C428.539 71.64 428.424 72.16 428.424 72.78C428.424 73.4 428.539 73.92 428.769 74.34C428.999 74.76 429.299 75.08 429.669 75.3C430.039 75.51 430.434 75.615 430.854 75.615C431.374 75.615 431.829 75.49 432.219 75.24C432.609 74.98 432.854 74.615 432.954 74.145H434.244C434.094 74.895 433.714 75.505 433.104 75.975C432.494 76.445 431.749 76.68 430.869 76.68ZM438.739 76.5C438.059 76.5 437.524 76.335 437.134 76.005C436.744 75.675 436.549 75.08 436.549 74.22V70.125H435.259V69.06H436.549L436.714 67.275H437.809V69.06H439.999V70.125H437.809V74.22C437.809 74.69 437.904 75.01 438.094 75.18C438.284 75.34 438.619 75.42 439.099 75.42H439.879V76.5H438.739ZM100.885 102.68C99.995 102.68 99.255 102.455 98.665 102.005C98.075 101.555 97.73 100.945 97.63 100.175H98.92C99 100.565 99.205 100.905 99.535 101.195C99.875 101.475 100.33 101.615 100.9 101.615C101.43 101.615 101.82 101.505 102.07 101.285C102.32 101.055 102.445 100.785 102.445 100.475C102.445 100.025 102.28 99.725 101.95 99.575C101.63 99.425 101.175 99.29 100.585 99.17C100.185 99.09 99.785 98.975 99.385 98.825C98.985 98.675 98.65 98.465 98.38 98.195C98.11 97.915 97.975 97.55 97.975 97.1C97.975 96.45 98.215 95.92 98.695 95.51C99.185 95.09 99.845 94.88 100.675 94.88C101.465 94.88 102.11 95.08 102.61 95.48C103.12 95.87 103.415 96.43 103.495 97.16H102.25C102.2 96.78 102.035 96.485 101.755 96.275C101.485 96.055 101.12 95.945 100.66 95.945C100.21 95.945 99.86 96.04 99.61 96.23C99.37 96.42 99.25 96.67 99.25 96.98C99.25 97.28 99.405 97.515 99.715 97.685C100.035 97.855 100.465 98 101.005 98.12C101.465 98.22 101.9 98.345 102.31 98.495C102.73 98.635 103.07 98.85 103.33 99.14C103.6 99.42 103.735 99.83 103.735 100.37C103.745 101.04 103.49 101.595 102.97 102.035C102.46 102.465 101.765 102.68 100.885 102.68ZM108.01 102.68C107.39 102.68 106.875 102.575 106.465 102.365C106.055 102.155 105.75 101.875 105.55 101.525C105.35 101.175 105.25 100.795 105.25 100.385C105.25 99.625 105.54 99.04 106.12 98.63C106.7 98.22 107.49 98.015 108.49 98.015H110.5V97.925C110.5 97.275 110.33 96.785 109.99 96.455C109.65 96.115 109.195 95.945 108.625 95.945C108.135 95.945 107.71 96.07 107.35 96.32C107 96.56 106.78 96.915 106.69 97.385H105.4C105.45 96.845 105.63 96.39 105.94 96.02C106.26 95.65 106.655 95.37 107.125 95.18C107.595 94.98 108.095 94.88 108.625 94.88C109.665 94.88 110.445 95.16 110.965 95.72C111.495 96.27 111.76 97.005 111.76 97.925V102.5H110.635L110.56 101.165C110.35 101.585 110.04 101.945 109.63 102.245C109.23 102.535 108.69 102.68 108.01 102.68ZM108.205 101.615C108.685 101.615 109.095 101.49 109.435 101.24C109.785 100.99 110.05 100.665 110.23 100.265C110.41 99.865 110.5 99.445 110.5 99.005V98.99H108.595C107.855 98.99 107.33 99.12 107.02 99.38C106.72 99.63 106.57 99.945 106.57 100.325C106.57 100.715 106.71 101.03 106.99 101.27C107.28 101.5 107.685 101.615 108.205 101.615ZM113.65 102.5V95.06H114.79L114.88 96.14C115.12 95.74 115.44 95.43 115.84 95.21C116.24 94.99 116.69 94.88 117.19 94.88C117.78 94.88 118.285 95 118.705 95.24C119.135 95.48 119.465 95.845 119.695 96.335C119.955 95.885 120.31 95.53 120.76 95.27C121.22 95.01 121.715 94.88 122.245 94.88C123.135 94.88 123.845 95.15 124.375 95.69C124.905 96.22 125.17 97.04 125.17 98.15V102.5H123.925V98.285C123.925 97.515 123.77 96.935 123.46 96.545C123.15 96.155 122.705 95.96 122.125 95.96C121.525 95.96 121.025 96.195 120.625 96.665C120.235 97.125 120.04 97.785 120.04 98.645V102.5H118.78V98.285C118.78 97.515 118.625 96.935 118.315 96.545C118.005 96.155 117.56 95.96 116.98 95.96C116.39 95.96 115.895 96.195 115.495 96.665C115.105 97.125 114.91 97.785 114.91 98.645V102.5H113.65ZM127.068 105.8V95.06H128.208L128.328 96.29C128.568 95.93 128.908 95.605 129.348 95.315C129.798 95.025 130.368 94.88 131.058 94.88C131.798 94.88 132.443 95.05 132.993 95.39C133.543 95.73 133.968 96.195 134.268 96.785C134.578 97.375 134.733 98.045 134.733 98.795C134.733 99.545 134.578 100.215 134.268 100.805C133.968 101.385 133.538 101.845 132.978 102.185C132.428 102.515 131.783 102.68 131.043 102.68C130.433 102.68 129.888 102.555 129.408 102.305C128.938 102.055 128.578 101.705 128.328 101.255V105.8H127.068ZM130.908 101.585C131.408 101.585 131.848 101.47 132.228 101.24C132.608 101 132.908 100.67 133.128 100.25C133.348 99.83 133.458 99.34 133.458 98.78C133.458 98.22 133.348 97.73 133.128 97.31C132.908 96.89 132.608 96.565 132.228 96.335C131.848 96.095 131.408 95.975 130.908 95.975C130.408 95.975 129.968 96.095 129.588 96.335C129.208 96.565 128.908 96.89 128.688 97.31C128.468 97.73 128.358 98.22 128.358 98.78C128.358 99.34 128.468 99.83 128.688 100.25C128.908 100.67 129.208 101 129.588 101.24C129.968 101.47 130.408 101.585 130.908 101.585ZM136.487 102.5V91.7H137.747V102.5H136.487ZM143.157 102.68C142.447 102.68 141.817 102.52 141.267 102.2C140.717 101.87 140.282 101.415 139.962 100.835C139.652 100.255 139.497 99.57 139.497 98.78C139.497 98 139.652 97.32 139.962 96.74C140.272 96.15 140.702 95.695 141.252 95.375C141.812 95.045 142.457 94.88 143.187 94.88C143.907 94.88 144.527 95.045 145.047 95.375C145.577 95.695 145.982 96.12 146.262 96.65C146.542 97.18 146.682 97.75 146.682 98.36C146.682 98.47 146.677 98.58 146.667 98.69C146.667 98.8 146.667 98.925 146.667 99.065H140.742C140.772 99.635 140.902 100.11 141.132 100.49C141.372 100.86 141.667 101.14 142.017 101.33C142.377 101.52 142.757 101.615 143.157 101.615C143.677 101.615 144.112 101.495 144.462 101.255C144.812 101.015 145.067 100.69 145.227 100.28H146.472C146.272 100.97 145.887 101.545 145.317 102.005C144.757 102.455 144.037 102.68 143.157 102.68ZM143.157 95.945C142.557 95.945 142.022 96.13 141.552 96.5C141.092 96.86 140.827 97.39 140.757 98.09H145.437C145.407 97.42 145.177 96.895 144.747 96.515C144.317 96.135 143.787 95.945 143.157 95.945ZM152.727 102.5V96.125H151.602V95.06H152.727V93.77C152.727 93.05 152.907 92.525 153.267 92.195C153.627 91.865 154.152 91.7 154.842 91.7H155.592V92.78H155.037C154.657 92.78 154.387 92.86 154.227 93.02C154.067 93.17 153.987 93.43 153.987 93.8V95.06H155.817V96.125H153.987V102.5H152.727ZM157.317 102.5V95.06H158.457L158.562 96.485C158.792 95.995 159.142 95.605 159.612 95.315C160.082 95.025 160.662 94.88 161.352 94.88V96.2H161.007C160.567 96.2 160.162 96.28 159.792 96.44C159.422 96.59 159.127 96.85 158.907 97.22C158.687 97.59 158.577 98.1 158.577 98.75V102.5H157.317ZM165.878 102.68C165.178 102.68 164.548 102.52 163.988 102.2C163.428 101.88 162.983 101.43 162.653 100.85C162.333 100.26 162.173 99.57 162.173 98.78C162.173 97.99 162.338 97.305 162.668 96.725C162.998 96.135 163.443 95.68 164.003 95.36C164.573 95.04 165.208 94.88 165.908 94.88C166.608 94.88 167.238 95.04 167.798 95.36C168.358 95.68 168.798 96.135 169.118 96.725C169.448 97.305 169.613 97.99 169.613 98.78C169.613 99.57 169.448 100.26 169.118 100.85C168.788 101.43 168.338 101.88 167.768 102.2C167.208 102.52 166.578 102.68 165.878 102.68ZM165.878 101.6C166.308 101.6 166.708 101.495 167.078 101.285C167.448 101.075 167.748 100.76 167.978 100.34C168.208 99.92 168.323 99.4 168.323 98.78C168.323 98.16 168.208 97.64 167.978 97.22C167.758 96.8 167.463 96.485 167.093 96.275C166.723 96.065 166.328 95.96 165.908 95.96C165.478 95.96 165.078 96.065 164.708 96.275C164.338 96.485 164.038 96.8 163.808 97.22C163.578 97.64 163.463 98.16 163.463 98.78C163.463 99.4 163.578 99.92 163.808 100.34C164.038 100.76 164.333 101.075 164.693 101.285C165.063 101.495 165.458 101.6 165.878 101.6ZM171.365 102.5V95.06H172.505L172.595 96.14C172.835 95.74 173.155 95.43 173.555 95.21C173.955 94.99 174.405 94.88 174.905 94.88C175.495 94.88 176 95 176.42 95.24C176.85 95.48 177.18 95.845 177.41 96.335C177.67 95.885 178.025 95.53 178.475 95.27C178.935 95.01 179.43 94.88 179.96 94.88C180.85 94.88 181.56 95.15 182.09 95.69C182.62 96.22 182.885 97.04 182.885 98.15V102.5H181.64V98.285C181.64 97.515 181.485 96.935 181.175 96.545C180.865 96.155 180.42 95.96 179.84 95.96C179.24 95.96 178.74 96.195 178.34 96.665C177.95 97.125 177.755 97.785 177.755 98.645V102.5H176.495V98.285C176.495 97.515 176.34 96.935 176.03 96.545C175.72 96.155 175.275 95.96 174.695 95.96C174.105 95.96 173.61 96.195 173.21 96.665C172.82 97.125 172.625 97.785 172.625 98.645V102.5H171.365ZM191.693 102.5C191.013 102.5 190.478 102.335 190.088 102.005C189.698 101.675 189.503 101.08 189.503 100.22V96.125H188.213V95.06H189.503L189.668 93.275H190.763V95.06H192.953V96.125H190.763V100.22C190.763 100.69 190.858 101.01 191.048 101.18C191.238 101.34 191.573 101.42 192.053 101.42H192.833V102.5H191.693ZM194.554 102.5V91.7H195.814V96.335C196.064 95.875 196.419 95.52 196.879 95.27C197.339 95.01 197.839 94.88 198.379 94.88C199.239 94.88 199.929 95.15 200.449 95.69C200.969 96.22 201.229 97.04 201.229 98.15V102.5H199.984V98.285C199.984 96.735 199.359 95.96 198.109 95.96C197.459 95.96 196.914 96.195 196.474 96.665C196.034 97.125 195.814 97.785 195.814 98.645V102.5H194.554ZM206.483 102.68C205.773 102.68 205.143 102.52 204.593 102.2C204.043 101.87 203.608 101.415 203.288 100.835C202.978 100.255 202.823 99.57 202.823 98.78C202.823 98 202.978 97.32 203.288 96.74C203.598 96.15 204.028 95.695 204.578 95.375C205.138 95.045 205.783 94.88 206.513 94.88C207.233 94.88 207.853 95.045 208.373 95.375C208.903 95.695 209.308 96.12 209.588 96.65C209.868 97.18 210.008 97.75 210.008 98.36C210.008 98.47 210.003 98.58 209.993 98.69C209.993 98.8 209.993 98.925 209.993 99.065H204.068C204.098 99.635 204.228 100.11 204.458 100.49C204.698 100.86 204.993 101.14 205.343 101.33C205.703 101.52 206.083 101.615 206.483 101.615C207.003 101.615 207.438 101.495 207.788 101.255C208.138 101.015 208.393 100.69 208.553 100.28H209.798C209.598 100.97 209.213 101.545 208.643 102.005C208.083 102.455 207.363 102.68 206.483 102.68ZM206.483 95.945C205.883 95.945 205.348 96.13 204.878 96.5C204.418 96.86 204.153 97.39 204.083 98.09H208.763C208.733 97.42 208.503 96.895 208.073 96.515C207.643 96.135 207.113 95.945 206.483 95.945ZM217.792 102.5L214.972 95.06H216.292L218.527 101.285L220.777 95.06H222.067L219.247 102.5H217.792ZM224.235 93.41C223.985 93.41 223.775 93.33 223.605 93.17C223.445 93 223.365 92.79 223.365 92.54C223.365 92.3 223.445 92.1 223.605 91.94C223.775 91.78 223.985 91.7 224.235 91.7C224.475 91.7 224.68 91.78 224.85 91.94C225.02 92.1 225.105 92.3 225.105 92.54C225.105 92.79 225.02 93 224.85 93.17C224.68 93.33 224.475 93.41 224.235 93.41ZM223.605 102.5V95.06H224.865V102.5H223.605ZM230.478 102.68C229.768 102.68 229.128 102.52 228.558 102.2C227.998 101.87 227.553 101.415 227.223 100.835C226.903 100.245 226.743 99.56 226.743 98.78C226.743 98 226.903 97.32 227.223 96.74C227.553 96.15 227.998 95.695 228.558 95.375C229.128 95.045 229.768 94.88 230.478 94.88C231.358 94.88 232.098 95.11 232.698 95.57C233.308 96.03 233.693 96.645 233.853 97.415H232.563C232.463 96.955 232.218 96.6 231.828 96.35C231.438 96.09 230.983 95.96 230.463 95.96C230.043 95.96 229.648 96.065 229.278 96.275C228.908 96.485 228.608 96.8 228.378 97.22C228.148 97.64 228.033 98.16 228.033 98.78C228.033 99.4 228.148 99.92 228.378 100.34C228.608 100.76 228.908 101.08 229.278 101.3C229.648 101.51 230.043 101.615 230.463 101.615C230.983 101.615 231.438 101.49 231.828 101.24C232.218 100.98 232.463 100.615 232.563 100.145H233.853C233.703 100.895 233.323 101.505 232.713 101.975C232.103 102.445 231.358 102.68 230.478 102.68ZM238.348 102.5C237.668 102.5 237.133 102.335 236.743 102.005C236.353 101.675 236.158 101.08 236.158 100.22V96.125H234.868V95.06H236.158L236.323 93.275H237.418V95.06H239.608V96.125H237.418V100.22C237.418 100.69 237.513 101.01 237.703 101.18C237.893 101.34 238.228 101.42 238.708 101.42H239.488V102.5H238.348ZM244.394 102.68C243.694 102.68 243.064 102.52 242.504 102.2C241.944 101.88 241.499 101.43 241.169 100.85C240.849 100.26 240.689 99.57 240.689 98.78C240.689 97.99 240.854 97.305 241.184 96.725C241.514 96.135 241.959 95.68 242.519 95.36C243.089 95.04 243.724 94.88 244.424 94.88C245.124 94.88 245.754 95.04 246.314 95.36C246.874 95.68 247.314 96.135 247.634 96.725C247.964 97.305 248.129 97.99 248.129 98.78C248.129 99.57 247.964 100.26 247.634 100.85C247.304 101.43 246.854 101.88 246.284 102.2C245.724 102.52 245.094 102.68 244.394 102.68ZM244.394 101.6C244.824 101.6 245.224 101.495 245.594 101.285C245.964 101.075 246.264 100.76 246.494 100.34C246.724 99.92 246.839 99.4 246.839 98.78C246.839 98.16 246.724 97.64 246.494 97.22C246.274 96.8 245.979 96.485 245.609 96.275C245.239 96.065 244.844 95.96 244.424 95.96C243.994 95.96 243.594 96.065 243.224 96.275C242.854 96.485 242.554 96.8 242.324 97.22C242.094 97.64 241.979 98.16 241.979 98.78C241.979 99.4 242.094 99.92 242.324 100.34C242.554 100.76 242.849 101.075 243.209 101.285C243.579 101.495 243.974 101.6 244.394 101.6ZM249.881 102.5V95.06H251.021L251.126 96.485C251.356 95.995 251.706 95.605 252.176 95.315C252.646 95.025 253.226 94.88 253.916 94.88V96.2H253.571C253.131 96.2 252.726 96.28 252.356 96.44C251.986 96.59 251.691 96.85 251.471 97.22C251.251 97.59 251.141 98.1 251.141 98.75V102.5H249.881ZM256.14 105.8L257.985 101.78H257.55L254.595 95.06H255.96L258.42 100.85L261.03 95.06H262.335L257.46 105.8H256.14ZM271.025 102.68C270.325 102.68 269.695 102.52 269.135 102.2C268.575 101.88 268.13 101.43 267.8 100.85C267.48 100.26 267.32 99.57 267.32 98.78C267.32 97.99 267.485 97.305 267.815 96.725C268.145 96.135 268.59 95.68 269.15 95.36C269.72 95.04 270.355 94.88 271.055 94.88C271.755 94.88 272.385 95.04 272.945 95.36C273.505 95.68 273.945 96.135 274.265 96.725C274.595 97.305 274.76 97.99 274.76 98.78C274.76 99.57 274.595 100.26 274.265 100.85C273.935 101.43 273.485 101.88 272.915 102.2C272.355 102.52 271.725 102.68 271.025 102.68ZM271.025 101.6C271.455 101.6 271.855 101.495 272.225 101.285C272.595 101.075 272.895 100.76 273.125 100.34C273.355 99.92 273.47 99.4 273.47 98.78C273.47 98.16 273.355 97.64 273.125 97.22C272.905 96.8 272.61 96.485 272.24 96.275C271.87 96.065 271.475 95.96 271.055 95.96C270.625 95.96 270.225 96.065 269.855 96.275C269.485 96.485 269.185 96.8 268.955 97.22C268.725 97.64 268.61 98.16 268.61 98.78C268.61 99.4 268.725 99.92 268.955 100.34C269.185 100.76 269.48 101.075 269.84 101.285C270.21 101.495 270.605 101.6 271.025 101.6ZM276.917 102.5V96.125H275.792V95.06H276.917V93.77C276.917 93.05 277.097 92.525 277.457 92.195C277.817 91.865 278.342 91.7 279.032 91.7H279.782V92.78H279.227C278.847 92.78 278.577 92.86 278.417 93.02C278.257 93.17 278.177 93.43 278.177 93.8V95.06H280.007V96.125H278.177V102.5H276.917ZM288.416 102.5C287.736 102.5 287.201 102.335 286.811 102.005C286.421 101.675 286.226 101.08 286.226 100.22V96.125H284.936V95.06H286.226L286.391 93.275H287.486V95.06H289.676V96.125H287.486V100.22C287.486 100.69 287.581 101.01 287.771 101.18C287.961 101.34 288.296 101.42 288.776 101.42H289.556V102.5H288.416ZM291.277 102.5V91.7H292.537V96.335C292.787 95.875 293.142 95.52 293.602 95.27C294.062 95.01 294.562 94.88 295.102 94.88C295.962 94.88 296.652 95.15 297.172 95.69C297.692 96.22 297.952 97.04 297.952 98.15V102.5H296.707V98.285C296.707 96.735 296.082 95.96 294.832 95.96C294.182 95.96 293.637 96.195 293.197 96.665C292.757 97.125 292.537 97.785 292.537 98.645V102.5H291.277ZM303.206 102.68C302.496 102.68 301.866 102.52 301.316 102.2C300.766 101.87 300.331 101.415 300.011 100.835C299.701 100.255 299.546 99.57 299.546 98.78C299.546 98 299.701 97.32 300.011 96.74C300.321 96.15 300.751 95.695 301.301 95.375C301.861 95.045 302.506 94.88 303.236 94.88C303.956 94.88 304.576 95.045 305.096 95.375C305.626 95.695 306.031 96.12 306.311 96.65C306.591 97.18 306.731 97.75 306.731 98.36C306.731 98.47 306.726 98.58 306.716 98.69C306.716 98.8 306.716 98.925 306.716 99.065H300.791C300.821 99.635 300.951 100.11 301.181 100.49C301.421 100.86 301.716 101.14 302.066 101.33C302.426 101.52 302.806 101.615 303.206 101.615C303.726 101.615 304.161 101.495 304.511 101.255C304.861 101.015 305.116 100.69 305.276 100.28H306.521C306.321 100.97 305.936 101.545 305.366 102.005C304.806 102.455 304.086 102.68 303.206 102.68ZM303.206 95.945C302.606 95.945 302.071 96.13 301.601 96.5C301.141 96.86 300.876 97.39 300.806 98.09H305.486C305.456 97.42 305.226 96.895 304.796 96.515C304.366 96.135 303.836 95.945 303.206 95.945ZM312.371 102.5V95.06H313.511L313.601 96.14C313.841 95.74 314.161 95.43 314.561 95.21C314.961 94.99 315.411 94.88 315.911 94.88C316.501 94.88 317.006 95 317.426 95.24C317.856 95.48 318.186 95.845 318.416 96.335C318.676 95.885 319.031 95.53 319.481 95.27C319.941 95.01 320.436 94.88 320.966 94.88C321.856 94.88 322.566 95.15 323.096 95.69C323.626 96.22 323.891 97.04 323.891 98.15V102.5H322.646V98.285C322.646 97.515 322.491 96.935 322.181 96.545C321.871 96.155 321.426 95.96 320.846 95.96C320.246 95.96 319.746 96.195 319.346 96.665C318.956 97.125 318.761 97.785 318.761 98.645V102.5H317.501V98.285C317.501 97.515 317.346 96.935 317.036 96.545C316.726 96.155 316.281 95.96 315.701 95.96C315.111 95.96 314.616 96.195 314.216 96.665C313.826 97.125 313.631 97.785 313.631 98.645V102.5H312.371ZM328.264 102.68C327.644 102.68 327.129 102.575 326.719 102.365C326.309 102.155 326.004 101.875 325.804 101.525C325.604 101.175 325.504 100.795 325.504 100.385C325.504 99.625 325.794 99.04 326.374 98.63C326.954 98.22 327.744 98.015 328.744 98.015H330.754V97.925C330.754 97.275 330.584 96.785 330.244 96.455C329.904 96.115 329.449 95.945 328.879 95.945C328.389 95.945 327.964 96.07 327.604 96.32C327.254 96.56 327.034 96.915 326.944 97.385H325.654C325.704 96.845 325.884 96.39 326.194 96.02C326.514 95.65 326.909 95.37 327.379 95.18C327.849 94.98 328.349 94.88 328.879 94.88C329.919 94.88 330.699 95.16 331.219 95.72C331.749 96.27 332.014 97.005 332.014 97.925V102.5H330.889L330.814 101.165C330.604 101.585 330.294 101.945 329.884 102.245C329.484 102.535 328.944 102.68 328.264 102.68ZM328.459 101.615C328.939 101.615 329.349 101.49 329.689 101.24C330.039 100.99 330.304 100.665 330.484 100.265C330.664 99.865 330.754 99.445 330.754 99.005V98.99H328.849C328.109 98.99 327.584 99.12 327.274 99.38C326.974 99.63 326.824 99.945 326.824 100.325C326.824 100.715 326.964 101.03 327.244 101.27C327.534 101.5 327.939 101.615 328.459 101.615ZM333.904 102.5V95.06H335.044L335.119 96.395C335.359 95.925 335.704 95.555 336.154 95.285C336.604 95.015 337.114 94.88 337.684 94.88C338.564 94.88 339.264 95.15 339.784 95.69C340.314 96.22 340.579 97.04 340.579 98.15V102.5H339.319V98.285C339.319 96.735 338.679 95.96 337.399 95.96C336.759 95.96 336.224 96.195 335.794 96.665C335.374 97.125 335.164 97.785 335.164 98.645V102.5H333.904ZM344.963 102.68C344.343 102.68 343.828 102.575 343.418 102.365C343.008 102.155 342.703 101.875 342.503 101.525C342.303 101.175 342.203 100.795 342.203 100.385C342.203 99.625 342.493 99.04 343.073 98.63C343.653 98.22 344.443 98.015 345.443 98.015H347.453V97.925C347.453 97.275 347.283 96.785 346.943 96.455C346.603 96.115 346.148 95.945 345.578 95.945C345.088 95.945 344.663 96.07 344.303 96.32C343.953 96.56 343.733 96.915 343.643 97.385H342.353C342.403 96.845 342.583 96.39 342.893 96.02C343.213 95.65 343.608 95.37 344.078 95.18C344.548 94.98 345.048 94.88 345.578 94.88C346.618 94.88 347.398 95.16 347.918 95.72C348.448 96.27 348.713 97.005 348.713 97.925V102.5H347.588L347.513 101.165C347.303 101.585 346.993 101.945 346.583 102.245C346.183 102.535 345.643 102.68 344.963 102.68ZM345.158 101.615C345.638 101.615 346.048 101.49 346.388 101.24C346.738 100.99 347.003 100.665 347.183 100.265C347.363 99.865 347.453 99.445 347.453 99.005V98.99H345.548C344.808 98.99 344.283 99.12 343.973 99.38C343.673 99.63 343.523 99.945 343.523 100.325C343.523 100.715 343.663 101.03 343.943 101.27C344.233 101.5 344.638 101.615 345.158 101.615ZM353.543 100.16C353.123 100.16 352.738 100.105 352.388 99.995L351.638 100.7C351.748 100.78 351.883 100.85 352.043 100.91C352.213 100.96 352.453 101.01 352.763 101.06C353.073 101.1 353.508 101.145 354.068 101.195C355.068 101.265 355.783 101.495 356.213 101.885C356.643 102.275 356.858 102.785 356.858 103.415C356.858 103.845 356.738 104.255 356.498 104.645C356.268 105.035 355.908 105.355 355.418 105.605C354.938 105.855 354.318 105.98 353.558 105.98C352.888 105.98 352.293 105.89 351.773 105.71C351.253 105.54 350.848 105.275 350.558 104.915C350.268 104.565 350.123 104.12 350.123 103.58C350.123 103.3 350.198 102.995 350.348 102.665C350.498 102.345 350.778 102.04 351.188 101.75C350.968 101.66 350.778 101.565 350.618 101.465C350.468 101.355 350.328 101.235 350.198 101.105V100.76L351.473 99.5C350.883 99 350.588 98.34 350.588 97.52C350.588 97.03 350.703 96.585 350.933 96.185C351.163 95.785 351.498 95.47 351.938 95.24C352.378 95 352.913 94.88 353.543 94.88C353.973 94.88 354.363 94.94 354.713 95.06H357.458V96.005L356.063 96.065C356.353 96.485 356.498 96.97 356.498 97.52C356.498 98.01 356.378 98.455 356.138 98.855C355.908 99.255 355.573 99.575 355.133 99.815C354.703 100.045 354.173 100.16 353.543 100.16ZM353.543 99.125C354.073 99.125 354.493 98.99 354.803 98.72C355.123 98.44 355.283 98.04 355.283 97.52C355.283 97.01 355.123 96.62 354.803 96.35C354.493 96.07 354.073 95.93 353.543 95.93C353.003 95.93 352.573 96.07 352.253 96.35C351.943 96.62 351.788 97.01 351.788 97.52C351.788 98.04 351.943 98.44 352.253 98.72C352.573 98.99 353.003 99.125 353.543 99.125ZM351.353 103.46C351.353 103.96 351.563 104.33 351.983 104.57C352.403 104.82 352.928 104.945 353.558 104.945C354.178 104.945 354.673 104.81 355.043 104.54C355.423 104.27 355.613 103.91 355.613 103.46C355.613 103.14 355.483 102.86 355.223 102.62C354.963 102.39 354.483 102.255 353.783 102.215C353.233 102.175 352.758 102.125 352.358 102.065C351.948 102.285 351.678 102.52 351.548 102.77C351.418 103.03 351.353 103.26 351.353 103.46ZM358.88 102.5V95.06H360.02L360.11 96.14C360.35 95.74 360.67 95.43 361.07 95.21C361.47 94.99 361.92 94.88 362.42 94.88C363.01 94.88 363.515 95 363.935 95.24C364.365 95.48 364.695 95.845 364.925 96.335C365.185 95.885 365.54 95.53 365.99 95.27C366.45 95.01 366.945 94.88 367.475 94.88C368.365 94.88 369.075 95.15 369.605 95.69C370.135 96.22 370.4 97.04 370.4 98.15V102.5H369.155V98.285C369.155 97.515 369 96.935 368.69 96.545C368.38 96.155 367.935 95.96 367.355 95.96C366.755 95.96 366.255 96.195 365.855 96.665C365.465 97.125 365.27 97.785 365.27 98.645V102.5H364.01V98.285C364.01 97.515 363.855 96.935 363.545 96.545C363.235 96.155 362.79 95.96 362.21 95.96C361.62 95.96 361.125 96.195 360.725 96.665C360.335 97.125 360.14 97.785 360.14 98.645V102.5H358.88ZM375.643 102.68C374.933 102.68 374.303 102.52 373.753 102.2C373.203 101.87 372.768 101.415 372.448 100.835C372.138 100.255 371.983 99.57 371.983 98.78C371.983 98 372.138 97.32 372.448 96.74C372.758 96.15 373.188 95.695 373.738 95.375C374.298 95.045 374.943 94.88 375.673 94.88C376.393 94.88 377.013 95.045 377.533 95.375C378.063 95.695 378.468 96.12 378.748 96.65C379.028 97.18 379.168 97.75 379.168 98.36C379.168 98.47 379.163 98.58 379.153 98.69C379.153 98.8 379.153 98.925 379.153 99.065H373.228C373.258 99.635 373.388 100.11 373.618 100.49C373.858 100.86 374.153 101.14 374.503 101.33C374.863 101.52 375.243 101.615 375.643 101.615C376.163 101.615 376.598 101.495 376.948 101.255C377.298 101.015 377.553 100.69 377.713 100.28H378.958C378.758 100.97 378.373 101.545 377.803 102.005C377.243 102.455 376.523 102.68 375.643 102.68ZM375.643 95.945C375.043 95.945 374.508 96.13 374.038 96.5C373.578 96.86 373.313 97.39 373.243 98.09H377.923C377.893 97.42 377.663 96.895 377.233 96.515C376.803 96.135 376.273 95.945 375.643 95.945ZM380.838 102.5V95.06H381.978L382.053 96.395C382.293 95.925 382.638 95.555 383.088 95.285C383.538 95.015 384.048 94.88 384.618 94.88C385.498 94.88 386.198 95.15 386.718 95.69C387.248 96.22 387.513 97.04 387.513 98.15V102.5H386.253V98.285C386.253 96.735 385.613 95.96 384.333 95.96C383.693 95.96 383.158 96.195 382.728 96.665C382.308 97.125 382.098 97.785 382.098 98.645V102.5H380.838ZM392.362 102.5C391.682 102.5 391.147 102.335 390.757 102.005C390.367 101.675 390.172 101.08 390.172 100.22V96.125H388.882V95.06H390.172L390.337 93.275H391.432V95.06H393.622V96.125H391.432V100.22C391.432 100.69 391.527 101.01 391.717 101.18C391.907 101.34 392.242 101.42 392.722 101.42H393.502V102.5H392.362ZM398.073 102.68C397.183 102.68 396.443 102.455 395.853 102.005C395.263 101.555 394.918 100.945 394.818 100.175H396.108C396.188 100.565 396.393 100.905 396.723 101.195C397.063 101.475 397.518 101.615 398.088 101.615C398.618 101.615 399.008 101.505 399.258 101.285C399.508 101.055 399.633 100.785 399.633 100.475C399.633 100.025 399.468 99.725 399.138 99.575C398.818 99.425 398.363 99.29 397.773 99.17C397.373 99.09 396.973 98.975 396.573 98.825C396.173 98.675 395.838 98.465 395.568 98.195C395.298 97.915 395.163 97.55 395.163 97.1C395.163 96.45 395.403 95.92 395.883 95.51C396.373 95.09 397.033 94.88 397.863 94.88C398.653 94.88 399.298 95.08 399.798 95.48C400.308 95.87 400.603 96.43 400.683 97.16H399.438C399.388 96.78 399.223 96.485 398.943 96.275C398.673 96.055 398.308 95.945 397.848 95.945C397.398 95.945 397.048 96.04 396.798 96.23C396.558 96.42 396.438 96.67 396.438 96.98C396.438 97.28 396.593 97.515 396.903 97.685C397.223 97.855 397.653 98 398.193 98.12C398.653 98.22 399.088 98.345 399.498 98.495C399.918 98.635 400.258 98.85 400.518 99.14C400.788 99.42 400.923 99.83 400.923 100.37C400.933 101.04 400.678 101.595 400.158 102.035C399.648 102.465 398.953 102.68 398.073 102.68ZM403.158 102.575C402.908 102.575 402.698 102.495 402.528 102.335C402.368 102.165 402.288 101.96 402.288 101.72C402.288 101.48 402.368 101.28 402.528 101.12C402.698 100.95 402.908 100.865 403.158 100.865C403.398 100.865 403.598 100.95 403.758 101.12C403.928 101.28 404.013 101.48 404.013 101.72C404.013 101.96 403.928 102.165 403.758 102.335C403.598 102.495 403.398 102.575 403.158 102.575ZM98.845 132.8L100.69 128.78H100.255L97.3 122.06H98.665L101.125 127.85L103.735 122.06H105.04L100.165 132.8H98.845ZM109.057 129.68C108.357 129.68 107.727 129.52 107.167 129.2C106.607 128.88 106.162 128.43 105.832 127.85C105.512 127.26 105.352 126.57 105.352 125.78C105.352 124.99 105.517 124.305 105.847 123.725C106.177 123.135 106.622 122.68 107.182 122.36C107.752 122.04 108.387 121.88 109.087 121.88C109.787 121.88 110.417 122.04 110.977 122.36C111.537 122.68 111.977 123.135 112.297 123.725C112.627 124.305 112.792 124.99 112.792 125.78C112.792 126.57 112.627 127.26 112.297 127.85C111.967 128.43 111.517 128.88 110.947 129.2C110.387 129.52 109.757 129.68 109.057 129.68ZM109.057 128.6C109.487 128.6 109.887 128.495 110.257 128.285C110.627 128.075 110.927 127.76 111.157 127.34C111.387 126.92 111.502 126.4 111.502 125.78C111.502 125.16 111.387 124.64 111.157 124.22C110.937 123.8 110.642 123.485 110.272 123.275C109.902 123.065 109.507 122.96 109.087 122.96C108.657 122.96 108.257 123.065 107.887 123.275C107.517 123.485 107.217 123.8 106.987 124.22C106.757 124.64 106.642 125.16 106.642 125.78C106.642 126.4 106.757 126.92 106.987 127.34C107.217 127.76 107.512 128.075 107.872 128.285C108.242 128.495 108.637 128.6 109.057 128.6ZM121.054 122.06V129.5H119.914L119.839 128.165C119.599 128.635 119.254 129.005 118.804 129.275C118.354 129.545 117.844 129.68 117.274 129.68C116.394 129.68 115.689 129.415 115.159 128.885C114.639 128.345 114.379 127.52 114.379 126.41V122.06H115.639V126.275C115.639 127.825 116.279 128.6 117.559 128.6C118.199 128.6 118.729 128.37 119.149 127.91C119.579 127.44 119.794 126.775 119.794 125.915V122.06H121.054ZM123.128 129.5V122.06H124.268L124.373 123.485C124.603 122.995 124.953 122.605 125.423 122.315C125.893 122.025 126.473 121.88 127.163 121.88V123.2H126.818C126.378 123.2 125.973 123.28 125.603 123.44C125.233 123.59 124.938 123.85 124.718 124.22C124.498 124.59 124.388 125.1 124.388 125.75V129.5H123.128ZM136.522 129.68C135.912 129.68 135.367 129.555 134.887 129.305C134.417 129.055 134.057 128.705 133.807 128.255L133.687 129.5H132.547V118.7H133.807V123.29C134.047 122.93 134.387 122.605 134.827 122.315C135.277 122.025 135.847 121.88 136.537 121.88C137.277 121.88 137.922 122.05 138.472 122.39C139.022 122.73 139.447 123.195 139.747 123.785C140.057 124.375 140.212 125.045 140.212 125.795C140.212 126.545 140.057 127.215 139.747 127.805C139.447 128.385 139.017 128.845 138.457 129.185C137.907 129.515 137.262 129.68 136.522 129.68ZM136.387 128.585C136.887 128.585 137.327 128.47 137.707 128.24C138.087 128 138.387 127.67 138.607 127.25C138.827 126.83 138.937 126.34 138.937 125.78C138.937 125.22 138.827 124.73 138.607 124.31C138.387 123.89 138.087 123.565 137.707 123.335C137.327 123.095 136.887 122.975 136.387 122.975C135.887 122.975 135.447 123.095 135.067 123.335C134.687 123.565 134.387 123.89 134.167 124.31C133.947 124.73 133.837 125.22 133.837 125.78C133.837 126.34 133.947 126.83 134.167 127.25C134.387 127.67 134.687 128 135.067 128.24C135.447 128.47 135.887 128.585 136.387 128.585ZM141.966 129.5V118.7H143.226V129.5H141.966ZM148.681 129.68C147.981 129.68 147.351 129.52 146.791 129.2C146.231 128.88 145.786 128.43 145.456 127.85C145.136 127.26 144.976 126.57 144.976 125.78C144.976 124.99 145.141 124.305 145.471 123.725C145.801 123.135 146.246 122.68 146.806 122.36C147.376 122.04 148.011 121.88 148.711 121.88C149.411 121.88 150.041 122.04 150.601 122.36C151.161 122.68 151.601 123.135 151.921 123.725C152.251 124.305 152.416 124.99 152.416 125.78C152.416 126.57 152.251 127.26 151.921 127.85C151.591 128.43 151.141 128.88 150.571 129.2C150.011 129.52 149.381 129.68 148.681 129.68ZM148.681 128.6C149.111 128.6 149.511 128.495 149.881 128.285C150.251 128.075 150.551 127.76 150.781 127.34C151.011 126.92 151.126 126.4 151.126 125.78C151.126 125.16 151.011 124.64 150.781 124.22C150.561 123.8 150.266 123.485 149.896 123.275C149.526 123.065 149.131 122.96 148.711 122.96C148.281 122.96 147.881 123.065 147.511 123.275C147.141 123.485 146.841 123.8 146.611 124.22C146.381 124.64 146.266 125.16 146.266 125.78C146.266 126.4 146.381 126.92 146.611 127.34C146.841 127.76 147.136 128.075 147.496 128.285C147.866 128.495 148.261 128.6 148.681 128.6ZM157.558 129.68C156.858 129.68 156.228 129.52 155.668 129.2C155.108 128.88 154.663 128.43 154.333 127.85C154.013 127.26 153.853 126.57 153.853 125.78C153.853 124.99 154.018 124.305 154.348 123.725C154.678 123.135 155.123 122.68 155.683 122.36C156.253 122.04 156.888 121.88 157.588 121.88C158.288 121.88 158.918 122.04 159.478 122.36C160.038 122.68 160.478 123.135 160.798 123.725C161.128 124.305 161.293 124.99 161.293 125.78C161.293 126.57 161.128 127.26 160.798 127.85C160.468 128.43 160.018 128.88 159.448 129.2C158.888 129.52 158.258 129.68 157.558 129.68ZM157.558 128.6C157.988 128.6 158.388 128.495 158.758 128.285C159.128 128.075 159.428 127.76 159.658 127.34C159.888 126.92 160.003 126.4 160.003 125.78C160.003 125.16 159.888 124.64 159.658 124.22C159.438 123.8 159.143 123.485 158.773 123.275C158.403 123.065 158.008 122.96 157.588 122.96C157.158 122.96 156.758 123.065 156.388 123.275C156.018 123.485 155.718 123.8 155.488 124.22C155.258 124.64 155.143 125.16 155.143 125.78C155.143 126.4 155.258 126.92 155.488 127.34C155.718 127.76 156.013 128.075 156.373 128.285C156.743 128.495 157.138 128.6 157.558 128.6ZM166.42 129.68C165.68 129.68 165.03 129.51 164.47 129.17C163.92 128.83 163.49 128.365 163.18 127.775C162.88 127.185 162.73 126.515 162.73 125.765C162.73 125.015 162.885 124.35 163.195 123.77C163.505 123.18 163.935 122.72 164.485 122.39C165.035 122.05 165.685 121.88 166.435 121.88C167.045 121.88 167.585 122.005 168.055 122.255C168.525 122.505 168.89 122.855 169.15 123.305V118.7H170.41V129.5H169.27L169.15 128.27C168.91 128.63 168.565 128.955 168.115 129.245C167.665 129.535 167.1 129.68 166.42 129.68ZM166.555 128.585C167.055 128.585 167.495 128.47 167.875 128.24C168.265 128 168.565 127.67 168.775 127.25C168.995 126.83 169.105 126.34 169.105 125.78C169.105 125.22 168.995 124.73 168.775 124.31C168.565 123.89 168.265 123.565 167.875 123.335C167.495 123.095 167.055 122.975 166.555 122.975C166.065 122.975 165.625 123.095 165.235 123.335C164.855 123.565 164.555 123.89 164.335 124.31C164.125 124.73 164.02 125.22 164.02 125.78C164.02 126.34 164.125 126.83 164.335 127.25C164.555 127.67 164.855 128 165.235 128.24C165.625 128.47 166.065 128.585 166.555 128.585ZM179.373 129.5C178.693 129.5 178.158 129.335 177.768 129.005C177.378 128.675 177.183 128.08 177.183 127.22V123.125H175.893V122.06H177.183L177.348 120.275H178.443V122.06H180.633V123.125H178.443V127.22C178.443 127.69 178.538 128.01 178.728 128.18C178.918 128.34 179.253 128.42 179.733 128.42H180.513V129.5H179.373ZM185.374 129.68C184.664 129.68 184.034 129.52 183.484 129.2C182.934 128.87 182.499 128.415 182.179 127.835C181.869 127.255 181.714 126.57 181.714 125.78C181.714 125 181.869 124.32 182.179 123.74C182.489 123.15 182.919 122.695 183.469 122.375C184.029 122.045 184.674 121.88 185.404 121.88C186.124 121.88 186.744 122.045 187.264 122.375C187.794 122.695 188.199 123.12 188.479 123.65C188.759 124.18 188.899 124.75 188.899 125.36C188.899 125.47 188.894 125.58 188.884 125.69C188.884 125.8 188.884 125.925 188.884 126.065H182.959C182.989 126.635 183.119 127.11 183.349 127.49C183.589 127.86 183.884 128.14 184.234 128.33C184.594 128.52 184.974 128.615 185.374 128.615C185.894 128.615 186.329 128.495 186.679 128.255C187.029 128.015 187.284 127.69 187.444 127.28H188.689C188.489 127.97 188.104 128.545 187.534 129.005C186.974 129.455 186.254 129.68 185.374 129.68ZM185.374 122.945C184.774 122.945 184.239 123.13 183.769 123.5C183.309 123.86 183.044 124.39 182.974 125.09H187.654C187.624 124.42 187.394 123.895 186.964 123.515C186.534 123.135 186.004 122.945 185.374 122.945ZM193.419 129.68C192.529 129.68 191.789 129.455 191.199 129.005C190.609 128.555 190.264 127.945 190.164 127.175H191.454C191.534 127.565 191.739 127.905 192.069 128.195C192.409 128.475 192.864 128.615 193.434 128.615C193.964 128.615 194.354 128.505 194.604 128.285C194.854 128.055 194.979 127.785 194.979 127.475C194.979 127.025 194.814 126.725 194.484 126.575C194.164 126.425 193.709 126.29 193.119 126.17C192.719 126.09 192.319 125.975 191.919 125.825C191.519 125.675 191.184 125.465 190.914 125.195C190.644 124.915 190.509 124.55 190.509 124.1C190.509 123.45 190.749 122.92 191.229 122.51C191.719 122.09 192.379 121.88 193.209 121.88C193.999 121.88 194.644 122.08 195.144 122.48C195.654 122.87 195.949 123.43 196.029 124.16H194.784C194.734 123.78 194.569 123.485 194.289 123.275C194.019 123.055 193.654 122.945 193.194 122.945C192.744 122.945 192.394 123.04 192.144 123.23C191.904 123.42 191.784 123.67 191.784 123.98C191.784 124.28 191.939 124.515 192.249 124.685C192.569 124.855 192.999 125 193.539 125.12C193.999 125.22 194.434 125.345 194.844 125.495C195.264 125.635 195.604 125.85 195.864 126.14C196.134 126.42 196.269 126.83 196.269 127.37C196.279 128.04 196.024 128.595 195.504 129.035C194.994 129.465 194.299 129.68 193.419 129.68ZM200.672 129.5C199.992 129.5 199.457 129.335 199.067 129.005C198.677 128.675 198.482 128.08 198.482 127.22V123.125H197.192V122.06H198.482L198.647 120.275H199.742V122.06H201.932V123.125H199.742V127.22C199.742 127.69 199.837 128.01 200.027 128.18C200.217 128.34 200.552 128.42 201.032 128.42H201.812V129.5H200.672ZM206.383 129.68C205.493 129.68 204.753 129.455 204.163 129.005C203.573 128.555 203.228 127.945 203.128 127.175H204.418C204.498 127.565 204.703 127.905 205.033 128.195C205.373 128.475 205.828 128.615 206.398 128.615C206.928 128.615 207.318 128.505 207.568 128.285C207.818 128.055 207.943 127.785 207.943 127.475C207.943 127.025 207.778 126.725 207.448 126.575C207.128 126.425 206.673 126.29 206.083 126.17C205.683 126.09 205.283 125.975 204.883 125.825C204.483 125.675 204.148 125.465 203.878 125.195C203.608 124.915 203.473 124.55 203.473 124.1C203.473 123.45 203.713 122.92 204.193 122.51C204.683 122.09 205.343 121.88 206.173 121.88C206.963 121.88 207.608 122.08 208.108 122.48C208.618 122.87 208.913 123.43 208.993 124.16H207.748C207.698 123.78 207.533 123.485 207.253 123.275C206.983 123.055 206.618 122.945 206.158 122.945C205.708 122.945 205.358 123.04 205.108 123.23C204.868 123.42 204.748 123.67 204.748 123.98C204.748 124.28 204.903 124.515 205.213 124.685C205.533 124.855 205.963 125 206.503 125.12C206.963 125.22 207.398 125.345 207.808 125.495C208.228 125.635 208.568 125.85 208.828 126.14C209.098 126.42 209.233 126.83 209.233 127.37C209.243 128.04 208.988 128.595 208.468 129.035C207.958 129.465 207.263 129.68 206.383 129.68ZM211.468 129.575C211.218 129.575 211.008 129.495 210.838 129.335C210.678 129.165 210.598 128.96 210.598 128.72C210.598 128.48 210.678 128.28 210.838 128.12C211.008 127.95 211.218 127.865 211.468 127.865C211.708 127.865 211.908 127.95 212.068 128.12C212.238 128.28 212.323 128.48 212.323 128.72C212.323 128.96 212.238 129.165 212.068 129.335C211.908 129.495 211.708 129.575 211.468 129.575Z" fill="#343D48"/>
<path opacity="0.1" fill-rule="evenodd" clip-rule="evenodd" d="M46.5416 25.7916H54.4583C67.575 25.7916 78.2083 36.4246 78.2083 49.5416V57.4583C78.2083 70.5748 67.575 81.2082 54.4583 81.2082H46.5416C33.4249 81.2082 22.7917 70.5748 22.7917 57.4583V49.5416C22.7917 36.4246 33.4249 25.7916 46.5416 25.7916Z" fill="url(#paint0_linear_1_478)"/>
<path fill-rule="evenodd" clip-rule="evenodd" d="M53.217 57.9625C53.3848 57.7923 53.4688 57.5914 53.4688 57.359V55.2147H62.3749V61.648C62.3749 62.2371 62.1674 62.7423 61.752 63.162C61.3368 63.5821 60.8375 63.7919 60.2545 63.7919H40.7455C40.1624 63.7919 39.6631 63.5821 39.2479 63.162C38.8325 62.7423 38.6249 62.2371 38.6249 61.648V55.2147H47.5311V57.359C47.5311 57.5914 47.6151 57.7923 47.783 57.9625C47.9509 58.1319 48.1497 58.2171 48.3795 58.2171H52.6206C52.8502 58.2171 53.0492 58.1319 53.217 57.9625ZM52.1966 55.2147H48.8034V56.93H52.1966V55.2147ZM61.752 47.2674C61.3368 46.8469 60.8375 46.637 60.2545 46.637H55.5891V44.4927C55.5891 44.1352 55.4656 43.8317 55.2181 43.581C54.9709 43.3316 54.6703 43.2061 54.317 43.2061H46.6831C46.3296 43.2061 46.0293 43.3316 45.7819 43.581C45.5345 43.8313 45.4108 44.1352 45.4108 44.4927V46.637H40.7456C40.1624 46.637 39.6631 46.8469 39.2479 47.2674C38.8325 47.6866 38.6249 48.1914 38.6249 48.7813V53.928H62.3749V48.7813C62.3749 48.1914 62.1674 47.6866 61.752 47.2674ZM53.8929 46.637H47.1072V44.9213H53.8929V46.637Z" fill="#FF4550"/>
<defs>
<linearGradient id="paint0_linear_1_478" x1="54.7855" y1="114.785" x2="111.785" y2="49.2145" gradientUnits="userSpaceOnUse">
<stop stop-color="#FF416C"/>
<stop offset="1" stop-color="#FF4B2B"/>
</linearGradient>
</defs>
</svg>
