<svg width="546" height="206" viewBox="0 0 546 206" fill="none" xmlns="http://www.w3.org/2000/svg">
<g filter="url(#filter0_d_1_490)">
<path fill-rule="evenodd" clip-rule="evenodd" d="M35.168 16.1675H510.832C516.941 16.1675 521.894 21.396 521.894 27.8464V162.153C521.894 168.603 516.941 173.832 510.832 173.832H35.168C29.0585 173.832 24.106 168.603 24.106 162.153V27.8464C24.106 21.396 29.0585 16.1675 35.168 16.1675Z" fill="white"/>
</g>
<path d="M139.526 54.216C138.602 54.216 137.786 54.06 137.078 53.748C136.37 53.424 135.812 52.968 135.404 52.38C134.996 51.78 134.786 51.054 134.774 50.202H137.204C137.228 50.79 137.438 51.288 137.834 51.696C138.242 52.092 138.8 52.29 139.508 52.29C140.12 52.29 140.606 52.146 140.966 51.858C141.326 51.558 141.506 51.162 141.506 50.67C141.506 50.154 141.344 49.752 141.02 49.464C140.708 49.176 140.288 48.942 139.76 48.762C139.232 48.582 138.668 48.39 138.068 48.186C137.096 47.85 136.352 47.418 135.836 46.89C135.332 46.362 135.08 45.66 135.08 44.784C135.068 44.04 135.242 43.404 135.602 42.876C135.974 42.336 136.478 41.922 137.114 41.634C137.75 41.334 138.482 41.184 139.31 41.184C140.15 41.184 140.888 41.334 141.524 41.634C142.172 41.934 142.676 42.354 143.036 42.894C143.408 43.434 143.606 44.076 143.63 44.82H141.164C141.152 44.376 140.978 43.986 140.642 43.65C140.318 43.302 139.862 43.128 139.274 43.128C138.77 43.116 138.344 43.242 137.996 43.506C137.66 43.758 137.492 44.13 137.492 44.622C137.492 45.042 137.624 45.378 137.888 45.63C138.152 45.87 138.512 46.074 138.968 46.242C139.424 46.41 139.946 46.59 140.534 46.782C141.158 46.998 141.728 47.25 142.244 47.538C142.76 47.826 143.174 48.21 143.486 48.69C143.798 49.158 143.954 49.764 143.954 50.508C143.954 51.168 143.786 51.78 143.45 52.344C143.114 52.908 142.616 53.364 141.956 53.712C141.296 54.048 140.486 54.216 139.526 54.216ZM150.248 54.216C149.348 54.216 148.55 54.024 147.854 53.64C147.158 53.256 146.612 52.716 146.216 52.02C145.82 51.324 145.622 50.52 145.622 49.608C145.622 48.684 145.814 47.862 146.198 47.142C146.594 46.422 147.134 45.864 147.818 45.468C148.514 45.06 149.33 44.856 150.266 44.856C151.142 44.856 151.916 45.048 152.588 45.432C153.26 45.816 153.782 46.344 154.154 47.016C154.538 47.676 154.73 48.414 154.73 49.23C154.73 49.362 154.724 49.5 154.712 49.644C154.712 49.788 154.706 49.938 154.694 50.094H147.908C147.956 50.79 148.196 51.336 148.628 51.732C149.072 52.128 149.606 52.326 150.23 52.326C150.698 52.326 151.088 52.224 151.4 52.02C151.724 51.804 151.964 51.528 152.12 51.192H154.46C154.292 51.756 154.01 52.272 153.614 52.74C153.23 53.196 152.75 53.556 152.174 53.82C151.61 54.084 150.968 54.216 150.248 54.216ZM150.266 46.728C149.702 46.728 149.204 46.89 148.772 47.214C148.34 47.526 148.064 48.006 147.944 48.654H152.39C152.354 48.066 152.138 47.598 151.742 47.25C151.346 46.902 150.854 46.728 150.266 46.728ZM161.042 54.216C160.13 54.216 159.326 54.018 158.63 53.622C157.934 53.226 157.382 52.674 156.974 51.966C156.578 51.258 156.38 50.448 156.38 49.536C156.38 48.624 156.578 47.814 156.974 47.106C157.382 46.398 157.934 45.846 158.63 45.45C159.326 45.054 160.13 44.856 161.042 44.856C162.182 44.856 163.142 45.156 163.922 45.756C164.702 46.344 165.2 47.16 165.416 48.204H162.986C162.866 47.772 162.626 47.436 162.266 47.196C161.918 46.944 161.504 46.818 161.024 46.818C160.388 46.818 159.848 47.058 159.404 47.538C158.96 48.018 158.738 48.684 158.738 49.536C158.738 50.388 158.96 51.054 159.404 51.534C159.848 52.014 160.388 52.254 161.024 52.254C161.504 52.254 161.918 52.134 162.266 51.894C162.626 51.654 162.866 51.312 162.986 50.868H165.416C165.2 51.876 164.702 52.686 163.922 53.298C163.142 53.91 162.182 54.216 161.042 54.216ZM176.065 45.072V54H174.031L173.851 52.488C173.575 53.016 173.173 53.436 172.645 53.748C172.129 54.06 171.517 54.216 170.809 54.216C169.705 54.216 168.847 53.868 168.235 53.172C167.623 52.476 167.317 51.456 167.317 50.112V45.072H169.621V49.896C169.621 50.664 169.777 51.252 170.089 51.66C170.401 52.068 170.887 52.272 171.547 52.272C172.195 52.272 172.723 52.044 173.131 51.588C173.551 51.132 173.761 50.496 173.761 49.68V45.072H176.065ZM178.412 54V45.072H180.464L180.68 46.746C181.004 46.17 181.442 45.714 181.994 45.378C182.558 45.03 183.218 44.856 183.974 44.856V47.286H183.326C182.822 47.286 182.372 47.364 181.976 47.52C181.58 47.676 181.268 47.946 181.04 48.33C180.824 48.714 180.716 49.248 180.716 49.932V54H178.412ZM189.729 54.216C188.829 54.216 188.031 54.024 187.335 53.64C186.639 53.256 186.093 52.716 185.697 52.02C185.301 51.324 185.103 50.52 185.103 49.608C185.103 48.684 185.295 47.862 185.679 47.142C186.075 46.422 186.615 45.864 187.299 45.468C187.995 45.06 188.811 44.856 189.747 44.856C190.623 44.856 191.397 45.048 192.069 45.432C192.741 45.816 193.263 46.344 193.635 47.016C194.019 47.676 194.211 48.414 194.211 49.23C194.211 49.362 194.205 49.5 194.193 49.644C194.193 49.788 194.187 49.938 194.175 50.094H187.389C187.437 50.79 187.677 51.336 188.109 51.732C188.553 52.128 189.087 52.326 189.711 52.326C190.179 52.326 190.569 52.224 190.881 52.02C191.205 51.804 191.445 51.528 191.601 51.192H193.941C193.773 51.756 193.491 52.272 193.095 52.74C192.711 53.196 192.231 53.556 191.655 53.82C191.091 54.084 190.449 54.216 189.729 54.216ZM189.747 46.728C189.183 46.728 188.685 46.89 188.253 47.214C187.821 47.526 187.545 48.006 187.425 48.654H191.871C191.835 48.066 191.619 47.598 191.223 47.25C190.827 46.902 190.335 46.728 189.747 46.728ZM206.198 54.216C204.926 54.216 203.834 53.946 202.922 53.406C202.01 52.854 201.308 52.092 200.816 51.12C200.324 50.136 200.078 49.002 200.078 47.718C200.078 46.434 200.324 45.3 200.816 44.316C201.308 43.332 202.01 42.564 202.922 42.012C203.834 41.46 204.926 41.184 206.198 41.184C207.71 41.184 208.946 41.562 209.906 42.318C210.878 43.062 211.484 44.112 211.724 45.468H209.186C209.03 44.784 208.694 44.25 208.178 43.866C207.674 43.47 207.002 43.272 206.162 43.272C204.998 43.272 204.086 43.668 203.426 44.46C202.766 45.252 202.436 46.338 202.436 47.718C202.436 49.098 202.766 50.184 203.426 50.976C204.086 51.756 204.998 52.146 206.162 52.146C207.002 52.146 207.674 51.966 208.178 51.606C208.694 51.234 209.03 50.724 209.186 50.076H211.724C211.484 51.372 210.878 52.386 209.906 53.118C208.946 53.85 207.71 54.216 206.198 54.216ZM217.993 54.216C217.129 54.216 216.349 54.018 215.653 53.622C214.969 53.226 214.423 52.68 214.015 51.984C213.619 51.276 213.421 50.46 213.421 49.536C213.421 48.612 213.625 47.802 214.033 47.106C214.441 46.398 214.987 45.846 215.671 45.45C216.367 45.054 217.147 44.856 218.011 44.856C218.863 44.856 219.631 45.054 220.315 45.45C221.011 45.846 221.557 46.398 221.953 47.106C222.361 47.802 222.565 48.612 222.565 49.536C222.565 50.46 222.361 51.276 221.953 51.984C221.557 52.68 221.011 53.226 220.315 53.622C219.619 54.018 218.845 54.216 217.993 54.216ZM217.993 52.218C218.593 52.218 219.115 51.996 219.559 51.552C220.003 51.096 220.225 50.424 220.225 49.536C220.225 48.648 220.003 47.982 219.559 47.538C219.115 47.082 218.599 46.854 218.011 46.854C217.399 46.854 216.871 47.082 216.427 47.538C215.995 47.982 215.779 48.648 215.779 49.536C215.779 50.424 215.995 51.096 216.427 51.552C216.871 51.996 217.393 52.218 217.993 52.218ZM224.625 54V45.072H226.659L226.839 46.584C227.115 46.056 227.511 45.636 228.027 45.324C228.555 45.012 229.173 44.856 229.881 44.856C230.985 44.856 231.843 45.204 232.455 45.9C233.067 46.596 233.373 47.616 233.373 48.96V54H231.069V49.176C231.069 48.408 230.913 47.82 230.601 47.412C230.289 47.004 229.803 46.8 229.143 46.8C228.495 46.8 227.961 47.028 227.541 47.484C227.133 47.94 226.929 48.576 226.929 49.392V54H224.625ZM239.554 54C238.618 54 237.868 53.772 237.304 53.316C236.74 52.86 236.458 52.05 236.458 50.886V46.998H234.928V45.072H236.458L236.728 42.678H238.762V45.072H241.174V46.998H238.762V50.904C238.762 51.336 238.852 51.636 239.032 51.804C239.224 51.96 239.548 52.038 240.004 52.038H241.12V54H239.554ZM247.262 54.216C246.362 54.216 245.564 54.024 244.868 53.64C244.172 53.256 243.626 52.716 243.23 52.02C242.834 51.324 242.636 50.52 242.636 49.608C242.636 48.684 242.828 47.862 243.212 47.142C243.608 46.422 244.148 45.864 244.832 45.468C245.528 45.06 246.344 44.856 247.28 44.856C248.156 44.856 248.93 45.048 249.602 45.432C250.274 45.816 250.796 46.344 251.168 47.016C251.552 47.676 251.744 48.414 251.744 49.23C251.744 49.362 251.738 49.5 251.726 49.644C251.726 49.788 251.72 49.938 251.708 50.094H244.922C244.97 50.79 245.21 51.336 245.642 51.732C246.086 52.128 246.62 52.326 247.244 52.326C247.712 52.326 248.102 52.224 248.414 52.02C248.738 51.804 248.978 51.528 249.134 51.192H251.474C251.306 51.756 251.024 52.272 250.628 52.74C250.244 53.196 249.764 53.556 249.188 53.82C248.624 54.084 247.982 54.216 247.262 54.216ZM247.28 46.728C246.716 46.728 246.218 46.89 245.786 47.214C245.354 47.526 245.078 48.006 244.958 48.654H249.404C249.368 48.066 249.152 47.598 248.756 47.25C248.36 46.902 247.868 46.728 247.28 46.728ZM253.682 54V45.072H255.716L255.896 46.584C256.172 46.056 256.568 45.636 257.084 45.324C257.612 45.012 258.23 44.856 258.938 44.856C260.042 44.856 260.9 45.204 261.512 45.9C262.124 46.596 262.43 47.616 262.43 48.96V54H260.126V49.176C260.126 48.408 259.97 47.82 259.658 47.412C259.346 47.004 258.86 46.8 258.2 46.8C257.552 46.8 257.018 47.028 256.598 47.484C256.19 47.94 255.986 48.576 255.986 49.392V54H253.682ZM268.611 54C267.675 54 266.925 53.772 266.361 53.316C265.797 52.86 265.515 52.05 265.515 50.886V46.998H263.985V45.072H265.515L265.785 42.678H267.819V45.072H270.231V46.998H267.819V50.904C267.819 51.336 267.909 51.636 268.089 51.804C268.281 51.96 268.605 52.038 269.061 52.038H270.177V54H268.611ZM275.899 54.216C275.107 54.216 274.411 54.09 273.811 53.838C273.211 53.574 272.731 53.214 272.371 52.758C272.011 52.302 271.795 51.774 271.723 51.174H274.045C274.117 51.522 274.309 51.822 274.621 52.074C274.945 52.314 275.359 52.434 275.863 52.434C276.367 52.434 276.733 52.332 276.961 52.128C277.201 51.924 277.321 51.69 277.321 51.426C277.321 51.042 277.153 50.784 276.817 50.652C276.481 50.508 276.013 50.37 275.413 50.238C275.029 50.154 274.639 50.052 274.243 49.932C273.847 49.812 273.481 49.662 273.145 49.482C272.821 49.29 272.557 49.05 272.353 48.762C272.149 48.462 272.047 48.096 272.047 47.664C272.047 46.872 272.359 46.206 272.983 45.666C273.619 45.126 274.507 44.856 275.647 44.856C276.703 44.856 277.543 45.102 278.167 45.594C278.803 46.086 279.181 46.764 279.301 47.628H277.123C276.991 46.968 276.493 46.638 275.629 46.638C275.197 46.638 274.861 46.722 274.621 46.89C274.393 47.058 274.279 47.268 274.279 47.52C274.279 47.784 274.453 47.994 274.801 48.15C275.149 48.306 275.611 48.45 276.187 48.582C276.811 48.726 277.381 48.888 277.897 49.068C278.425 49.236 278.845 49.494 279.157 49.842C279.469 50.178 279.625 50.664 279.625 51.3C279.637 51.852 279.493 52.35 279.193 52.794C278.893 53.238 278.461 53.586 277.897 53.838C277.333 54.09 276.667 54.216 275.899 54.216Z" fill="#0F2137"/>
<path d="M135.625 91.68C134.645 91.68 133.785 91.455 133.045 91.005C132.305 90.545 131.73 89.91 131.32 89.1C130.91 88.28 130.705 87.335 130.705 86.265C130.705 85.195 130.91 84.25 131.32 83.43C131.74 82.61 132.33 81.97 133.09 81.51C133.86 81.05 134.765 80.82 135.805 80.82C136.985 80.82 137.965 81.105 138.745 81.675C139.535 82.245 140.045 83.03 140.275 84.03H138.82C138.68 83.4 138.345 82.9 137.815 82.53C137.295 82.16 136.625 81.975 135.805 81.975C135.035 81.975 134.365 82.15 133.795 82.5C133.225 82.84 132.78 83.33 132.46 83.97C132.15 84.61 131.995 85.375 131.995 86.265C131.995 87.155 132.15 87.92 132.46 88.56C132.77 89.2 133.2 89.695 133.75 90.045C134.3 90.385 134.94 90.555 135.67 90.555C136.79 90.555 137.635 90.23 138.205 89.58C138.775 88.92 139.1 88.02 139.18 86.88H136.15V85.89H140.47V91.5H139.315L139.21 89.775C138.83 90.385 138.365 90.855 137.815 91.185C137.265 91.515 136.535 91.68 135.625 91.68ZM145.733 91.68C145.023 91.68 144.393 91.52 143.843 91.2C143.293 90.87 142.858 90.415 142.538 89.835C142.228 89.255 142.073 88.57 142.073 87.78C142.073 87 142.228 86.32 142.538 85.74C142.848 85.15 143.278 84.695 143.828 84.375C144.388 84.045 145.033 83.88 145.763 83.88C146.483 83.88 147.103 84.045 147.623 84.375C148.153 84.695 148.558 85.12 148.838 85.65C149.118 86.18 149.258 86.75 149.258 87.36C149.258 87.47 149.253 87.58 149.243 87.69C149.243 87.8 149.243 87.925 149.243 88.065H143.318C143.348 88.635 143.478 89.11 143.708 89.49C143.948 89.86 144.243 90.14 144.593 90.33C144.953 90.52 145.333 90.615 145.733 90.615C146.253 90.615 146.688 90.495 147.038 90.255C147.388 90.015 147.643 89.69 147.803 89.28H149.048C148.848 89.97 148.463 90.545 147.893 91.005C147.333 91.455 146.613 91.68 145.733 91.68ZM145.733 84.945C145.133 84.945 144.598 85.13 144.128 85.5C143.668 85.86 143.403 86.39 143.333 87.09H148.013C147.983 86.42 147.753 85.895 147.323 85.515C146.893 85.135 146.363 84.945 145.733 84.945ZM153.619 91.5C152.939 91.5 152.404 91.335 152.014 91.005C151.624 90.675 151.429 90.08 151.429 89.22V85.125H150.139V84.06H151.429L151.594 82.275H152.689V84.06H154.879V85.125H152.689V89.22C152.689 89.69 152.784 90.01 152.974 90.18C153.164 90.34 153.499 90.42 153.979 90.42H154.759V91.5H153.619ZM161.259 94.8L163.104 90.78H162.669L159.714 84.06H161.079L163.539 89.85L166.149 84.06H167.454L162.579 94.8H161.259ZM171.471 91.68C170.771 91.68 170.141 91.52 169.581 91.2C169.021 90.88 168.576 90.43 168.246 89.85C167.926 89.26 167.766 88.57 167.766 87.78C167.766 86.99 167.931 86.305 168.261 85.725C168.591 85.135 169.036 84.68 169.596 84.36C170.166 84.04 170.801 83.88 171.501 83.88C172.201 83.88 172.831 84.04 173.391 84.36C173.951 84.68 174.391 85.135 174.711 85.725C175.041 86.305 175.206 86.99 175.206 87.78C175.206 88.57 175.041 89.26 174.711 89.85C174.381 90.43 173.931 90.88 173.361 91.2C172.801 91.52 172.171 91.68 171.471 91.68ZM171.471 90.6C171.901 90.6 172.301 90.495 172.671 90.285C173.041 90.075 173.341 89.76 173.571 89.34C173.801 88.92 173.916 88.4 173.916 87.78C173.916 87.16 173.801 86.64 173.571 86.22C173.351 85.8 173.056 85.485 172.686 85.275C172.316 85.065 171.921 84.96 171.501 84.96C171.071 84.96 170.671 85.065 170.301 85.275C169.931 85.485 169.631 85.8 169.401 86.22C169.171 86.64 169.056 87.16 169.056 87.78C169.056 88.4 169.171 88.92 169.401 89.34C169.631 89.76 169.926 90.075 170.286 90.285C170.656 90.495 171.051 90.6 171.471 90.6ZM183.468 84.06V91.5H182.328L182.253 90.165C182.013 90.635 181.668 91.005 181.218 91.275C180.768 91.545 180.258 91.68 179.688 91.68C178.808 91.68 178.103 91.415 177.573 90.885C177.053 90.345 176.793 89.52 176.793 88.41V84.06H178.053V88.275C178.053 89.825 178.693 90.6 179.973 90.6C180.613 90.6 181.143 90.37 181.563 89.91C181.993 89.44 182.208 88.775 182.208 87.915V84.06H183.468ZM185.542 91.5V84.06H186.682L186.787 85.485C187.017 84.995 187.367 84.605 187.837 84.315C188.307 84.025 188.887 83.88 189.577 83.88V85.2H189.232C188.792 85.2 188.387 85.28 188.017 85.44C187.647 85.59 187.352 85.85 187.132 86.22C186.912 86.59 186.802 87.1 186.802 87.75V91.5H185.542ZM198.936 91.68C198.326 91.68 197.781 91.555 197.301 91.305C196.831 91.055 196.471 90.705 196.221 90.255L196.101 91.5H194.961V80.7H196.221V85.29C196.461 84.93 196.801 84.605 197.241 84.315C197.691 84.025 198.261 83.88 198.951 83.88C199.691 83.88 200.336 84.05 200.886 84.39C201.436 84.73 201.861 85.195 202.161 85.785C202.471 86.375 202.626 87.045 202.626 87.795C202.626 88.545 202.471 89.215 202.161 89.805C201.861 90.385 201.431 90.845 200.871 91.185C200.321 91.515 199.676 91.68 198.936 91.68ZM198.801 90.585C199.301 90.585 199.741 90.47 200.121 90.24C200.501 90 200.801 89.67 201.021 89.25C201.241 88.83 201.351 88.34 201.351 87.78C201.351 87.22 201.241 86.73 201.021 86.31C200.801 85.89 200.501 85.565 200.121 85.335C199.741 85.095 199.301 84.975 198.801 84.975C198.301 84.975 197.861 85.095 197.481 85.335C197.101 85.565 196.801 85.89 196.581 86.31C196.361 86.73 196.251 87.22 196.251 87.78C196.251 88.34 196.361 88.83 196.581 89.25C196.801 89.67 197.101 90 197.481 90.24C197.861 90.47 198.301 90.585 198.801 90.585ZM204.38 91.5V80.7H205.64V91.5H204.38ZM211.095 91.68C210.395 91.68 209.765 91.52 209.205 91.2C208.645 90.88 208.2 90.43 207.87 89.85C207.55 89.26 207.39 88.57 207.39 87.78C207.39 86.99 207.555 86.305 207.885 85.725C208.215 85.135 208.66 84.68 209.22 84.36C209.79 84.04 210.425 83.88 211.125 83.88C211.825 83.88 212.455 84.04 213.015 84.36C213.575 84.68 214.015 85.135 214.335 85.725C214.665 86.305 214.83 86.99 214.83 87.78C214.83 88.57 214.665 89.26 214.335 89.85C214.005 90.43 213.555 90.88 212.985 91.2C212.425 91.52 211.795 91.68 211.095 91.68ZM211.095 90.6C211.525 90.6 211.925 90.495 212.295 90.285C212.665 90.075 212.965 89.76 213.195 89.34C213.425 88.92 213.54 88.4 213.54 87.78C213.54 87.16 213.425 86.64 213.195 86.22C212.975 85.8 212.68 85.485 212.31 85.275C211.94 85.065 211.545 84.96 211.125 84.96C210.695 84.96 210.295 85.065 209.925 85.275C209.555 85.485 209.255 85.8 209.025 86.22C208.795 86.64 208.68 87.16 208.68 87.78C208.68 88.4 208.795 88.92 209.025 89.34C209.255 89.76 209.55 90.075 209.91 90.285C210.28 90.495 210.675 90.6 211.095 90.6ZM219.972 91.68C219.272 91.68 218.642 91.52 218.082 91.2C217.522 90.88 217.077 90.43 216.747 89.85C216.427 89.26 216.267 88.57 216.267 87.78C216.267 86.99 216.432 86.305 216.762 85.725C217.092 85.135 217.537 84.68 218.097 84.36C218.667 84.04 219.302 83.88 220.002 83.88C220.702 83.88 221.332 84.04 221.892 84.36C222.452 84.68 222.892 85.135 223.212 85.725C223.542 86.305 223.707 86.99 223.707 87.78C223.707 88.57 223.542 89.26 223.212 89.85C222.882 90.43 222.432 90.88 221.862 91.2C221.302 91.52 220.672 91.68 219.972 91.68ZM219.972 90.6C220.402 90.6 220.802 90.495 221.172 90.285C221.542 90.075 221.842 89.76 222.072 89.34C222.302 88.92 222.417 88.4 222.417 87.78C222.417 87.16 222.302 86.64 222.072 86.22C221.852 85.8 221.557 85.485 221.187 85.275C220.817 85.065 220.422 84.96 220.002 84.96C219.572 84.96 219.172 85.065 218.802 85.275C218.432 85.485 218.132 85.8 217.902 86.22C217.672 86.64 217.557 87.16 217.557 87.78C217.557 88.4 217.672 88.92 217.902 89.34C218.132 89.76 218.427 90.075 218.787 90.285C219.157 90.495 219.552 90.6 219.972 90.6ZM228.834 91.68C228.094 91.68 227.444 91.51 226.884 91.17C226.334 90.83 225.904 90.365 225.594 89.775C225.294 89.185 225.144 88.515 225.144 87.765C225.144 87.015 225.299 86.35 225.609 85.77C225.919 85.18 226.349 84.72 226.899 84.39C227.449 84.05 228.099 83.88 228.849 83.88C229.459 83.88 229.999 84.005 230.469 84.255C230.939 84.505 231.304 84.855 231.564 85.305V80.7H232.824V91.5H231.684L231.564 90.27C231.324 90.63 230.979 90.955 230.529 91.245C230.079 91.535 229.514 91.68 228.834 91.68ZM228.969 90.585C229.469 90.585 229.909 90.47 230.289 90.24C230.679 90 230.979 89.67 231.189 89.25C231.409 88.83 231.519 88.34 231.519 87.78C231.519 87.22 231.409 86.73 231.189 86.31C230.979 85.89 230.679 85.565 230.289 85.335C229.909 85.095 229.469 84.975 228.969 84.975C228.479 84.975 228.039 85.095 227.649 85.335C227.269 85.565 226.969 85.89 226.749 86.31C226.539 86.73 226.434 87.22 226.434 87.78C226.434 88.34 226.539 88.83 226.749 89.25C226.969 89.67 227.269 90 227.649 90.24C228.039 90.47 228.479 90.585 228.969 90.585ZM241.788 91.5C241.108 91.5 240.573 91.335 240.183 91.005C239.793 90.675 239.598 90.08 239.598 89.22V85.125H238.307V84.06H239.598L239.763 82.275H240.858V84.06H243.048V85.125H240.858V89.22C240.858 89.69 240.953 90.01 241.143 90.18C241.333 90.34 241.668 90.42 242.148 90.42H242.928V91.5H241.788ZM247.788 91.68C247.078 91.68 246.448 91.52 245.898 91.2C245.348 90.87 244.913 90.415 244.593 89.835C244.283 89.255 244.128 88.57 244.128 87.78C244.128 87 244.283 86.32 244.593 85.74C244.903 85.15 245.333 84.695 245.883 84.375C246.443 84.045 247.088 83.88 247.818 83.88C248.538 83.88 249.158 84.045 249.678 84.375C250.208 84.695 250.613 85.12 250.893 85.65C251.173 86.18 251.313 86.75 251.313 87.36C251.313 87.47 251.308 87.58 251.298 87.69C251.298 87.8 251.298 87.925 251.298 88.065H245.373C245.403 88.635 245.533 89.11 245.763 89.49C246.003 89.86 246.298 90.14 246.648 90.33C247.008 90.52 247.388 90.615 247.788 90.615C248.308 90.615 248.743 90.495 249.093 90.255C249.443 90.015 249.698 89.69 249.858 89.28H251.103C250.903 89.97 250.518 90.545 249.948 91.005C249.388 91.455 248.668 91.68 247.788 91.68ZM247.788 84.945C247.188 84.945 246.653 85.13 246.183 85.5C245.723 85.86 245.458 86.39 245.388 87.09H250.068C250.038 86.42 249.808 85.895 249.378 85.515C248.948 85.135 248.418 84.945 247.788 84.945ZM255.833 91.68C254.943 91.68 254.203 91.455 253.613 91.005C253.023 90.555 252.678 89.945 252.578 89.175H253.868C253.948 89.565 254.153 89.905 254.483 90.195C254.823 90.475 255.278 90.615 255.848 90.615C256.378 90.615 256.768 90.505 257.018 90.285C257.268 90.055 257.393 89.785 257.393 89.475C257.393 89.025 257.228 88.725 256.898 88.575C256.578 88.425 256.123 88.29 255.533 88.17C255.133 88.09 254.733 87.975 254.333 87.825C253.933 87.675 253.598 87.465 253.328 87.195C253.058 86.915 252.923 86.55 252.923 86.1C252.923 85.45 253.163 84.92 253.643 84.51C254.133 84.09 254.793 83.88 255.623 83.88C256.413 83.88 257.058 84.08 257.558 84.48C258.068 84.87 258.363 85.43 258.443 86.16H257.198C257.148 85.78 256.983 85.485 256.703 85.275C256.433 85.055 256.068 84.945 255.608 84.945C255.158 84.945 254.808 85.04 254.558 85.23C254.318 85.42 254.198 85.67 254.198 85.98C254.198 86.28 254.353 86.515 254.663 86.685C254.983 86.855 255.413 87 255.953 87.12C256.413 87.22 256.848 87.345 257.258 87.495C257.678 87.635 258.018 87.85 258.278 88.14C258.548 88.42 258.683 88.83 258.683 89.37C258.693 90.04 258.438 90.595 257.918 91.035C257.408 91.465 256.713 91.68 255.833 91.68ZM263.086 91.5C262.406 91.5 261.871 91.335 261.481 91.005C261.091 90.675 260.896 90.08 260.896 89.22V85.125H259.606V84.06H260.896L261.061 82.275H262.156V84.06H264.346V85.125H262.156V89.22C262.156 89.69 262.251 90.01 262.441 90.18C262.631 90.34 262.966 90.42 263.446 90.42H264.226V91.5H263.086ZM268.797 91.68C267.907 91.68 267.167 91.455 266.577 91.005C265.987 90.555 265.642 89.945 265.542 89.175H266.832C266.912 89.565 267.117 89.905 267.447 90.195C267.787 90.475 268.242 90.615 268.812 90.615C269.342 90.615 269.732 90.505 269.982 90.285C270.232 90.055 270.357 89.785 270.357 89.475C270.357 89.025 270.192 88.725 269.862 88.575C269.542 88.425 269.087 88.29 268.497 88.17C268.097 88.09 267.697 87.975 267.297 87.825C266.897 87.675 266.562 87.465 266.292 87.195C266.022 86.915 265.887 86.55 265.887 86.1C265.887 85.45 266.127 84.92 266.607 84.51C267.097 84.09 267.757 83.88 268.587 83.88C269.377 83.88 270.022 84.08 270.522 84.48C271.032 84.87 271.327 85.43 271.407 86.16H270.162C270.112 85.78 269.947 85.485 269.667 85.275C269.397 85.055 269.032 84.945 268.572 84.945C268.122 84.945 267.772 85.04 267.522 85.23C267.282 85.42 267.162 85.67 267.162 85.98C267.162 86.28 267.317 86.515 267.627 86.685C267.947 86.855 268.377 87 268.917 87.12C269.377 87.22 269.812 87.345 270.222 87.495C270.642 87.635 270.982 87.85 271.242 88.14C271.512 88.42 271.647 88.83 271.647 89.37C271.657 90.04 271.402 90.595 270.882 91.035C270.372 91.465 269.677 91.68 268.797 91.68ZM280.792 91.68C280.052 91.68 279.402 91.51 278.842 91.17C278.292 90.83 277.862 90.365 277.552 89.775C277.252 89.185 277.102 88.515 277.102 87.765C277.102 87.015 277.257 86.35 277.567 85.77C277.877 85.18 278.307 84.72 278.857 84.39C279.407 84.05 280.057 83.88 280.807 83.88C281.417 83.88 281.957 84.005 282.427 84.255C282.897 84.505 283.262 84.855 283.522 85.305V80.7H284.782V91.5H283.642L283.522 90.27C283.282 90.63 282.937 90.955 282.487 91.245C282.037 91.535 281.472 91.68 280.792 91.68ZM280.927 90.585C281.427 90.585 281.867 90.47 282.247 90.24C282.637 90 282.937 89.67 283.147 89.25C283.367 88.83 283.477 88.34 283.477 87.78C283.477 87.22 283.367 86.73 283.147 86.31C282.937 85.89 282.637 85.565 282.247 85.335C281.867 85.095 281.427 84.975 280.927 84.975C280.437 84.975 279.997 85.095 279.607 85.335C279.227 85.565 278.927 85.89 278.707 86.31C278.497 86.73 278.392 87.22 278.392 87.78C278.392 88.34 278.497 88.83 278.707 89.25C278.927 89.67 279.227 90 279.607 90.24C279.997 90.47 280.437 90.585 280.927 90.585ZM290.181 91.68C289.471 91.68 288.841 91.52 288.291 91.2C287.741 90.87 287.306 90.415 286.986 89.835C286.676 89.255 286.521 88.57 286.521 87.78C286.521 87 286.676 86.32 286.986 85.74C287.296 85.15 287.726 84.695 288.276 84.375C288.836 84.045 289.481 83.88 290.211 83.88C290.931 83.88 291.551 84.045 292.071 84.375C292.601 84.695 293.006 85.12 293.286 85.65C293.566 86.18 293.706 86.75 293.706 87.36C293.706 87.47 293.701 87.58 293.691 87.69C293.691 87.8 293.691 87.925 293.691 88.065H287.766C287.796 88.635 287.926 89.11 288.156 89.49C288.396 89.86 288.691 90.14 289.041 90.33C289.401 90.52 289.781 90.615 290.181 90.615C290.701 90.615 291.136 90.495 291.486 90.255C291.836 90.015 292.091 89.69 292.251 89.28H293.496C293.296 89.97 292.911 90.545 292.341 91.005C291.781 91.455 291.061 91.68 290.181 91.68ZM290.181 84.945C289.581 84.945 289.046 85.13 288.576 85.5C288.116 85.86 287.851 86.39 287.781 87.09H292.461C292.431 86.42 292.201 85.895 291.771 85.515C291.341 85.135 290.811 84.945 290.181 84.945ZM295.376 91.5V80.7H296.636V91.5H295.376ZM299.466 82.41C299.216 82.41 299.006 82.33 298.836 82.17C298.676 82 298.596 81.79 298.596 81.54C298.596 81.3 298.676 81.1 298.836 80.94C299.006 80.78 299.216 80.7 299.466 80.7C299.706 80.7 299.911 80.78 300.081 80.94C300.251 81.1 300.336 81.3 300.336 81.54C300.336 81.79 300.251 82 300.081 82.17C299.911 82.33 299.706 82.41 299.466 82.41ZM298.836 91.5V84.06H300.096V91.5H298.836ZM304.435 91.5L301.615 84.06H302.935L305.17 90.285L307.42 84.06H308.71L305.89 91.5H304.435ZM313.076 91.68C312.366 91.68 311.736 91.52 311.186 91.2C310.636 90.87 310.201 90.415 309.881 89.835C309.571 89.255 309.416 88.57 309.416 87.78C309.416 87 309.571 86.32 309.881 85.74C310.191 85.15 310.621 84.695 311.171 84.375C311.731 84.045 312.376 83.88 313.106 83.88C313.826 83.88 314.446 84.045 314.966 84.375C315.496 84.695 315.901 85.12 316.181 85.65C316.461 86.18 316.601 86.75 316.601 87.36C316.601 87.47 316.596 87.58 316.586 87.69C316.586 87.8 316.586 87.925 316.586 88.065H310.661C310.691 88.635 310.821 89.11 311.051 89.49C311.291 89.86 311.586 90.14 311.936 90.33C312.296 90.52 312.676 90.615 313.076 90.615C313.596 90.615 314.031 90.495 314.381 90.255C314.731 90.015 314.986 89.69 315.146 89.28H316.391C316.191 89.97 315.806 90.545 315.236 91.005C314.676 91.455 313.956 91.68 313.076 91.68ZM313.076 84.945C312.476 84.945 311.941 85.13 311.471 85.5C311.011 85.86 310.746 86.39 310.676 87.09H315.356C315.326 86.42 315.096 85.895 314.666 85.515C314.236 85.135 313.706 84.945 313.076 84.945ZM318.271 91.5V84.06H319.411L319.516 85.485C319.746 84.995 320.096 84.605 320.566 84.315C321.036 84.025 321.616 83.88 322.306 83.88V85.2H321.961C321.521 85.2 321.116 85.28 320.746 85.44C320.376 85.59 320.081 85.85 319.861 86.22C319.641 86.59 319.531 87.1 319.531 87.75V91.5H318.271ZM326.787 91.68C326.077 91.68 325.447 91.52 324.897 91.2C324.347 90.87 323.912 90.415 323.592 89.835C323.282 89.255 323.127 88.57 323.127 87.78C323.127 87 323.282 86.32 323.592 85.74C323.902 85.15 324.332 84.695 324.882 84.375C325.442 84.045 326.087 83.88 326.817 83.88C327.537 83.88 328.157 84.045 328.677 84.375C329.207 84.695 329.612 85.12 329.892 85.65C330.172 86.18 330.312 86.75 330.312 87.36C330.312 87.47 330.307 87.58 330.297 87.69C330.297 87.8 330.297 87.925 330.297 88.065H324.372C324.402 88.635 324.532 89.11 324.762 89.49C325.002 89.86 325.297 90.14 325.647 90.33C326.007 90.52 326.387 90.615 326.787 90.615C327.307 90.615 327.742 90.495 328.092 90.255C328.442 90.015 328.697 89.69 328.857 89.28H330.102C329.902 89.97 329.517 90.545 328.947 91.005C328.387 91.455 327.667 91.68 326.787 91.68ZM326.787 84.945C326.187 84.945 325.652 85.13 325.182 85.5C324.722 85.86 324.457 86.39 324.387 87.09H329.067C329.037 86.42 328.807 85.895 328.377 85.515C327.947 85.135 327.417 84.945 326.787 84.945ZM335.357 91.68C334.617 91.68 333.967 91.51 333.407 91.17C332.857 90.83 332.427 90.365 332.117 89.775C331.817 89.185 331.667 88.515 331.667 87.765C331.667 87.015 331.822 86.35 332.132 85.77C332.442 85.18 332.872 84.72 333.422 84.39C333.972 84.05 334.622 83.88 335.372 83.88C335.982 83.88 336.522 84.005 336.992 84.255C337.462 84.505 337.827 84.855 338.087 85.305V80.7H339.347V91.5H338.207L338.087 90.27C337.847 90.63 337.502 90.955 337.052 91.245C336.602 91.535 336.037 91.68 335.357 91.68ZM335.492 90.585C335.992 90.585 336.432 90.47 336.812 90.24C337.202 90 337.502 89.67 337.712 89.25C337.932 88.83 338.042 88.34 338.042 87.78C338.042 87.22 337.932 86.73 337.712 86.31C337.502 85.89 337.202 85.565 336.812 85.335C336.432 85.095 335.992 84.975 335.492 84.975C335.002 84.975 334.562 85.095 334.172 85.335C333.792 85.565 333.492 85.89 333.272 86.31C333.062 86.73 332.957 87.22 332.957 87.78C332.957 88.34 333.062 88.83 333.272 89.25C333.492 89.67 333.792 90 334.172 90.24C334.562 90.47 335.002 90.585 335.492 90.585ZM347.846 91.68C347.226 91.68 346.711 91.575 346.301 91.365C345.891 91.155 345.586 90.875 345.386 90.525C345.186 90.175 345.086 89.795 345.086 89.385C345.086 88.625 345.376 88.04 345.956 87.63C346.536 87.22 347.326 87.015 348.326 87.015H350.336V86.925C350.336 86.275 350.166 85.785 349.826 85.455C349.486 85.115 349.031 84.945 348.461 84.945C347.971 84.945 347.546 85.07 347.186 85.32C346.836 85.56 346.616 85.915 346.526 86.385H345.236C345.286 85.845 345.466 85.39 345.776 85.02C346.096 84.65 346.491 84.37 346.961 84.18C347.431 83.98 347.931 83.88 348.461 83.88C349.501 83.88 350.281 84.16 350.801 84.72C351.331 85.27 351.596 86.005 351.596 86.925V91.5H350.471L350.396 90.165C350.186 90.585 349.876 90.945 349.466 91.245C349.066 91.535 348.526 91.68 347.846 91.68ZM348.041 90.615C348.521 90.615 348.931 90.49 349.271 90.24C349.621 89.99 349.886 89.665 350.066 89.265C350.246 88.865 350.336 88.445 350.336 88.005V87.99H348.431C347.691 87.99 347.166 88.12 346.856 88.38C346.556 88.63 346.406 88.945 346.406 89.325C346.406 89.715 346.546 90.03 346.826 90.27C347.116 90.5 347.521 90.615 348.041 90.615ZM356.221 91.5C355.541 91.5 355.006 91.335 354.616 91.005C354.226 90.675 354.031 90.08 354.031 89.22V85.125H352.741V84.06H354.031L354.196 82.275H355.291V84.06H357.481V85.125H355.291V89.22C355.291 89.69 355.386 90.01 355.576 90.18C355.766 90.34 356.101 90.42 356.581 90.42H357.361V91.5H356.221ZM363.052 91.5V80.7H364.312V91.5H363.052ZM369.722 91.68C369.012 91.68 368.382 91.52 367.832 91.2C367.282 90.87 366.847 90.415 366.527 89.835C366.217 89.255 366.062 88.57 366.062 87.78C366.062 87 366.217 86.32 366.527 85.74C366.837 85.15 367.267 84.695 367.817 84.375C368.377 84.045 369.022 83.88 369.752 83.88C370.472 83.88 371.092 84.045 371.612 84.375C372.142 84.695 372.547 85.12 372.827 85.65C373.107 86.18 373.247 86.75 373.247 87.36C373.247 87.47 373.242 87.58 373.232 87.69C373.232 87.8 373.232 87.925 373.232 88.065H367.307C367.337 88.635 367.467 89.11 367.697 89.49C367.937 89.86 368.232 90.14 368.582 90.33C368.942 90.52 369.322 90.615 369.722 90.615C370.242 90.615 370.677 90.495 371.027 90.255C371.377 90.015 371.632 89.69 371.792 89.28H373.037C372.837 89.97 372.452 90.545 371.882 91.005C371.322 91.455 370.602 91.68 369.722 91.68ZM369.722 84.945C369.122 84.945 368.587 85.13 368.117 85.5C367.657 85.86 367.392 86.39 367.322 87.09H372.002C371.972 86.42 371.742 85.895 371.312 85.515C370.882 85.135 370.352 84.945 369.722 84.945ZM377.608 91.5C376.928 91.5 376.393 91.335 376.003 91.005C375.613 90.675 375.418 90.08 375.418 89.22V85.125H374.128V84.06H375.418L375.583 82.275H376.678V84.06H378.868V85.125H376.678V89.22C376.678 89.69 376.773 90.01 376.963 90.18C377.153 90.34 377.488 90.42 377.968 90.42H378.748V91.5H377.608ZM384.438 91.5V80.7H385.698V85.335C385.948 84.875 386.303 84.52 386.763 84.27C387.223 84.01 387.723 83.88 388.263 83.88C389.123 83.88 389.813 84.15 390.333 84.69C390.853 85.22 391.113 86.04 391.113 87.15V91.5H389.868V87.285C389.868 85.735 389.243 84.96 387.993 84.96C387.343 84.96 386.798 85.195 386.358 85.665C385.918 86.125 385.698 86.785 385.698 87.645V91.5H384.438ZM396.412 91.68C395.712 91.68 395.082 91.52 394.522 91.2C393.962 90.88 393.517 90.43 393.187 89.85C392.867 89.26 392.707 88.57 392.707 87.78C392.707 86.99 392.872 86.305 393.202 85.725C393.532 85.135 393.977 84.68 394.537 84.36C395.107 84.04 395.742 83.88 396.442 83.88C397.142 83.88 397.772 84.04 398.332 84.36C398.892 84.68 399.332 85.135 399.652 85.725C399.982 86.305 400.147 86.99 400.147 87.78C400.147 88.57 399.982 89.26 399.652 89.85C399.322 90.43 398.872 90.88 398.302 91.2C397.742 91.52 397.112 91.68 396.412 91.68ZM396.412 90.6C396.842 90.6 397.242 90.495 397.612 90.285C397.982 90.075 398.282 89.76 398.512 89.34C398.742 88.92 398.857 88.4 398.857 87.78C398.857 87.16 398.742 86.64 398.512 86.22C398.292 85.8 397.997 85.485 397.627 85.275C397.257 85.065 396.862 84.96 396.442 84.96C396.012 84.96 395.612 85.065 395.242 85.275C394.872 85.485 394.572 85.8 394.342 86.22C394.112 86.64 393.997 87.16 393.997 87.78C393.997 88.4 394.112 88.92 394.342 89.34C394.572 89.76 394.867 90.075 395.227 90.285C395.597 90.495 395.992 90.6 396.412 90.6ZM401.899 91.5V84.06H403.039L403.129 85.14C403.369 84.74 403.689 84.43 404.089 84.21C404.489 83.99 404.939 83.88 405.439 83.88C406.029 83.88 406.534 84 406.954 84.24C407.384 84.48 407.714 84.845 407.944 85.335C408.204 84.885 408.559 84.53 409.009 84.27C409.469 84.01 409.964 83.88 410.494 83.88C411.384 83.88 412.094 84.15 412.624 84.69C413.154 85.22 413.419 86.04 413.419 87.15V91.5H412.174V87.285C412.174 86.515 412.019 85.935 411.709 85.545C411.399 85.155 410.954 84.96 410.374 84.96C409.774 84.96 409.274 85.195 408.874 85.665C408.484 86.125 408.289 86.785 408.289 87.645V91.5H407.029V87.285C407.029 86.515 406.874 85.935 406.564 85.545C406.254 85.155 405.809 84.96 405.229 84.96C404.639 84.96 404.144 85.195 403.744 85.665C403.354 86.125 403.159 86.785 403.159 87.645V91.5H401.899ZM418.662 91.68C417.952 91.68 417.322 91.52 416.772 91.2C416.222 90.87 415.787 90.415 415.467 89.835C415.157 89.255 415.002 88.57 415.002 87.78C415.002 87 415.157 86.32 415.467 85.74C415.777 85.15 416.207 84.695 416.757 84.375C417.317 84.045 417.962 83.88 418.692 83.88C419.412 83.88 420.032 84.045 420.552 84.375C421.082 84.695 421.487 85.12 421.767 85.65C422.047 86.18 422.187 86.75 422.187 87.36C422.187 87.47 422.182 87.58 422.172 87.69C422.172 87.8 422.172 87.925 422.172 88.065H416.247C416.277 88.635 416.407 89.11 416.637 89.49C416.877 89.86 417.172 90.14 417.522 90.33C417.882 90.52 418.262 90.615 418.662 90.615C419.182 90.615 419.617 90.495 419.967 90.255C420.317 90.015 420.572 89.69 420.732 89.28H421.977C421.777 89.97 421.392 90.545 420.822 91.005C420.262 91.455 419.542 91.68 418.662 91.68ZM418.662 84.945C418.062 84.945 417.527 85.13 417.057 85.5C416.597 85.86 416.332 86.39 416.262 87.09H420.942C420.912 86.42 420.682 85.895 420.252 85.515C419.822 85.135 419.292 84.945 418.662 84.945ZM431.247 91.68C430.537 91.68 429.897 91.52 429.327 91.2C428.767 90.87 428.322 90.415 427.992 89.835C427.672 89.245 427.512 88.56 427.512 87.78C427.512 87 427.672 86.32 427.992 85.74C428.322 85.15 428.767 84.695 429.327 84.375C429.897 84.045 430.537 83.88 431.247 83.88C432.127 83.88 432.867 84.11 433.467 84.57C434.077 85.03 434.462 85.645 434.622 86.415H433.332C433.232 85.955 432.987 85.6 432.597 85.35C432.207 85.09 431.752 84.96 431.232 84.96C430.812 84.96 430.417 85.065 430.047 85.275C429.677 85.485 429.377 85.8 429.147 86.22C428.917 86.64 428.802 87.16 428.802 87.78C428.802 88.4 428.917 88.92 429.147 89.34C429.377 89.76 429.677 90.08 430.047 90.3C430.417 90.51 430.812 90.615 431.232 90.615C431.752 90.615 432.207 90.49 432.597 90.24C432.987 89.98 433.232 89.615 433.332 89.145H434.622C434.472 89.895 434.092 90.505 433.482 90.975C432.872 91.445 432.127 91.68 431.247 91.68ZM439.772 91.68C439.072 91.68 438.442 91.52 437.882 91.2C437.322 90.88 436.877 90.43 436.547 89.85C436.227 89.26 436.067 88.57 436.067 87.78C436.067 86.99 436.232 86.305 436.562 85.725C436.892 85.135 437.337 84.68 437.897 84.36C438.467 84.04 439.102 83.88 439.802 83.88C440.502 83.88 441.132 84.04 441.692 84.36C442.252 84.68 442.692 85.135 443.012 85.725C443.342 86.305 443.507 86.99 443.507 87.78C443.507 88.57 443.342 89.26 443.012 89.85C442.682 90.43 442.232 90.88 441.662 91.2C441.102 91.52 440.472 91.68 439.772 91.68ZM439.772 90.6C440.202 90.6 440.602 90.495 440.972 90.285C441.342 90.075 441.642 89.76 441.872 89.34C442.102 88.92 442.217 88.4 442.217 87.78C442.217 87.16 442.102 86.64 441.872 86.22C441.652 85.8 441.357 85.485 440.987 85.275C440.617 85.065 440.222 84.96 439.802 84.96C439.372 84.96 438.972 85.065 438.602 85.275C438.232 85.485 437.932 85.8 437.702 86.22C437.472 86.64 437.357 87.16 437.357 87.78C437.357 88.4 437.472 88.92 437.702 89.34C437.932 89.76 438.227 90.075 438.587 90.285C438.957 90.495 439.352 90.6 439.772 90.6ZM445.259 91.5V80.7H446.519V91.5H445.259ZM448.584 91.5V80.7H449.844V91.5H448.584ZM455.254 91.68C454.544 91.68 453.914 91.52 453.364 91.2C452.814 90.87 452.379 90.415 452.059 89.835C451.749 89.255 451.594 88.57 451.594 87.78C451.594 87 451.749 86.32 452.059 85.74C452.369 85.15 452.799 84.695 453.349 84.375C453.909 84.045 454.554 83.88 455.284 83.88C456.004 83.88 456.624 84.045 457.144 84.375C457.674 84.695 458.079 85.12 458.359 85.65C458.639 86.18 458.779 86.75 458.779 87.36C458.779 87.47 458.774 87.58 458.764 87.69C458.764 87.8 458.764 87.925 458.764 88.065H452.839C452.869 88.635 452.999 89.11 453.229 89.49C453.469 89.86 453.764 90.14 454.114 90.33C454.474 90.52 454.854 90.615 455.254 90.615C455.774 90.615 456.209 90.495 456.559 90.255C456.909 90.015 457.164 89.69 457.324 89.28H458.569C458.369 89.97 457.984 90.545 457.414 91.005C456.854 91.455 456.134 91.68 455.254 91.68ZM455.254 84.945C454.654 84.945 454.119 85.13 453.649 85.5C453.189 85.86 452.924 86.39 452.854 87.09H457.534C457.504 86.42 457.274 85.895 456.844 85.515C456.414 85.135 455.884 84.945 455.254 84.945ZM463.869 91.68C463.159 91.68 462.519 91.52 461.949 91.2C461.389 90.87 460.944 90.415 460.614 89.835C460.294 89.245 460.134 88.56 460.134 87.78C460.134 87 460.294 86.32 460.614 85.74C460.944 85.15 461.389 84.695 461.949 84.375C462.519 84.045 463.159 83.88 463.869 83.88C464.749 83.88 465.489 84.11 466.089 84.57C466.699 85.03 467.084 85.645 467.244 86.415H465.954C465.854 85.955 465.609 85.6 465.219 85.35C464.829 85.09 464.374 84.96 463.854 84.96C463.434 84.96 463.039 85.065 462.669 85.275C462.299 85.485 461.999 85.8 461.769 86.22C461.539 86.64 461.424 87.16 461.424 87.78C461.424 88.4 461.539 88.92 461.769 89.34C461.999 89.76 462.299 90.08 462.669 90.3C463.039 90.51 463.434 90.615 463.854 90.615C464.374 90.615 464.829 90.49 465.219 90.24C465.609 89.98 465.854 89.615 465.954 89.145H467.244C467.094 89.895 466.714 90.505 466.104 90.975C465.494 91.445 464.749 91.68 463.869 91.68ZM471.739 91.5C471.059 91.5 470.524 91.335 470.134 91.005C469.744 90.675 469.549 90.08 469.549 89.22V85.125H468.259V84.06H469.549L469.714 82.275H470.809V84.06H472.999V85.125H470.809V89.22C470.809 89.69 470.904 90.01 471.094 90.18C471.284 90.34 471.619 90.42 472.099 90.42H472.879V91.5H471.739ZM133.885 117.68C132.995 117.68 132.255 117.455 131.665 117.005C131.075 116.555 130.73 115.945 130.63 115.175H131.92C132 115.565 132.205 115.905 132.535 116.195C132.875 116.475 133.33 116.615 133.9 116.615C134.43 116.615 134.82 116.505 135.07 116.285C135.32 116.055 135.445 115.785 135.445 115.475C135.445 115.025 135.28 114.725 134.95 114.575C134.63 114.425 134.175 114.29 133.585 114.17C133.185 114.09 132.785 113.975 132.385 113.825C131.985 113.675 131.65 113.465 131.38 113.195C131.11 112.915 130.975 112.55 130.975 112.1C130.975 111.45 131.215 110.92 131.695 110.51C132.185 110.09 132.845 109.88 133.675 109.88C134.465 109.88 135.11 110.08 135.61 110.48C136.12 110.87 136.415 111.43 136.495 112.16H135.25C135.2 111.78 135.035 111.485 134.755 111.275C134.485 111.055 134.12 110.945 133.66 110.945C133.21 110.945 132.86 111.04 132.61 111.23C132.37 111.42 132.25 111.67 132.25 111.98C132.25 112.28 132.405 112.515 132.715 112.685C133.035 112.855 133.465 113 134.005 113.12C134.465 113.22 134.9 113.345 135.31 113.495C135.73 113.635 136.07 113.85 136.33 114.14C136.6 114.42 136.735 114.83 136.735 115.37C136.745 116.04 136.49 116.595 135.97 117.035C135.46 117.465 134.765 117.68 133.885 117.68ZM141.01 117.68C140.39 117.68 139.875 117.575 139.465 117.365C139.055 117.155 138.75 116.875 138.55 116.525C138.35 116.175 138.25 115.795 138.25 115.385C138.25 114.625 138.54 114.04 139.12 113.63C139.7 113.22 140.49 113.015 141.49 113.015H143.5V112.925C143.5 112.275 143.33 111.785 142.99 111.455C142.65 111.115 142.195 110.945 141.625 110.945C141.135 110.945 140.71 111.07 140.35 111.32C140 111.56 139.78 111.915 139.69 112.385H138.4C138.45 111.845 138.63 111.39 138.94 111.02C139.26 110.65 139.655 110.37 140.125 110.18C140.595 109.98 141.095 109.88 141.625 109.88C142.665 109.88 143.445 110.16 143.965 110.72C144.495 111.27 144.76 112.005 144.76 112.925V117.5H143.635L143.56 116.165C143.35 116.585 143.04 116.945 142.63 117.245C142.23 117.535 141.69 117.68 141.01 117.68ZM141.205 116.615C141.685 116.615 142.095 116.49 142.435 116.24C142.785 115.99 143.05 115.665 143.23 115.265C143.41 114.865 143.5 114.445 143.5 114.005V113.99H141.595C140.855 113.99 140.33 114.12 140.02 114.38C139.72 114.63 139.57 114.945 139.57 115.325C139.57 115.715 139.71 116.03 139.99 116.27C140.28 116.5 140.685 116.615 141.205 116.615ZM146.65 117.5V110.06H147.79L147.88 111.14C148.12 110.74 148.44 110.43 148.84 110.21C149.24 109.99 149.69 109.88 150.19 109.88C150.78 109.88 151.285 110 151.705 110.24C152.135 110.48 152.465 110.845 152.695 111.335C152.955 110.885 153.31 110.53 153.76 110.27C154.22 110.01 154.715 109.88 155.245 109.88C156.135 109.88 156.845 110.15 157.375 110.69C157.905 111.22 158.17 112.04 158.17 113.15V117.5H156.925V113.285C156.925 112.515 156.77 111.935 156.46 111.545C156.15 111.155 155.705 110.96 155.125 110.96C154.525 110.96 154.025 111.195 153.625 111.665C153.235 112.125 153.04 112.785 153.04 113.645V117.5H151.78V113.285C151.78 112.515 151.625 111.935 151.315 111.545C151.005 111.155 150.56 110.96 149.98 110.96C149.39 110.96 148.895 111.195 148.495 111.665C148.105 112.125 147.91 112.785 147.91 113.645V117.5H146.65ZM160.068 120.8V110.06H161.208L161.328 111.29C161.568 110.93 161.908 110.605 162.348 110.315C162.798 110.025 163.368 109.88 164.058 109.88C164.798 109.88 165.443 110.05 165.993 110.39C166.543 110.73 166.968 111.195 167.268 111.785C167.578 112.375 167.733 113.045 167.733 113.795C167.733 114.545 167.578 115.215 167.268 115.805C166.968 116.385 166.538 116.845 165.978 117.185C165.428 117.515 164.783 117.68 164.043 117.68C163.433 117.68 162.888 117.555 162.408 117.305C161.938 117.055 161.578 116.705 161.328 116.255V120.8H160.068ZM163.908 116.585C164.408 116.585 164.848 116.47 165.228 116.24C165.608 116 165.908 115.67 166.128 115.25C166.348 114.83 166.458 114.34 166.458 113.78C166.458 113.22 166.348 112.73 166.128 112.31C165.908 111.89 165.608 111.565 165.228 111.335C164.848 111.095 164.408 110.975 163.908 110.975C163.408 110.975 162.968 111.095 162.588 111.335C162.208 111.565 161.908 111.89 161.688 112.31C161.468 112.73 161.358 113.22 161.358 113.78C161.358 114.34 161.468 114.83 161.688 115.25C161.908 115.67 162.208 116 162.588 116.24C162.968 116.47 163.408 116.585 163.908 116.585ZM169.487 117.5V106.7H170.747V117.5H169.487ZM176.157 117.68C175.447 117.68 174.817 117.52 174.267 117.2C173.717 116.87 173.282 116.415 172.962 115.835C172.652 115.255 172.497 114.57 172.497 113.78C172.497 113 172.652 112.32 172.962 111.74C173.272 111.15 173.702 110.695 174.252 110.375C174.812 110.045 175.457 109.88 176.187 109.88C176.907 109.88 177.527 110.045 178.047 110.375C178.577 110.695 178.982 111.12 179.262 111.65C179.542 112.18 179.682 112.75 179.682 113.36C179.682 113.47 179.677 113.58 179.667 113.69C179.667 113.8 179.667 113.925 179.667 114.065H173.742C173.772 114.635 173.902 115.11 174.132 115.49C174.372 115.86 174.667 116.14 175.017 116.33C175.377 116.52 175.757 116.615 176.157 116.615C176.677 116.615 177.112 116.495 177.462 116.255C177.812 116.015 178.067 115.69 178.227 115.28H179.472C179.272 115.97 178.887 116.545 178.317 117.005C177.757 117.455 177.037 117.68 176.157 117.68ZM176.157 110.945C175.557 110.945 175.022 111.13 174.552 111.5C174.092 111.86 173.827 112.39 173.757 113.09H178.437C178.407 112.42 178.177 111.895 177.747 111.515C177.317 111.135 176.787 110.945 176.157 110.945ZM185.727 117.5V111.125H184.602V110.06H185.727V108.77C185.727 108.05 185.907 107.525 186.267 107.195C186.627 106.865 187.152 106.7 187.842 106.7H188.592V107.78H188.037C187.657 107.78 187.387 107.86 187.227 108.02C187.067 108.17 186.987 108.43 186.987 108.8V110.06H188.817V111.125H186.987V117.5H185.727ZM190.317 117.5V110.06H191.457L191.562 111.485C191.792 110.995 192.142 110.605 192.612 110.315C193.082 110.025 193.662 109.88 194.352 109.88V111.2H194.007C193.567 111.2 193.162 111.28 192.792 111.44C192.422 111.59 192.127 111.85 191.907 112.22C191.687 112.59 191.577 113.1 191.577 113.75V117.5H190.317ZM198.878 117.68C198.178 117.68 197.548 117.52 196.988 117.2C196.428 116.88 195.983 116.43 195.653 115.85C195.333 115.26 195.173 114.57 195.173 113.78C195.173 112.99 195.338 112.305 195.668 111.725C195.998 111.135 196.443 110.68 197.003 110.36C197.573 110.04 198.208 109.88 198.908 109.88C199.608 109.88 200.238 110.04 200.798 110.36C201.358 110.68 201.798 111.135 202.118 111.725C202.448 112.305 202.613 112.99 202.613 113.78C202.613 114.57 202.448 115.26 202.118 115.85C201.788 116.43 201.338 116.88 200.768 117.2C200.208 117.52 199.578 117.68 198.878 117.68ZM198.878 116.6C199.308 116.6 199.708 116.495 200.078 116.285C200.448 116.075 200.748 115.76 200.978 115.34C201.208 114.92 201.323 114.4 201.323 113.78C201.323 113.16 201.208 112.64 200.978 112.22C200.758 111.8 200.463 111.485 200.093 111.275C199.723 111.065 199.328 110.96 198.908 110.96C198.478 110.96 198.078 111.065 197.708 111.275C197.338 111.485 197.038 111.8 196.808 112.22C196.578 112.64 196.463 113.16 196.463 113.78C196.463 114.4 196.578 114.92 196.808 115.34C197.038 115.76 197.333 116.075 197.693 116.285C198.063 116.495 198.458 116.6 198.878 116.6ZM204.365 117.5V110.06H205.505L205.595 111.14C205.835 110.74 206.155 110.43 206.555 110.21C206.955 109.99 207.405 109.88 207.905 109.88C208.495 109.88 209 110 209.42 110.24C209.85 110.48 210.18 110.845 210.41 111.335C210.67 110.885 211.025 110.53 211.475 110.27C211.935 110.01 212.43 109.88 212.96 109.88C213.85 109.88 214.56 110.15 215.09 110.69C215.62 111.22 215.885 112.04 215.885 113.15V117.5H214.64V113.285C214.64 112.515 214.485 111.935 214.175 111.545C213.865 111.155 213.42 110.96 212.84 110.96C212.24 110.96 211.74 111.195 211.34 111.665C210.95 112.125 210.755 112.785 210.755 113.645V117.5H209.495V113.285C209.495 112.515 209.34 111.935 209.03 111.545C208.72 111.155 208.275 110.96 207.695 110.96C207.105 110.96 206.61 111.195 206.21 111.665C205.82 112.125 205.625 112.785 205.625 113.645V117.5H204.365ZM224.693 117.5C224.013 117.5 223.478 117.335 223.088 117.005C222.698 116.675 222.503 116.08 222.503 115.22V111.125H221.213V110.06H222.503L222.668 108.275H223.763V110.06H225.953V111.125H223.763V115.22C223.763 115.69 223.858 116.01 224.048 116.18C224.238 116.34 224.573 116.42 225.053 116.42H225.833V117.5H224.693ZM227.554 117.5V106.7H228.814V111.335C229.064 110.875 229.419 110.52 229.879 110.27C230.339 110.01 230.839 109.88 231.379 109.88C232.239 109.88 232.929 110.15 233.449 110.69C233.969 111.22 234.229 112.04 234.229 113.15V117.5H232.984V113.285C232.984 111.735 232.359 110.96 231.109 110.96C230.459 110.96 229.914 111.195 229.474 111.665C229.034 112.125 228.814 112.785 228.814 113.645V117.5H227.554ZM239.483 117.68C238.773 117.68 238.143 117.52 237.593 117.2C237.043 116.87 236.608 116.415 236.288 115.835C235.978 115.255 235.823 114.57 235.823 113.78C235.823 113 235.978 112.32 236.288 111.74C236.598 111.15 237.028 110.695 237.578 110.375C238.138 110.045 238.783 109.88 239.513 109.88C240.233 109.88 240.853 110.045 241.373 110.375C241.903 110.695 242.308 111.12 242.588 111.65C242.868 112.18 243.008 112.75 243.008 113.36C243.008 113.47 243.003 113.58 242.993 113.69C242.993 113.8 242.993 113.925 242.993 114.065H237.068C237.098 114.635 237.228 115.11 237.458 115.49C237.698 115.86 237.993 116.14 238.343 116.33C238.703 116.52 239.083 116.615 239.483 116.615C240.003 116.615 240.438 116.495 240.788 116.255C241.138 116.015 241.393 115.69 241.553 115.28H242.798C242.598 115.97 242.213 116.545 241.643 117.005C241.083 117.455 240.363 117.68 239.483 117.68ZM239.483 110.945C238.883 110.945 238.348 111.13 237.878 111.5C237.418 111.86 237.153 112.39 237.083 113.09H241.763C241.733 112.42 241.503 111.895 241.073 111.515C240.643 111.135 240.113 110.945 239.483 110.945ZM250.792 117.5L247.972 110.06H249.292L251.527 116.285L253.777 110.06H255.067L252.247 117.5H250.792ZM257.235 108.41C256.985 108.41 256.775 108.33 256.605 108.17C256.445 108 256.365 107.79 256.365 107.54C256.365 107.3 256.445 107.1 256.605 106.94C256.775 106.78 256.985 106.7 257.235 106.7C257.475 106.7 257.68 106.78 257.85 106.94C258.02 107.1 258.105 107.3 258.105 107.54C258.105 107.79 258.02 108 257.85 108.17C257.68 108.33 257.475 108.41 257.235 108.41ZM256.605 117.5V110.06H257.865V117.5H256.605ZM263.478 117.68C262.768 117.68 262.128 117.52 261.558 117.2C260.998 116.87 260.553 116.415 260.223 115.835C259.903 115.245 259.743 114.56 259.743 113.78C259.743 113 259.903 112.32 260.223 111.74C260.553 111.15 260.998 110.695 261.558 110.375C262.128 110.045 262.768 109.88 263.478 109.88C264.358 109.88 265.098 110.11 265.698 110.57C266.308 111.03 266.693 111.645 266.853 112.415H265.563C265.463 111.955 265.218 111.6 264.828 111.35C264.438 111.09 263.983 110.96 263.463 110.96C263.043 110.96 262.648 111.065 262.278 111.275C261.908 111.485 261.608 111.8 261.378 112.22C261.148 112.64 261.033 113.16 261.033 113.78C261.033 114.4 261.148 114.92 261.378 115.34C261.608 115.76 261.908 116.08 262.278 116.3C262.648 116.51 263.043 116.615 263.463 116.615C263.983 116.615 264.438 116.49 264.828 116.24C265.218 115.98 265.463 115.615 265.563 115.145H266.853C266.703 115.895 266.323 116.505 265.713 116.975C265.103 117.445 264.358 117.68 263.478 117.68ZM271.348 117.5C270.668 117.5 270.133 117.335 269.743 117.005C269.353 116.675 269.158 116.08 269.158 115.22V111.125H267.868V110.06H269.158L269.323 108.275H270.418V110.06H272.608V111.125H270.418V115.22C270.418 115.69 270.513 116.01 270.703 116.18C270.893 116.34 271.228 116.42 271.708 116.42H272.488V117.5H271.348ZM277.394 117.68C276.694 117.68 276.064 117.52 275.504 117.2C274.944 116.88 274.499 116.43 274.169 115.85C273.849 115.26 273.689 114.57 273.689 113.78C273.689 112.99 273.854 112.305 274.184 111.725C274.514 111.135 274.959 110.68 275.519 110.36C276.089 110.04 276.724 109.88 277.424 109.88C278.124 109.88 278.754 110.04 279.314 110.36C279.874 110.68 280.314 111.135 280.634 111.725C280.964 112.305 281.129 112.99 281.129 113.78C281.129 114.57 280.964 115.26 280.634 115.85C280.304 116.43 279.854 116.88 279.284 117.2C278.724 117.52 278.094 117.68 277.394 117.68ZM277.394 116.6C277.824 116.6 278.224 116.495 278.594 116.285C278.964 116.075 279.264 115.76 279.494 115.34C279.724 114.92 279.839 114.4 279.839 113.78C279.839 113.16 279.724 112.64 279.494 112.22C279.274 111.8 278.979 111.485 278.609 111.275C278.239 111.065 277.844 110.96 277.424 110.96C276.994 110.96 276.594 111.065 276.224 111.275C275.854 111.485 275.554 111.8 275.324 112.22C275.094 112.64 274.979 113.16 274.979 113.78C274.979 114.4 275.094 114.92 275.324 115.34C275.554 115.76 275.849 116.075 276.209 116.285C276.579 116.495 276.974 116.6 277.394 116.6ZM282.881 117.5V110.06H284.021L284.126 111.485C284.356 110.995 284.706 110.605 285.176 110.315C285.646 110.025 286.226 109.88 286.916 109.88V111.2H286.571C286.131 111.2 285.726 111.28 285.356 111.44C284.986 111.59 284.691 111.85 284.471 112.22C284.251 112.59 284.141 113.1 284.141 113.75V117.5H282.881ZM289.14 120.8L290.985 116.78H290.55L287.595 110.06H288.96L291.42 115.85L294.03 110.06H295.335L290.46 120.8H289.14ZM304.025 117.68C303.325 117.68 302.695 117.52 302.135 117.2C301.575 116.88 301.13 116.43 300.8 115.85C300.48 115.26 300.32 114.57 300.32 113.78C300.32 112.99 300.485 112.305 300.815 111.725C301.145 111.135 301.59 110.68 302.15 110.36C302.72 110.04 303.355 109.88 304.055 109.88C304.755 109.88 305.385 110.04 305.945 110.36C306.505 110.68 306.945 111.135 307.265 111.725C307.595 112.305 307.76 112.99 307.76 113.78C307.76 114.57 307.595 115.26 307.265 115.85C306.935 116.43 306.485 116.88 305.915 117.2C305.355 117.52 304.725 117.68 304.025 117.68ZM304.025 116.6C304.455 116.6 304.855 116.495 305.225 116.285C305.595 116.075 305.895 115.76 306.125 115.34C306.355 114.92 306.47 114.4 306.47 113.78C306.47 113.16 306.355 112.64 306.125 112.22C305.905 111.8 305.61 111.485 305.24 111.275C304.87 111.065 304.475 110.96 304.055 110.96C303.625 110.96 303.225 111.065 302.855 111.275C302.485 111.485 302.185 111.8 301.955 112.22C301.725 112.64 301.61 113.16 301.61 113.78C301.61 114.4 301.725 114.92 301.955 115.34C302.185 115.76 302.48 116.075 302.84 116.285C303.21 116.495 303.605 116.6 304.025 116.6ZM309.917 117.5V111.125H308.792V110.06H309.917V108.77C309.917 108.05 310.097 107.525 310.457 107.195C310.817 106.865 311.342 106.7 312.032 106.7H312.782V107.78H312.227C311.847 107.78 311.577 107.86 311.417 108.02C311.257 108.17 311.177 108.43 311.177 108.8V110.06H313.007V111.125H311.177V117.5H309.917ZM321.416 117.5C320.736 117.5 320.201 117.335 319.811 117.005C319.421 116.675 319.226 116.08 319.226 115.22V111.125H317.936V110.06H319.226L319.391 108.275H320.486V110.06H322.676V111.125H320.486V115.22C320.486 115.69 320.581 116.01 320.771 116.18C320.961 116.34 321.296 116.42 321.776 116.42H322.556V117.5H321.416ZM324.277 117.5V106.7H325.537V111.335C325.787 110.875 326.142 110.52 326.602 110.27C327.062 110.01 327.562 109.88 328.102 109.88C328.962 109.88 329.652 110.15 330.172 110.69C330.692 111.22 330.952 112.04 330.952 113.15V117.5H329.707V113.285C329.707 111.735 329.082 110.96 327.832 110.96C327.182 110.96 326.637 111.195 326.197 111.665C325.757 112.125 325.537 112.785 325.537 113.645V117.5H324.277ZM336.206 117.68C335.496 117.68 334.866 117.52 334.316 117.2C333.766 116.87 333.331 116.415 333.011 115.835C332.701 115.255 332.546 114.57 332.546 113.78C332.546 113 332.701 112.32 333.011 111.74C333.321 111.15 333.751 110.695 334.301 110.375C334.861 110.045 335.506 109.88 336.236 109.88C336.956 109.88 337.576 110.045 338.096 110.375C338.626 110.695 339.031 111.12 339.311 111.65C339.591 112.18 339.731 112.75 339.731 113.36C339.731 113.47 339.726 113.58 339.716 113.69C339.716 113.8 339.716 113.925 339.716 114.065H333.791C333.821 114.635 333.951 115.11 334.181 115.49C334.421 115.86 334.716 116.14 335.066 116.33C335.426 116.52 335.806 116.615 336.206 116.615C336.726 116.615 337.161 116.495 337.511 116.255C337.861 116.015 338.116 115.69 338.276 115.28H339.521C339.321 115.97 338.936 116.545 338.366 117.005C337.806 117.455 337.086 117.68 336.206 117.68ZM336.206 110.945C335.606 110.945 335.071 111.13 334.601 111.5C334.141 111.86 333.876 112.39 333.806 113.09H338.486C338.456 112.42 338.226 111.895 337.796 111.515C337.366 111.135 336.836 110.945 336.206 110.945ZM345.371 117.5V110.06H346.511L346.601 111.14C346.841 110.74 347.161 110.43 347.561 110.21C347.961 109.99 348.411 109.88 348.911 109.88C349.501 109.88 350.006 110 350.426 110.24C350.856 110.48 351.186 110.845 351.416 111.335C351.676 110.885 352.031 110.53 352.481 110.27C352.941 110.01 353.436 109.88 353.966 109.88C354.856 109.88 355.566 110.15 356.096 110.69C356.626 111.22 356.891 112.04 356.891 113.15V117.5H355.646V113.285C355.646 112.515 355.491 111.935 355.181 111.545C354.871 111.155 354.426 110.96 353.846 110.96C353.246 110.96 352.746 111.195 352.346 111.665C351.956 112.125 351.761 112.785 351.761 113.645V117.5H350.501V113.285C350.501 112.515 350.346 111.935 350.036 111.545C349.726 111.155 349.281 110.96 348.701 110.96C348.111 110.96 347.616 111.195 347.216 111.665C346.826 112.125 346.631 112.785 346.631 113.645V117.5H345.371ZM361.264 117.68C360.644 117.68 360.129 117.575 359.719 117.365C359.309 117.155 359.004 116.875 358.804 116.525C358.604 116.175 358.504 115.795 358.504 115.385C358.504 114.625 358.794 114.04 359.374 113.63C359.954 113.22 360.744 113.015 361.744 113.015H363.754V112.925C363.754 112.275 363.584 111.785 363.244 111.455C362.904 111.115 362.449 110.945 361.879 110.945C361.389 110.945 360.964 111.07 360.604 111.32C360.254 111.56 360.034 111.915 359.944 112.385H358.654C358.704 111.845 358.884 111.39 359.194 111.02C359.514 110.65 359.909 110.37 360.379 110.18C360.849 109.98 361.349 109.88 361.879 109.88C362.919 109.88 363.699 110.16 364.219 110.72C364.749 111.27 365.014 112.005 365.014 112.925V117.5H363.889L363.814 116.165C363.604 116.585 363.294 116.945 362.884 117.245C362.484 117.535 361.944 117.68 361.264 117.68ZM361.459 116.615C361.939 116.615 362.349 116.49 362.689 116.24C363.039 115.99 363.304 115.665 363.484 115.265C363.664 114.865 363.754 114.445 363.754 114.005V113.99H361.849C361.109 113.99 360.584 114.12 360.274 114.38C359.974 114.63 359.824 114.945 359.824 115.325C359.824 115.715 359.964 116.03 360.244 116.27C360.534 116.5 360.939 116.615 361.459 116.615ZM366.904 117.5V110.06H368.044L368.119 111.395C368.359 110.925 368.704 110.555 369.154 110.285C369.604 110.015 370.114 109.88 370.684 109.88C371.564 109.88 372.264 110.15 372.784 110.69C373.314 111.22 373.579 112.04 373.579 113.15V117.5H372.319V113.285C372.319 111.735 371.679 110.96 370.399 110.96C369.759 110.96 369.224 111.195 368.794 111.665C368.374 112.125 368.164 112.785 368.164 113.645V117.5H366.904ZM377.963 117.68C377.343 117.68 376.828 117.575 376.418 117.365C376.008 117.155 375.703 116.875 375.503 116.525C375.303 116.175 375.203 115.795 375.203 115.385C375.203 114.625 375.493 114.04 376.073 113.63C376.653 113.22 377.443 113.015 378.443 113.015H380.453V112.925C380.453 112.275 380.283 111.785 379.943 111.455C379.603 111.115 379.148 110.945 378.578 110.945C378.088 110.945 377.663 111.07 377.303 111.32C376.953 111.56 376.733 111.915 376.643 112.385H375.353C375.403 111.845 375.583 111.39 375.893 111.02C376.213 110.65 376.608 110.37 377.078 110.18C377.548 109.98 378.048 109.88 378.578 109.88C379.618 109.88 380.398 110.16 380.918 110.72C381.448 111.27 381.713 112.005 381.713 112.925V117.5H380.588L380.513 116.165C380.303 116.585 379.993 116.945 379.583 117.245C379.183 117.535 378.643 117.68 377.963 117.68ZM378.158 116.615C378.638 116.615 379.048 116.49 379.388 116.24C379.738 115.99 380.003 115.665 380.183 115.265C380.363 114.865 380.453 114.445 380.453 114.005V113.99H378.548C377.808 113.99 377.283 114.12 376.973 114.38C376.673 114.63 376.523 114.945 376.523 115.325C376.523 115.715 376.663 116.03 376.943 116.27C377.233 116.5 377.638 116.615 378.158 116.615ZM386.543 115.16C386.123 115.16 385.738 115.105 385.388 114.995L384.638 115.7C384.748 115.78 384.883 115.85 385.043 115.91C385.213 115.96 385.453 116.01 385.763 116.06C386.073 116.1 386.508 116.145 387.068 116.195C388.068 116.265 388.783 116.495 389.213 116.885C389.643 117.275 389.858 117.785 389.858 118.415C389.858 118.845 389.738 119.255 389.498 119.645C389.268 120.035 388.908 120.355 388.418 120.605C387.938 120.855 387.318 120.98 386.558 120.98C385.888 120.98 385.293 120.89 384.773 120.71C384.253 120.54 383.848 120.275 383.558 119.915C383.268 119.565 383.123 119.12 383.123 118.58C383.123 118.3 383.198 117.995 383.348 117.665C383.498 117.345 383.778 117.04 384.188 116.75C383.968 116.66 383.778 116.565 383.618 116.465C383.468 116.355 383.328 116.235 383.198 116.105V115.76L384.473 114.5C383.883 114 383.588 113.34 383.588 112.52C383.588 112.03 383.703 111.585 383.933 111.185C384.163 110.785 384.498 110.47 384.938 110.24C385.378 110 385.913 109.88 386.543 109.88C386.973 109.88 387.363 109.94 387.713 110.06H390.458V111.005L389.063 111.065C389.353 111.485 389.498 111.97 389.498 112.52C389.498 113.01 389.378 113.455 389.138 113.855C388.908 114.255 388.573 114.575 388.133 114.815C387.703 115.045 387.173 115.16 386.543 115.16ZM386.543 114.125C387.073 114.125 387.493 113.99 387.803 113.72C388.123 113.44 388.283 113.04 388.283 112.52C388.283 112.01 388.123 111.62 387.803 111.35C387.493 111.07 387.073 110.93 386.543 110.93C386.003 110.93 385.573 111.07 385.253 111.35C384.943 111.62 384.788 112.01 384.788 112.52C384.788 113.04 384.943 113.44 385.253 113.72C385.573 113.99 386.003 114.125 386.543 114.125ZM384.353 118.46C384.353 118.96 384.563 119.33 384.983 119.57C385.403 119.82 385.928 119.945 386.558 119.945C387.178 119.945 387.673 119.81 388.043 119.54C388.423 119.27 388.613 118.91 388.613 118.46C388.613 118.14 388.483 117.86 388.223 117.62C387.963 117.39 387.483 117.255 386.783 117.215C386.233 117.175 385.758 117.125 385.358 117.065C384.948 117.285 384.678 117.52 384.548 117.77C384.418 118.03 384.353 118.26 384.353 118.46ZM391.88 117.5V110.06H393.02L393.11 111.14C393.35 110.74 393.67 110.43 394.07 110.21C394.47 109.99 394.92 109.88 395.42 109.88C396.01 109.88 396.515 110 396.935 110.24C397.365 110.48 397.695 110.845 397.925 111.335C398.185 110.885 398.54 110.53 398.99 110.27C399.45 110.01 399.945 109.88 400.475 109.88C401.365 109.88 402.075 110.15 402.605 110.69C403.135 111.22 403.4 112.04 403.4 113.15V117.5H402.155V113.285C402.155 112.515 402 111.935 401.69 111.545C401.38 111.155 400.935 110.96 400.355 110.96C399.755 110.96 399.255 111.195 398.855 111.665C398.465 112.125 398.27 112.785 398.27 113.645V117.5H397.01V113.285C397.01 112.515 396.855 111.935 396.545 111.545C396.235 111.155 395.79 110.96 395.21 110.96C394.62 110.96 394.125 111.195 393.725 111.665C393.335 112.125 393.14 112.785 393.14 113.645V117.5H391.88ZM408.643 117.68C407.933 117.68 407.303 117.52 406.753 117.2C406.203 116.87 405.768 116.415 405.448 115.835C405.138 115.255 404.983 114.57 404.983 113.78C404.983 113 405.138 112.32 405.448 111.74C405.758 111.15 406.188 110.695 406.738 110.375C407.298 110.045 407.943 109.88 408.673 109.88C409.393 109.88 410.013 110.045 410.533 110.375C411.063 110.695 411.468 111.12 411.748 111.65C412.028 112.18 412.168 112.75 412.168 113.36C412.168 113.47 412.163 113.58 412.153 113.69C412.153 113.8 412.153 113.925 412.153 114.065H406.228C406.258 114.635 406.388 115.11 406.618 115.49C406.858 115.86 407.153 116.14 407.503 116.33C407.863 116.52 408.243 116.615 408.643 116.615C409.163 116.615 409.598 116.495 409.948 116.255C410.298 116.015 410.553 115.69 410.713 115.28H411.958C411.758 115.97 411.373 116.545 410.803 117.005C410.243 117.455 409.523 117.68 408.643 117.68ZM408.643 110.945C408.043 110.945 407.508 111.13 407.038 111.5C406.578 111.86 406.313 112.39 406.243 113.09H410.923C410.893 112.42 410.663 111.895 410.233 111.515C409.803 111.135 409.273 110.945 408.643 110.945ZM413.838 117.5V110.06H414.978L415.053 111.395C415.293 110.925 415.638 110.555 416.088 110.285C416.538 110.015 417.048 109.88 417.618 109.88C418.498 109.88 419.198 110.15 419.718 110.69C420.248 111.22 420.513 112.04 420.513 113.15V117.5H419.253V113.285C419.253 111.735 418.613 110.96 417.333 110.96C416.693 110.96 416.158 111.195 415.728 111.665C415.308 112.125 415.098 112.785 415.098 113.645V117.5H413.838ZM425.362 117.5C424.682 117.5 424.147 117.335 423.757 117.005C423.367 116.675 423.172 116.08 423.172 115.22V111.125H421.882V110.06H423.172L423.337 108.275H424.432V110.06H426.622V111.125H424.432V115.22C424.432 115.69 424.527 116.01 424.717 116.18C424.907 116.34 425.242 116.42 425.722 116.42H426.502V117.5H425.362ZM431.073 117.68C430.183 117.68 429.443 117.455 428.853 117.005C428.263 116.555 427.918 115.945 427.818 115.175H429.108C429.188 115.565 429.393 115.905 429.723 116.195C430.063 116.475 430.518 116.615 431.088 116.615C431.618 116.615 432.008 116.505 432.258 116.285C432.508 116.055 432.633 115.785 432.633 115.475C432.633 115.025 432.468 114.725 432.138 114.575C431.818 114.425 431.363 114.29 430.773 114.17C430.373 114.09 429.973 113.975 429.573 113.825C429.173 113.675 428.838 113.465 428.568 113.195C428.298 112.915 428.163 112.55 428.163 112.1C428.163 111.45 428.403 110.92 428.883 110.51C429.373 110.09 430.033 109.88 430.863 109.88C431.653 109.88 432.298 110.08 432.798 110.48C433.308 110.87 433.603 111.43 433.683 112.16H432.438C432.388 111.78 432.223 111.485 431.943 111.275C431.673 111.055 431.308 110.945 430.848 110.945C430.398 110.945 430.048 111.04 429.798 111.23C429.558 111.42 429.438 111.67 429.438 111.98C429.438 112.28 429.593 112.515 429.903 112.685C430.223 112.855 430.653 113 431.193 113.12C431.653 113.22 432.088 113.345 432.498 113.495C432.918 113.635 433.258 113.85 433.518 114.14C433.788 114.42 433.923 114.83 433.923 115.37C433.933 116.04 433.678 116.595 433.158 117.035C432.648 117.465 431.953 117.68 431.073 117.68ZM436.158 117.575C435.908 117.575 435.698 117.495 435.528 117.335C435.368 117.165 435.288 116.96 435.288 116.72C435.288 116.48 435.368 116.28 435.528 116.12C435.698 115.95 435.908 115.865 436.158 115.865C436.398 115.865 436.598 115.95 436.758 116.12C436.928 116.28 437.013 116.48 437.013 116.72C437.013 116.96 436.928 117.165 436.758 117.335C436.598 117.495 436.398 117.575 436.158 117.575ZM131.845 147.8L133.69 143.78H133.255L130.3 137.06H131.665L134.125 142.85L136.735 137.06H138.04L133.165 147.8H131.845ZM142.057 144.68C141.357 144.68 140.727 144.52 140.167 144.2C139.607 143.88 139.162 143.43 138.832 142.85C138.512 142.26 138.352 141.57 138.352 140.78C138.352 139.99 138.517 139.305 138.847 138.725C139.177 138.135 139.622 137.68 140.182 137.36C140.752 137.04 141.387 136.88 142.087 136.88C142.787 136.88 143.417 137.04 143.977 137.36C144.537 137.68 144.977 138.135 145.297 138.725C145.627 139.305 145.792 139.99 145.792 140.78C145.792 141.57 145.627 142.26 145.297 142.85C144.967 143.43 144.517 143.88 143.947 144.2C143.387 144.52 142.757 144.68 142.057 144.68ZM142.057 143.6C142.487 143.6 142.887 143.495 143.257 143.285C143.627 143.075 143.927 142.76 144.157 142.34C144.387 141.92 144.502 141.4 144.502 140.78C144.502 140.16 144.387 139.64 144.157 139.22C143.937 138.8 143.642 138.485 143.272 138.275C142.902 138.065 142.507 137.96 142.087 137.96C141.657 137.96 141.257 138.065 140.887 138.275C140.517 138.485 140.217 138.8 139.987 139.22C139.757 139.64 139.642 140.16 139.642 140.78C139.642 141.4 139.757 141.92 139.987 142.34C140.217 142.76 140.512 143.075 140.872 143.285C141.242 143.495 141.637 143.6 142.057 143.6ZM154.054 137.06V144.5H152.914L152.839 143.165C152.599 143.635 152.254 144.005 151.804 144.275C151.354 144.545 150.844 144.68 150.274 144.68C149.394 144.68 148.689 144.415 148.159 143.885C147.639 143.345 147.379 142.52 147.379 141.41V137.06H148.639V141.275C148.639 142.825 149.279 143.6 150.559 143.6C151.199 143.6 151.729 143.37 152.149 142.91C152.579 142.44 152.794 141.775 152.794 140.915V137.06H154.054ZM156.128 144.5V137.06H157.268L157.373 138.485C157.603 137.995 157.953 137.605 158.423 137.315C158.893 137.025 159.473 136.88 160.163 136.88V138.2H159.818C159.378 138.2 158.973 138.28 158.603 138.44C158.233 138.59 157.938 138.85 157.718 139.22C157.498 139.59 157.388 140.1 157.388 140.75V144.5H156.128ZM169.522 144.68C168.912 144.68 168.367 144.555 167.887 144.305C167.417 144.055 167.057 143.705 166.807 143.255L166.687 144.5H165.547V133.7H166.807V138.29C167.047 137.93 167.387 137.605 167.827 137.315C168.277 137.025 168.847 136.88 169.537 136.88C170.277 136.88 170.922 137.05 171.472 137.39C172.022 137.73 172.447 138.195 172.747 138.785C173.057 139.375 173.212 140.045 173.212 140.795C173.212 141.545 173.057 142.215 172.747 142.805C172.447 143.385 172.017 143.845 171.457 144.185C170.907 144.515 170.262 144.68 169.522 144.68ZM169.387 143.585C169.887 143.585 170.327 143.47 170.707 143.24C171.087 143 171.387 142.67 171.607 142.25C171.827 141.83 171.937 141.34 171.937 140.78C171.937 140.22 171.827 139.73 171.607 139.31C171.387 138.89 171.087 138.565 170.707 138.335C170.327 138.095 169.887 137.975 169.387 137.975C168.887 137.975 168.447 138.095 168.067 138.335C167.687 138.565 167.387 138.89 167.167 139.31C166.947 139.73 166.837 140.22 166.837 140.78C166.837 141.34 166.947 141.83 167.167 142.25C167.387 142.67 167.687 143 168.067 143.24C168.447 143.47 168.887 143.585 169.387 143.585ZM174.966 144.5V133.7H176.226V144.5H174.966ZM181.681 144.68C180.981 144.68 180.351 144.52 179.791 144.2C179.231 143.88 178.786 143.43 178.456 142.85C178.136 142.26 177.976 141.57 177.976 140.78C177.976 139.99 178.141 139.305 178.471 138.725C178.801 138.135 179.246 137.68 179.806 137.36C180.376 137.04 181.011 136.88 181.711 136.88C182.411 136.88 183.041 137.04 183.601 137.36C184.161 137.68 184.601 138.135 184.921 138.725C185.251 139.305 185.416 139.99 185.416 140.78C185.416 141.57 185.251 142.26 184.921 142.85C184.591 143.43 184.141 143.88 183.571 144.2C183.011 144.52 182.381 144.68 181.681 144.68ZM181.681 143.6C182.111 143.6 182.511 143.495 182.881 143.285C183.251 143.075 183.551 142.76 183.781 142.34C184.011 141.92 184.126 141.4 184.126 140.78C184.126 140.16 184.011 139.64 183.781 139.22C183.561 138.8 183.266 138.485 182.896 138.275C182.526 138.065 182.131 137.96 181.711 137.96C181.281 137.96 180.881 138.065 180.511 138.275C180.141 138.485 179.841 138.8 179.611 139.22C179.381 139.64 179.266 140.16 179.266 140.78C179.266 141.4 179.381 141.92 179.611 142.34C179.841 142.76 180.136 143.075 180.496 143.285C180.866 143.495 181.261 143.6 181.681 143.6ZM190.558 144.68C189.858 144.68 189.228 144.52 188.668 144.2C188.108 143.88 187.663 143.43 187.333 142.85C187.013 142.26 186.853 141.57 186.853 140.78C186.853 139.99 187.018 139.305 187.348 138.725C187.678 138.135 188.123 137.68 188.683 137.36C189.253 137.04 189.888 136.88 190.588 136.88C191.288 136.88 191.918 137.04 192.478 137.36C193.038 137.68 193.478 138.135 193.798 138.725C194.128 139.305 194.293 139.99 194.293 140.78C194.293 141.57 194.128 142.26 193.798 142.85C193.468 143.43 193.018 143.88 192.448 144.2C191.888 144.52 191.258 144.68 190.558 144.68ZM190.558 143.6C190.988 143.6 191.388 143.495 191.758 143.285C192.128 143.075 192.428 142.76 192.658 142.34C192.888 141.92 193.003 141.4 193.003 140.78C193.003 140.16 192.888 139.64 192.658 139.22C192.438 138.8 192.143 138.485 191.773 138.275C191.403 138.065 191.008 137.96 190.588 137.96C190.158 137.96 189.758 138.065 189.388 138.275C189.018 138.485 188.718 138.8 188.488 139.22C188.258 139.64 188.143 140.16 188.143 140.78C188.143 141.4 188.258 141.92 188.488 142.34C188.718 142.76 189.013 143.075 189.373 143.285C189.743 143.495 190.138 143.6 190.558 143.6ZM199.42 144.68C198.68 144.68 198.03 144.51 197.47 144.17C196.92 143.83 196.49 143.365 196.18 142.775C195.88 142.185 195.73 141.515 195.73 140.765C195.73 140.015 195.885 139.35 196.195 138.77C196.505 138.18 196.935 137.72 197.485 137.39C198.035 137.05 198.685 136.88 199.435 136.88C200.045 136.88 200.585 137.005 201.055 137.255C201.525 137.505 201.89 137.855 202.15 138.305V133.7H203.41V144.5H202.27L202.15 143.27C201.91 143.63 201.565 143.955 201.115 144.245C200.665 144.535 200.1 144.68 199.42 144.68ZM199.555 143.585C200.055 143.585 200.495 143.47 200.875 143.24C201.265 143 201.565 142.67 201.775 142.25C201.995 141.83 202.105 141.34 202.105 140.78C202.105 140.22 201.995 139.73 201.775 139.31C201.565 138.89 201.265 138.565 200.875 138.335C200.495 138.095 200.055 137.975 199.555 137.975C199.065 137.975 198.625 138.095 198.235 138.335C197.855 138.565 197.555 138.89 197.335 139.31C197.125 139.73 197.02 140.22 197.02 140.78C197.02 141.34 197.125 141.83 197.335 142.25C197.555 142.67 197.855 143 198.235 143.24C198.625 143.47 199.065 143.585 199.555 143.585ZM212.373 144.5C211.693 144.5 211.158 144.335 210.768 144.005C210.378 143.675 210.183 143.08 210.183 142.22V138.125H208.893V137.06H210.183L210.348 135.275H211.443V137.06H213.633V138.125H211.443V142.22C211.443 142.69 211.538 143.01 211.728 143.18C211.918 143.34 212.253 143.42 212.733 143.42H213.513V144.5H212.373ZM218.374 144.68C217.664 144.68 217.034 144.52 216.484 144.2C215.934 143.87 215.499 143.415 215.179 142.835C214.869 142.255 214.714 141.57 214.714 140.78C214.714 140 214.869 139.32 215.179 138.74C215.489 138.15 215.919 137.695 216.469 137.375C217.029 137.045 217.674 136.88 218.404 136.88C219.124 136.88 219.744 137.045 220.264 137.375C220.794 137.695 221.199 138.12 221.479 138.65C221.759 139.18 221.899 139.75 221.899 140.36C221.899 140.47 221.894 140.58 221.884 140.69C221.884 140.8 221.884 140.925 221.884 141.065H215.959C215.989 141.635 216.119 142.11 216.349 142.49C216.589 142.86 216.884 143.14 217.234 143.33C217.594 143.52 217.974 143.615 218.374 143.615C218.894 143.615 219.329 143.495 219.679 143.255C220.029 143.015 220.284 142.69 220.444 142.28H221.689C221.489 142.97 221.104 143.545 220.534 144.005C219.974 144.455 219.254 144.68 218.374 144.68ZM218.374 137.945C217.774 137.945 217.239 138.13 216.769 138.5C216.309 138.86 216.044 139.39 215.974 140.09H220.654C220.624 139.42 220.394 138.895 219.964 138.515C219.534 138.135 219.004 137.945 218.374 137.945ZM226.419 144.68C225.529 144.68 224.789 144.455 224.199 144.005C223.609 143.555 223.264 142.945 223.164 142.175H224.454C224.534 142.565 224.739 142.905 225.069 143.195C225.409 143.475 225.864 143.615 226.434 143.615C226.964 143.615 227.354 143.505 227.604 143.285C227.854 143.055 227.979 142.785 227.979 142.475C227.979 142.025 227.814 141.725 227.484 141.575C227.164 141.425 226.709 141.29 226.119 141.17C225.719 141.09 225.319 140.975 224.919 140.825C224.519 140.675 224.184 140.465 223.914 140.195C223.644 139.915 223.509 139.55 223.509 139.1C223.509 138.45 223.749 137.92 224.229 137.51C224.719 137.09 225.379 136.88 226.209 136.88C226.999 136.88 227.644 137.08 228.144 137.48C228.654 137.87 228.949 138.43 229.029 139.16H227.784C227.734 138.78 227.569 138.485 227.289 138.275C227.019 138.055 226.654 137.945 226.194 137.945C225.744 137.945 225.394 138.04 225.144 138.23C224.904 138.42 224.784 138.67 224.784 138.98C224.784 139.28 224.939 139.515 225.249 139.685C225.569 139.855 225.999 140 226.539 140.12C226.999 140.22 227.434 140.345 227.844 140.495C228.264 140.635 228.604 140.85 228.864 141.14C229.134 141.42 229.269 141.83 229.269 142.37C229.279 143.04 229.024 143.595 228.504 144.035C227.994 144.465 227.299 144.68 226.419 144.68ZM233.672 144.5C232.992 144.5 232.457 144.335 232.067 144.005C231.677 143.675 231.482 143.08 231.482 142.22V138.125H230.192V137.06H231.482L231.647 135.275H232.742V137.06H234.932V138.125H232.742V142.22C232.742 142.69 232.837 143.01 233.027 143.18C233.217 143.34 233.552 143.42 234.032 143.42H234.812V144.5H233.672ZM239.383 144.68C238.493 144.68 237.753 144.455 237.163 144.005C236.573 143.555 236.228 142.945 236.128 142.175H237.418C237.498 142.565 237.703 142.905 238.033 143.195C238.373 143.475 238.828 143.615 239.398 143.615C239.928 143.615 240.318 143.505 240.568 143.285C240.818 143.055 240.943 142.785 240.943 142.475C240.943 142.025 240.778 141.725 240.448 141.575C240.128 141.425 239.673 141.29 239.083 141.17C238.683 141.09 238.283 140.975 237.883 140.825C237.483 140.675 237.148 140.465 236.878 140.195C236.608 139.915 236.473 139.55 236.473 139.1C236.473 138.45 236.713 137.92 237.193 137.51C237.683 137.09 238.343 136.88 239.173 136.88C239.963 136.88 240.608 137.08 241.108 137.48C241.618 137.87 241.913 138.43 241.993 139.16H240.748C240.698 138.78 240.533 138.485 240.253 138.275C239.983 138.055 239.618 137.945 239.158 137.945C238.708 137.945 238.358 138.04 238.108 138.23C237.868 138.42 237.748 138.67 237.748 138.98C237.748 139.28 237.903 139.515 238.213 139.685C238.533 139.855 238.963 140 239.503 140.12C239.963 140.22 240.398 140.345 240.808 140.495C241.228 140.635 241.568 140.85 241.828 141.14C242.098 141.42 242.233 141.83 242.233 142.37C242.243 143.04 241.988 143.595 241.468 144.035C240.958 144.465 240.263 144.68 239.383 144.68ZM244.468 144.575C244.218 144.575 244.008 144.495 243.838 144.335C243.678 144.165 243.598 143.96 243.598 143.72C243.598 143.48 243.678 143.28 243.838 143.12C244.008 142.95 244.218 142.865 244.468 142.865C244.708 142.865 244.908 142.95 245.068 143.12C245.238 143.28 245.323 143.48 245.323 143.72C245.323 143.96 245.238 144.165 245.068 144.335C244.908 144.495 244.708 144.575 244.468 144.575Z" fill="#343D48"/>
<path opacity="0.1" fill-rule="evenodd" clip-rule="evenodd" d="M79.5416 40.7916H87.4583C100.575 40.7916 111.208 51.4246 111.208 64.5416V72.4583C111.208 85.5748 100.575 96.2082 87.4583 96.2082H79.5416C66.4249 96.2082 55.7916 85.5748 55.7916 72.4583V64.5416C55.7916 51.4246 66.4249 40.7916 79.5416 40.7916Z" fill="url(#paint0_linear_1_490)"/>
<path fill-rule="evenodd" clip-rule="evenodd" d="M97.3891 65.2214C97.3936 65.3023 97.3877 65.3845 97.3675 65.467L95.5607 72.7235C95.4695 73.0887 95.1432 73.3462 94.7681 73.3483L83.9274 73.4033C83.926 73.4033 83.9247 73.4033 83.9232 73.4033H73.0825C72.7053 73.4033 72.3767 73.1449 72.2857 72.7776L70.4789 65.4934C70.458 65.4091 70.4521 65.3244 70.4573 65.2414C69.7583 65.0206 69.25 64.3638 69.25 63.59C69.25 62.6345 70.0236 61.8577 70.9746 61.8577C71.9256 61.8577 72.6993 62.6345 72.6993 63.59C72.6993 64.1276 72.4538 64.6085 72.0696 64.9269L74.3317 67.2151C74.9034 67.7935 75.6967 68.1255 76.5083 68.1255C77.468 68.1255 78.383 67.6675 78.9592 66.901L82.6769 61.9547C82.3646 61.6415 82.1711 61.2086 82.1711 60.7311C82.1711 59.776 82.9448 58.9988 83.8958 58.9988C84.8468 58.9988 85.6204 59.776 85.6204 60.7311C85.6204 61.1942 85.4373 61.6142 85.1413 61.9254C85.1423 61.9267 85.1436 61.9279 85.1445 61.9292L88.8351 66.889C89.4112 67.6628 90.3294 68.1255 91.2918 68.1255C92.1109 68.1255 92.8812 67.805 93.4603 67.2236L95.7366 64.9375C95.3443 64.6196 95.0923 64.1344 95.0923 63.59C95.0923 62.6345 95.866 61.8577 96.817 61.8577C97.768 61.8577 98.5417 62.6345 98.5417 63.59C98.5417 64.3429 98.0592 64.9839 97.3891 65.2214ZM95.3844 75.9868C95.3844 75.5318 95.0166 75.1624 94.5631 75.1624H73.3198C72.8662 75.1624 72.4985 75.5318 72.4985 75.9868V77.966C72.4985 78.4218 72.8662 78.7908 73.3198 78.7908H94.5631C95.0166 78.7908 95.3844 78.4218 95.3844 77.966V75.9868Z" fill="#FE5868"/>
<defs>
<filter id="filter0_d_1_490" x="0.105999" y="0.16748" width="545.788" height="205.664" filterUnits="userSpaceOnUse" color-interpolation-filters="sRGB">
<feFlood flood-opacity="0" result="BackgroundImageFix"/>
<feColorMatrix in="SourceAlpha" type="matrix" values="0 0 0 0 0 0 0 0 0 0 0 0 0 0 0 0 0 0 127 0" result="hardAlpha"/>
<feOffset dy="8"/>
<feGaussianBlur stdDeviation="12"/>
<feColorMatrix type="matrix" values="0 0 0 0 0.269792 0 0 0 0 0.346104 0 0 0 0 0.616667 0 0 0 0.07 0"/>
<feBlend mode="normal" in2="BackgroundImageFix" result="effect1_dropShadow_1_490"/>
<feBlend mode="normal" in="SourceGraphic" in2="effect1_dropShadow_1_490" result="shape"/>
</filter>
<linearGradient id="paint0_linear_1_490" x1="87.7855" y1="129.785" x2="144.785" y2="64.2145" gradientUnits="userSpaceOnUse">
<stop stop-color="#FF5858"/>
<stop offset="1" stop-color="#F857A6"/>
</linearGradient>
</defs>
</svg>
