<svg width="150" height="50" viewBox="0 0 150 50" fill="none" xmlns="http://www.w3.org/2000/svg">
<rect width="150" height="50" rx="25" fill="#1F3E76"/>
<path d="M37 30.192C35.944 30.192 35.0213 29.952 34.232 29.472C33.4427 28.992 32.8293 28.32 32.392 27.456C31.9547 26.592 31.736 25.584 31.736 24.432C31.736 23.2907 31.96 22.2827 32.408 21.408C32.856 20.5333 33.4907 19.8507 34.312 19.36C35.144 18.8587 36.1253 18.608 37.256 18.608C38.536 18.608 39.6027 18.9173 40.456 19.536C41.3093 20.1547 41.864 21.008 42.12 22.096H40.2C40.0293 21.4987 39.6933 21.0293 39.192 20.688C38.6907 20.3467 38.0453 20.176 37.256 20.176C36.0827 20.176 35.16 20.5547 34.488 21.312C33.816 22.0693 33.48 23.1147 33.48 24.448C33.48 25.7813 33.8107 26.8213 34.472 27.568C35.1333 28.3147 36.0133 28.688 37.112 28.688C38.2213 28.688 39.0533 28.3733 39.608 27.744C40.1733 27.1147 40.504 26.2773 40.6 25.232H37.56V23.92H42.312V30H40.76L40.616 28.352C40.2427 28.9387 39.7733 29.392 39.208 29.712C38.6427 30.032 37.9067 30.192 37 30.192ZM47.8584 30.192C47.0797 30.192 46.3864 30.0213 45.7784 29.68C45.181 29.328 44.7117 28.8427 44.3704 28.224C44.029 27.6053 43.8584 26.8853 43.8584 26.064C43.8584 25.232 44.0237 24.5013 44.3544 23.872C44.6957 23.2427 45.165 22.752 45.7624 22.4C46.3704 22.048 47.0744 21.872 47.8744 21.872C48.653 21.872 49.3304 22.048 49.9064 22.4C50.4824 22.7413 50.9304 23.2 51.2504 23.776C51.5704 24.352 51.7304 24.9867 51.7304 25.68C51.7304 25.7867 51.725 25.904 51.7144 26.032C51.7144 26.1493 51.709 26.2827 51.6984 26.432H45.5224C45.5757 27.2 45.8264 27.7867 46.2744 28.192C46.733 28.5867 47.261 28.784 47.8584 28.784C48.3384 28.784 48.7384 28.6773 49.0584 28.464C49.389 28.24 49.6344 27.9413 49.7944 27.568H51.4904C51.277 28.3147 50.8504 28.9387 50.2104 29.44C49.581 29.9413 48.797 30.192 47.8584 30.192ZM47.8584 23.264C47.293 23.264 46.7917 23.4347 46.3544 23.776C45.917 24.1067 45.6504 24.608 45.5544 25.28H50.0344C50.0024 24.6613 49.7837 24.1707 49.3784 23.808C48.973 23.4453 48.4664 23.264 47.8584 23.264ZM56.455 30C55.6763 30 55.0577 29.8133 54.599 29.44C54.1403 29.056 53.911 28.3787 53.911 27.408V23.488H52.551V22.064H53.911L54.119 20.048H55.607V22.064H57.847V23.488H55.607V27.408C55.607 27.8453 55.6977 28.1493 55.879 28.32C56.071 28.48 56.3963 28.56 56.855 28.56H57.767V30H56.455ZM67.067 30.192C66.2457 30.192 65.5257 30.048 64.907 29.76C64.2883 29.472 63.803 29.0613 63.451 28.528C63.1097 27.9947 62.9337 27.36 62.923 26.624H64.715C64.7257 27.2213 64.9337 27.728 65.339 28.144C65.7443 28.56 66.315 28.768 67.051 28.768C67.7017 28.768 68.2083 28.6133 68.571 28.304C68.9443 27.984 69.131 27.5787 69.131 27.088C69.131 26.6933 69.0403 26.3733 68.859 26.128C68.6883 25.8827 68.4483 25.68 68.139 25.52C67.8403 25.36 67.4937 25.216 67.099 25.088C66.7043 24.96 66.2883 24.8213 65.851 24.672C64.987 24.384 64.3363 24.0107 63.899 23.552C63.4723 23.0933 63.259 22.4907 63.259 21.744C63.2483 21.1147 63.3923 20.5653 63.691 20.096C64.0003 19.6267 64.427 19.264 64.971 19.008C65.5257 18.7413 66.171 18.608 66.907 18.608C67.6323 18.608 68.267 18.7413 68.811 19.008C69.3657 19.2747 69.7977 19.648 70.107 20.128C70.4163 20.5973 70.5763 21.1467 70.587 21.776H68.795C68.795 21.488 68.7203 21.216 68.571 20.96C68.4217 20.6933 68.203 20.4747 67.915 20.304C67.627 20.1333 67.275 20.048 66.859 20.048C66.3257 20.0373 65.883 20.1707 65.531 20.448C65.1897 20.7253 65.019 21.1093 65.019 21.6C65.019 22.0373 65.147 22.3733 65.403 22.608C65.659 22.8427 66.011 23.04 66.459 23.2C66.907 23.3493 67.419 23.5253 67.995 23.728C68.5497 23.9093 69.0457 24.128 69.483 24.384C69.9203 24.64 70.267 24.976 70.523 25.392C70.7897 25.808 70.923 26.336 70.923 26.976C70.923 27.5413 70.779 28.0693 70.491 28.56C70.203 29.04 69.771 29.4347 69.195 29.744C68.619 30.0427 67.9097 30.192 67.067 30.192ZM75.8813 30C75.1026 30 74.4839 29.8133 74.0253 29.44C73.5666 29.056 73.3373 28.3787 73.3373 27.408V23.488H71.9773V22.064H73.3373L73.5453 20.048H75.0333V22.064H77.2733V23.488H75.0333V27.408C75.0333 27.8453 75.1239 28.1493 75.3053 28.32C75.4973 28.48 75.8226 28.56 76.2813 28.56H77.1933V30H75.8813ZM81.55 30.192C80.878 30.192 80.3233 30.08 79.886 29.856C79.4487 29.632 79.1233 29.3387 78.91 28.976C78.6967 28.6027 78.59 28.1973 78.59 27.76C78.59 26.992 78.8887 26.384 79.486 25.936C80.0833 25.488 80.9367 25.264 82.046 25.264H84.126V25.12C84.126 24.5013 83.9553 24.0373 83.614 23.728C83.2833 23.4187 82.8513 23.264 82.318 23.264C81.8487 23.264 81.438 23.3813 81.086 23.616C80.7447 23.84 80.5367 24.176 80.462 24.624H78.766C78.8193 24.048 79.0113 23.5573 79.342 23.152C79.6833 22.736 80.11 22.4213 80.622 22.208C81.1447 21.984 81.7153 21.872 82.334 21.872C83.4433 21.872 84.302 22.1653 84.91 22.752C85.518 23.328 85.822 24.1173 85.822 25.12V30H84.35L84.206 28.64C83.982 29.0773 83.6567 29.4453 83.23 29.744C82.8033 30.0427 82.2433 30.192 81.55 30.192ZM81.886 28.816C82.3447 28.816 82.7287 28.7093 83.038 28.496C83.358 28.272 83.6033 27.9787 83.774 27.616C83.9553 27.2533 84.0673 26.8533 84.11 26.416H82.222C81.55 26.416 81.07 26.5333 80.782 26.768C80.5047 27.0027 80.366 27.296 80.366 27.648C80.366 28.0107 80.4993 28.2987 80.766 28.512C81.0433 28.7147 81.4167 28.816 81.886 28.816ZM87.6395 30V22.064H89.1595L89.3035 23.568C89.5808 23.0453 89.9648 22.6347 90.4555 22.336C90.9568 22.0267 91.5595 21.872 92.2635 21.872V23.648H91.7995C91.3302 23.648 90.9088 23.728 90.5355 23.888C90.1728 24.0373 89.8795 24.2987 89.6555 24.672C89.4422 25.0347 89.3355 25.5413 89.3355 26.192V30H87.6395ZM96.8856 30C96.107 30 95.4883 29.8133 95.0296 29.44C94.571 29.056 94.3416 28.3787 94.3416 27.408V23.488H92.9816V22.064H94.3416L94.5496 20.048H96.0376V22.064H98.2776V23.488H96.0376V27.408C96.0376 27.8453 96.1283 28.1493 96.3096 28.32C96.5016 28.48 96.827 28.56 97.2856 28.56H98.1976V30H96.8856ZM103.375 30.192C102.597 30.192 101.903 30.0213 101.295 29.68C100.698 29.328 100.229 28.8427 99.8872 28.224C99.5459 27.6053 99.3752 26.8853 99.3752 26.064C99.3752 25.232 99.5406 24.5013 99.8712 23.872C100.213 23.2427 100.682 22.752 101.279 22.4C101.887 22.048 102.591 21.872 103.391 21.872C104.17 21.872 104.847 22.048 105.423 22.4C105.999 22.7413 106.447 23.2 106.767 23.776C107.087 24.352 107.247 24.9867 107.247 25.68C107.247 25.7867 107.242 25.904 107.231 26.032C107.231 26.1493 107.226 26.2827 107.215 26.432H101.039C101.093 27.2 101.343 27.7867 101.791 28.192C102.25 28.5867 102.778 28.784 103.375 28.784C103.855 28.784 104.255 28.6773 104.575 28.464C104.906 28.24 105.151 27.9413 105.311 27.568H107.007C106.794 28.3147 106.367 28.9387 105.727 29.44C105.098 29.9413 104.314 30.192 103.375 30.192ZM103.375 23.264C102.81 23.264 102.309 23.4347 101.871 23.776C101.434 24.1067 101.167 24.608 101.071 25.28H105.551C105.519 24.6613 105.301 24.1707 104.895 23.808C104.49 23.4453 103.983 23.264 103.375 23.264ZM112.463 30.192C111.695 30.192 111.018 30.0107 110.431 29.648C109.844 29.2853 109.386 28.7893 109.055 28.16C108.724 27.5307 108.559 26.816 108.559 26.016C108.559 25.216 108.724 24.5067 109.055 23.888C109.386 23.2587 109.844 22.768 110.431 22.416C111.028 22.0533 111.711 21.872 112.479 21.872C113.108 21.872 113.658 21.9947 114.127 22.24C114.607 22.4853 114.98 22.832 115.247 23.28V18.48H116.943V30H115.423L115.247 28.768C114.991 29.1413 114.639 29.472 114.191 29.76C113.743 30.048 113.167 30.192 112.463 30.192ZM112.767 28.72C113.492 28.72 114.084 28.4693 114.543 27.968C115.012 27.4667 115.247 26.8213 115.247 26.032C115.247 25.232 115.012 24.5867 114.543 24.096C114.084 23.5947 113.492 23.344 112.767 23.344C112.042 23.344 111.444 23.5947 110.975 24.096C110.506 24.5867 110.271 25.232 110.271 26.032C110.271 26.5547 110.378 27.0187 110.591 27.424C110.804 27.8293 111.098 28.1493 111.471 28.384C111.855 28.608 112.287 28.72 112.767 28.72Z" fill="white"/>
</svg>
