<svg width="370" height="106" viewBox="0 0 370 106" fill="none" xmlns="http://www.w3.org/2000/svg">
<path d="M108.224 13.5031V0.903051H113.282C114.59 0.903051 115.586 1.20905 116.27 1.82105C116.966 2.42105 117.314 3.19505 117.314 4.14305C117.314 4.93505 117.098 5.57105 116.666 6.05105C116.246 6.51905 115.73 6.83705 115.118 7.00505C115.838 7.14905 116.432 7.50905 116.9 8.08505C117.368 8.64905 117.602 9.30905 117.602 10.0651C117.602 11.0611 117.242 11.8831 116.522 12.5311C115.802 13.1791 114.782 13.5031 113.462 13.5031H108.224ZM110.528 6.19505H112.94C113.588 6.19505 114.086 6.04505 114.434 5.74505C114.782 5.44505 114.956 5.01905 114.956 4.46705C114.956 3.93905 114.782 3.52505 114.434 3.22505C114.098 2.91305 113.588 2.75705 112.904 2.75705H110.528V6.19505ZM110.528 11.6311H113.102C113.786 11.6311 114.314 11.4751 114.686 11.1631C115.07 10.8391 115.262 10.3891 115.262 9.81305C115.262 9.22505 115.064 8.76305 114.668 8.42705C114.272 8.09105 113.738 7.92305 113.066 7.92305H110.528V11.6311ZM123.809 13.7191C122.945 13.7191 122.165 13.5211 121.469 13.1251C120.785 12.7291 120.239 12.1831 119.831 11.4871C119.435 10.7791 119.237 9.96305 119.237 9.03905C119.237 8.11505 119.441 7.30505 119.849 6.60905C120.257 5.90105 120.803 5.34905 121.487 4.95305C122.183 4.55705 122.963 4.35905 123.827 4.35905C124.679 4.35905 125.447 4.55705 126.131 4.95305C126.827 5.34905 127.373 5.90105 127.769 6.60905C128.177 7.30505 128.381 8.11505 128.381 9.03905C128.381 9.96305 128.177 10.7791 127.769 11.4871C127.373 12.1831 126.827 12.7291 126.131 13.1251C125.435 13.5211 124.661 13.7191 123.809 13.7191ZM123.809 11.7211C124.409 11.7211 124.931 11.4991 125.375 11.0551C125.819 10.5991 126.041 9.92705 126.041 9.03905C126.041 8.15105 125.819 7.48505 125.375 7.04105C124.931 6.58505 124.415 6.35705 123.827 6.35705C123.215 6.35705 122.687 6.58505 122.243 7.04105C121.811 7.48505 121.595 8.15105 121.595 9.03905C121.595 9.92705 121.811 10.5991 122.243 11.0551C122.687 11.4991 123.209 11.7211 123.809 11.7211ZM134.725 13.7191C133.861 13.7191 133.081 13.5211 132.385 13.1251C131.701 12.7291 131.155 12.1831 130.747 11.4871C130.351 10.7791 130.153 9.96305 130.153 9.03905C130.153 8.11505 130.357 7.30505 130.765 6.60905C131.173 5.90105 131.719 5.34905 132.403 4.95305C133.099 4.55705 133.879 4.35905 134.743 4.35905C135.595 4.35905 136.363 4.55705 137.047 4.95305C137.743 5.34905 138.289 5.90105 138.685 6.60905C139.093 7.30505 139.297 8.11505 139.297 9.03905C139.297 9.96305 139.093 10.7791 138.685 11.4871C138.289 12.1831 137.743 12.7291 137.047 13.1251C136.351 13.5211 135.577 13.7191 134.725 13.7191ZM134.725 11.7211C135.325 11.7211 135.847 11.4991 136.291 11.0551C136.735 10.5991 136.957 9.92705 136.957 9.03905C136.957 8.15105 136.735 7.48505 136.291 7.04105C135.847 6.58505 135.331 6.35705 134.743 6.35705C134.131 6.35705 133.603 6.58505 133.159 7.04105C132.727 7.48505 132.511 8.15105 132.511 9.03905C132.511 9.92705 132.727 10.5991 133.159 11.0551C133.603 11.4991 134.125 11.7211 134.725 11.7211ZM145.048 13.7191C144.256 13.7191 143.56 13.5931 142.96 13.3411C142.36 13.0771 141.88 12.7171 141.52 12.2611C141.16 11.8051 140.944 11.2771 140.872 10.6771H143.194C143.266 11.0251 143.458 11.3251 143.77 11.5771C144.094 11.8171 144.508 11.9371 145.012 11.9371C145.516 11.9371 145.882 11.8351 146.11 11.6311C146.35 11.4271 146.47 11.1931 146.47 10.9291C146.47 10.5451 146.302 10.2871 145.966 10.1551C145.63 10.0111 145.162 9.87305 144.562 9.74105C144.178 9.65705 143.788 9.55505 143.392 9.43505C142.996 9.31505 142.63 9.16505 142.294 8.98505C141.97 8.79305 141.706 8.55305 141.502 8.26505C141.298 7.96505 141.196 7.59905 141.196 7.16705C141.196 6.37505 141.508 5.70905 142.132 5.16905C142.768 4.62905 143.656 4.35905 144.796 4.35905C145.852 4.35905 146.692 4.60505 147.316 5.09705C147.952 5.58905 148.33 6.26705 148.45 7.13105H146.272C146.14 6.47105 145.642 6.14105 144.778 6.14105C144.346 6.14105 144.01 6.22505 143.77 6.39305C143.542 6.56105 143.428 6.77105 143.428 7.02305C143.428 7.28705 143.602 7.49705 143.95 7.65305C144.298 7.80905 144.76 7.95305 145.336 8.08505C145.96 8.22905 146.53 8.39105 147.046 8.57105C147.574 8.73905 147.994 8.99705 148.306 9.34505C148.618 9.68105 148.774 10.1671 148.774 10.8031C148.786 11.3551 148.642 11.8531 148.342 12.2971C148.042 12.7411 147.61 13.0891 147.046 13.3411C146.482 13.5931 145.816 13.7191 145.048 13.7191ZM154.511 13.5031C153.575 13.5031 152.825 13.2751 152.261 12.8191C151.697 12.3631 151.415 11.5531 151.415 10.3891V6.50105H149.885V4.57505H151.415L151.685 2.18105H153.719V4.57505H156.131V6.50105H153.719V10.4071C153.719 10.8391 153.809 11.1391 153.989 11.3071C154.181 11.4631 154.505 11.5411 154.961 11.5411H156.077V13.5031H154.511ZM162.453 13.5031V0.903051H167.115C168.123 0.903051 168.957 1.07105 169.617 1.40705C170.277 1.74305 170.769 2.20505 171.093 2.79305C171.417 3.38105 171.579 4.04105 171.579 4.77305C171.579 5.46905 171.423 6.11105 171.111 6.69905C170.799 7.27505 170.313 7.74305 169.653 8.10305C168.993 8.45105 168.147 8.62505 167.115 8.62505H164.757V13.5031H162.453ZM164.757 6.75305H166.971C167.775 6.75305 168.351 6.57905 168.699 6.23105C169.059 5.87105 169.239 5.38505 169.239 4.77305C169.239 4.14905 169.059 3.66305 168.699 3.31505C168.351 2.95505 167.775 2.77505 166.971 2.77505H164.757V6.75305ZM173.332 13.5031V4.57505H175.384L175.6 6.24905C175.924 5.67305 176.362 5.21705 176.914 4.88105C177.478 4.53305 178.138 4.35905 178.894 4.35905V6.78905H178.246C177.742 6.78905 177.292 6.86705 176.896 7.02305C176.5 7.17905 176.188 7.44905 175.96 7.83305C175.744 8.21705 175.636 8.75105 175.636 9.43505V13.5031H173.332ZM184.595 13.7191C183.731 13.7191 182.951 13.5211 182.255 13.1251C181.571 12.7291 181.025 12.1831 180.617 11.4871C180.221 10.7791 180.023 9.96305 180.023 9.03905C180.023 8.11505 180.227 7.30505 180.635 6.60905C181.043 5.90105 181.589 5.34905 182.273 4.95305C182.969 4.55705 183.749 4.35905 184.613 4.35905C185.465 4.35905 186.233 4.55705 186.917 4.95305C187.613 5.34905 188.159 5.90105 188.555 6.60905C188.963 7.30505 189.167 8.11505 189.167 9.03905C189.167 9.96305 188.963 10.7791 188.555 11.4871C188.159 12.1831 187.613 12.7291 186.917 13.1251C186.221 13.5211 185.447 13.7191 184.595 13.7191ZM184.595 11.7211C185.195 11.7211 185.717 11.4991 186.161 11.0551C186.605 10.5991 186.827 9.92705 186.827 9.03905C186.827 8.15105 186.605 7.48505 186.161 7.04105C185.717 6.58505 185.201 6.35705 184.613 6.35705C184.001 6.35705 183.473 6.58505 183.029 7.04105C182.597 7.48505 182.381 8.15105 182.381 9.03905C182.381 9.92705 182.597 10.5991 183.029 11.0551C183.473 11.4991 183.995 11.7211 184.595 11.7211ZM195.331 13.7191C194.491 13.7191 193.741 13.5151 193.081 13.1071C192.421 12.6991 191.899 12.1411 191.515 11.4331C191.131 10.7251 190.939 9.92105 190.939 9.02105C190.939 8.12105 191.131 7.32305 191.515 6.62705C191.899 5.91905 192.421 5.36705 193.081 4.97105C193.741 4.56305 194.491 4.35905 195.331 4.35905C196.003 4.35905 196.591 4.48505 197.095 4.73705C197.599 4.98905 198.007 5.34305 198.319 5.79905V0.543051H200.623V13.5031H198.571L198.319 12.2251C198.031 12.6211 197.647 12.9691 197.167 13.2691C196.699 13.5691 196.087 13.7191 195.331 13.7191ZM195.817 11.7031C196.561 11.7031 197.167 11.4571 197.635 10.9651C198.115 10.4611 198.355 9.81905 198.355 9.03905C198.355 8.25905 198.115 7.62305 197.635 7.13105C197.167 6.62705 196.561 6.37505 195.817 6.37505C195.085 6.37505 194.479 6.62105 193.999 7.11305C193.519 7.60505 193.279 8.24105 193.279 9.02105C193.279 9.80105 193.519 10.4431 193.999 10.9471C194.479 11.4511 195.085 11.7031 195.817 11.7031ZM206.317 13.7191C205.201 13.7191 204.337 13.3711 203.725 12.6751C203.125 11.9791 202.825 10.9591 202.825 9.61505V4.57505H205.111V9.39905C205.111 10.1671 205.267 10.7551 205.579 11.1631C205.891 11.5711 206.383 11.7751 207.055 11.7751C207.691 11.7751 208.213 11.5471 208.621 11.0911C209.041 10.6351 209.251 9.99905 209.251 9.18305V4.57505H211.555V13.5031H209.521L209.341 11.9911C209.065 12.5191 208.663 12.9391 208.135 13.2511C207.619 13.5631 207.013 13.7191 206.317 13.7191ZM218.294 13.7191C217.382 13.7191 216.578 13.5211 215.882 13.1251C215.186 12.7291 214.634 12.1771 214.226 11.4691C213.83 10.7611 213.632 9.95105 213.632 9.03905C213.632 8.12705 213.83 7.31705 214.226 6.60905C214.634 5.90105 215.186 5.34905 215.882 4.95305C216.578 4.55705 217.382 4.35905 218.294 4.35905C219.434 4.35905 220.394 4.65905 221.174 5.25905C221.954 5.84705 222.452 6.66305 222.668 7.70705H220.238C220.118 7.27505 219.878 6.93905 219.518 6.69905C219.17 6.44705 218.756 6.32105 218.276 6.32105C217.64 6.32105 217.1 6.56105 216.656 7.04105C216.212 7.52105 215.99 8.18705 215.99 9.03905C215.99 9.89105 216.212 10.5571 216.656 11.0371C217.1 11.5171 217.64 11.7571 218.276 11.7571C218.756 11.7571 219.17 11.6371 219.518 11.3971C219.878 11.1571 220.118 10.8151 220.238 10.3711H222.668C222.452 11.3791 221.954 12.1891 221.174 12.8011C220.394 13.4131 219.434 13.7191 218.294 13.7191ZM228.568 13.5031C227.632 13.5031 226.882 13.2751 226.318 12.8191C225.754 12.3631 225.472 11.5531 225.472 10.3891V6.50105H223.942V4.57505H225.472L225.742 2.18105H227.776V4.57505H230.188V6.50105H227.776V10.4071C227.776 10.8391 227.866 11.1391 228.046 11.3071C228.238 11.4631 228.562 11.5411 229.018 11.5411H230.134V13.5031H228.568ZM233.408 3.18905C232.988 3.18905 232.64 3.06305 232.364 2.81105C232.1 2.55905 231.968 2.24105 231.968 1.85705C231.968 1.47305 232.1 1.16105 232.364 0.921051C232.64 0.669051 232.988 0.543051 233.408 0.543051C233.828 0.543051 234.17 0.669051 234.434 0.921051C234.71 1.16105 234.848 1.47305 234.848 1.85705C234.848 2.24105 234.71 2.55905 234.434 2.81105C234.17 3.06305 233.828 3.18905 233.408 3.18905ZM232.256 13.5031V4.57505H234.56V13.5031H232.256ZM239.377 13.5031L236.101 4.57505H238.513L240.781 11.3251L243.049 4.57505H245.461L242.167 13.5031H239.377ZM248.156 3.18905C247.736 3.18905 247.388 3.06305 247.112 2.81105C246.848 2.55905 246.716 2.24105 246.716 1.85705C246.716 1.47305 246.848 1.16105 247.112 0.921051C247.388 0.669051 247.736 0.543051 248.156 0.543051C248.576 0.543051 248.918 0.669051 249.182 0.921051C249.458 1.16105 249.596 1.47305 249.596 1.85705C249.596 2.24105 249.458 2.55905 249.182 2.81105C248.918 3.06305 248.576 3.18905 248.156 3.18905ZM247.004 13.5031V4.57505H249.308V13.5031H247.004ZM255.691 13.5031C254.755 13.5031 254.005 13.2751 253.441 12.8191C252.877 12.3631 252.595 11.5531 252.595 10.3891V6.50105H251.065V4.57505H252.595L252.865 2.18105H254.899V4.57505H257.311V6.50105H254.899V10.4071C254.899 10.8391 254.989 11.1391 255.169 11.3071C255.361 11.4631 255.685 11.5411 256.141 11.5411H257.257V13.5031H255.691ZM260.405 17.4631L262.475 12.9091H261.935L258.461 4.57505H260.963L263.465 10.8571L266.075 4.57505H268.523L262.853 17.4631H260.405Z" fill="#0F2137"/>
<path d="M112.625 50.1148C111.645 50.1148 110.785 49.8898 110.045 49.4398C109.305 48.9798 108.73 48.3448 108.32 47.5348C107.91 46.7148 107.705 45.7698 107.705 44.6998C107.705 43.6298 107.91 42.6848 108.32 41.8648C108.74 41.0448 109.33 40.4048 110.09 39.9448C110.86 39.4848 111.765 39.2548 112.805 39.2548C113.985 39.2548 114.965 39.5398 115.745 40.1098C116.535 40.6798 117.045 41.4648 117.275 42.4648H115.82C115.68 41.8348 115.345 41.3348 114.815 40.9648C114.295 40.5948 113.625 40.4098 112.805 40.4098C112.035 40.4098 111.365 40.5848 110.795 40.9348C110.225 41.2748 109.78 41.7648 109.46 42.4048C109.15 43.0448 108.995 43.8098 108.995 44.6998C108.995 45.5898 109.15 46.3548 109.46 46.9948C109.77 47.6348 110.2 48.1298 110.75 48.4798C111.3 48.8198 111.94 48.9898 112.67 48.9898C113.79 48.9898 114.635 48.6648 115.205 48.0148C115.775 47.3548 116.1 46.4548 116.18 45.3148H113.15V44.3248H117.47V49.9348H116.315L116.21 48.2098C115.83 48.8198 115.365 49.2898 114.815 49.6198C114.265 49.9498 113.535 50.1148 112.625 50.1148ZM122.733 50.1148C122.023 50.1148 121.393 49.9548 120.843 49.6348C120.293 49.3048 119.858 48.8498 119.538 48.2698C119.228 47.6898 119.073 47.0048 119.073 46.2148C119.073 45.4348 119.228 44.7548 119.538 44.1748C119.848 43.5848 120.278 43.1298 120.828 42.8098C121.388 42.4798 122.033 42.3148 122.763 42.3148C123.483 42.3148 124.103 42.4798 124.623 42.8098C125.153 43.1298 125.558 43.5548 125.838 44.0848C126.118 44.6148 126.258 45.1848 126.258 45.7948C126.258 45.9048 126.253 46.0148 126.243 46.1248C126.243 46.2348 126.243 46.3598 126.243 46.4998H120.318C120.348 47.0698 120.478 47.5448 120.708 47.9248C120.948 48.2948 121.243 48.5748 121.593 48.7648C121.953 48.9548 122.333 49.0498 122.733 49.0498C123.253 49.0498 123.688 48.9298 124.038 48.6898C124.388 48.4498 124.643 48.1248 124.803 47.7148H126.048C125.848 48.4048 125.463 48.9798 124.893 49.4398C124.333 49.8898 123.613 50.1148 122.733 50.1148ZM122.733 43.3798C122.133 43.3798 121.598 43.5648 121.128 43.9348C120.668 44.2948 120.403 44.8248 120.333 45.5248H125.013C124.983 44.8548 124.753 44.3298 124.323 43.9498C123.893 43.5698 123.363 43.3798 122.733 43.3798ZM130.619 49.9348C129.939 49.9348 129.404 49.7698 129.014 49.4398C128.624 49.1098 128.429 48.5148 128.429 47.6548V43.5598H127.139V42.4948H128.429L128.594 40.7098H129.689V42.4948H131.879V43.5598H129.689V47.6548C129.689 48.1248 129.784 48.4448 129.974 48.6148C130.164 48.7748 130.499 48.8548 130.979 48.8548H131.759V49.9348H130.619ZM138.259 53.2348L140.104 49.2148H139.669L136.714 42.4948H138.079L140.539 48.2848L143.149 42.4948H144.454L139.579 53.2348H138.259ZM148.471 50.1148C147.771 50.1148 147.141 49.9548 146.581 49.6348C146.021 49.3148 145.576 48.8648 145.246 48.2848C144.926 47.6948 144.766 47.0048 144.766 46.2148C144.766 45.4248 144.931 44.7398 145.261 44.1598C145.591 43.5698 146.036 43.1148 146.596 42.7948C147.166 42.4748 147.801 42.3148 148.501 42.3148C149.201 42.3148 149.831 42.4748 150.391 42.7948C150.951 43.1148 151.391 43.5698 151.711 44.1598C152.041 44.7398 152.206 45.4248 152.206 46.2148C152.206 47.0048 152.041 47.6948 151.711 48.2848C151.381 48.8648 150.931 49.3148 150.361 49.6348C149.801 49.9548 149.171 50.1148 148.471 50.1148ZM148.471 49.0348C148.901 49.0348 149.301 48.9298 149.671 48.7198C150.041 48.5098 150.341 48.1948 150.571 47.7748C150.801 47.3548 150.916 46.8348 150.916 46.2148C150.916 45.5948 150.801 45.0748 150.571 44.6548C150.351 44.2348 150.056 43.9198 149.686 43.7098C149.316 43.4998 148.921 43.3948 148.501 43.3948C148.071 43.3948 147.671 43.4998 147.301 43.7098C146.931 43.9198 146.631 44.2348 146.401 44.6548C146.171 45.0748 146.056 45.5948 146.056 46.2148C146.056 46.8348 146.171 47.3548 146.401 47.7748C146.631 48.1948 146.926 48.5098 147.286 48.7198C147.656 48.9298 148.051 49.0348 148.471 49.0348ZM156.673 50.1148C155.793 50.1148 155.093 49.8498 154.573 49.3198C154.053 48.7798 153.793 47.9548 153.793 46.8448V42.4948H155.053V46.7098C155.053 48.2598 155.688 49.0348 156.958 49.0348C157.608 49.0348 158.143 48.8048 158.563 48.3448C158.993 47.8748 159.208 47.2098 159.208 46.3498V42.4948H160.468V49.9348H159.328L159.238 48.5998C159.008 49.0698 158.663 49.4398 158.203 49.7098C157.753 49.9798 157.243 50.1148 156.673 50.1148ZM162.542 49.9348V42.4948H163.682L163.787 43.9198C164.017 43.4298 164.367 43.0398 164.837 42.7498C165.307 42.4598 165.887 42.3148 166.577 42.3148V43.6348H166.232C165.792 43.6348 165.387 43.7148 165.017 43.8748C164.647 44.0248 164.352 44.2848 164.132 44.6548C163.912 45.0248 163.802 45.5348 163.802 46.1848V49.9348H162.542ZM175.936 50.1148C175.326 50.1148 174.781 49.9898 174.301 49.7398C173.831 49.4898 173.471 49.1398 173.221 48.6898L173.101 49.9348H171.961V39.1348H173.221V43.7248C173.461 43.3648 173.801 43.0398 174.241 42.7498C174.691 42.4598 175.261 42.3148 175.951 42.3148C176.691 42.3148 177.336 42.4848 177.886 42.8248C178.436 43.1648 178.861 43.6298 179.161 44.2198C179.471 44.8098 179.626 45.4798 179.626 46.2298C179.626 46.9798 179.471 47.6498 179.161 48.2398C178.861 48.8198 178.431 49.2798 177.871 49.6198C177.321 49.9498 176.676 50.1148 175.936 50.1148ZM175.801 49.0198C176.301 49.0198 176.741 48.9048 177.121 48.6748C177.501 48.4348 177.801 48.1048 178.021 47.6848C178.241 47.2648 178.351 46.7748 178.351 46.2148C178.351 45.6548 178.241 45.1648 178.021 44.7448C177.801 44.3248 177.501 43.9998 177.121 43.7698C176.741 43.5298 176.301 43.4098 175.801 43.4098C175.301 43.4098 174.861 43.5298 174.481 43.7698C174.101 43.9998 173.801 44.3248 173.581 44.7448C173.361 45.1648 173.251 45.6548 173.251 46.2148C173.251 46.7748 173.361 47.2648 173.581 47.6848C173.801 48.1048 174.101 48.4348 174.481 48.6748C174.861 48.9048 175.301 49.0198 175.801 49.0198ZM181.38 49.9348V39.1348H182.64V49.9348H181.38ZM188.095 50.1148C187.395 50.1148 186.765 49.9548 186.205 49.6348C185.645 49.3148 185.2 48.8648 184.87 48.2848C184.55 47.6948 184.39 47.0048 184.39 46.2148C184.39 45.4248 184.555 44.7398 184.885 44.1598C185.215 43.5698 185.66 43.1148 186.22 42.7948C186.79 42.4748 187.425 42.3148 188.125 42.3148C188.825 42.3148 189.455 42.4748 190.015 42.7948C190.575 43.1148 191.015 43.5698 191.335 44.1598C191.665 44.7398 191.83 45.4248 191.83 46.2148C191.83 47.0048 191.665 47.6948 191.335 48.2848C191.005 48.8648 190.555 49.3148 189.985 49.6348C189.425 49.9548 188.795 50.1148 188.095 50.1148ZM188.095 49.0348C188.525 49.0348 188.925 48.9298 189.295 48.7198C189.665 48.5098 189.965 48.1948 190.195 47.7748C190.425 47.3548 190.54 46.8348 190.54 46.2148C190.54 45.5948 190.425 45.0748 190.195 44.6548C189.975 44.2348 189.68 43.9198 189.31 43.7098C188.94 43.4998 188.545 43.3948 188.125 43.3948C187.695 43.3948 187.295 43.4998 186.925 43.7098C186.555 43.9198 186.255 44.2348 186.025 44.6548C185.795 45.0748 185.68 45.5948 185.68 46.2148C185.68 46.8348 185.795 47.3548 186.025 47.7748C186.255 48.1948 186.55 48.5098 186.91 48.7198C187.28 48.9298 187.675 49.0348 188.095 49.0348ZM196.972 50.1148C196.272 50.1148 195.642 49.9548 195.082 49.6348C194.522 49.3148 194.077 48.8648 193.747 48.2848C193.427 47.6948 193.267 47.0048 193.267 46.2148C193.267 45.4248 193.432 44.7398 193.762 44.1598C194.092 43.5698 194.537 43.1148 195.097 42.7948C195.667 42.4748 196.302 42.3148 197.002 42.3148C197.702 42.3148 198.332 42.4748 198.892 42.7948C199.452 43.1148 199.892 43.5698 200.212 44.1598C200.542 44.7398 200.707 45.4248 200.707 46.2148C200.707 47.0048 200.542 47.6948 200.212 48.2848C199.882 48.8648 199.432 49.3148 198.862 49.6348C198.302 49.9548 197.672 50.1148 196.972 50.1148ZM196.972 49.0348C197.402 49.0348 197.802 48.9298 198.172 48.7198C198.542 48.5098 198.842 48.1948 199.072 47.7748C199.302 47.3548 199.417 46.8348 199.417 46.2148C199.417 45.5948 199.302 45.0748 199.072 44.6548C198.852 44.2348 198.557 43.9198 198.187 43.7098C197.817 43.4998 197.422 43.3948 197.002 43.3948C196.572 43.3948 196.172 43.4998 195.802 43.7098C195.432 43.9198 195.132 44.2348 194.902 44.6548C194.672 45.0748 194.557 45.5948 194.557 46.2148C194.557 46.8348 194.672 47.3548 194.902 47.7748C195.132 48.1948 195.427 48.5098 195.787 48.7198C196.157 48.9298 196.552 49.0348 196.972 49.0348ZM205.834 50.1148C205.094 50.1148 204.444 49.9448 203.884 49.6048C203.334 49.2648 202.904 48.7998 202.594 48.2098C202.294 47.6198 202.144 46.9498 202.144 46.1998C202.144 45.4498 202.299 44.7848 202.609 44.2048C202.919 43.6148 203.349 43.1548 203.899 42.8248C204.449 42.4848 205.099 42.3148 205.849 42.3148C206.459 42.3148 206.999 42.4398 207.469 42.6898C207.939 42.9398 208.304 43.2898 208.564 43.7398V39.1348H209.824V49.9348H208.684L208.564 48.7048C208.324 49.0648 207.979 49.3898 207.529 49.6798C207.079 49.9698 206.514 50.1148 205.834 50.1148ZM205.969 49.0198C206.469 49.0198 206.909 48.9048 207.289 48.6748C207.679 48.4348 207.979 48.1048 208.189 47.6848C208.409 47.2648 208.519 46.7748 208.519 46.2148C208.519 45.6548 208.409 45.1648 208.189 44.7448C207.979 44.3248 207.679 43.9998 207.289 43.7698C206.909 43.5298 206.469 43.4098 205.969 43.4098C205.479 43.4098 205.039 43.5298 204.649 43.7698C204.269 43.9998 203.969 44.3248 203.749 44.7448C203.539 45.1648 203.434 45.6548 203.434 46.2148C203.434 46.7748 203.539 47.2648 203.749 47.6848C203.969 48.1048 204.269 48.4348 204.649 48.6748C205.039 48.9048 205.479 49.0198 205.969 49.0198ZM218.788 49.9348C218.108 49.9348 217.573 49.7698 217.183 49.4398C216.793 49.1098 216.598 48.5148 216.598 47.6548V43.5598H215.307V42.4948H216.598L216.763 40.7098H217.858V42.4948H220.048V43.5598H217.858V47.6548C217.858 48.1248 217.953 48.4448 218.143 48.6148C218.333 48.7748 218.668 48.8548 219.148 48.8548H219.928V49.9348H218.788ZM224.788 50.1148C224.078 50.1148 223.448 49.9548 222.898 49.6348C222.348 49.3048 221.913 48.8498 221.593 48.2698C221.283 47.6898 221.128 47.0048 221.128 46.2148C221.128 45.4348 221.283 44.7548 221.593 44.1748C221.903 43.5848 222.333 43.1298 222.883 42.8098C223.443 42.4798 224.088 42.3148 224.818 42.3148C225.538 42.3148 226.158 42.4798 226.678 42.8098C227.208 43.1298 227.613 43.5548 227.893 44.0848C228.173 44.6148 228.313 45.1848 228.313 45.7948C228.313 45.9048 228.308 46.0148 228.298 46.1248C228.298 46.2348 228.298 46.3598 228.298 46.4998H222.373C222.403 47.0698 222.533 47.5448 222.763 47.9248C223.003 48.2948 223.298 48.5748 223.648 48.7648C224.008 48.9548 224.388 49.0498 224.788 49.0498C225.308 49.0498 225.743 48.9298 226.093 48.6898C226.443 48.4498 226.698 48.1248 226.858 47.7148H228.103C227.903 48.4048 227.518 48.9798 226.948 49.4398C226.388 49.8898 225.668 50.1148 224.788 50.1148ZM224.788 43.3798C224.188 43.3798 223.653 43.5648 223.183 43.9348C222.723 44.2948 222.458 44.8248 222.388 45.5248H227.068C227.038 44.8548 226.808 44.3298 226.378 43.9498C225.948 43.5698 225.418 43.3798 224.788 43.3798ZM232.833 50.1148C231.943 50.1148 231.203 49.8898 230.613 49.4398C230.023 48.9898 229.678 48.3798 229.578 47.6098H230.868C230.948 47.9998 231.153 48.3398 231.483 48.6298C231.823 48.9098 232.278 49.0498 232.848 49.0498C233.378 49.0498 233.768 48.9398 234.018 48.7198C234.268 48.4898 234.393 48.2198 234.393 47.9098C234.393 47.4598 234.228 47.1598 233.898 47.0098C233.578 46.8598 233.123 46.7248 232.533 46.6048C232.133 46.5248 231.733 46.4098 231.333 46.2598C230.933 46.1098 230.598 45.8998 230.328 45.6298C230.058 45.3498 229.923 44.9848 229.923 44.5348C229.923 43.8848 230.163 43.3548 230.643 42.9448C231.133 42.5248 231.793 42.3148 232.623 42.3148C233.413 42.3148 234.058 42.5148 234.558 42.9148C235.068 43.3048 235.363 43.8648 235.443 44.5948H234.198C234.148 44.2148 233.983 43.9198 233.703 43.7098C233.433 43.4898 233.068 43.3798 232.608 43.3798C232.158 43.3798 231.808 43.4748 231.558 43.6648C231.318 43.8548 231.198 44.1048 231.198 44.4148C231.198 44.7148 231.353 44.9498 231.663 45.1198C231.983 45.2898 232.413 45.4348 232.953 45.5548C233.413 45.6548 233.848 45.7798 234.258 45.9298C234.678 46.0698 235.018 46.2848 235.278 46.5748C235.548 46.8548 235.683 47.2648 235.683 47.8048C235.693 48.4748 235.438 49.0298 234.918 49.4698C234.408 49.8998 233.713 50.1148 232.833 50.1148ZM240.086 49.9348C239.406 49.9348 238.871 49.7698 238.481 49.4398C238.091 49.1098 237.896 48.5148 237.896 47.6548V43.5598H236.606V42.4948H237.896L238.061 40.7098H239.156V42.4948H241.346V43.5598H239.156V47.6548C239.156 48.1248 239.251 48.4448 239.441 48.6148C239.631 48.7748 239.966 48.8548 240.446 48.8548H241.226V49.9348H240.086ZM245.797 50.1148C244.907 50.1148 244.167 49.8898 243.577 49.4398C242.987 48.9898 242.642 48.3798 242.542 47.6098H243.832C243.912 47.9998 244.117 48.3398 244.447 48.6298C244.787 48.9098 245.242 49.0498 245.812 49.0498C246.342 49.0498 246.732 48.9398 246.982 48.7198C247.232 48.4898 247.357 48.2198 247.357 47.9098C247.357 47.4598 247.192 47.1598 246.862 47.0098C246.542 46.8598 246.087 46.7248 245.497 46.6048C245.097 46.5248 244.697 46.4098 244.297 46.2598C243.897 46.1098 243.562 45.8998 243.292 45.6298C243.022 45.3498 242.887 44.9848 242.887 44.5348C242.887 43.8848 243.127 43.3548 243.607 42.9448C244.097 42.5248 244.757 42.3148 245.587 42.3148C246.377 42.3148 247.022 42.5148 247.522 42.9148C248.032 43.3048 248.327 43.8648 248.407 44.5948H247.162C247.112 44.2148 246.947 43.9198 246.667 43.7098C246.397 43.4898 246.032 43.3798 245.572 43.3798C245.122 43.3798 244.772 43.4748 244.522 43.6648C244.282 43.8548 244.162 44.1048 244.162 44.4148C244.162 44.7148 244.317 44.9498 244.627 45.1198C244.947 45.2898 245.377 45.4348 245.917 45.5548C246.377 45.6548 246.812 45.7798 247.222 45.9298C247.642 46.0698 247.982 46.2848 248.242 46.5748C248.512 46.8548 248.647 47.2648 248.647 47.8048C248.657 48.4748 248.402 49.0298 247.882 49.4698C247.372 49.8998 246.677 50.1148 245.797 50.1148ZM257.792 50.1148C257.052 50.1148 256.402 49.9448 255.842 49.6048C255.292 49.2648 254.862 48.7998 254.552 48.2098C254.252 47.6198 254.102 46.9498 254.102 46.1998C254.102 45.4498 254.257 44.7848 254.567 44.2048C254.877 43.6148 255.307 43.1548 255.857 42.8248C256.407 42.4848 257.057 42.3148 257.807 42.3148C258.417 42.3148 258.957 42.4398 259.427 42.6898C259.897 42.9398 260.262 43.2898 260.522 43.7398V39.1348H261.782V49.9348H260.642L260.522 48.7048C260.282 49.0648 259.937 49.3898 259.487 49.6798C259.037 49.9698 258.472 50.1148 257.792 50.1148ZM257.927 49.0198C258.427 49.0198 258.867 48.9048 259.247 48.6748C259.637 48.4348 259.937 48.1048 260.147 47.6848C260.367 47.2648 260.477 46.7748 260.477 46.2148C260.477 45.6548 260.367 45.1648 260.147 44.7448C259.937 44.3248 259.637 43.9998 259.247 43.7698C258.867 43.5298 258.427 43.4098 257.927 43.4098C257.437 43.4098 256.997 43.5298 256.607 43.7698C256.227 43.9998 255.927 44.3248 255.707 44.7448C255.497 45.1648 255.392 45.6548 255.392 46.2148C255.392 46.7748 255.497 47.2648 255.707 47.6848C255.927 48.1048 256.227 48.4348 256.607 48.6748C256.997 48.9048 257.437 49.0198 257.927 49.0198ZM267.181 50.1148C266.471 50.1148 265.841 49.9548 265.291 49.6348C264.741 49.3048 264.306 48.8498 263.986 48.2698C263.676 47.6898 263.521 47.0048 263.521 46.2148C263.521 45.4348 263.676 44.7548 263.986 44.1748C264.296 43.5848 264.726 43.1298 265.276 42.8098C265.836 42.4798 266.481 42.3148 267.211 42.3148C267.931 42.3148 268.551 42.4798 269.071 42.8098C269.601 43.1298 270.006 43.5548 270.286 44.0848C270.566 44.6148 270.706 45.1848 270.706 45.7948C270.706 45.9048 270.701 46.0148 270.691 46.1248C270.691 46.2348 270.691 46.3598 270.691 46.4998H264.766C264.796 47.0698 264.926 47.5448 265.156 47.9248C265.396 48.2948 265.691 48.5748 266.041 48.7648C266.401 48.9548 266.781 49.0498 267.181 49.0498C267.701 49.0498 268.136 48.9298 268.486 48.6898C268.836 48.4498 269.091 48.1248 269.251 47.7148H270.496C270.296 48.4048 269.911 48.9798 269.341 49.4398C268.781 49.8898 268.061 50.1148 267.181 50.1148ZM267.181 43.3798C266.581 43.3798 266.046 43.5648 265.576 43.9348C265.116 44.2948 264.851 44.8248 264.781 45.5248H269.461C269.431 44.8548 269.201 44.3298 268.771 43.9498C268.341 43.5698 267.811 43.3798 267.181 43.3798ZM272.376 49.9348V39.1348H273.636V49.9348H272.376ZM276.466 40.8448C276.216 40.8448 276.006 40.7648 275.836 40.6048C275.676 40.4348 275.596 40.2248 275.596 39.9748C275.596 39.7348 275.676 39.5348 275.836 39.3748C276.006 39.2148 276.216 39.1348 276.466 39.1348C276.706 39.1348 276.911 39.2148 277.081 39.3748C277.251 39.5348 277.336 39.7348 277.336 39.9748C277.336 40.2248 277.251 40.4348 277.081 40.6048C276.911 40.7648 276.706 40.8448 276.466 40.8448ZM275.836 49.9348V42.4948H277.096V49.9348H275.836ZM281.435 49.9348L278.615 42.4948H279.935L282.17 48.7198L284.42 42.4948H285.71L282.89 49.9348H281.435ZM290.076 50.1148C289.366 50.1148 288.736 49.9548 288.186 49.6348C287.636 49.3048 287.201 48.8498 286.881 48.2698C286.571 47.6898 286.416 47.0048 286.416 46.2148C286.416 45.4348 286.571 44.7548 286.881 44.1748C287.191 43.5848 287.621 43.1298 288.171 42.8098C288.731 42.4798 289.376 42.3148 290.106 42.3148C290.826 42.3148 291.446 42.4798 291.966 42.8098C292.496 43.1298 292.901 43.5548 293.181 44.0848C293.461 44.6148 293.601 45.1848 293.601 45.7948C293.601 45.9048 293.596 46.0148 293.586 46.1248C293.586 46.2348 293.586 46.3598 293.586 46.4998H287.661C287.691 47.0698 287.821 47.5448 288.051 47.9248C288.291 48.2948 288.586 48.5748 288.936 48.7648C289.296 48.9548 289.676 49.0498 290.076 49.0498C290.596 49.0498 291.031 48.9298 291.381 48.6898C291.731 48.4498 291.986 48.1248 292.146 47.7148H293.391C293.191 48.4048 292.806 48.9798 292.236 49.4398C291.676 49.8898 290.956 50.1148 290.076 50.1148ZM290.076 43.3798C289.476 43.3798 288.941 43.5648 288.471 43.9348C288.011 44.2948 287.746 44.8248 287.676 45.5248H292.356C292.326 44.8548 292.096 44.3298 291.666 43.9498C291.236 43.5698 290.706 43.3798 290.076 43.3798ZM295.271 49.9348V42.4948H296.411L296.516 43.9198C296.746 43.4298 297.096 43.0398 297.566 42.7498C298.036 42.4598 298.616 42.3148 299.306 42.3148V43.6348H298.961C298.521 43.6348 298.116 43.7148 297.746 43.8748C297.376 44.0248 297.081 44.2848 296.861 44.6548C296.641 45.0248 296.531 45.5348 296.531 46.1848V49.9348H295.271ZM303.787 50.1148C303.077 50.1148 302.447 49.9548 301.897 49.6348C301.347 49.3048 300.912 48.8498 300.592 48.2698C300.282 47.6898 300.127 47.0048 300.127 46.2148C300.127 45.4348 300.282 44.7548 300.592 44.1748C300.902 43.5848 301.332 43.1298 301.882 42.8098C302.442 42.4798 303.087 42.3148 303.817 42.3148C304.537 42.3148 305.157 42.4798 305.677 42.8098C306.207 43.1298 306.612 43.5548 306.892 44.0848C307.172 44.6148 307.312 45.1848 307.312 45.7948C307.312 45.9048 307.307 46.0148 307.297 46.1248C307.297 46.2348 307.297 46.3598 307.297 46.4998H301.372C301.402 47.0698 301.532 47.5448 301.762 47.9248C302.002 48.2948 302.297 48.5748 302.647 48.7648C303.007 48.9548 303.387 49.0498 303.787 49.0498C304.307 49.0498 304.742 48.9298 305.092 48.6898C305.442 48.4498 305.697 48.1248 305.857 47.7148H307.102C306.902 48.4048 306.517 48.9798 305.947 49.4398C305.387 49.8898 304.667 50.1148 303.787 50.1148ZM303.787 43.3798C303.187 43.3798 302.652 43.5648 302.182 43.9348C301.722 44.2948 301.457 44.8248 301.387 45.5248H306.067C306.037 44.8548 305.807 44.3298 305.377 43.9498C304.947 43.5698 304.417 43.3798 303.787 43.3798ZM312.357 50.1148C311.617 50.1148 310.967 49.9448 310.407 49.6048C309.857 49.2648 309.427 48.7998 309.117 48.2098C308.817 47.6198 308.667 46.9498 308.667 46.1998C308.667 45.4498 308.822 44.7848 309.132 44.2048C309.442 43.6148 309.872 43.1548 310.422 42.8248C310.972 42.4848 311.622 42.3148 312.372 42.3148C312.982 42.3148 313.522 42.4398 313.992 42.6898C314.462 42.9398 314.827 43.2898 315.087 43.7398V39.1348H316.347V49.9348H315.207L315.087 48.7048C314.847 49.0648 314.502 49.3898 314.052 49.6798C313.602 49.9698 313.037 50.1148 312.357 50.1148ZM312.492 49.0198C312.992 49.0198 313.432 48.9048 313.812 48.6748C314.202 48.4348 314.502 48.1048 314.712 47.6848C314.932 47.2648 315.042 46.7748 315.042 46.2148C315.042 45.6548 314.932 45.1648 314.712 44.7448C314.502 44.3248 314.202 43.9998 313.812 43.7698C313.432 43.5298 312.992 43.4098 312.492 43.4098C312.002 43.4098 311.562 43.5298 311.172 43.7698C310.792 43.9998 310.492 44.3248 310.272 44.7448C310.062 45.1648 309.957 45.6548 309.957 46.2148C309.957 46.7748 310.062 47.2648 310.272 47.6848C310.492 48.1048 310.792 48.4348 311.172 48.6748C311.562 48.9048 312.002 49.0198 312.492 49.0198ZM324.846 50.1148C324.226 50.1148 323.711 50.0098 323.301 49.7998C322.891 49.5898 322.586 49.3098 322.386 48.9598C322.186 48.6098 322.086 48.2298 322.086 47.8198C322.086 47.0598 322.376 46.4748 322.956 46.0648C323.536 45.6548 324.326 45.4498 325.326 45.4498H327.336V45.3598C327.336 44.7098 327.166 44.2198 326.826 43.8898C326.486 43.5498 326.031 43.3798 325.461 43.3798C324.971 43.3798 324.546 43.5048 324.186 43.7548C323.836 43.9948 323.616 44.3498 323.526 44.8198H322.236C322.286 44.2798 322.466 43.8248 322.776 43.4548C323.096 43.0848 323.491 42.8048 323.961 42.6148C324.431 42.4148 324.931 42.3148 325.461 42.3148C326.501 42.3148 327.281 42.5948 327.801 43.1548C328.331 43.7048 328.596 44.4398 328.596 45.3598V49.9348H327.471L327.396 48.5998C327.186 49.0198 326.876 49.3798 326.466 49.6798C326.066 49.9698 325.526 50.1148 324.846 50.1148ZM325.041 49.0498C325.521 49.0498 325.931 48.9248 326.271 48.6748C326.621 48.4248 326.886 48.0998 327.066 47.6998C327.246 47.2998 327.336 46.8798 327.336 46.4398V46.4248H325.431C324.691 46.4248 324.166 46.5548 323.856 46.8148C323.556 47.0648 323.406 47.3798 323.406 47.7598C323.406 48.1498 323.546 48.4648 323.826 48.7048C324.116 48.9348 324.521 49.0498 325.041 49.0498ZM333.221 49.9348C332.541 49.9348 332.006 49.7698 331.616 49.4398C331.226 49.1098 331.031 48.5148 331.031 47.6548V43.5598H329.741V42.4948H331.031L331.196 40.7098H332.291V42.4948H334.481V43.5598H332.291V47.6548C332.291 48.1248 332.386 48.4448 332.576 48.6148C332.766 48.7748 333.101 48.8548 333.581 48.8548H334.361V49.9348H333.221ZM340.052 49.9348V39.1348H341.312V49.9348H340.052ZM346.722 50.1148C346.012 50.1148 345.382 49.9548 344.832 49.6348C344.282 49.3048 343.847 48.8498 343.527 48.2698C343.217 47.6898 343.062 47.0048 343.062 46.2148C343.062 45.4348 343.217 44.7548 343.527 44.1748C343.837 43.5848 344.267 43.1298 344.817 42.8098C345.377 42.4798 346.022 42.3148 346.752 42.3148C347.472 42.3148 348.092 42.4798 348.612 42.8098C349.142 43.1298 349.547 43.5548 349.827 44.0848C350.107 44.6148 350.247 45.1848 350.247 45.7948C350.247 45.9048 350.242 46.0148 350.232 46.1248C350.232 46.2348 350.232 46.3598 350.232 46.4998H344.307C344.337 47.0698 344.467 47.5448 344.697 47.9248C344.937 48.2948 345.232 48.5748 345.582 48.7648C345.942 48.9548 346.322 49.0498 346.722 49.0498C347.242 49.0498 347.677 48.9298 348.027 48.6898C348.377 48.4498 348.632 48.1248 348.792 47.7148H350.037C349.837 48.4048 349.452 48.9798 348.882 49.4398C348.322 49.8898 347.602 50.1148 346.722 50.1148ZM346.722 43.3798C346.122 43.3798 345.587 43.5648 345.117 43.9348C344.657 44.2948 344.392 44.8248 344.322 45.5248H349.002C348.972 44.8548 348.742 44.3298 348.312 43.9498C347.882 43.5698 347.352 43.3798 346.722 43.3798ZM354.608 49.9348C353.928 49.9348 353.393 49.7698 353.003 49.4398C352.613 49.1098 352.418 48.5148 352.418 47.6548V43.5598H351.128V42.4948H352.418L352.583 40.7098H353.678V42.4948H355.868V43.5598H353.678V47.6548C353.678 48.1248 353.773 48.4448 353.963 48.6148C354.153 48.7748 354.488 48.8548 354.968 48.8548H355.748V49.9348H354.608ZM108.035 75.9348V65.1348H109.295V69.7698C109.545 69.3098 109.9 68.9548 110.36 68.7048C110.82 68.4448 111.32 68.3148 111.86 68.3148C112.72 68.3148 113.41 68.5848 113.93 69.1248C114.45 69.6548 114.71 70.4748 114.71 71.5848V75.9348H113.465V71.7198C113.465 70.1698 112.84 69.3948 111.59 69.3948C110.94 69.3948 110.395 69.6298 109.955 70.0998C109.515 70.5598 109.295 71.2198 109.295 72.0798V75.9348H108.035ZM120.009 76.1148C119.309 76.1148 118.679 75.9548 118.119 75.6348C117.559 75.3148 117.114 74.8648 116.784 74.2848C116.464 73.6948 116.304 73.0048 116.304 72.2148C116.304 71.4248 116.469 70.7398 116.799 70.1598C117.129 69.5698 117.574 69.1148 118.134 68.7948C118.704 68.4748 119.339 68.3148 120.039 68.3148C120.739 68.3148 121.369 68.4748 121.929 68.7948C122.489 69.1148 122.929 69.5698 123.249 70.1598C123.579 70.7398 123.744 71.4248 123.744 72.2148C123.744 73.0048 123.579 73.6948 123.249 74.2848C122.919 74.8648 122.469 75.3148 121.899 75.6348C121.339 75.9548 120.709 76.1148 120.009 76.1148ZM120.009 75.0348C120.439 75.0348 120.839 74.9298 121.209 74.7198C121.579 74.5098 121.879 74.1948 122.109 73.7748C122.339 73.3548 122.454 72.8348 122.454 72.2148C122.454 71.5948 122.339 71.0748 122.109 70.6548C121.889 70.2348 121.594 69.9198 121.224 69.7098C120.854 69.4998 120.459 69.3948 120.039 69.3948C119.609 69.3948 119.209 69.4998 118.839 69.7098C118.469 69.9198 118.169 70.2348 117.939 70.6548C117.709 71.0748 117.594 71.5948 117.594 72.2148C117.594 72.8348 117.709 73.3548 117.939 73.7748C118.169 74.1948 118.464 74.5098 118.824 74.7198C119.194 74.9298 119.589 75.0348 120.009 75.0348ZM125.496 75.9348V68.4948H126.636L126.726 69.5748C126.966 69.1748 127.286 68.8648 127.686 68.6448C128.086 68.4248 128.536 68.3148 129.036 68.3148C129.626 68.3148 130.131 68.4348 130.551 68.6748C130.981 68.9148 131.311 69.2798 131.541 69.7698C131.801 69.3198 132.156 68.9648 132.606 68.7048C133.066 68.4448 133.561 68.3148 134.091 68.3148C134.981 68.3148 135.691 68.5848 136.221 69.1248C136.751 69.6548 137.016 70.4748 137.016 71.5848V75.9348H135.771V71.7198C135.771 70.9498 135.616 70.3698 135.306 69.9798C134.996 69.5898 134.551 69.3948 133.971 69.3948C133.371 69.3948 132.871 69.6298 132.471 70.0998C132.081 70.5598 131.886 71.2198 131.886 72.0798V75.9348H130.626V71.7198C130.626 70.9498 130.471 70.3698 130.161 69.9798C129.851 69.5898 129.406 69.3948 128.826 69.3948C128.236 69.3948 127.741 69.6298 127.341 70.0998C126.951 70.5598 126.756 71.2198 126.756 72.0798V75.9348H125.496ZM142.259 76.1148C141.549 76.1148 140.919 75.9548 140.369 75.6348C139.819 75.3048 139.384 74.8498 139.064 74.2698C138.754 73.6898 138.599 73.0048 138.599 72.2148C138.599 71.4348 138.754 70.7548 139.064 70.1748C139.374 69.5848 139.804 69.1298 140.354 68.8098C140.914 68.4798 141.559 68.3148 142.289 68.3148C143.009 68.3148 143.629 68.4798 144.149 68.8098C144.679 69.1298 145.084 69.5548 145.364 70.0848C145.644 70.6148 145.784 71.1848 145.784 71.7948C145.784 71.9048 145.779 72.0148 145.769 72.1248C145.769 72.2348 145.769 72.3598 145.769 72.4998H139.844C139.874 73.0698 140.004 73.5448 140.234 73.9248C140.474 74.2948 140.769 74.5748 141.119 74.7648C141.479 74.9548 141.859 75.0498 142.259 75.0498C142.779 75.0498 143.214 74.9298 143.564 74.6898C143.914 74.4498 144.169 74.1248 144.329 73.7148H145.574C145.374 74.4048 144.989 74.9798 144.419 75.4398C143.859 75.8898 143.139 76.1148 142.259 76.1148ZM142.259 69.3798C141.659 69.3798 141.124 69.5648 140.654 69.9348C140.194 70.2948 139.929 70.8248 139.859 71.5248H144.539C144.509 70.8548 144.279 70.3298 143.849 69.9498C143.419 69.5698 142.889 69.3798 142.259 69.3798ZM154.844 76.1148C154.134 76.1148 153.494 75.9548 152.924 75.6348C152.364 75.3048 151.919 74.8498 151.589 74.2698C151.269 73.6798 151.109 72.9948 151.109 72.2148C151.109 71.4348 151.269 70.7548 151.589 70.1748C151.919 69.5848 152.364 69.1298 152.924 68.8098C153.494 68.4798 154.134 68.3148 154.844 68.3148C155.724 68.3148 156.464 68.5448 157.064 69.0048C157.674 69.4648 158.059 70.0798 158.219 70.8498H156.929C156.829 70.3898 156.584 70.0348 156.194 69.7848C155.804 69.5248 155.349 69.3948 154.829 69.3948C154.409 69.3948 154.014 69.4998 153.644 69.7098C153.274 69.9198 152.974 70.2348 152.744 70.6548C152.514 71.0748 152.399 71.5948 152.399 72.2148C152.399 72.8348 152.514 73.3548 152.744 73.7748C152.974 74.1948 153.274 74.5148 153.644 74.7348C154.014 74.9448 154.409 75.0498 154.829 75.0498C155.349 75.0498 155.804 74.9248 156.194 74.6748C156.584 74.4148 156.829 74.0498 156.929 73.5798H158.219C158.069 74.3298 157.689 74.9398 157.079 75.4098C156.469 75.8798 155.724 76.1148 154.844 76.1148ZM163.368 76.1148C162.668 76.1148 162.038 75.9548 161.478 75.6348C160.918 75.3148 160.473 74.8648 160.143 74.2848C159.823 73.6948 159.663 73.0048 159.663 72.2148C159.663 71.4248 159.828 70.7398 160.158 70.1598C160.488 69.5698 160.933 69.1148 161.493 68.7948C162.063 68.4748 162.698 68.3148 163.398 68.3148C164.098 68.3148 164.728 68.4748 165.288 68.7948C165.848 69.1148 166.288 69.5698 166.608 70.1598C166.938 70.7398 167.103 71.4248 167.103 72.2148C167.103 73.0048 166.938 73.6948 166.608 74.2848C166.278 74.8648 165.828 75.3148 165.258 75.6348C164.698 75.9548 164.068 76.1148 163.368 76.1148ZM163.368 75.0348C163.798 75.0348 164.198 74.9298 164.568 74.7198C164.938 74.5098 165.238 74.1948 165.468 73.7748C165.698 73.3548 165.813 72.8348 165.813 72.2148C165.813 71.5948 165.698 71.0748 165.468 70.6548C165.248 70.2348 164.953 69.9198 164.583 69.7098C164.213 69.4998 163.818 69.3948 163.398 69.3948C162.968 69.3948 162.568 69.4998 162.198 69.7098C161.828 69.9198 161.528 70.2348 161.298 70.6548C161.068 71.0748 160.953 71.5948 160.953 72.2148C160.953 72.8348 161.068 73.3548 161.298 73.7748C161.528 74.1948 161.823 74.5098 162.183 74.7198C162.553 74.9298 162.948 75.0348 163.368 75.0348ZM168.855 75.9348V65.1348H170.115V75.9348H168.855ZM172.181 75.9348V65.1348H173.441V75.9348H172.181ZM178.851 76.1148C178.141 76.1148 177.511 75.9548 176.961 75.6348C176.411 75.3048 175.976 74.8498 175.656 74.2698C175.346 73.6898 175.191 73.0048 175.191 72.2148C175.191 71.4348 175.346 70.7548 175.656 70.1748C175.966 69.5848 176.396 69.1298 176.946 68.8098C177.506 68.4798 178.151 68.3148 178.881 68.3148C179.601 68.3148 180.221 68.4798 180.741 68.8098C181.271 69.1298 181.676 69.5548 181.956 70.0848C182.236 70.6148 182.376 71.1848 182.376 71.7948C182.376 71.9048 182.371 72.0148 182.361 72.1248C182.361 72.2348 182.361 72.3598 182.361 72.4998H176.436C176.466 73.0698 176.596 73.5448 176.826 73.9248C177.066 74.2948 177.361 74.5748 177.711 74.7648C178.071 74.9548 178.451 75.0498 178.851 75.0498C179.371 75.0498 179.806 74.9298 180.156 74.6898C180.506 74.4498 180.761 74.1248 180.921 73.7148H182.166C181.966 74.4048 181.581 74.9798 181.011 75.4398C180.451 75.8898 179.731 76.1148 178.851 76.1148ZM178.851 69.3798C178.251 69.3798 177.716 69.5648 177.246 69.9348C176.786 70.2948 176.521 70.8248 176.451 71.5248H181.131C181.101 70.8548 180.871 70.3298 180.441 69.9498C180.011 69.5698 179.481 69.3798 178.851 69.3798ZM187.466 76.1148C186.756 76.1148 186.116 75.9548 185.546 75.6348C184.986 75.3048 184.541 74.8498 184.211 74.2698C183.891 73.6798 183.731 72.9948 183.731 72.2148C183.731 71.4348 183.891 70.7548 184.211 70.1748C184.541 69.5848 184.986 69.1298 185.546 68.8098C186.116 68.4798 186.756 68.3148 187.466 68.3148C188.346 68.3148 189.086 68.5448 189.686 69.0048C190.296 69.4648 190.681 70.0798 190.841 70.8498H189.551C189.451 70.3898 189.206 70.0348 188.816 69.7848C188.426 69.5248 187.971 69.3948 187.451 69.3948C187.031 69.3948 186.636 69.4998 186.266 69.7098C185.896 69.9198 185.596 70.2348 185.366 70.6548C185.136 71.0748 185.021 71.5948 185.021 72.2148C185.021 72.8348 185.136 73.3548 185.366 73.7748C185.596 74.1948 185.896 74.5148 186.266 74.7348C186.636 74.9448 187.031 75.0498 187.451 75.0498C187.971 75.0498 188.426 74.9248 188.816 74.6748C189.206 74.4148 189.451 74.0498 189.551 73.5798H190.841C190.691 74.3298 190.311 74.9398 189.701 75.4098C189.091 75.8798 188.346 76.1148 187.466 76.1148ZM195.335 75.9348C194.655 75.9348 194.12 75.7698 193.73 75.4398C193.34 75.1098 193.145 74.5148 193.145 73.6548V69.5598H191.855V68.4948H193.145L193.31 66.7098H194.405V68.4948H196.595V69.5598H194.405V73.6548C194.405 74.1248 194.5 74.4448 194.69 74.6148C194.88 74.7748 195.215 74.8548 195.695 74.8548H196.475V75.9348H195.335ZM205.016 76.1148C204.126 76.1148 203.386 75.8898 202.796 75.4398C202.206 74.9898 201.861 74.3798 201.761 73.6098H203.051C203.131 73.9998 203.336 74.3398 203.666 74.6298C204.006 74.9098 204.461 75.0498 205.031 75.0498C205.561 75.0498 205.951 74.9398 206.201 74.7198C206.451 74.4898 206.576 74.2198 206.576 73.9098C206.576 73.4598 206.411 73.1598 206.081 73.0098C205.761 72.8598 205.306 72.7248 204.716 72.6048C204.316 72.5248 203.916 72.4098 203.516 72.2598C203.116 72.1098 202.781 71.8998 202.511 71.6298C202.241 71.3498 202.106 70.9848 202.106 70.5348C202.106 69.8848 202.346 69.3548 202.826 68.9448C203.316 68.5248 203.976 68.3148 204.806 68.3148C205.596 68.3148 206.241 68.5148 206.741 68.9148C207.251 69.3048 207.546 69.8648 207.626 70.5948H206.381C206.331 70.2148 206.166 69.9198 205.886 69.7098C205.616 69.4898 205.251 69.3798 204.791 69.3798C204.341 69.3798 203.991 69.4748 203.741 69.6648C203.501 69.8548 203.381 70.1048 203.381 70.4148C203.381 70.7148 203.536 70.9498 203.846 71.1198C204.166 71.2898 204.596 71.4348 205.136 71.5548C205.596 71.6548 206.031 71.7798 206.441 71.9298C206.861 72.0698 207.201 72.2848 207.461 72.5748C207.731 72.8548 207.866 73.2648 207.866 73.8048C207.876 74.4748 207.621 75.0298 207.101 75.4698C206.591 75.8998 205.896 76.1148 205.016 76.1148ZM212.141 76.1148C211.521 76.1148 211.006 76.0098 210.596 75.7998C210.186 75.5898 209.881 75.3098 209.681 74.9598C209.481 74.6098 209.381 74.2298 209.381 73.8198C209.381 73.0598 209.671 72.4748 210.251 72.0648C210.831 71.6548 211.621 71.4498 212.621 71.4498H214.631V71.3598C214.631 70.7098 214.461 70.2198 214.121 69.8898C213.781 69.5498 213.326 69.3798 212.756 69.3798C212.266 69.3798 211.841 69.5048 211.481 69.7548C211.131 69.9948 210.911 70.3498 210.821 70.8198H209.531C209.581 70.2798 209.761 69.8248 210.071 69.4548C210.391 69.0848 210.786 68.8048 211.256 68.6148C211.726 68.4148 212.226 68.3148 212.756 68.3148C213.796 68.3148 214.576 68.5948 215.096 69.1548C215.626 69.7048 215.891 70.4398 215.891 71.3598V75.9348H214.766L214.691 74.5998C214.481 75.0198 214.171 75.3798 213.761 75.6798C213.361 75.9698 212.821 76.1148 212.141 76.1148ZM212.336 75.0498C212.816 75.0498 213.226 74.9248 213.566 74.6748C213.916 74.4248 214.181 74.0998 214.361 73.6998C214.541 73.2998 214.631 72.8798 214.631 72.4398V72.4248H212.726C211.986 72.4248 211.461 72.5548 211.151 72.8148C210.851 73.0648 210.701 73.3798 210.701 73.7598C210.701 74.1498 210.841 74.4648 211.121 74.7048C211.411 74.9348 211.816 75.0498 212.336 75.0498ZM217.781 75.9348V68.4948H218.921L219.011 69.5748C219.251 69.1748 219.571 68.8648 219.971 68.6448C220.371 68.4248 220.821 68.3148 221.321 68.3148C221.911 68.3148 222.416 68.4348 222.836 68.6748C223.266 68.9148 223.596 69.2798 223.826 69.7698C224.086 69.3198 224.441 68.9648 224.891 68.7048C225.351 68.4448 225.846 68.3148 226.376 68.3148C227.266 68.3148 227.976 68.5848 228.506 69.1248C229.036 69.6548 229.301 70.4748 229.301 71.5848V75.9348H228.056V71.7198C228.056 70.9498 227.901 70.3698 227.591 69.9798C227.281 69.5898 226.836 69.3948 226.256 69.3948C225.656 69.3948 225.156 69.6298 224.756 70.0998C224.366 70.5598 224.171 71.2198 224.171 72.0798V75.9348H222.911V71.7198C222.911 70.9498 222.756 70.3698 222.446 69.9798C222.136 69.5898 221.691 69.3948 221.111 69.3948C220.521 69.3948 220.026 69.6298 219.626 70.0998C219.236 70.5598 219.041 71.2198 219.041 72.0798V75.9348H217.781ZM231.199 79.2348V68.4948H232.339L232.459 69.7248C232.699 69.3648 233.039 69.0398 233.479 68.7498C233.929 68.4598 234.499 68.3148 235.189 68.3148C235.929 68.3148 236.574 68.4848 237.124 68.8248C237.674 69.1648 238.099 69.6298 238.399 70.2198C238.709 70.8098 238.864 71.4798 238.864 72.2298C238.864 72.9798 238.709 73.6498 238.399 74.2398C238.099 74.8198 237.669 75.2798 237.109 75.6198C236.559 75.9498 235.914 76.1148 235.174 76.1148C234.564 76.1148 234.019 75.9898 233.539 75.7398C233.069 75.4898 232.709 75.1398 232.459 74.6898V79.2348H231.199ZM235.039 75.0198C235.539 75.0198 235.979 74.9048 236.359 74.6748C236.739 74.4348 237.039 74.1048 237.259 73.6848C237.479 73.2648 237.589 72.7748 237.589 72.2148C237.589 71.6548 237.479 71.1648 237.259 70.7448C237.039 70.3248 236.739 69.9998 236.359 69.7698C235.979 69.5298 235.539 69.4098 235.039 69.4098C234.539 69.4098 234.099 69.5298 233.719 69.7698C233.339 69.9998 233.039 70.3248 232.819 70.7448C232.599 71.1648 232.489 71.6548 232.489 72.2148C232.489 72.7748 232.599 73.2648 232.819 73.6848C233.039 74.1048 233.339 74.4348 233.719 74.6748C234.099 74.9048 234.539 75.0198 235.039 75.0198ZM240.618 75.9348V65.1348H241.878V75.9348H240.618ZM247.288 76.1148C246.578 76.1148 245.948 75.9548 245.398 75.6348C244.848 75.3048 244.413 74.8498 244.093 74.2698C243.783 73.6898 243.628 73.0048 243.628 72.2148C243.628 71.4348 243.783 70.7548 244.093 70.1748C244.403 69.5848 244.833 69.1298 245.383 68.8098C245.943 68.4798 246.588 68.3148 247.318 68.3148C248.038 68.3148 248.658 68.4798 249.178 68.8098C249.708 69.1298 250.113 69.5548 250.393 70.0848C250.673 70.6148 250.813 71.1848 250.813 71.7948C250.813 71.9048 250.808 72.0148 250.798 72.1248C250.798 72.2348 250.798 72.3598 250.798 72.4998H244.873C244.903 73.0698 245.033 73.5448 245.263 73.9248C245.503 74.2948 245.798 74.5748 246.148 74.7648C246.508 74.9548 246.888 75.0498 247.288 75.0498C247.808 75.0498 248.243 74.9298 248.593 74.6898C248.943 74.4498 249.198 74.1248 249.358 73.7148H250.603C250.403 74.4048 250.018 74.9798 249.448 75.4398C248.888 75.8898 248.168 76.1148 247.288 76.1148ZM247.288 69.3798C246.688 69.3798 246.153 69.5648 245.683 69.9348C245.223 70.2948 244.958 70.8248 244.888 71.5248H249.568C249.538 70.8548 249.308 70.3298 248.878 69.9498C248.448 69.5698 247.918 69.3798 247.288 69.3798ZM256.858 75.9348V69.5598H255.733V68.4948H256.858V67.2048C256.858 66.4848 257.038 65.9598 257.398 65.6298C257.758 65.2998 258.283 65.1348 258.973 65.1348H259.723V66.2148H259.168C258.788 66.2148 258.518 66.2948 258.358 66.4548C258.198 66.6048 258.118 66.8648 258.118 67.2348V68.4948H259.948V69.5598H258.118V75.9348H256.858ZM261.448 75.9348V68.4948H262.588L262.693 69.9198C262.923 69.4298 263.273 69.0398 263.743 68.7498C264.213 68.4598 264.793 68.3148 265.483 68.3148V69.6348H265.138C264.698 69.6348 264.293 69.7148 263.923 69.8748C263.553 70.0248 263.258 70.2848 263.038 70.6548C262.818 71.0248 262.708 71.5348 262.708 72.1848V75.9348H261.448ZM270.009 76.1148C269.309 76.1148 268.679 75.9548 268.119 75.6348C267.559 75.3148 267.114 74.8648 266.784 74.2848C266.464 73.6948 266.304 73.0048 266.304 72.2148C266.304 71.4248 266.469 70.7398 266.799 70.1598C267.129 69.5698 267.574 69.1148 268.134 68.7948C268.704 68.4748 269.339 68.3148 270.039 68.3148C270.739 68.3148 271.369 68.4748 271.929 68.7948C272.489 69.1148 272.929 69.5698 273.249 70.1598C273.579 70.7398 273.744 71.4248 273.744 72.2148C273.744 73.0048 273.579 73.6948 273.249 74.2848C272.919 74.8648 272.469 75.3148 271.899 75.6348C271.339 75.9548 270.709 76.1148 270.009 76.1148ZM270.009 75.0348C270.439 75.0348 270.839 74.9298 271.209 74.7198C271.579 74.5098 271.879 74.1948 272.109 73.7748C272.339 73.3548 272.454 72.8348 272.454 72.2148C272.454 71.5948 272.339 71.0748 272.109 70.6548C271.889 70.2348 271.594 69.9198 271.224 69.7098C270.854 69.4998 270.459 69.3948 270.039 69.3948C269.609 69.3948 269.209 69.4998 268.839 69.7098C268.469 69.9198 268.169 70.2348 267.939 70.6548C267.709 71.0748 267.594 71.5948 267.594 72.2148C267.594 72.8348 267.709 73.3548 267.939 73.7748C268.169 74.1948 268.464 74.5098 268.824 74.7198C269.194 74.9298 269.589 75.0348 270.009 75.0348ZM275.496 75.9348V68.4948H276.636L276.726 69.5748C276.966 69.1748 277.286 68.8648 277.686 68.6448C278.086 68.4248 278.536 68.3148 279.036 68.3148C279.626 68.3148 280.131 68.4348 280.551 68.6748C280.981 68.9148 281.311 69.2798 281.541 69.7698C281.801 69.3198 282.156 68.9648 282.606 68.7048C283.066 68.4448 283.561 68.3148 284.091 68.3148C284.981 68.3148 285.691 68.5848 286.221 69.1248C286.751 69.6548 287.016 70.4748 287.016 71.5848V75.9348H285.771V71.7198C285.771 70.9498 285.616 70.3698 285.306 69.9798C284.996 69.5898 284.551 69.3948 283.971 69.3948C283.371 69.3948 282.871 69.6298 282.471 70.0998C282.081 70.5598 281.886 71.2198 281.886 72.0798V75.9348H280.626V71.7198C280.626 70.9498 280.471 70.3698 280.161 69.9798C279.851 69.5898 279.406 69.3948 278.826 69.3948C278.236 69.3948 277.741 69.6298 277.341 70.0998C276.951 70.5598 276.756 71.2198 276.756 72.0798V75.9348H275.496ZM295.824 75.9348C295.144 75.9348 294.609 75.7698 294.219 75.4398C293.829 75.1098 293.634 74.5148 293.634 73.6548V69.5598H292.344V68.4948H293.634L293.799 66.7098H294.894V68.4948H297.084V69.5598H294.894V73.6548C294.894 74.1248 294.989 74.4448 295.179 74.6148C295.369 74.7748 295.704 74.8548 296.184 74.8548H296.964V75.9348H295.824ZM298.684 75.9348V65.1348H299.944V69.7698C300.194 69.3098 300.549 68.9548 301.009 68.7048C301.469 68.4448 301.969 68.3148 302.509 68.3148C303.369 68.3148 304.059 68.5848 304.579 69.1248C305.099 69.6548 305.359 70.4748 305.359 71.5848V75.9348H304.114V71.7198C304.114 70.1698 303.489 69.3948 302.239 69.3948C301.589 69.3948 301.044 69.6298 300.604 70.0998C300.164 70.5598 299.944 71.2198 299.944 72.0798V75.9348H298.684ZM310.613 76.1148C309.903 76.1148 309.273 75.9548 308.723 75.6348C308.173 75.3048 307.738 74.8498 307.418 74.2698C307.108 73.6898 306.953 73.0048 306.953 72.2148C306.953 71.4348 307.108 70.7548 307.418 70.1748C307.728 69.5848 308.158 69.1298 308.708 68.8098C309.268 68.4798 309.913 68.3148 310.643 68.3148C311.363 68.3148 311.983 68.4798 312.503 68.8098C313.033 69.1298 313.438 69.5548 313.718 70.0848C313.998 70.6148 314.138 71.1848 314.138 71.7948C314.138 71.9048 314.133 72.0148 314.123 72.1248C314.123 72.2348 314.123 72.3598 314.123 72.4998H308.198C308.228 73.0698 308.358 73.5448 308.588 73.9248C308.828 74.2948 309.123 74.5748 309.473 74.7648C309.833 74.9548 310.213 75.0498 310.613 75.0498C311.133 75.0498 311.568 74.9298 311.918 74.6898C312.268 74.4498 312.523 74.1248 312.683 73.7148H313.928C313.728 74.4048 313.343 74.9798 312.773 75.4398C312.213 75.8898 311.493 76.1148 310.613 76.1148ZM310.613 69.3798C310.013 69.3798 309.478 69.5648 309.008 69.9348C308.548 70.2948 308.283 70.8248 308.213 71.5248H312.893C312.863 70.8548 312.633 70.3298 312.203 69.9498C311.773 69.5698 311.243 69.3798 310.613 69.3798ZM321.923 75.9348L319.103 68.4948H320.423L322.658 74.7198L324.908 68.4948H326.198L323.378 75.9348H321.923ZM328.365 66.8448C328.115 66.8448 327.905 66.7648 327.735 66.6048C327.575 66.4348 327.495 66.2248 327.495 65.9748C327.495 65.7348 327.575 65.5348 327.735 65.3748C327.905 65.2148 328.115 65.1348 328.365 65.1348C328.605 65.1348 328.81 65.2148 328.98 65.3748C329.15 65.5348 329.235 65.7348 329.235 65.9748C329.235 66.2248 329.15 66.4348 328.98 66.6048C328.81 66.7648 328.605 66.8448 328.365 66.8448ZM327.735 75.9348V68.4948H328.995V75.9348H327.735ZM334.609 76.1148C333.899 76.1148 333.259 75.9548 332.689 75.6348C332.129 75.3048 331.684 74.8498 331.354 74.2698C331.034 73.6798 330.874 72.9948 330.874 72.2148C330.874 71.4348 331.034 70.7548 331.354 70.1748C331.684 69.5848 332.129 69.1298 332.689 68.8098C333.259 68.4798 333.899 68.3148 334.609 68.3148C335.489 68.3148 336.229 68.5448 336.829 69.0048C337.439 69.4648 337.824 70.0798 337.984 70.8498H336.694C336.594 70.3898 336.349 70.0348 335.959 69.7848C335.569 69.5248 335.114 69.3948 334.594 69.3948C334.174 69.3948 333.779 69.4998 333.409 69.7098C333.039 69.9198 332.739 70.2348 332.509 70.6548C332.279 71.0748 332.164 71.5948 332.164 72.2148C332.164 72.8348 332.279 73.3548 332.509 73.7748C332.739 74.1948 333.039 74.5148 333.409 74.7348C333.779 74.9448 334.174 75.0498 334.594 75.0498C335.114 75.0498 335.569 74.9248 335.959 74.6748C336.349 74.4148 336.594 74.0498 336.694 73.5798H337.984C337.834 74.3298 337.454 74.9398 336.844 75.4098C336.234 75.8798 335.489 76.1148 334.609 76.1148ZM342.479 75.9348C341.799 75.9348 341.264 75.7698 340.874 75.4398C340.484 75.1098 340.289 74.5148 340.289 73.6548V69.5598H338.999V68.4948H340.289L340.454 66.7098H341.549V68.4948H343.739V69.5598H341.549V73.6548C341.549 74.1248 341.644 74.4448 341.834 74.6148C342.024 74.7748 342.359 74.8548 342.839 74.8548H343.619V75.9348H342.479ZM348.525 76.1148C347.825 76.1148 347.195 75.9548 346.635 75.6348C346.075 75.3148 345.63 74.8648 345.3 74.2848C344.98 73.6948 344.82 73.0048 344.82 72.2148C344.82 71.4248 344.985 70.7398 345.315 70.1598C345.645 69.5698 346.09 69.1148 346.65 68.7948C347.22 68.4748 347.855 68.3148 348.555 68.3148C349.255 68.3148 349.885 68.4748 350.445 68.7948C351.005 69.1148 351.445 69.5698 351.765 70.1598C352.095 70.7398 352.26 71.4248 352.26 72.2148C352.26 73.0048 352.095 73.6948 351.765 74.2848C351.435 74.8648 350.985 75.3148 350.415 75.6348C349.855 75.9548 349.225 76.1148 348.525 76.1148ZM348.525 75.0348C348.955 75.0348 349.355 74.9298 349.725 74.7198C350.095 74.5098 350.395 74.1948 350.625 73.7748C350.855 73.3548 350.97 72.8348 350.97 72.2148C350.97 71.5948 350.855 71.0748 350.625 70.6548C350.405 70.2348 350.11 69.9198 349.74 69.7098C349.37 69.4998 348.975 69.3948 348.555 69.3948C348.125 69.3948 347.725 69.4998 347.355 69.7098C346.985 69.9198 346.685 70.2348 346.455 70.6548C346.225 71.0748 346.11 71.5948 346.11 72.2148C346.11 72.8348 346.225 73.3548 346.455 73.7748C346.685 74.1948 346.98 74.5098 347.34 74.7198C347.71 74.9298 348.105 75.0348 348.525 75.0348ZM354.012 75.9348V68.4948H355.152L355.257 69.9198C355.487 69.4298 355.837 69.0398 356.307 68.7498C356.777 68.4598 357.357 68.3148 358.047 68.3148V69.6348H357.702C357.262 69.6348 356.857 69.7148 356.487 69.8748C356.117 70.0248 355.822 70.2848 355.602 70.6548C355.382 71.0248 355.272 71.5348 355.272 72.1848V75.9348H354.012ZM360.271 79.2348L362.116 75.2148H361.681L358.726 68.4948H360.091L362.551 74.2848L365.161 68.4948H366.466L361.591 79.2348H360.271ZM111.425 102.115C110.725 102.115 110.095 101.955 109.535 101.635C108.975 101.315 108.53 100.865 108.2 100.285C107.88 99.6948 107.72 99.0048 107.72 98.2148C107.72 97.4248 107.885 96.7398 108.215 96.1598C108.545 95.5698 108.99 95.1148 109.55 94.7948C110.12 94.4748 110.755 94.3148 111.455 94.3148C112.155 94.3148 112.785 94.4748 113.345 94.7948C113.905 95.1148 114.345 95.5698 114.665 96.1598C114.995 96.7398 115.16 97.4248 115.16 98.2148C115.16 99.0048 114.995 99.6948 114.665 100.285C114.335 100.865 113.885 101.315 113.315 101.635C112.755 101.955 112.125 102.115 111.425 102.115ZM111.425 101.035C111.855 101.035 112.255 100.93 112.625 100.72C112.995 100.51 113.295 100.195 113.525 99.7748C113.755 99.3548 113.87 98.8348 113.87 98.2148C113.87 97.5948 113.755 97.0748 113.525 96.6548C113.305 96.2348 113.01 95.9198 112.64 95.7098C112.27 95.4998 111.875 95.3948 111.455 95.3948C111.025 95.3948 110.625 95.4998 110.255 95.7098C109.885 95.9198 109.585 96.2348 109.355 96.6548C109.125 97.0748 109.01 97.5948 109.01 98.2148C109.01 98.8348 109.125 99.3548 109.355 99.7748C109.585 100.195 109.88 100.51 110.24 100.72C110.61 100.93 111.005 101.035 111.425 101.035ZM117.317 101.935V95.5598H116.192V94.4948H117.317V93.2048C117.317 92.4848 117.497 91.9598 117.857 91.6298C118.217 91.2998 118.742 91.1348 119.432 91.1348H120.182V92.2148H119.627C119.247 92.2148 118.977 92.2948 118.817 92.4548C118.657 92.6048 118.577 92.8648 118.577 93.2348V94.4948H120.407V95.5598H118.577V101.935H117.317ZM128.817 101.935C128.137 101.935 127.602 101.77 127.212 101.44C126.822 101.11 126.627 100.515 126.627 99.6548V95.5598H125.337V94.4948H126.627L126.792 92.7098H127.887V94.4948H130.077V95.5598H127.887V99.6548C127.887 100.125 127.982 100.445 128.172 100.615C128.362 100.775 128.697 100.855 129.177 100.855H129.957V101.935H128.817ZM131.678 101.935V91.1348H132.938V95.7698C133.188 95.3098 133.543 94.9548 134.003 94.7048C134.463 94.4448 134.963 94.3148 135.503 94.3148C136.363 94.3148 137.053 94.5848 137.573 95.1248C138.093 95.6548 138.353 96.4748 138.353 97.5848V101.935H137.108V97.7198C137.108 96.1698 136.483 95.3948 135.233 95.3948C134.583 95.3948 134.038 95.6298 133.598 96.0998C133.158 96.5598 132.938 97.2198 132.938 98.0798V101.935H131.678ZM143.607 102.115C142.897 102.115 142.267 101.955 141.717 101.635C141.167 101.305 140.732 100.85 140.412 100.27C140.102 99.6898 139.947 99.0048 139.947 98.2148C139.947 97.4348 140.102 96.7548 140.412 96.1748C140.722 95.5848 141.152 95.1298 141.702 94.8098C142.262 94.4798 142.907 94.3148 143.637 94.3148C144.357 94.3148 144.977 94.4798 145.497 94.8098C146.027 95.1298 146.432 95.5548 146.712 96.0848C146.992 96.6148 147.132 97.1848 147.132 97.7948C147.132 97.9048 147.127 98.0148 147.117 98.1248C147.117 98.2348 147.117 98.3598 147.117 98.4998H141.192C141.222 99.0698 141.352 99.5448 141.582 99.9248C141.822 100.295 142.117 100.575 142.467 100.765C142.827 100.955 143.207 101.05 143.607 101.05C144.127 101.05 144.562 100.93 144.912 100.69C145.262 100.45 145.517 100.125 145.677 99.7148H146.922C146.722 100.405 146.337 100.98 145.767 101.44C145.207 101.89 144.487 102.115 143.607 102.115ZM143.607 95.3798C143.007 95.3798 142.472 95.5648 142.002 95.9348C141.542 96.2948 141.277 96.8248 141.207 97.5248H145.887C145.857 96.8548 145.627 96.3298 145.197 95.9498C144.767 95.5698 144.237 95.3798 143.607 95.3798ZM152.771 101.935V94.4948H153.911L154.001 95.5748C154.241 95.1748 154.561 94.8648 154.961 94.6448C155.361 94.4248 155.811 94.3148 156.311 94.3148C156.901 94.3148 157.406 94.4348 157.826 94.6748C158.256 94.9148 158.586 95.2798 158.816 95.7698C159.076 95.3198 159.431 94.9648 159.881 94.7048C160.341 94.4448 160.836 94.3148 161.366 94.3148C162.256 94.3148 162.966 94.5848 163.496 95.1248C164.026 95.6548 164.291 96.4748 164.291 97.5848V101.935H163.046V97.7198C163.046 96.9498 162.891 96.3698 162.581 95.9798C162.271 95.5898 161.826 95.3948 161.246 95.3948C160.646 95.3948 160.146 95.6298 159.746 96.0998C159.356 96.5598 159.161 97.2198 159.161 98.0798V101.935H157.901V97.7198C157.901 96.9498 157.746 96.3698 157.436 95.9798C157.126 95.5898 156.681 95.3948 156.101 95.3948C155.511 95.3948 155.016 95.6298 154.616 96.0998C154.226 96.5598 154.031 97.2198 154.031 98.0798V101.935H152.771ZM168.664 102.115C168.044 102.115 167.529 102.01 167.119 101.8C166.709 101.59 166.404 101.31 166.204 100.96C166.004 100.61 165.904 100.23 165.904 99.8198C165.904 99.0598 166.194 98.4748 166.774 98.0648C167.354 97.6548 168.144 97.4498 169.144 97.4498H171.154V97.3598C171.154 96.7098 170.984 96.2198 170.644 95.8898C170.304 95.5498 169.849 95.3798 169.279 95.3798C168.789 95.3798 168.364 95.5048 168.004 95.7548C167.654 95.9948 167.434 96.3498 167.344 96.8198H166.054C166.104 96.2798 166.284 95.8248 166.594 95.4548C166.914 95.0848 167.309 94.8048 167.779 94.6148C168.249 94.4148 168.749 94.3148 169.279 94.3148C170.319 94.3148 171.099 94.5948 171.619 95.1548C172.149 95.7048 172.414 96.4398 172.414 97.3598V101.935H171.289L171.214 100.6C171.004 101.02 170.694 101.38 170.284 101.68C169.884 101.97 169.344 102.115 168.664 102.115ZM168.859 101.05C169.339 101.05 169.749 100.925 170.089 100.675C170.439 100.425 170.704 100.1 170.884 99.6998C171.064 99.2998 171.154 98.8798 171.154 98.4398V98.4248H169.249C168.509 98.4248 167.984 98.5548 167.674 98.8148C167.374 99.0648 167.224 99.3798 167.224 99.7598C167.224 100.15 167.364 100.465 167.644 100.705C167.934 100.935 168.339 101.05 168.859 101.05ZM174.305 101.935V94.4948H175.445L175.52 95.8298C175.76 95.3598 176.105 94.9898 176.555 94.7198C177.005 94.4498 177.515 94.3148 178.085 94.3148C178.965 94.3148 179.665 94.5848 180.185 95.1248C180.715 95.6548 180.98 96.4748 180.98 97.5848V101.935H179.72V97.7198C179.72 96.1698 179.08 95.3948 177.8 95.3948C177.16 95.3948 176.625 95.6298 176.195 96.0998C175.775 96.5598 175.565 97.2198 175.565 98.0798V101.935H174.305ZM185.364 102.115C184.744 102.115 184.229 102.01 183.819 101.8C183.409 101.59 183.104 101.31 182.904 100.96C182.704 100.61 182.604 100.23 182.604 99.8198C182.604 99.0598 182.894 98.4748 183.474 98.0648C184.054 97.6548 184.844 97.4498 185.844 97.4498H187.854V97.3598C187.854 96.7098 187.684 96.2198 187.344 95.8898C187.004 95.5498 186.549 95.3798 185.979 95.3798C185.489 95.3798 185.064 95.5048 184.704 95.7548C184.354 95.9948 184.134 96.3498 184.044 96.8198H182.754C182.804 96.2798 182.984 95.8248 183.294 95.4548C183.614 95.0848 184.009 94.8048 184.479 94.6148C184.949 94.4148 185.449 94.3148 185.979 94.3148C187.019 94.3148 187.799 94.5948 188.319 95.1548C188.849 95.7048 189.114 96.4398 189.114 97.3598V101.935H187.989L187.914 100.6C187.704 101.02 187.394 101.38 186.984 101.68C186.584 101.97 186.044 102.115 185.364 102.115ZM185.559 101.05C186.039 101.05 186.449 100.925 186.789 100.675C187.139 100.425 187.404 100.1 187.584 99.6998C187.764 99.2998 187.854 98.8798 187.854 98.4398V98.4248H185.949C185.209 98.4248 184.684 98.5548 184.374 98.8148C184.074 99.0648 183.924 99.3798 183.924 99.7598C183.924 100.15 184.064 100.465 184.344 100.705C184.634 100.935 185.039 101.05 185.559 101.05ZM193.944 99.5948C193.524 99.5948 193.139 99.5398 192.789 99.4298L192.039 100.135C192.149 100.215 192.284 100.285 192.444 100.345C192.614 100.395 192.854 100.445 193.164 100.495C193.474 100.535 193.909 100.58 194.469 100.63C195.469 100.7 196.184 100.93 196.614 101.32C197.044 101.71 197.259 102.22 197.259 102.85C197.259 103.28 197.139 103.69 196.899 104.08C196.669 104.47 196.309 104.79 195.819 105.04C195.339 105.29 194.719 105.415 193.959 105.415C193.289 105.415 192.694 105.325 192.174 105.145C191.654 104.975 191.249 104.71 190.959 104.35C190.669 104 190.524 103.555 190.524 103.015C190.524 102.735 190.599 102.43 190.749 102.1C190.899 101.78 191.179 101.475 191.589 101.185C191.369 101.095 191.179 101 191.019 100.9C190.869 100.79 190.729 100.67 190.599 100.54V100.195L191.874 98.9348C191.284 98.4348 190.989 97.7748 190.989 96.9548C190.989 96.4648 191.104 96.0198 191.334 95.6198C191.564 95.2198 191.899 94.9048 192.339 94.6748C192.779 94.4348 193.314 94.3148 193.944 94.3148C194.374 94.3148 194.764 94.3748 195.114 94.4948H197.859V95.4398L196.464 95.4998C196.754 95.9198 196.899 96.4048 196.899 96.9548C196.899 97.4448 196.779 97.8898 196.539 98.2898C196.309 98.6898 195.974 99.0098 195.534 99.2498C195.104 99.4798 194.574 99.5948 193.944 99.5948ZM193.944 98.5598C194.474 98.5598 194.894 98.4248 195.204 98.1548C195.524 97.8748 195.684 97.4748 195.684 96.9548C195.684 96.4448 195.524 96.0548 195.204 95.7848C194.894 95.5048 194.474 95.3648 193.944 95.3648C193.404 95.3648 192.974 95.5048 192.654 95.7848C192.344 96.0548 192.189 96.4448 192.189 96.9548C192.189 97.4748 192.344 97.8748 192.654 98.1548C192.974 98.4248 193.404 98.5598 193.944 98.5598ZM191.754 102.895C191.754 103.395 191.964 103.765 192.384 104.005C192.804 104.255 193.329 104.38 193.959 104.38C194.579 104.38 195.074 104.245 195.444 103.975C195.824 103.705 196.014 103.345 196.014 102.895C196.014 102.575 195.884 102.295 195.624 102.055C195.364 101.825 194.884 101.69 194.184 101.65C193.634 101.61 193.159 101.56 192.759 101.5C192.349 101.72 192.079 101.955 191.949 102.205C191.819 102.465 191.754 102.695 191.754 102.895ZM199.28 101.935V94.4948H200.42L200.51 95.5748C200.75 95.1748 201.07 94.8648 201.47 94.6448C201.87 94.4248 202.32 94.3148 202.82 94.3148C203.41 94.3148 203.915 94.4348 204.335 94.6748C204.765 94.9148 205.095 95.2798 205.325 95.7698C205.585 95.3198 205.94 94.9648 206.39 94.7048C206.85 94.4448 207.345 94.3148 207.875 94.3148C208.765 94.3148 209.475 94.5848 210.005 95.1248C210.535 95.6548 210.8 96.4748 210.8 97.5848V101.935H209.555V97.7198C209.555 96.9498 209.4 96.3698 209.09 95.9798C208.78 95.5898 208.335 95.3948 207.755 95.3948C207.155 95.3948 206.655 95.6298 206.255 96.0998C205.865 96.5598 205.67 97.2198 205.67 98.0798V101.935H204.41V97.7198C204.41 96.9498 204.255 96.3698 203.945 95.9798C203.635 95.5898 203.19 95.3948 202.61 95.3948C202.02 95.3948 201.525 95.6298 201.125 96.0998C200.735 96.5598 200.54 97.2198 200.54 98.0798V101.935H199.28ZM216.043 102.115C215.333 102.115 214.703 101.955 214.153 101.635C213.603 101.305 213.168 100.85 212.848 100.27C212.538 99.6898 212.383 99.0048 212.383 98.2148C212.383 97.4348 212.538 96.7548 212.848 96.1748C213.158 95.5848 213.588 95.1298 214.138 94.8098C214.698 94.4798 215.343 94.3148 216.073 94.3148C216.793 94.3148 217.413 94.4798 217.933 94.8098C218.463 95.1298 218.868 95.5548 219.148 96.0848C219.428 96.6148 219.568 97.1848 219.568 97.7948C219.568 97.9048 219.563 98.0148 219.553 98.1248C219.553 98.2348 219.553 98.3598 219.553 98.4998H213.628C213.658 99.0698 213.788 99.5448 214.018 99.9248C214.258 100.295 214.553 100.575 214.903 100.765C215.263 100.955 215.643 101.05 216.043 101.05C216.563 101.05 216.998 100.93 217.348 100.69C217.698 100.45 217.953 100.125 218.113 99.7148H219.358C219.158 100.405 218.773 100.98 218.203 101.44C217.643 101.89 216.923 102.115 216.043 102.115ZM216.043 95.3798C215.443 95.3798 214.908 95.5648 214.438 95.9348C213.978 96.2948 213.713 96.8248 213.643 97.5248H218.323C218.293 96.8548 218.063 96.3298 217.633 95.9498C217.203 95.5698 216.673 95.3798 216.043 95.3798ZM221.238 101.935V94.4948H222.378L222.453 95.8298C222.693 95.3598 223.038 94.9898 223.488 94.7198C223.938 94.4498 224.448 94.3148 225.018 94.3148C225.898 94.3148 226.598 94.5848 227.118 95.1248C227.648 95.6548 227.913 96.4748 227.913 97.5848V101.935H226.653V97.7198C226.653 96.1698 226.013 95.3948 224.733 95.3948C224.093 95.3948 223.558 95.6298 223.128 96.0998C222.708 96.5598 222.498 97.2198 222.498 98.0798V101.935H221.238ZM232.762 101.935C232.082 101.935 231.547 101.77 231.157 101.44C230.767 101.11 230.572 100.515 230.572 99.6548V95.5598H229.282V94.4948H230.572L230.737 92.7098H231.832V94.4948H234.022V95.5598H231.832V99.6548C231.832 100.125 231.927 100.445 232.117 100.615C232.307 100.775 232.642 100.855 233.122 100.855H233.902V101.935H232.762ZM238.473 102.115C237.583 102.115 236.843 101.89 236.253 101.44C235.663 100.99 235.318 100.38 235.218 99.6098H236.508C236.588 99.9998 236.793 100.34 237.123 100.63C237.463 100.91 237.918 101.05 238.488 101.05C239.018 101.05 239.408 100.94 239.658 100.72C239.908 100.49 240.033 100.22 240.033 99.9098C240.033 99.4598 239.868 99.1598 239.538 99.0098C239.218 98.8598 238.763 98.7248 238.173 98.6048C237.773 98.5248 237.373 98.4098 236.973 98.2598C236.573 98.1098 236.238 97.8998 235.968 97.6298C235.698 97.3498 235.563 96.9848 235.563 96.5348C235.563 95.8848 235.803 95.3548 236.283 94.9448C236.773 94.5248 237.433 94.3148 238.263 94.3148C239.053 94.3148 239.698 94.5148 240.198 94.9148C240.708 95.3048 241.003 95.8648 241.083 96.5948H239.838C239.788 96.2148 239.623 95.9198 239.343 95.7098C239.073 95.4898 238.708 95.3798 238.248 95.3798C237.798 95.3798 237.448 95.4748 237.198 95.6648C236.958 95.8548 236.838 96.1048 236.838 96.4148C236.838 96.7148 236.993 96.9498 237.303 97.1198C237.623 97.2898 238.053 97.4348 238.593 97.5548C239.053 97.6548 239.488 97.7798 239.898 97.9298C240.318 98.0698 240.658 98.2848 240.918 98.5748C241.188 98.8548 241.323 99.2648 241.323 99.8048C241.333 100.475 241.078 101.03 240.558 101.47C240.048 101.9 239.353 102.115 238.473 102.115ZM243.558 102.01C243.308 102.01 243.098 101.93 242.928 101.77C242.768 101.6 242.688 101.395 242.688 101.155C242.688 100.915 242.768 100.715 242.928 100.555C243.098 100.385 243.308 100.3 243.558 100.3C243.798 100.3 243.998 100.385 244.158 100.555C244.328 100.715 244.413 100.915 244.413 101.155C244.413 101.395 244.328 101.6 244.158 101.77C243.998 101.93 243.798 102.01 243.558 102.01Z" fill="#343D48"/>
<path d="M54 1.50305H28C12.536 1.50305 0 13.8093 0 28.9898V54.5132C0 69.6938 12.536 82 28 82H54C69.464 82 82 69.6938 82 54.5132V28.9898C82 13.8093 69.464 1.50305 54 1.50305Z" fill="#F4F4FF"/>
<path d="M46.684 60.0282L43.368 56.7102L40.051 60.0282C39.9338 60.1458 39.7938 60.2395 39.6392 60.3033C39.4847 60.3671 39.3187 60.3999 39.151 60.3999C38.9833 60.3999 38.8173 60.3671 38.6628 60.3033C38.5082 60.2395 38.3682 60.1458 38.251 60.0282C38.011 59.7865 37.8768 59.4625 37.8768 59.1251C37.8768 58.7877 38.011 58.4637 38.251 58.222L41.568 54.9039L38.251 51.5869C38.011 51.3453 37.8768 51.0213 37.8768 50.6838C37.8768 50.3464 38.011 50.0222 38.251 49.7805C38.3683 49.663 38.5084 49.5696 38.6629 49.5059C38.8174 49.4421 38.9834 49.4093 39.151 49.4093C39.3186 49.4093 39.4846 49.4421 39.6391 49.5059C39.7936 49.5696 39.9337 49.663 40.051 49.7805L43.368 53.0987L46.684 49.7805C46.8013 49.663 46.9413 49.5696 47.0959 49.5059C47.2504 49.4421 47.4164 49.4093 47.584 49.4093C47.7516 49.4093 47.9176 49.4421 48.0721 49.5059C48.2267 49.5696 48.3667 49.663 48.484 49.7805C48.7237 50.0223 48.8578 50.3465 48.8578 50.6838C48.8578 51.0212 48.7237 51.3451 48.484 51.5869L45.168 54.9039L48.484 58.222C48.7239 58.4637 48.8582 58.7877 48.8582 59.1251C48.8582 59.4625 48.7239 59.7865 48.484 60.0282C48.3668 60.1458 48.2268 60.2395 48.0722 60.3033C47.9177 60.3671 47.7517 60.3999 47.584 60.3999C47.4163 60.3999 47.2504 60.3671 47.0958 60.3033C46.9413 60.2395 46.8013 60.1458 46.684 60.0282ZM22.119 54.2973C22.1326 53.5681 22.3653 52.859 22.7878 52.2592C23.2104 51.6593 23.8041 51.1955 24.4943 50.9257C25.1845 50.6559 25.9405 50.5923 26.6674 50.7428C27.3943 50.8933 28.0598 51.251 28.5803 51.7714C29.1007 52.2918 29.453 52.9517 29.5929 53.6679C29.7328 54.3842 29.6541 55.1251 29.3666 55.7976C29.0791 56.4701 28.5957 57.0442 27.977 57.4479C27.3583 57.8517 26.6319 58.067 25.889 58.067C24.8801 58.0574 23.9163 57.6548 23.2096 56.948C22.5028 56.2411 22.1109 55.2877 22.12 54.2973H22.119ZM25.891 48.4269C25.6307 48.4271 25.3708 48.4447 25.113 48.4799C25.9174 45.6197 27.2421 42.9257 29.023 40.5282C30.8379 38.0841 33.1509 36.0375 35.8151 34.5182C38.4792 32.9988 41.4361 32.0401 44.498 31.703L41.769 29.3294C41.513 29.1047 41.3566 28.7907 41.3331 28.4544C41.3095 28.1181 41.4208 27.786 41.643 27.529C41.7514 27.4027 41.8845 27.2991 42.0344 27.2242C42.1843 27.1492 42.348 27.1044 42.5157 27.0926C42.6835 27.0808 42.852 27.1022 43.0113 27.1554C43.1705 27.2086 43.3174 27.2927 43.443 27.4025L48.588 31.879C48.844 32.1039 49.0005 32.418 49.024 32.7545C49.0475 33.0909 48.9363 33.4231 48.714 33.6803L44.241 38.829C44.1326 38.9553 43.9995 39.0592 43.8495 39.1341C43.6996 39.209 43.5359 39.2537 43.368 39.2654C43.2002 39.2772 43.0317 39.2555 42.8724 39.2022C42.7132 39.1488 42.5665 39.0646 42.441 38.9546C42.185 38.7299 42.0286 38.4159 42.0051 38.0796C41.9815 37.7433 42.0928 37.4112 42.315 37.1542L44.858 34.227C42.1454 34.5039 39.5222 35.3365 37.1577 36.6706C34.7932 38.0047 32.7401 39.8109 31.131 41.9725C29.608 44.0135 28.4492 46.2935 27.704 48.7155C27.1197 48.5245 26.5079 48.4271 25.892 48.4269H25.891ZM53.459 32.5934C53.4724 31.8642 53.7049 31.1552 54.1274 30.5553C54.5498 29.9553 55.1434 29.4913 55.8336 29.2213C56.5238 28.9514 57.2798 28.8876 58.0068 29.038C58.7338 29.1883 59.3994 29.546 59.92 30.0664C60.4405 30.5867 60.7929 31.2466 60.9329 31.9628C61.0728 32.6791 60.9941 33.42 60.7067 34.0925C60.4192 34.765 59.9358 35.3393 59.3171 35.7431C58.6984 36.1469 57.972 36.3622 57.229 36.3621C56.2203 36.3526 55.2567 35.9503 54.55 35.2436C53.8433 34.537 53.4512 33.5836 53.46 32.5934H53.459ZM29.811 34.7022L26.494 31.384L23.178 34.7022C23.0607 34.8198 22.9207 34.9131 22.7661 34.9769C22.6116 35.0406 22.4456 35.0735 22.278 35.0735C22.1104 35.0735 21.9444 35.0406 21.7899 34.9769C21.6353 34.9131 21.4953 34.8198 21.378 34.7022C21.1381 34.4606 21.0038 34.1363 21.0038 33.7989C21.0038 33.4615 21.1381 33.1375 21.378 32.8959L24.695 29.5779L21.378 26.2607C21.1381 26.0191 21.0038 25.6951 21.0038 25.3577C21.0038 25.0202 21.1381 24.696 21.378 24.4544C21.4952 24.3366 21.6352 24.2431 21.7897 24.1792C21.9443 24.1153 22.1103 24.0824 22.278 24.0824C22.4457 24.0824 22.6117 24.1153 22.7663 24.1792C22.9209 24.2431 23.0608 24.3366 23.178 24.4544L26.494 27.7725L29.811 24.4544C29.9282 24.3366 30.0682 24.2431 30.2227 24.1792C30.3773 24.1153 30.5433 24.0824 30.711 24.0824C30.8787 24.0824 31.0447 24.1153 31.1993 24.1792C31.3538 24.2431 31.4938 24.3366 31.611 24.4544C31.8505 24.6962 31.9844 25.0204 31.9844 25.3577C31.9844 25.6949 31.8505 26.0189 31.611 26.2607L28.294 29.5789L31.61 32.8959C31.8499 33.1375 31.9842 33.4615 31.9842 33.7989C31.9842 34.1363 31.8499 34.4606 31.61 34.7022C31.4927 34.8199 31.3527 34.9133 31.1982 34.9771C31.0436 35.0409 30.8777 35.0737 30.71 35.0737C30.5424 35.0737 30.3764 35.0409 30.2218 34.9771C30.0673 34.9133 29.9272 34.8199 29.81 34.7022H29.811Z" fill="#5856D6"/>
</svg>
