<svg width="370" height="110" viewBox="0 0 370 110" fill="none" xmlns="http://www.w3.org/2000/svg">
<path d="M113.084 17.8107C112.16 17.8107 111.326 17.6307 110.582 17.2707C109.838 16.8987 109.244 16.3407 108.8 15.5967C108.368 14.8527 108.152 13.9107 108.152 12.7707V4.99473H110.456V12.7887C110.456 13.7727 110.69 14.5047 111.158 14.9847C111.638 15.4647 112.298 15.7047 113.138 15.7047C113.966 15.7047 114.62 15.4647 115.1 14.9847C115.58 14.5047 115.82 13.7727 115.82 12.7887V4.99473H118.124V12.7707C118.124 13.9107 117.896 14.8527 117.44 15.5967C116.984 16.3407 116.372 16.8987 115.604 17.2707C114.848 17.6307 114.008 17.8107 113.084 17.8107ZM120.422 17.5947V4.63473H122.726V17.5947H120.422ZM129.058 17.5947C128.122 17.5947 127.372 17.3667 126.808 16.9107C126.244 16.4547 125.962 15.6447 125.962 14.4807V10.5927H124.432V8.66673H125.962L126.232 6.27273H128.266V8.66673H130.678V10.5927H128.266V14.4987C128.266 14.9307 128.356 15.2307 128.536 15.3987C128.728 15.5547 129.052 15.6327 129.508 15.6327H130.624V17.5947H129.058ZM133.898 7.28073C133.478 7.28073 133.13 7.15473 132.854 6.90273C132.59 6.65073 132.458 6.33273 132.458 5.94873C132.458 5.56473 132.59 5.25273 132.854 5.01273C133.13 4.76073 133.478 4.63473 133.898 4.63473C134.318 4.63473 134.66 4.76073 134.924 5.01273C135.2 5.25273 135.338 5.56473 135.338 5.94873C135.338 6.33273 135.2 6.65073 134.924 6.90273C134.66 7.15473 134.318 7.28073 133.898 7.28073ZM132.746 17.5947V8.66673H135.05V17.5947H132.746ZM137.455 17.5947V8.66673H139.489L139.687 9.87273C139.975 9.44073 140.353 9.09873 140.821 8.84673C141.301 8.58273 141.853 8.45073 142.477 8.45073C143.857 8.45073 144.835 8.98473 145.411 10.0527C145.735 9.56073 146.167 9.17073 146.707 8.88273C147.259 8.59473 147.859 8.45073 148.507 8.45073C149.671 8.45073 150.565 8.79873 151.189 9.49473C151.813 10.1907 152.125 11.2107 152.125 12.5547V17.5947H149.821V12.7707C149.821 12.0027 149.671 11.4147 149.371 11.0067C149.083 10.5987 148.633 10.3947 148.021 10.3947C147.397 10.3947 146.893 10.6227 146.509 11.0787C146.137 11.5347 145.951 12.1707 145.951 12.9867V17.5947H143.647V12.7707C143.647 12.0027 143.497 11.4147 143.197 11.0067C142.897 10.5987 142.435 10.3947 141.811 10.3947C141.199 10.3947 140.701 10.6227 140.317 11.0787C139.945 11.5347 139.759 12.1707 139.759 12.9867V17.5947H137.455ZM157.391 17.8107C156.623 17.8107 155.993 17.6907 155.501 17.4507C155.009 17.1987 154.643 16.8687 154.403 16.4607C154.163 16.0527 154.043 15.6027 154.043 15.1107C154.043 14.2827 154.367 13.6107 155.015 13.0947C155.663 12.5787 156.635 12.3207 157.931 12.3207H160.199V12.1047C160.199 11.4927 160.025 11.0427 159.677 10.7547C159.329 10.4667 158.897 10.3227 158.381 10.3227C157.913 10.3227 157.505 10.4367 157.157 10.6647C156.809 10.8807 156.593 11.2047 156.509 11.6367H154.259C154.319 10.9887 154.535 10.4247 154.907 9.94473C155.291 9.46473 155.783 9.09873 156.383 8.84673C156.983 8.58273 157.655 8.45073 158.399 8.45073C159.671 8.45073 160.673 8.76873 161.405 9.40473C162.137 10.0407 162.503 10.9407 162.503 12.1047V17.5947H160.541L160.325 16.1547C160.061 16.6347 159.689 17.0307 159.209 17.3427C158.741 17.6547 158.135 17.8107 157.391 17.8107ZM157.913 16.0107C158.573 16.0107 159.083 15.7947 159.443 15.3627C159.815 14.9307 160.049 14.3967 160.145 13.7607H158.183C157.571 13.7607 157.133 13.8747 156.869 14.1027C156.605 14.3187 156.473 14.5887 156.473 14.9127C156.473 15.2607 156.605 15.5307 156.869 15.7227C157.133 15.9147 157.481 16.0107 157.913 16.0107ZM168.556 17.5947C167.62 17.5947 166.87 17.3667 166.306 16.9107C165.742 16.4547 165.46 15.6447 165.46 14.4807V10.5927H163.93V8.66673H165.46L165.73 6.27273H167.764V8.66673H170.176V10.5927H167.764V14.4987C167.764 14.9307 167.854 15.2307 168.034 15.3987C168.226 15.5547 168.55 15.6327 169.006 15.6327H170.122V17.5947H168.556ZM176.264 17.8107C175.364 17.8107 174.566 17.6187 173.87 17.2347C173.174 16.8507 172.628 16.3107 172.232 15.6147C171.836 14.9187 171.638 14.1147 171.638 13.2027C171.638 12.2787 171.83 11.4567 172.214 10.7367C172.61 10.0167 173.15 9.45873 173.834 9.06273C174.53 8.65473 175.346 8.45073 176.282 8.45073C177.158 8.45073 177.932 8.64273 178.604 9.02673C179.276 9.41073 179.798 9.93873 180.17 10.6107C180.554 11.2707 180.746 12.0087 180.746 12.8247C180.746 12.9567 180.74 13.0947 180.728 13.2387C180.728 13.3827 180.722 13.5327 180.71 13.6887H173.924C173.972 14.3847 174.212 14.9307 174.644 15.3267C175.088 15.7227 175.622 15.9207 176.246 15.9207C176.714 15.9207 177.104 15.8187 177.416 15.6147C177.74 15.3987 177.98 15.1227 178.136 14.7867H180.476C180.308 15.3507 180.026 15.8667 179.63 16.3347C179.246 16.7907 178.766 17.1507 178.19 17.4147C177.626 17.6787 176.984 17.8107 176.264 17.8107ZM176.282 10.3227C175.718 10.3227 175.22 10.4847 174.788 10.8087C174.356 11.1207 174.08 11.6007 173.96 12.2487H178.406C178.37 11.6607 178.154 11.1927 177.758 10.8447C177.362 10.4967 176.87 10.3227 176.282 10.3227ZM192.733 17.8107C191.461 17.8107 190.369 17.5407 189.457 17.0007C188.545 16.4487 187.843 15.6867 187.351 14.7147C186.859 13.7307 186.613 12.5967 186.613 11.3127C186.613 10.0287 186.859 8.89473 187.351 7.91073C187.843 6.92673 188.545 6.15873 189.457 5.60673C190.369 5.05473 191.461 4.77873 192.733 4.77873C194.245 4.77873 195.481 5.15673 196.441 5.91273C197.413 6.65673 198.019 7.70673 198.259 9.06273H195.721C195.565 8.37873 195.229 7.84473 194.713 7.46073C194.209 7.06473 193.537 6.86673 192.697 6.86673C191.533 6.86673 190.621 7.26273 189.961 8.05473C189.301 8.84673 188.971 9.93273 188.971 11.3127C188.971 12.6927 189.301 13.7787 189.961 14.5707C190.621 15.3507 191.533 15.7407 192.697 15.7407C193.537 15.7407 194.209 15.5607 194.713 15.2007C195.229 14.8287 195.565 14.3187 195.721 13.6707H198.259C198.019 14.9667 197.413 15.9807 196.441 16.7127C195.481 17.4447 194.245 17.8107 192.733 17.8107ZM203.592 17.8107C202.476 17.8107 201.612 17.4627 201 16.7667C200.4 16.0707 200.1 15.0507 200.1 13.7067V8.66673H202.386V13.4907C202.386 14.2587 202.542 14.8467 202.854 15.2547C203.166 15.6627 203.658 15.8667 204.33 15.8667C204.966 15.8667 205.488 15.6387 205.896 15.1827C206.316 14.7267 206.526 14.0907 206.526 13.2747V8.66673H208.83V17.5947H206.796L206.616 16.0827C206.34 16.6107 205.938 17.0307 205.41 17.3427C204.894 17.6547 204.288 17.8107 203.592 17.8107ZM214.885 17.8107C214.093 17.8107 213.397 17.6847 212.797 17.4327C212.197 17.1687 211.717 16.8087 211.357 16.3527C210.997 15.8967 210.781 15.3687 210.709 14.7687H213.031C213.103 15.1167 213.295 15.4167 213.607 15.6687C213.931 15.9087 214.345 16.0287 214.849 16.0287C215.353 16.0287 215.719 15.9267 215.947 15.7227C216.187 15.5187 216.307 15.2847 216.307 15.0207C216.307 14.6367 216.139 14.3787 215.803 14.2467C215.467 14.1027 214.999 13.9647 214.399 13.8327C214.015 13.7487 213.625 13.6467 213.229 13.5267C212.833 13.4067 212.467 13.2567 212.131 13.0767C211.807 12.8847 211.543 12.6447 211.339 12.3567C211.135 12.0567 211.033 11.6907 211.033 11.2587C211.033 10.4667 211.345 9.80073 211.969 9.26073C212.605 8.72073 213.493 8.45073 214.633 8.45073C215.689 8.45073 216.529 8.69673 217.153 9.18873C217.789 9.68073 218.167 10.3587 218.287 11.2227H216.109C215.977 10.5627 215.479 10.2327 214.615 10.2327C214.183 10.2327 213.847 10.3167 213.607 10.4847C213.379 10.6527 213.265 10.8627 213.265 11.1147C213.265 11.3787 213.439 11.5887 213.787 11.7447C214.135 11.9007 214.597 12.0447 215.173 12.1767C215.797 12.3207 216.367 12.4827 216.883 12.6627C217.411 12.8307 217.831 13.0887 218.143 13.4367C218.455 13.7727 218.611 14.2587 218.611 14.8947C218.623 15.4467 218.479 15.9447 218.179 16.3887C217.879 16.8327 217.447 17.1807 216.883 17.4327C216.319 17.6847 215.653 17.8107 214.885 17.8107ZM224.349 17.5947C223.413 17.5947 222.663 17.3667 222.099 16.9107C221.535 16.4547 221.253 15.6447 221.253 14.4807V10.5927H219.723V8.66673H221.253L221.523 6.27273H223.557V8.66673H225.969V10.5927H223.557V14.4987C223.557 14.9307 223.647 15.2307 223.827 15.3987C224.019 15.5547 224.343 15.6327 224.799 15.6327H225.915V17.5947H224.349ZM232.003 17.8107C231.139 17.8107 230.359 17.6127 229.663 17.2167C228.979 16.8207 228.433 16.2747 228.025 15.5787C227.629 14.8707 227.431 14.0547 227.431 13.1307C227.431 12.2067 227.635 11.3967 228.043 10.7007C228.451 9.99273 228.997 9.44073 229.681 9.04473C230.377 8.64873 231.157 8.45073 232.021 8.45073C232.873 8.45073 233.641 8.64873 234.325 9.04473C235.021 9.44073 235.567 9.99273 235.963 10.7007C236.371 11.3967 236.575 12.2067 236.575 13.1307C236.575 14.0547 236.371 14.8707 235.963 15.5787C235.567 16.2747 235.021 16.8207 234.325 17.2167C233.629 17.6127 232.855 17.8107 232.003 17.8107ZM232.003 15.8127C232.603 15.8127 233.125 15.5907 233.569 15.1467C234.013 14.6907 234.235 14.0187 234.235 13.1307C234.235 12.2427 234.013 11.5767 233.569 11.1327C233.125 10.6767 232.609 10.4487 232.021 10.4487C231.409 10.4487 230.881 10.6767 230.437 11.1327C230.005 11.5767 229.789 12.2427 229.789 13.1307C229.789 14.0187 230.005 14.6907 230.437 15.1467C230.881 15.5907 231.403 15.8127 232.003 15.8127ZM238.635 17.5947V8.66673H240.669L240.867 9.87273C241.155 9.44073 241.533 9.09873 242.001 8.84673C242.481 8.58273 243.033 8.45073 243.657 8.45073C245.037 8.45073 246.015 8.98473 246.591 10.0527C246.915 9.56073 247.347 9.17073 247.887 8.88273C248.439 8.59473 249.039 8.45073 249.687 8.45073C250.851 8.45073 251.745 8.79873 252.369 9.49473C252.993 10.1907 253.305 11.2107 253.305 12.5547V17.5947H251.001V12.7707C251.001 12.0027 250.851 11.4147 250.551 11.0067C250.263 10.5987 249.813 10.3947 249.201 10.3947C248.577 10.3947 248.073 10.6227 247.689 11.0787C247.317 11.5347 247.131 12.1707 247.131 12.9867V17.5947H244.827V12.7707C244.827 12.0027 244.677 11.4147 244.377 11.0067C244.077 10.5987 243.615 10.3947 242.991 10.3947C242.379 10.3947 241.881 10.6227 241.497 11.0787C241.125 11.5347 240.939 12.1707 240.939 12.9867V17.5947H238.635ZM256.734 7.28073C256.314 7.28073 255.966 7.15473 255.69 6.90273C255.426 6.65073 255.294 6.33273 255.294 5.94873C255.294 5.56473 255.426 5.25273 255.69 5.01273C255.966 4.76073 256.314 4.63473 256.734 4.63473C257.154 4.63473 257.496 4.76073 257.76 5.01273C258.036 5.25273 258.174 5.56473 258.174 5.94873C258.174 6.33273 258.036 6.65073 257.76 6.90273C257.496 7.15473 257.154 7.28073 256.734 7.28073ZM255.582 17.5947V8.66673H257.886V17.5947H255.582ZM259.715 17.5947V15.7407L264.269 10.5747H259.769V8.66673H266.897V10.5207L262.271 15.6867H266.987V17.5947H259.715ZM271.982 17.8107C271.214 17.8107 270.584 17.6907 270.092 17.4507C269.6 17.1987 269.234 16.8687 268.994 16.4607C268.754 16.0527 268.634 15.6027 268.634 15.1107C268.634 14.2827 268.958 13.6107 269.606 13.0947C270.254 12.5787 271.226 12.3207 272.522 12.3207H274.79V12.1047C274.79 11.4927 274.616 11.0427 274.268 10.7547C273.92 10.4667 273.488 10.3227 272.972 10.3227C272.504 10.3227 272.096 10.4367 271.748 10.6647C271.4 10.8807 271.184 11.2047 271.1 11.6367H268.85C268.91 10.9887 269.126 10.4247 269.498 9.94473C269.882 9.46473 270.374 9.09873 270.974 8.84673C271.574 8.58273 272.246 8.45073 272.99 8.45073C274.262 8.45073 275.264 8.76873 275.996 9.40473C276.728 10.0407 277.094 10.9407 277.094 12.1047V17.5947H275.132L274.916 16.1547C274.652 16.6347 274.28 17.0307 273.8 17.3427C273.332 17.6547 272.726 17.8107 271.982 17.8107ZM272.504 16.0107C273.164 16.0107 273.674 15.7947 274.034 15.3627C274.406 14.9307 274.64 14.3967 274.736 13.7607H272.774C272.162 13.7607 271.724 13.8747 271.46 14.1027C271.196 14.3187 271.064 14.5887 271.064 14.9127C271.064 15.2607 271.196 15.5307 271.46 15.7227C271.724 15.9147 272.072 16.0107 272.504 16.0107ZM283.148 17.5947C282.212 17.5947 281.462 17.3667 280.898 16.9107C280.334 16.4547 280.052 15.6447 280.052 14.4807V10.5927H278.522V8.66673H280.052L280.322 6.27273H282.356V8.66673H284.768V10.5927H282.356V14.4987C282.356 14.9307 282.446 15.2307 282.626 15.3987C282.818 15.5547 283.142 15.6327 283.598 15.6327H284.714V17.5947H283.148ZM287.988 7.28073C287.568 7.28073 287.22 7.15473 286.944 6.90273C286.68 6.65073 286.548 6.33273 286.548 5.94873C286.548 5.56473 286.68 5.25273 286.944 5.01273C287.22 4.76073 287.568 4.63473 287.988 4.63473C288.408 4.63473 288.75 4.76073 289.014 5.01273C289.29 5.25273 289.428 5.56473 289.428 5.94873C289.428 6.33273 289.29 6.65073 289.014 6.90273C288.75 7.15473 288.408 7.28073 287.988 7.28073ZM286.836 17.5947V8.66673H289.14V17.5947H286.836ZM295.829 17.8107C294.965 17.8107 294.185 17.6127 293.489 17.2167C292.805 16.8207 292.259 16.2747 291.851 15.5787C291.455 14.8707 291.257 14.0547 291.257 13.1307C291.257 12.2067 291.461 11.3967 291.869 10.7007C292.277 9.99273 292.823 9.44073 293.507 9.04473C294.203 8.64873 294.983 8.45073 295.847 8.45073C296.699 8.45073 297.467 8.64873 298.151 9.04473C298.847 9.44073 299.393 9.99273 299.789 10.7007C300.197 11.3967 300.401 12.2067 300.401 13.1307C300.401 14.0547 300.197 14.8707 299.789 15.5787C299.393 16.2747 298.847 16.8207 298.151 17.2167C297.455 17.6127 296.681 17.8107 295.829 17.8107ZM295.829 15.8127C296.429 15.8127 296.951 15.5907 297.395 15.1467C297.839 14.6907 298.061 14.0187 298.061 13.1307C298.061 12.2427 297.839 11.5767 297.395 11.1327C296.951 10.6767 296.435 10.4487 295.847 10.4487C295.235 10.4487 294.707 10.6767 294.263 11.1327C293.831 11.5767 293.615 12.2427 293.615 13.1307C293.615 14.0187 293.831 14.6907 294.263 15.1467C294.707 15.5907 295.229 15.8127 295.829 15.8127ZM302.461 17.5947V8.66673H304.495L304.675 10.1787C304.951 9.65073 305.347 9.23073 305.863 8.91873C306.391 8.60673 307.009 8.45073 307.717 8.45073C308.821 8.45073 309.679 8.79873 310.291 9.49473C310.903 10.1907 311.209 11.2107 311.209 12.5547V17.5947H308.905V12.7707C308.905 12.0027 308.749 11.4147 308.437 11.0067C308.125 10.5987 307.639 10.3947 306.979 10.3947C306.331 10.3947 305.797 10.6227 305.377 11.0787C304.969 11.5347 304.765 12.1707 304.765 12.9867V17.5947H302.461Z" fill="#0F2137"/>
<path d="M112.625 54.1148C111.645 54.1148 110.785 53.8898 110.045 53.4398C109.305 52.9798 108.73 52.3448 108.32 51.5348C107.91 50.7148 107.705 49.7698 107.705 48.6998C107.705 47.6298 107.91 46.6848 108.32 45.8648C108.74 45.0448 109.33 44.4048 110.09 43.9448C110.86 43.4848 111.765 43.2548 112.805 43.2548C113.985 43.2548 114.965 43.5398 115.745 44.1098C116.535 44.6798 117.045 45.4648 117.275 46.4648H115.82C115.68 45.8348 115.345 45.3348 114.815 44.9648C114.295 44.5948 113.625 44.4098 112.805 44.4098C112.035 44.4098 111.365 44.5848 110.795 44.9348C110.225 45.2748 109.78 45.7648 109.46 46.4048C109.15 47.0448 108.995 47.8098 108.995 48.6998C108.995 49.5898 109.15 50.3548 109.46 50.9948C109.77 51.6348 110.2 52.1298 110.75 52.4798C111.3 52.8198 111.94 52.9898 112.67 52.9898C113.79 52.9898 114.635 52.6648 115.205 52.0148C115.775 51.3548 116.1 50.4548 116.18 49.3148H113.15V48.3248H117.47V53.9348H116.315L116.21 52.2098C115.83 52.8198 115.365 53.2898 114.815 53.6198C114.265 53.9498 113.535 54.1148 112.625 54.1148ZM122.733 54.1148C122.023 54.1148 121.393 53.9548 120.843 53.6348C120.293 53.3048 119.858 52.8498 119.538 52.2698C119.228 51.6898 119.073 51.0048 119.073 50.2148C119.073 49.4348 119.228 48.7548 119.538 48.1748C119.848 47.5848 120.278 47.1298 120.828 46.8098C121.388 46.4798 122.033 46.3148 122.763 46.3148C123.483 46.3148 124.103 46.4798 124.623 46.8098C125.153 47.1298 125.558 47.5548 125.838 48.0848C126.118 48.6148 126.258 49.1848 126.258 49.7948C126.258 49.9048 126.253 50.0148 126.243 50.1248C126.243 50.2348 126.243 50.3598 126.243 50.4998H120.318C120.348 51.0698 120.478 51.5448 120.708 51.9248C120.948 52.2948 121.243 52.5748 121.593 52.7648C121.953 52.9548 122.333 53.0498 122.733 53.0498C123.253 53.0498 123.688 52.9298 124.038 52.6898C124.388 52.4498 124.643 52.1248 124.803 51.7148H126.048C125.848 52.4048 125.463 52.9798 124.893 53.4398C124.333 53.8898 123.613 54.1148 122.733 54.1148ZM122.733 47.3798C122.133 47.3798 121.598 47.5648 121.128 47.9348C120.668 48.2948 120.403 48.8248 120.333 49.5248H125.013C124.983 48.8548 124.753 48.3298 124.323 47.9498C123.893 47.5698 123.363 47.3798 122.733 47.3798ZM130.619 53.9348C129.939 53.9348 129.404 53.7698 129.014 53.4398C128.624 53.1098 128.429 52.5148 128.429 51.6548V47.5598H127.139V46.4948H128.429L128.594 44.7098H129.689V46.4948H131.879V47.5598H129.689V51.6548C129.689 52.1248 129.784 52.4448 129.974 52.6148C130.164 52.7748 130.499 52.8548 130.979 52.8548H131.759V53.9348H130.619ZM138.259 57.2348L140.104 53.2148H139.669L136.714 46.4948H138.079L140.539 52.2848L143.149 46.4948H144.454L139.579 57.2348H138.259ZM148.471 54.1148C147.771 54.1148 147.141 53.9548 146.581 53.6348C146.021 53.3148 145.576 52.8648 145.246 52.2848C144.926 51.6948 144.766 51.0048 144.766 50.2148C144.766 49.4248 144.931 48.7398 145.261 48.1598C145.591 47.5698 146.036 47.1148 146.596 46.7948C147.166 46.4748 147.801 46.3148 148.501 46.3148C149.201 46.3148 149.831 46.4748 150.391 46.7948C150.951 47.1148 151.391 47.5698 151.711 48.1598C152.041 48.7398 152.206 49.4248 152.206 50.2148C152.206 51.0048 152.041 51.6948 151.711 52.2848C151.381 52.8648 150.931 53.3148 150.361 53.6348C149.801 53.9548 149.171 54.1148 148.471 54.1148ZM148.471 53.0348C148.901 53.0348 149.301 52.9298 149.671 52.7198C150.041 52.5098 150.341 52.1948 150.571 51.7748C150.801 51.3548 150.916 50.8348 150.916 50.2148C150.916 49.5948 150.801 49.0748 150.571 48.6548C150.351 48.2348 150.056 47.9198 149.686 47.7098C149.316 47.4998 148.921 47.3948 148.501 47.3948C148.071 47.3948 147.671 47.4998 147.301 47.7098C146.931 47.9198 146.631 48.2348 146.401 48.6548C146.171 49.0748 146.056 49.5948 146.056 50.2148C146.056 50.8348 146.171 51.3548 146.401 51.7748C146.631 52.1948 146.926 52.5098 147.286 52.7198C147.656 52.9298 148.051 53.0348 148.471 53.0348ZM156.673 54.1148C155.793 54.1148 155.093 53.8498 154.573 53.3198C154.053 52.7798 153.793 51.9548 153.793 50.8448V46.4948H155.053V50.7098C155.053 52.2598 155.688 53.0348 156.958 53.0348C157.608 53.0348 158.143 52.8048 158.563 52.3448C158.993 51.8748 159.208 51.2098 159.208 50.3498V46.4948H160.468V53.9348H159.328L159.238 52.5998C159.008 53.0698 158.663 53.4398 158.203 53.7098C157.753 53.9798 157.243 54.1148 156.673 54.1148ZM162.542 53.9348V46.4948H163.682L163.787 47.9198C164.017 47.4298 164.367 47.0398 164.837 46.7498C165.307 46.4598 165.887 46.3148 166.577 46.3148V47.6348H166.232C165.792 47.6348 165.387 47.7148 165.017 47.8748C164.647 48.0248 164.352 48.2848 164.132 48.6548C163.912 49.0248 163.802 49.5348 163.802 50.1848V53.9348H162.542ZM175.936 54.1148C175.326 54.1148 174.781 53.9898 174.301 53.7398C173.831 53.4898 173.471 53.1398 173.221 52.6898L173.101 53.9348H171.961V43.1348H173.221V47.7248C173.461 47.3648 173.801 47.0398 174.241 46.7498C174.691 46.4598 175.261 46.3148 175.951 46.3148C176.691 46.3148 177.336 46.4848 177.886 46.8248C178.436 47.1648 178.861 47.6298 179.161 48.2198C179.471 48.8098 179.626 49.4798 179.626 50.2298C179.626 50.9798 179.471 51.6498 179.161 52.2398C178.861 52.8198 178.431 53.2798 177.871 53.6198C177.321 53.9498 176.676 54.1148 175.936 54.1148ZM175.801 53.0198C176.301 53.0198 176.741 52.9048 177.121 52.6748C177.501 52.4348 177.801 52.1048 178.021 51.6848C178.241 51.2648 178.351 50.7748 178.351 50.2148C178.351 49.6548 178.241 49.1648 178.021 48.7448C177.801 48.3248 177.501 47.9998 177.121 47.7698C176.741 47.5298 176.301 47.4098 175.801 47.4098C175.301 47.4098 174.861 47.5298 174.481 47.7698C174.101 47.9998 173.801 48.3248 173.581 48.7448C173.361 49.1648 173.251 49.6548 173.251 50.2148C173.251 50.7748 173.361 51.2648 173.581 51.6848C173.801 52.1048 174.101 52.4348 174.481 52.6748C174.861 52.9048 175.301 53.0198 175.801 53.0198ZM181.38 53.9348V43.1348H182.64V53.9348H181.38ZM188.095 54.1148C187.395 54.1148 186.765 53.9548 186.205 53.6348C185.645 53.3148 185.2 52.8648 184.87 52.2848C184.55 51.6948 184.39 51.0048 184.39 50.2148C184.39 49.4248 184.555 48.7398 184.885 48.1598C185.215 47.5698 185.66 47.1148 186.22 46.7948C186.79 46.4748 187.425 46.3148 188.125 46.3148C188.825 46.3148 189.455 46.4748 190.015 46.7948C190.575 47.1148 191.015 47.5698 191.335 48.1598C191.665 48.7398 191.83 49.4248 191.83 50.2148C191.83 51.0048 191.665 51.6948 191.335 52.2848C191.005 52.8648 190.555 53.3148 189.985 53.6348C189.425 53.9548 188.795 54.1148 188.095 54.1148ZM188.095 53.0348C188.525 53.0348 188.925 52.9298 189.295 52.7198C189.665 52.5098 189.965 52.1948 190.195 51.7748C190.425 51.3548 190.54 50.8348 190.54 50.2148C190.54 49.5948 190.425 49.0748 190.195 48.6548C189.975 48.2348 189.68 47.9198 189.31 47.7098C188.94 47.4998 188.545 47.3948 188.125 47.3948C187.695 47.3948 187.295 47.4998 186.925 47.7098C186.555 47.9198 186.255 48.2348 186.025 48.6548C185.795 49.0748 185.68 49.5948 185.68 50.2148C185.68 50.8348 185.795 51.3548 186.025 51.7748C186.255 52.1948 186.55 52.5098 186.91 52.7198C187.28 52.9298 187.675 53.0348 188.095 53.0348ZM196.972 54.1148C196.272 54.1148 195.642 53.9548 195.082 53.6348C194.522 53.3148 194.077 52.8648 193.747 52.2848C193.427 51.6948 193.267 51.0048 193.267 50.2148C193.267 49.4248 193.432 48.7398 193.762 48.1598C194.092 47.5698 194.537 47.1148 195.097 46.7948C195.667 46.4748 196.302 46.3148 197.002 46.3148C197.702 46.3148 198.332 46.4748 198.892 46.7948C199.452 47.1148 199.892 47.5698 200.212 48.1598C200.542 48.7398 200.707 49.4248 200.707 50.2148C200.707 51.0048 200.542 51.6948 200.212 52.2848C199.882 52.8648 199.432 53.3148 198.862 53.6348C198.302 53.9548 197.672 54.1148 196.972 54.1148ZM196.972 53.0348C197.402 53.0348 197.802 52.9298 198.172 52.7198C198.542 52.5098 198.842 52.1948 199.072 51.7748C199.302 51.3548 199.417 50.8348 199.417 50.2148C199.417 49.5948 199.302 49.0748 199.072 48.6548C198.852 48.2348 198.557 47.9198 198.187 47.7098C197.817 47.4998 197.422 47.3948 197.002 47.3948C196.572 47.3948 196.172 47.4998 195.802 47.7098C195.432 47.9198 195.132 48.2348 194.902 48.6548C194.672 49.0748 194.557 49.5948 194.557 50.2148C194.557 50.8348 194.672 51.3548 194.902 51.7748C195.132 52.1948 195.427 52.5098 195.787 52.7198C196.157 52.9298 196.552 53.0348 196.972 53.0348ZM205.834 54.1148C205.094 54.1148 204.444 53.9448 203.884 53.6048C203.334 53.2648 202.904 52.7998 202.594 52.2098C202.294 51.6198 202.144 50.9498 202.144 50.1998C202.144 49.4498 202.299 48.7848 202.609 48.2048C202.919 47.6148 203.349 47.1548 203.899 46.8248C204.449 46.4848 205.099 46.3148 205.849 46.3148C206.459 46.3148 206.999 46.4398 207.469 46.6898C207.939 46.9398 208.304 47.2898 208.564 47.7398V43.1348H209.824V53.9348H208.684L208.564 52.7048C208.324 53.0648 207.979 53.3898 207.529 53.6798C207.079 53.9698 206.514 54.1148 205.834 54.1148ZM205.969 53.0198C206.469 53.0198 206.909 52.9048 207.289 52.6748C207.679 52.4348 207.979 52.1048 208.189 51.6848C208.409 51.2648 208.519 50.7748 208.519 50.2148C208.519 49.6548 208.409 49.1648 208.189 48.7448C207.979 48.3248 207.679 47.9998 207.289 47.7698C206.909 47.5298 206.469 47.4098 205.969 47.4098C205.479 47.4098 205.039 47.5298 204.649 47.7698C204.269 47.9998 203.969 48.3248 203.749 48.7448C203.539 49.1648 203.434 49.6548 203.434 50.2148C203.434 50.7748 203.539 51.2648 203.749 51.6848C203.969 52.1048 204.269 52.4348 204.649 52.6748C205.039 52.9048 205.479 53.0198 205.969 53.0198ZM218.788 53.9348C218.108 53.9348 217.573 53.7698 217.183 53.4398C216.793 53.1098 216.598 52.5148 216.598 51.6548V47.5598H215.307V46.4948H216.598L216.763 44.7098H217.858V46.4948H220.048V47.5598H217.858V51.6548C217.858 52.1248 217.953 52.4448 218.143 52.6148C218.333 52.7748 218.668 52.8548 219.148 52.8548H219.928V53.9348H218.788ZM224.788 54.1148C224.078 54.1148 223.448 53.9548 222.898 53.6348C222.348 53.3048 221.913 52.8498 221.593 52.2698C221.283 51.6898 221.128 51.0048 221.128 50.2148C221.128 49.4348 221.283 48.7548 221.593 48.1748C221.903 47.5848 222.333 47.1298 222.883 46.8098C223.443 46.4798 224.088 46.3148 224.818 46.3148C225.538 46.3148 226.158 46.4798 226.678 46.8098C227.208 47.1298 227.613 47.5548 227.893 48.0848C228.173 48.6148 228.313 49.1848 228.313 49.7948C228.313 49.9048 228.308 50.0148 228.298 50.1248C228.298 50.2348 228.298 50.3598 228.298 50.4998H222.373C222.403 51.0698 222.533 51.5448 222.763 51.9248C223.003 52.2948 223.298 52.5748 223.648 52.7648C224.008 52.9548 224.388 53.0498 224.788 53.0498C225.308 53.0498 225.743 52.9298 226.093 52.6898C226.443 52.4498 226.698 52.1248 226.858 51.7148H228.103C227.903 52.4048 227.518 52.9798 226.948 53.4398C226.388 53.8898 225.668 54.1148 224.788 54.1148ZM224.788 47.3798C224.188 47.3798 223.653 47.5648 223.183 47.9348C222.723 48.2948 222.458 48.8248 222.388 49.5248H227.068C227.038 48.8548 226.808 48.3298 226.378 47.9498C225.948 47.5698 225.418 47.3798 224.788 47.3798ZM232.833 54.1148C231.943 54.1148 231.203 53.8898 230.613 53.4398C230.023 52.9898 229.678 52.3798 229.578 51.6098H230.868C230.948 51.9998 231.153 52.3398 231.483 52.6298C231.823 52.9098 232.278 53.0498 232.848 53.0498C233.378 53.0498 233.768 52.9398 234.018 52.7198C234.268 52.4898 234.393 52.2198 234.393 51.9098C234.393 51.4598 234.228 51.1598 233.898 51.0098C233.578 50.8598 233.123 50.7248 232.533 50.6048C232.133 50.5248 231.733 50.4098 231.333 50.2598C230.933 50.1098 230.598 49.8998 230.328 49.6298C230.058 49.3498 229.923 48.9848 229.923 48.5348C229.923 47.8848 230.163 47.3548 230.643 46.9448C231.133 46.5248 231.793 46.3148 232.623 46.3148C233.413 46.3148 234.058 46.5148 234.558 46.9148C235.068 47.3048 235.363 47.8648 235.443 48.5948H234.198C234.148 48.2148 233.983 47.9198 233.703 47.7098C233.433 47.4898 233.068 47.3798 232.608 47.3798C232.158 47.3798 231.808 47.4748 231.558 47.6648C231.318 47.8548 231.198 48.1048 231.198 48.4148C231.198 48.7148 231.353 48.9498 231.663 49.1198C231.983 49.2898 232.413 49.4348 232.953 49.5548C233.413 49.6548 233.848 49.7798 234.258 49.9298C234.678 50.0698 235.018 50.2848 235.278 50.5748C235.548 50.8548 235.683 51.2648 235.683 51.8048C235.693 52.4748 235.438 53.0298 234.918 53.4698C234.408 53.8998 233.713 54.1148 232.833 54.1148ZM240.086 53.9348C239.406 53.9348 238.871 53.7698 238.481 53.4398C238.091 53.1098 237.896 52.5148 237.896 51.6548V47.5598H236.606V46.4948H237.896L238.061 44.7098H239.156V46.4948H241.346V47.5598H239.156V51.6548C239.156 52.1248 239.251 52.4448 239.441 52.6148C239.631 52.7748 239.966 52.8548 240.446 52.8548H241.226V53.9348H240.086ZM245.797 54.1148C244.907 54.1148 244.167 53.8898 243.577 53.4398C242.987 52.9898 242.642 52.3798 242.542 51.6098H243.832C243.912 51.9998 244.117 52.3398 244.447 52.6298C244.787 52.9098 245.242 53.0498 245.812 53.0498C246.342 53.0498 246.732 52.9398 246.982 52.7198C247.232 52.4898 247.357 52.2198 247.357 51.9098C247.357 51.4598 247.192 51.1598 246.862 51.0098C246.542 50.8598 246.087 50.7248 245.497 50.6048C245.097 50.5248 244.697 50.4098 244.297 50.2598C243.897 50.1098 243.562 49.8998 243.292 49.6298C243.022 49.3498 242.887 48.9848 242.887 48.5348C242.887 47.8848 243.127 47.3548 243.607 46.9448C244.097 46.5248 244.757 46.3148 245.587 46.3148C246.377 46.3148 247.022 46.5148 247.522 46.9148C248.032 47.3048 248.327 47.8648 248.407 48.5948H247.162C247.112 48.2148 246.947 47.9198 246.667 47.7098C246.397 47.4898 246.032 47.3798 245.572 47.3798C245.122 47.3798 244.772 47.4748 244.522 47.6648C244.282 47.8548 244.162 48.1048 244.162 48.4148C244.162 48.7148 244.317 48.9498 244.627 49.1198C244.947 49.2898 245.377 49.4348 245.917 49.5548C246.377 49.6548 246.812 49.7798 247.222 49.9298C247.642 50.0698 247.982 50.2848 248.242 50.5748C248.512 50.8548 248.647 51.2648 248.647 51.8048C248.657 52.4748 248.402 53.0298 247.882 53.4698C247.372 53.8998 246.677 54.1148 245.797 54.1148ZM257.792 54.1148C257.052 54.1148 256.402 53.9448 255.842 53.6048C255.292 53.2648 254.862 52.7998 254.552 52.2098C254.252 51.6198 254.102 50.9498 254.102 50.1998C254.102 49.4498 254.257 48.7848 254.567 48.2048C254.877 47.6148 255.307 47.1548 255.857 46.8248C256.407 46.4848 257.057 46.3148 257.807 46.3148C258.417 46.3148 258.957 46.4398 259.427 46.6898C259.897 46.9398 260.262 47.2898 260.522 47.7398V43.1348H261.782V53.9348H260.642L260.522 52.7048C260.282 53.0648 259.937 53.3898 259.487 53.6798C259.037 53.9698 258.472 54.1148 257.792 54.1148ZM257.927 53.0198C258.427 53.0198 258.867 52.9048 259.247 52.6748C259.637 52.4348 259.937 52.1048 260.147 51.6848C260.367 51.2648 260.477 50.7748 260.477 50.2148C260.477 49.6548 260.367 49.1648 260.147 48.7448C259.937 48.3248 259.637 47.9998 259.247 47.7698C258.867 47.5298 258.427 47.4098 257.927 47.4098C257.437 47.4098 256.997 47.5298 256.607 47.7698C256.227 47.9998 255.927 48.3248 255.707 48.7448C255.497 49.1648 255.392 49.6548 255.392 50.2148C255.392 50.7748 255.497 51.2648 255.707 51.6848C255.927 52.1048 256.227 52.4348 256.607 52.6748C256.997 52.9048 257.437 53.0198 257.927 53.0198ZM267.181 54.1148C266.471 54.1148 265.841 53.9548 265.291 53.6348C264.741 53.3048 264.306 52.8498 263.986 52.2698C263.676 51.6898 263.521 51.0048 263.521 50.2148C263.521 49.4348 263.676 48.7548 263.986 48.1748C264.296 47.5848 264.726 47.1298 265.276 46.8098C265.836 46.4798 266.481 46.3148 267.211 46.3148C267.931 46.3148 268.551 46.4798 269.071 46.8098C269.601 47.1298 270.006 47.5548 270.286 48.0848C270.566 48.6148 270.706 49.1848 270.706 49.7948C270.706 49.9048 270.701 50.0148 270.691 50.1248C270.691 50.2348 270.691 50.3598 270.691 50.4998H264.766C264.796 51.0698 264.926 51.5448 265.156 51.9248C265.396 52.2948 265.691 52.5748 266.041 52.7648C266.401 52.9548 266.781 53.0498 267.181 53.0498C267.701 53.0498 268.136 52.9298 268.486 52.6898C268.836 52.4498 269.091 52.1248 269.251 51.7148H270.496C270.296 52.4048 269.911 52.9798 269.341 53.4398C268.781 53.8898 268.061 54.1148 267.181 54.1148ZM267.181 47.3798C266.581 47.3798 266.046 47.5648 265.576 47.9348C265.116 48.2948 264.851 48.8248 264.781 49.5248H269.461C269.431 48.8548 269.201 48.3298 268.771 47.9498C268.341 47.5698 267.811 47.3798 267.181 47.3798ZM272.376 53.9348V43.1348H273.636V53.9348H272.376ZM276.466 44.8448C276.216 44.8448 276.006 44.7648 275.836 44.6048C275.676 44.4348 275.596 44.2248 275.596 43.9748C275.596 43.7348 275.676 43.5348 275.836 43.3748C276.006 43.2148 276.216 43.1348 276.466 43.1348C276.706 43.1348 276.911 43.2148 277.081 43.3748C277.251 43.5348 277.336 43.7348 277.336 43.9748C277.336 44.2248 277.251 44.4348 277.081 44.6048C276.911 44.7648 276.706 44.8448 276.466 44.8448ZM275.836 53.9348V46.4948H277.096V53.9348H275.836ZM281.435 53.9348L278.615 46.4948H279.935L282.17 52.7198L284.42 46.4948H285.71L282.89 53.9348H281.435ZM290.076 54.1148C289.366 54.1148 288.736 53.9548 288.186 53.6348C287.636 53.3048 287.201 52.8498 286.881 52.2698C286.571 51.6898 286.416 51.0048 286.416 50.2148C286.416 49.4348 286.571 48.7548 286.881 48.1748C287.191 47.5848 287.621 47.1298 288.171 46.8098C288.731 46.4798 289.376 46.3148 290.106 46.3148C290.826 46.3148 291.446 46.4798 291.966 46.8098C292.496 47.1298 292.901 47.5548 293.181 48.0848C293.461 48.6148 293.601 49.1848 293.601 49.7948C293.601 49.9048 293.596 50.0148 293.586 50.1248C293.586 50.2348 293.586 50.3598 293.586 50.4998H287.661C287.691 51.0698 287.821 51.5448 288.051 51.9248C288.291 52.2948 288.586 52.5748 288.936 52.7648C289.296 52.9548 289.676 53.0498 290.076 53.0498C290.596 53.0498 291.031 52.9298 291.381 52.6898C291.731 52.4498 291.986 52.1248 292.146 51.7148H293.391C293.191 52.4048 292.806 52.9798 292.236 53.4398C291.676 53.8898 290.956 54.1148 290.076 54.1148ZM290.076 47.3798C289.476 47.3798 288.941 47.5648 288.471 47.9348C288.011 48.2948 287.746 48.8248 287.676 49.5248H292.356C292.326 48.8548 292.096 48.3298 291.666 47.9498C291.236 47.5698 290.706 47.3798 290.076 47.3798ZM295.271 53.9348V46.4948H296.411L296.516 47.9198C296.746 47.4298 297.096 47.0398 297.566 46.7498C298.036 46.4598 298.616 46.3148 299.306 46.3148V47.6348H298.961C298.521 47.6348 298.116 47.7148 297.746 47.8748C297.376 48.0248 297.081 48.2848 296.861 48.6548C296.641 49.0248 296.531 49.5348 296.531 50.1848V53.9348H295.271ZM303.787 54.1148C303.077 54.1148 302.447 53.9548 301.897 53.6348C301.347 53.3048 300.912 52.8498 300.592 52.2698C300.282 51.6898 300.127 51.0048 300.127 50.2148C300.127 49.4348 300.282 48.7548 300.592 48.1748C300.902 47.5848 301.332 47.1298 301.882 46.8098C302.442 46.4798 303.087 46.3148 303.817 46.3148C304.537 46.3148 305.157 46.4798 305.677 46.8098C306.207 47.1298 306.612 47.5548 306.892 48.0848C307.172 48.6148 307.312 49.1848 307.312 49.7948C307.312 49.9048 307.307 50.0148 307.297 50.1248C307.297 50.2348 307.297 50.3598 307.297 50.4998H301.372C301.402 51.0698 301.532 51.5448 301.762 51.9248C302.002 52.2948 302.297 52.5748 302.647 52.7648C303.007 52.9548 303.387 53.0498 303.787 53.0498C304.307 53.0498 304.742 52.9298 305.092 52.6898C305.442 52.4498 305.697 52.1248 305.857 51.7148H307.102C306.902 52.4048 306.517 52.9798 305.947 53.4398C305.387 53.8898 304.667 54.1148 303.787 54.1148ZM303.787 47.3798C303.187 47.3798 302.652 47.5648 302.182 47.9348C301.722 48.2948 301.457 48.8248 301.387 49.5248H306.067C306.037 48.8548 305.807 48.3298 305.377 47.9498C304.947 47.5698 304.417 47.3798 303.787 47.3798ZM312.357 54.1148C311.617 54.1148 310.967 53.9448 310.407 53.6048C309.857 53.2648 309.427 52.7998 309.117 52.2098C308.817 51.6198 308.667 50.9498 308.667 50.1998C308.667 49.4498 308.822 48.7848 309.132 48.2048C309.442 47.6148 309.872 47.1548 310.422 46.8248C310.972 46.4848 311.622 46.3148 312.372 46.3148C312.982 46.3148 313.522 46.4398 313.992 46.6898C314.462 46.9398 314.827 47.2898 315.087 47.7398V43.1348H316.347V53.9348H315.207L315.087 52.7048C314.847 53.0648 314.502 53.3898 314.052 53.6798C313.602 53.9698 313.037 54.1148 312.357 54.1148ZM312.492 53.0198C312.992 53.0198 313.432 52.9048 313.812 52.6748C314.202 52.4348 314.502 52.1048 314.712 51.6848C314.932 51.2648 315.042 50.7748 315.042 50.2148C315.042 49.6548 314.932 49.1648 314.712 48.7448C314.502 48.3248 314.202 47.9998 313.812 47.7698C313.432 47.5298 312.992 47.4098 312.492 47.4098C312.002 47.4098 311.562 47.5298 311.172 47.7698C310.792 47.9998 310.492 48.3248 310.272 48.7448C310.062 49.1648 309.957 49.6548 309.957 50.2148C309.957 50.7748 310.062 51.2648 310.272 51.6848C310.492 52.1048 310.792 52.4348 311.172 52.6748C311.562 52.9048 312.002 53.0198 312.492 53.0198ZM324.846 54.1148C324.226 54.1148 323.711 54.0098 323.301 53.7998C322.891 53.5898 322.586 53.3098 322.386 52.9598C322.186 52.6098 322.086 52.2298 322.086 51.8198C322.086 51.0598 322.376 50.4748 322.956 50.0648C323.536 49.6548 324.326 49.4498 325.326 49.4498H327.336V49.3598C327.336 48.7098 327.166 48.2198 326.826 47.8898C326.486 47.5498 326.031 47.3798 325.461 47.3798C324.971 47.3798 324.546 47.5048 324.186 47.7548C323.836 47.9948 323.616 48.3498 323.526 48.8198H322.236C322.286 48.2798 322.466 47.8248 322.776 47.4548C323.096 47.0848 323.491 46.8048 323.961 46.6148C324.431 46.4148 324.931 46.3148 325.461 46.3148C326.501 46.3148 327.281 46.5948 327.801 47.1548C328.331 47.7048 328.596 48.4398 328.596 49.3598V53.9348H327.471L327.396 52.5998C327.186 53.0198 326.876 53.3798 326.466 53.6798C326.066 53.9698 325.526 54.1148 324.846 54.1148ZM325.041 53.0498C325.521 53.0498 325.931 52.9248 326.271 52.6748C326.621 52.4248 326.886 52.0998 327.066 51.6998C327.246 51.2998 327.336 50.8798 327.336 50.4398V50.4248H325.431C324.691 50.4248 324.166 50.5548 323.856 50.8148C323.556 51.0648 323.406 51.3798 323.406 51.7598C323.406 52.1498 323.546 52.4648 323.826 52.7048C324.116 52.9348 324.521 53.0498 325.041 53.0498ZM333.221 53.9348C332.541 53.9348 332.006 53.7698 331.616 53.4398C331.226 53.1098 331.031 52.5148 331.031 51.6548V47.5598H329.741V46.4948H331.031L331.196 44.7098H332.291V46.4948H334.481V47.5598H332.291V51.6548C332.291 52.1248 332.386 52.4448 332.576 52.6148C332.766 52.7748 333.101 52.8548 333.581 52.8548H334.361V53.9348H333.221ZM340.052 53.9348V43.1348H341.312V53.9348H340.052ZM346.722 54.1148C346.012 54.1148 345.382 53.9548 344.832 53.6348C344.282 53.3048 343.847 52.8498 343.527 52.2698C343.217 51.6898 343.062 51.0048 343.062 50.2148C343.062 49.4348 343.217 48.7548 343.527 48.1748C343.837 47.5848 344.267 47.1298 344.817 46.8098C345.377 46.4798 346.022 46.3148 346.752 46.3148C347.472 46.3148 348.092 46.4798 348.612 46.8098C349.142 47.1298 349.547 47.5548 349.827 48.0848C350.107 48.6148 350.247 49.1848 350.247 49.7948C350.247 49.9048 350.242 50.0148 350.232 50.1248C350.232 50.2348 350.232 50.3598 350.232 50.4998H344.307C344.337 51.0698 344.467 51.5448 344.697 51.9248C344.937 52.2948 345.232 52.5748 345.582 52.7648C345.942 52.9548 346.322 53.0498 346.722 53.0498C347.242 53.0498 347.677 52.9298 348.027 52.6898C348.377 52.4498 348.632 52.1248 348.792 51.7148H350.037C349.837 52.4048 349.452 52.9798 348.882 53.4398C348.322 53.8898 347.602 54.1148 346.722 54.1148ZM346.722 47.3798C346.122 47.3798 345.587 47.5648 345.117 47.9348C344.657 48.2948 344.392 48.8248 344.322 49.5248H349.002C348.972 48.8548 348.742 48.3298 348.312 47.9498C347.882 47.5698 347.352 47.3798 346.722 47.3798ZM354.608 53.9348C353.928 53.9348 353.393 53.7698 353.003 53.4398C352.613 53.1098 352.418 52.5148 352.418 51.6548V47.5598H351.128V46.4948H352.418L352.583 44.7098H353.678V46.4948H355.868V47.5598H353.678V51.6548C353.678 52.1248 353.773 52.4448 353.963 52.6148C354.153 52.7748 354.488 52.8548 354.968 52.8548H355.748V53.9348H354.608ZM108.035 79.9348V69.1348H109.295V73.7698C109.545 73.3098 109.9 72.9548 110.36 72.7048C110.82 72.4448 111.32 72.3148 111.86 72.3148C112.72 72.3148 113.41 72.5848 113.93 73.1248C114.45 73.6548 114.71 74.4748 114.71 75.5848V79.9348H113.465V75.7198C113.465 74.1698 112.84 73.3948 111.59 73.3948C110.94 73.3948 110.395 73.6298 109.955 74.0998C109.515 74.5598 109.295 75.2198 109.295 76.0798V79.9348H108.035ZM120.009 80.1148C119.309 80.1148 118.679 79.9548 118.119 79.6348C117.559 79.3148 117.114 78.8648 116.784 78.2848C116.464 77.6948 116.304 77.0048 116.304 76.2148C116.304 75.4248 116.469 74.7398 116.799 74.1598C117.129 73.5698 117.574 73.1148 118.134 72.7948C118.704 72.4748 119.339 72.3148 120.039 72.3148C120.739 72.3148 121.369 72.4748 121.929 72.7948C122.489 73.1148 122.929 73.5698 123.249 74.1598C123.579 74.7398 123.744 75.4248 123.744 76.2148C123.744 77.0048 123.579 77.6948 123.249 78.2848C122.919 78.8648 122.469 79.3148 121.899 79.6348C121.339 79.9548 120.709 80.1148 120.009 80.1148ZM120.009 79.0348C120.439 79.0348 120.839 78.9298 121.209 78.7198C121.579 78.5098 121.879 78.1948 122.109 77.7748C122.339 77.3548 122.454 76.8348 122.454 76.2148C122.454 75.5948 122.339 75.0748 122.109 74.6548C121.889 74.2348 121.594 73.9198 121.224 73.7098C120.854 73.4998 120.459 73.3948 120.039 73.3948C119.609 73.3948 119.209 73.4998 118.839 73.7098C118.469 73.9198 118.169 74.2348 117.939 74.6548C117.709 75.0748 117.594 75.5948 117.594 76.2148C117.594 76.8348 117.709 77.3548 117.939 77.7748C118.169 78.1948 118.464 78.5098 118.824 78.7198C119.194 78.9298 119.589 79.0348 120.009 79.0348ZM125.496 79.9348V72.4948H126.636L126.726 73.5748C126.966 73.1748 127.286 72.8648 127.686 72.6448C128.086 72.4248 128.536 72.3148 129.036 72.3148C129.626 72.3148 130.131 72.4348 130.551 72.6748C130.981 72.9148 131.311 73.2798 131.541 73.7698C131.801 73.3198 132.156 72.9648 132.606 72.7048C133.066 72.4448 133.561 72.3148 134.091 72.3148C134.981 72.3148 135.691 72.5848 136.221 73.1248C136.751 73.6548 137.016 74.4748 137.016 75.5848V79.9348H135.771V75.7198C135.771 74.9498 135.616 74.3698 135.306 73.9798C134.996 73.5898 134.551 73.3948 133.971 73.3948C133.371 73.3948 132.871 73.6298 132.471 74.0998C132.081 74.5598 131.886 75.2198 131.886 76.0798V79.9348H130.626V75.7198C130.626 74.9498 130.471 74.3698 130.161 73.9798C129.851 73.5898 129.406 73.3948 128.826 73.3948C128.236 73.3948 127.741 73.6298 127.341 74.0998C126.951 74.5598 126.756 75.2198 126.756 76.0798V79.9348H125.496ZM142.259 80.1148C141.549 80.1148 140.919 79.9548 140.369 79.6348C139.819 79.3048 139.384 78.8498 139.064 78.2698C138.754 77.6898 138.599 77.0048 138.599 76.2148C138.599 75.4348 138.754 74.7548 139.064 74.1748C139.374 73.5848 139.804 73.1298 140.354 72.8098C140.914 72.4798 141.559 72.3148 142.289 72.3148C143.009 72.3148 143.629 72.4798 144.149 72.8098C144.679 73.1298 145.084 73.5548 145.364 74.0848C145.644 74.6148 145.784 75.1848 145.784 75.7948C145.784 75.9048 145.779 76.0148 145.769 76.1248C145.769 76.2348 145.769 76.3598 145.769 76.4998H139.844C139.874 77.0698 140.004 77.5448 140.234 77.9248C140.474 78.2948 140.769 78.5748 141.119 78.7648C141.479 78.9548 141.859 79.0498 142.259 79.0498C142.779 79.0498 143.214 78.9298 143.564 78.6898C143.914 78.4498 144.169 78.1248 144.329 77.7148H145.574C145.374 78.4048 144.989 78.9798 144.419 79.4398C143.859 79.8898 143.139 80.1148 142.259 80.1148ZM142.259 73.3798C141.659 73.3798 141.124 73.5648 140.654 73.9348C140.194 74.2948 139.929 74.8248 139.859 75.5248H144.539C144.509 74.8548 144.279 74.3298 143.849 73.9498C143.419 73.5698 142.889 73.3798 142.259 73.3798ZM154.844 80.1148C154.134 80.1148 153.494 79.9548 152.924 79.6348C152.364 79.3048 151.919 78.8498 151.589 78.2698C151.269 77.6798 151.109 76.9948 151.109 76.2148C151.109 75.4348 151.269 74.7548 151.589 74.1748C151.919 73.5848 152.364 73.1298 152.924 72.8098C153.494 72.4798 154.134 72.3148 154.844 72.3148C155.724 72.3148 156.464 72.5448 157.064 73.0048C157.674 73.4648 158.059 74.0798 158.219 74.8498H156.929C156.829 74.3898 156.584 74.0348 156.194 73.7848C155.804 73.5248 155.349 73.3948 154.829 73.3948C154.409 73.3948 154.014 73.4998 153.644 73.7098C153.274 73.9198 152.974 74.2348 152.744 74.6548C152.514 75.0748 152.399 75.5948 152.399 76.2148C152.399 76.8348 152.514 77.3548 152.744 77.7748C152.974 78.1948 153.274 78.5148 153.644 78.7348C154.014 78.9448 154.409 79.0498 154.829 79.0498C155.349 79.0498 155.804 78.9248 156.194 78.6748C156.584 78.4148 156.829 78.0498 156.929 77.5798H158.219C158.069 78.3298 157.689 78.9398 157.079 79.4098C156.469 79.8798 155.724 80.1148 154.844 80.1148ZM163.368 80.1148C162.668 80.1148 162.038 79.9548 161.478 79.6348C160.918 79.3148 160.473 78.8648 160.143 78.2848C159.823 77.6948 159.663 77.0048 159.663 76.2148C159.663 75.4248 159.828 74.7398 160.158 74.1598C160.488 73.5698 160.933 73.1148 161.493 72.7948C162.063 72.4748 162.698 72.3148 163.398 72.3148C164.098 72.3148 164.728 72.4748 165.288 72.7948C165.848 73.1148 166.288 73.5698 166.608 74.1598C166.938 74.7398 167.103 75.4248 167.103 76.2148C167.103 77.0048 166.938 77.6948 166.608 78.2848C166.278 78.8648 165.828 79.3148 165.258 79.6348C164.698 79.9548 164.068 80.1148 163.368 80.1148ZM163.368 79.0348C163.798 79.0348 164.198 78.9298 164.568 78.7198C164.938 78.5098 165.238 78.1948 165.468 77.7748C165.698 77.3548 165.813 76.8348 165.813 76.2148C165.813 75.5948 165.698 75.0748 165.468 74.6548C165.248 74.2348 164.953 73.9198 164.583 73.7098C164.213 73.4998 163.818 73.3948 163.398 73.3948C162.968 73.3948 162.568 73.4998 162.198 73.7098C161.828 73.9198 161.528 74.2348 161.298 74.6548C161.068 75.0748 160.953 75.5948 160.953 76.2148C160.953 76.8348 161.068 77.3548 161.298 77.7748C161.528 78.1948 161.823 78.5098 162.183 78.7198C162.553 78.9298 162.948 79.0348 163.368 79.0348ZM168.855 79.9348V69.1348H170.115V79.9348H168.855ZM172.181 79.9348V69.1348H173.441V79.9348H172.181ZM178.851 80.1148C178.141 80.1148 177.511 79.9548 176.961 79.6348C176.411 79.3048 175.976 78.8498 175.656 78.2698C175.346 77.6898 175.191 77.0048 175.191 76.2148C175.191 75.4348 175.346 74.7548 175.656 74.1748C175.966 73.5848 176.396 73.1298 176.946 72.8098C177.506 72.4798 178.151 72.3148 178.881 72.3148C179.601 72.3148 180.221 72.4798 180.741 72.8098C181.271 73.1298 181.676 73.5548 181.956 74.0848C182.236 74.6148 182.376 75.1848 182.376 75.7948C182.376 75.9048 182.371 76.0148 182.361 76.1248C182.361 76.2348 182.361 76.3598 182.361 76.4998H176.436C176.466 77.0698 176.596 77.5448 176.826 77.9248C177.066 78.2948 177.361 78.5748 177.711 78.7648C178.071 78.9548 178.451 79.0498 178.851 79.0498C179.371 79.0498 179.806 78.9298 180.156 78.6898C180.506 78.4498 180.761 78.1248 180.921 77.7148H182.166C181.966 78.4048 181.581 78.9798 181.011 79.4398C180.451 79.8898 179.731 80.1148 178.851 80.1148ZM178.851 73.3798C178.251 73.3798 177.716 73.5648 177.246 73.9348C176.786 74.2948 176.521 74.8248 176.451 75.5248H181.131C181.101 74.8548 180.871 74.3298 180.441 73.9498C180.011 73.5698 179.481 73.3798 178.851 73.3798ZM187.466 80.1148C186.756 80.1148 186.116 79.9548 185.546 79.6348C184.986 79.3048 184.541 78.8498 184.211 78.2698C183.891 77.6798 183.731 76.9948 183.731 76.2148C183.731 75.4348 183.891 74.7548 184.211 74.1748C184.541 73.5848 184.986 73.1298 185.546 72.8098C186.116 72.4798 186.756 72.3148 187.466 72.3148C188.346 72.3148 189.086 72.5448 189.686 73.0048C190.296 73.4648 190.681 74.0798 190.841 74.8498H189.551C189.451 74.3898 189.206 74.0348 188.816 73.7848C188.426 73.5248 187.971 73.3948 187.451 73.3948C187.031 73.3948 186.636 73.4998 186.266 73.7098C185.896 73.9198 185.596 74.2348 185.366 74.6548C185.136 75.0748 185.021 75.5948 185.021 76.2148C185.021 76.8348 185.136 77.3548 185.366 77.7748C185.596 78.1948 185.896 78.5148 186.266 78.7348C186.636 78.9448 187.031 79.0498 187.451 79.0498C187.971 79.0498 188.426 78.9248 188.816 78.6748C189.206 78.4148 189.451 78.0498 189.551 77.5798H190.841C190.691 78.3298 190.311 78.9398 189.701 79.4098C189.091 79.8798 188.346 80.1148 187.466 80.1148ZM195.335 79.9348C194.655 79.9348 194.12 79.7698 193.73 79.4398C193.34 79.1098 193.145 78.5148 193.145 77.6548V73.5598H191.855V72.4948H193.145L193.31 70.7098H194.405V72.4948H196.595V73.5598H194.405V77.6548C194.405 78.1248 194.5 78.4448 194.69 78.6148C194.88 78.7748 195.215 78.8548 195.695 78.8548H196.475V79.9348H195.335ZM205.016 80.1148C204.126 80.1148 203.386 79.8898 202.796 79.4398C202.206 78.9898 201.861 78.3798 201.761 77.6098H203.051C203.131 77.9998 203.336 78.3398 203.666 78.6298C204.006 78.9098 204.461 79.0498 205.031 79.0498C205.561 79.0498 205.951 78.9398 206.201 78.7198C206.451 78.4898 206.576 78.2198 206.576 77.9098C206.576 77.4598 206.411 77.1598 206.081 77.0098C205.761 76.8598 205.306 76.7248 204.716 76.6048C204.316 76.5248 203.916 76.4098 203.516 76.2598C203.116 76.1098 202.781 75.8998 202.511 75.6298C202.241 75.3498 202.106 74.9848 202.106 74.5348C202.106 73.8848 202.346 73.3548 202.826 72.9448C203.316 72.5248 203.976 72.3148 204.806 72.3148C205.596 72.3148 206.241 72.5148 206.741 72.9148C207.251 73.3048 207.546 73.8648 207.626 74.5948H206.381C206.331 74.2148 206.166 73.9198 205.886 73.7098C205.616 73.4898 205.251 73.3798 204.791 73.3798C204.341 73.3798 203.991 73.4748 203.741 73.6648C203.501 73.8548 203.381 74.1048 203.381 74.4148C203.381 74.7148 203.536 74.9498 203.846 75.1198C204.166 75.2898 204.596 75.4348 205.136 75.5548C205.596 75.6548 206.031 75.7798 206.441 75.9298C206.861 76.0698 207.201 76.2848 207.461 76.5748C207.731 76.8548 207.866 77.2648 207.866 77.8048C207.876 78.4748 207.621 79.0298 207.101 79.4698C206.591 79.8998 205.896 80.1148 205.016 80.1148ZM212.141 80.1148C211.521 80.1148 211.006 80.0098 210.596 79.7998C210.186 79.5898 209.881 79.3098 209.681 78.9598C209.481 78.6098 209.381 78.2298 209.381 77.8198C209.381 77.0598 209.671 76.4748 210.251 76.0648C210.831 75.6548 211.621 75.4498 212.621 75.4498H214.631V75.3598C214.631 74.7098 214.461 74.2198 214.121 73.8898C213.781 73.5498 213.326 73.3798 212.756 73.3798C212.266 73.3798 211.841 73.5048 211.481 73.7548C211.131 73.9948 210.911 74.3498 210.821 74.8198H209.531C209.581 74.2798 209.761 73.8248 210.071 73.4548C210.391 73.0848 210.786 72.8048 211.256 72.6148C211.726 72.4148 212.226 72.3148 212.756 72.3148C213.796 72.3148 214.576 72.5948 215.096 73.1548C215.626 73.7048 215.891 74.4398 215.891 75.3598V79.9348H214.766L214.691 78.5998C214.481 79.0198 214.171 79.3798 213.761 79.6798C213.361 79.9698 212.821 80.1148 212.141 80.1148ZM212.336 79.0498C212.816 79.0498 213.226 78.9248 213.566 78.6748C213.916 78.4248 214.181 78.0998 214.361 77.6998C214.541 77.2998 214.631 76.8798 214.631 76.4398V76.4248H212.726C211.986 76.4248 211.461 76.5548 211.151 76.8148C210.851 77.0648 210.701 77.3798 210.701 77.7598C210.701 78.1498 210.841 78.4648 211.121 78.7048C211.411 78.9348 211.816 79.0498 212.336 79.0498ZM217.781 79.9348V72.4948H218.921L219.011 73.5748C219.251 73.1748 219.571 72.8648 219.971 72.6448C220.371 72.4248 220.821 72.3148 221.321 72.3148C221.911 72.3148 222.416 72.4348 222.836 72.6748C223.266 72.9148 223.596 73.2798 223.826 73.7698C224.086 73.3198 224.441 72.9648 224.891 72.7048C225.351 72.4448 225.846 72.3148 226.376 72.3148C227.266 72.3148 227.976 72.5848 228.506 73.1248C229.036 73.6548 229.301 74.4748 229.301 75.5848V79.9348H228.056V75.7198C228.056 74.9498 227.901 74.3698 227.591 73.9798C227.281 73.5898 226.836 73.3948 226.256 73.3948C225.656 73.3948 225.156 73.6298 224.756 74.0998C224.366 74.5598 224.171 75.2198 224.171 76.0798V79.9348H222.911V75.7198C222.911 74.9498 222.756 74.3698 222.446 73.9798C222.136 73.5898 221.691 73.3948 221.111 73.3948C220.521 73.3948 220.026 73.6298 219.626 74.0998C219.236 74.5598 219.041 75.2198 219.041 76.0798V79.9348H217.781ZM231.199 83.2348V72.4948H232.339L232.459 73.7248C232.699 73.3648 233.039 73.0398 233.479 72.7498C233.929 72.4598 234.499 72.3148 235.189 72.3148C235.929 72.3148 236.574 72.4848 237.124 72.8248C237.674 73.1648 238.099 73.6298 238.399 74.2198C238.709 74.8098 238.864 75.4798 238.864 76.2298C238.864 76.9798 238.709 77.6498 238.399 78.2398C238.099 78.8198 237.669 79.2798 237.109 79.6198C236.559 79.9498 235.914 80.1148 235.174 80.1148C234.564 80.1148 234.019 79.9898 233.539 79.7398C233.069 79.4898 232.709 79.1398 232.459 78.6898V83.2348H231.199ZM235.039 79.0198C235.539 79.0198 235.979 78.9048 236.359 78.6748C236.739 78.4348 237.039 78.1048 237.259 77.6848C237.479 77.2648 237.589 76.7748 237.589 76.2148C237.589 75.6548 237.479 75.1648 237.259 74.7448C237.039 74.3248 236.739 73.9998 236.359 73.7698C235.979 73.5298 235.539 73.4098 235.039 73.4098C234.539 73.4098 234.099 73.5298 233.719 73.7698C233.339 73.9998 233.039 74.3248 232.819 74.7448C232.599 75.1648 232.489 75.6548 232.489 76.2148C232.489 76.7748 232.599 77.2648 232.819 77.6848C233.039 78.1048 233.339 78.4348 233.719 78.6748C234.099 78.9048 234.539 79.0198 235.039 79.0198ZM240.618 79.9348V69.1348H241.878V79.9348H240.618ZM247.288 80.1148C246.578 80.1148 245.948 79.9548 245.398 79.6348C244.848 79.3048 244.413 78.8498 244.093 78.2698C243.783 77.6898 243.628 77.0048 243.628 76.2148C243.628 75.4348 243.783 74.7548 244.093 74.1748C244.403 73.5848 244.833 73.1298 245.383 72.8098C245.943 72.4798 246.588 72.3148 247.318 72.3148C248.038 72.3148 248.658 72.4798 249.178 72.8098C249.708 73.1298 250.113 73.5548 250.393 74.0848C250.673 74.6148 250.813 75.1848 250.813 75.7948C250.813 75.9048 250.808 76.0148 250.798 76.1248C250.798 76.2348 250.798 76.3598 250.798 76.4998H244.873C244.903 77.0698 245.033 77.5448 245.263 77.9248C245.503 78.2948 245.798 78.5748 246.148 78.7648C246.508 78.9548 246.888 79.0498 247.288 79.0498C247.808 79.0498 248.243 78.9298 248.593 78.6898C248.943 78.4498 249.198 78.1248 249.358 77.7148H250.603C250.403 78.4048 250.018 78.9798 249.448 79.4398C248.888 79.8898 248.168 80.1148 247.288 80.1148ZM247.288 73.3798C246.688 73.3798 246.153 73.5648 245.683 73.9348C245.223 74.2948 244.958 74.8248 244.888 75.5248H249.568C249.538 74.8548 249.308 74.3298 248.878 73.9498C248.448 73.5698 247.918 73.3798 247.288 73.3798ZM256.858 79.9348V73.5598H255.733V72.4948H256.858V71.2048C256.858 70.4848 257.038 69.9598 257.398 69.6298C257.758 69.2998 258.283 69.1348 258.973 69.1348H259.723V70.2148H259.168C258.788 70.2148 258.518 70.2948 258.358 70.4548C258.198 70.6048 258.118 70.8648 258.118 71.2348V72.4948H259.948V73.5598H258.118V79.9348H256.858ZM261.448 79.9348V72.4948H262.588L262.693 73.9198C262.923 73.4298 263.273 73.0398 263.743 72.7498C264.213 72.4598 264.793 72.3148 265.483 72.3148V73.6348H265.138C264.698 73.6348 264.293 73.7148 263.923 73.8748C263.553 74.0248 263.258 74.2848 263.038 74.6548C262.818 75.0248 262.708 75.5348 262.708 76.1848V79.9348H261.448ZM270.009 80.1148C269.309 80.1148 268.679 79.9548 268.119 79.6348C267.559 79.3148 267.114 78.8648 266.784 78.2848C266.464 77.6948 266.304 77.0048 266.304 76.2148C266.304 75.4248 266.469 74.7398 266.799 74.1598C267.129 73.5698 267.574 73.1148 268.134 72.7948C268.704 72.4748 269.339 72.3148 270.039 72.3148C270.739 72.3148 271.369 72.4748 271.929 72.7948C272.489 73.1148 272.929 73.5698 273.249 74.1598C273.579 74.7398 273.744 75.4248 273.744 76.2148C273.744 77.0048 273.579 77.6948 273.249 78.2848C272.919 78.8648 272.469 79.3148 271.899 79.6348C271.339 79.9548 270.709 80.1148 270.009 80.1148ZM270.009 79.0348C270.439 79.0348 270.839 78.9298 271.209 78.7198C271.579 78.5098 271.879 78.1948 272.109 77.7748C272.339 77.3548 272.454 76.8348 272.454 76.2148C272.454 75.5948 272.339 75.0748 272.109 74.6548C271.889 74.2348 271.594 73.9198 271.224 73.7098C270.854 73.4998 270.459 73.3948 270.039 73.3948C269.609 73.3948 269.209 73.4998 268.839 73.7098C268.469 73.9198 268.169 74.2348 267.939 74.6548C267.709 75.0748 267.594 75.5948 267.594 76.2148C267.594 76.8348 267.709 77.3548 267.939 77.7748C268.169 78.1948 268.464 78.5098 268.824 78.7198C269.194 78.9298 269.589 79.0348 270.009 79.0348ZM275.496 79.9348V72.4948H276.636L276.726 73.5748C276.966 73.1748 277.286 72.8648 277.686 72.6448C278.086 72.4248 278.536 72.3148 279.036 72.3148C279.626 72.3148 280.131 72.4348 280.551 72.6748C280.981 72.9148 281.311 73.2798 281.541 73.7698C281.801 73.3198 282.156 72.9648 282.606 72.7048C283.066 72.4448 283.561 72.3148 284.091 72.3148C284.981 72.3148 285.691 72.5848 286.221 73.1248C286.751 73.6548 287.016 74.4748 287.016 75.5848V79.9348H285.771V75.7198C285.771 74.9498 285.616 74.3698 285.306 73.9798C284.996 73.5898 284.551 73.3948 283.971 73.3948C283.371 73.3948 282.871 73.6298 282.471 74.0998C282.081 74.5598 281.886 75.2198 281.886 76.0798V79.9348H280.626V75.7198C280.626 74.9498 280.471 74.3698 280.161 73.9798C279.851 73.5898 279.406 73.3948 278.826 73.3948C278.236 73.3948 277.741 73.6298 277.341 74.0998C276.951 74.5598 276.756 75.2198 276.756 76.0798V79.9348H275.496ZM295.824 79.9348C295.144 79.9348 294.609 79.7698 294.219 79.4398C293.829 79.1098 293.634 78.5148 293.634 77.6548V73.5598H292.344V72.4948H293.634L293.799 70.7098H294.894V72.4948H297.084V73.5598H294.894V77.6548C294.894 78.1248 294.989 78.4448 295.179 78.6148C295.369 78.7748 295.704 78.8548 296.184 78.8548H296.964V79.9348H295.824ZM298.684 79.9348V69.1348H299.944V73.7698C300.194 73.3098 300.549 72.9548 301.009 72.7048C301.469 72.4448 301.969 72.3148 302.509 72.3148C303.369 72.3148 304.059 72.5848 304.579 73.1248C305.099 73.6548 305.359 74.4748 305.359 75.5848V79.9348H304.114V75.7198C304.114 74.1698 303.489 73.3948 302.239 73.3948C301.589 73.3948 301.044 73.6298 300.604 74.0998C300.164 74.5598 299.944 75.2198 299.944 76.0798V79.9348H298.684ZM310.613 80.1148C309.903 80.1148 309.273 79.9548 308.723 79.6348C308.173 79.3048 307.738 78.8498 307.418 78.2698C307.108 77.6898 306.953 77.0048 306.953 76.2148C306.953 75.4348 307.108 74.7548 307.418 74.1748C307.728 73.5848 308.158 73.1298 308.708 72.8098C309.268 72.4798 309.913 72.3148 310.643 72.3148C311.363 72.3148 311.983 72.4798 312.503 72.8098C313.033 73.1298 313.438 73.5548 313.718 74.0848C313.998 74.6148 314.138 75.1848 314.138 75.7948C314.138 75.9048 314.133 76.0148 314.123 76.1248C314.123 76.2348 314.123 76.3598 314.123 76.4998H308.198C308.228 77.0698 308.358 77.5448 308.588 77.9248C308.828 78.2948 309.123 78.5748 309.473 78.7648C309.833 78.9548 310.213 79.0498 310.613 79.0498C311.133 79.0498 311.568 78.9298 311.918 78.6898C312.268 78.4498 312.523 78.1248 312.683 77.7148H313.928C313.728 78.4048 313.343 78.9798 312.773 79.4398C312.213 79.8898 311.493 80.1148 310.613 80.1148ZM310.613 73.3798C310.013 73.3798 309.478 73.5648 309.008 73.9348C308.548 74.2948 308.283 74.8248 308.213 75.5248H312.893C312.863 74.8548 312.633 74.3298 312.203 73.9498C311.773 73.5698 311.243 73.3798 310.613 73.3798ZM321.923 79.9348L319.103 72.4948H320.423L322.658 78.7198L324.908 72.4948H326.198L323.378 79.9348H321.923ZM328.365 70.8448C328.115 70.8448 327.905 70.7648 327.735 70.6048C327.575 70.4348 327.495 70.2248 327.495 69.9748C327.495 69.7348 327.575 69.5348 327.735 69.3748C327.905 69.2148 328.115 69.1348 328.365 69.1348C328.605 69.1348 328.81 69.2148 328.98 69.3748C329.15 69.5348 329.235 69.7348 329.235 69.9748C329.235 70.2248 329.15 70.4348 328.98 70.6048C328.81 70.7648 328.605 70.8448 328.365 70.8448ZM327.735 79.9348V72.4948H328.995V79.9348H327.735ZM334.609 80.1148C333.899 80.1148 333.259 79.9548 332.689 79.6348C332.129 79.3048 331.684 78.8498 331.354 78.2698C331.034 77.6798 330.874 76.9948 330.874 76.2148C330.874 75.4348 331.034 74.7548 331.354 74.1748C331.684 73.5848 332.129 73.1298 332.689 72.8098C333.259 72.4798 333.899 72.3148 334.609 72.3148C335.489 72.3148 336.229 72.5448 336.829 73.0048C337.439 73.4648 337.824 74.0798 337.984 74.8498H336.694C336.594 74.3898 336.349 74.0348 335.959 73.7848C335.569 73.5248 335.114 73.3948 334.594 73.3948C334.174 73.3948 333.779 73.4998 333.409 73.7098C333.039 73.9198 332.739 74.2348 332.509 74.6548C332.279 75.0748 332.164 75.5948 332.164 76.2148C332.164 76.8348 332.279 77.3548 332.509 77.7748C332.739 78.1948 333.039 78.5148 333.409 78.7348C333.779 78.9448 334.174 79.0498 334.594 79.0498C335.114 79.0498 335.569 78.9248 335.959 78.6748C336.349 78.4148 336.594 78.0498 336.694 77.5798H337.984C337.834 78.3298 337.454 78.9398 336.844 79.4098C336.234 79.8798 335.489 80.1148 334.609 80.1148ZM342.479 79.9348C341.799 79.9348 341.264 79.7698 340.874 79.4398C340.484 79.1098 340.289 78.5148 340.289 77.6548V73.5598H338.999V72.4948H340.289L340.454 70.7098H341.549V72.4948H343.739V73.5598H341.549V77.6548C341.549 78.1248 341.644 78.4448 341.834 78.6148C342.024 78.7748 342.359 78.8548 342.839 78.8548H343.619V79.9348H342.479ZM348.525 80.1148C347.825 80.1148 347.195 79.9548 346.635 79.6348C346.075 79.3148 345.63 78.8648 345.3 78.2848C344.98 77.6948 344.82 77.0048 344.82 76.2148C344.82 75.4248 344.985 74.7398 345.315 74.1598C345.645 73.5698 346.09 73.1148 346.65 72.7948C347.22 72.4748 347.855 72.3148 348.555 72.3148C349.255 72.3148 349.885 72.4748 350.445 72.7948C351.005 73.1148 351.445 73.5698 351.765 74.1598C352.095 74.7398 352.26 75.4248 352.26 76.2148C352.26 77.0048 352.095 77.6948 351.765 78.2848C351.435 78.8648 350.985 79.3148 350.415 79.6348C349.855 79.9548 349.225 80.1148 348.525 80.1148ZM348.525 79.0348C348.955 79.0348 349.355 78.9298 349.725 78.7198C350.095 78.5098 350.395 78.1948 350.625 77.7748C350.855 77.3548 350.97 76.8348 350.97 76.2148C350.97 75.5948 350.855 75.0748 350.625 74.6548C350.405 74.2348 350.11 73.9198 349.74 73.7098C349.37 73.4998 348.975 73.3948 348.555 73.3948C348.125 73.3948 347.725 73.4998 347.355 73.7098C346.985 73.9198 346.685 74.2348 346.455 74.6548C346.225 75.0748 346.11 75.5948 346.11 76.2148C346.11 76.8348 346.225 77.3548 346.455 77.7748C346.685 78.1948 346.98 78.5098 347.34 78.7198C347.71 78.9298 348.105 79.0348 348.525 79.0348ZM354.012 79.9348V72.4948H355.152L355.257 73.9198C355.487 73.4298 355.837 73.0398 356.307 72.7498C356.777 72.4598 357.357 72.3148 358.047 72.3148V73.6348H357.702C357.262 73.6348 356.857 73.7148 356.487 73.8748C356.117 74.0248 355.822 74.2848 355.602 74.6548C355.382 75.0248 355.272 75.5348 355.272 76.1848V79.9348H354.012ZM360.271 83.2348L362.116 79.2148H361.681L358.726 72.4948H360.091L362.551 78.2848L365.161 72.4948H366.466L361.591 83.2348H360.271ZM111.425 106.115C110.725 106.115 110.095 105.955 109.535 105.635C108.975 105.315 108.53 104.865 108.2 104.285C107.88 103.695 107.72 103.005 107.72 102.215C107.72 101.425 107.885 100.74 108.215 100.16C108.545 99.5698 108.99 99.1148 109.55 98.7948C110.12 98.4748 110.755 98.3148 111.455 98.3148C112.155 98.3148 112.785 98.4748 113.345 98.7948C113.905 99.1148 114.345 99.5698 114.665 100.16C114.995 100.74 115.16 101.425 115.16 102.215C115.16 103.005 114.995 103.695 114.665 104.285C114.335 104.865 113.885 105.315 113.315 105.635C112.755 105.955 112.125 106.115 111.425 106.115ZM111.425 105.035C111.855 105.035 112.255 104.93 112.625 104.72C112.995 104.51 113.295 104.195 113.525 103.775C113.755 103.355 113.87 102.835 113.87 102.215C113.87 101.595 113.755 101.075 113.525 100.655C113.305 100.235 113.01 99.9198 112.64 99.7098C112.27 99.4998 111.875 99.3948 111.455 99.3948C111.025 99.3948 110.625 99.4998 110.255 99.7098C109.885 99.9198 109.585 100.235 109.355 100.655C109.125 101.075 109.01 101.595 109.01 102.215C109.01 102.835 109.125 103.355 109.355 103.775C109.585 104.195 109.88 104.51 110.24 104.72C110.61 104.93 111.005 105.035 111.425 105.035ZM117.317 105.935V99.5598H116.192V98.4948H117.317V97.2048C117.317 96.4848 117.497 95.9598 117.857 95.6298C118.217 95.2998 118.742 95.1348 119.432 95.1348H120.182V96.2148H119.627C119.247 96.2148 118.977 96.2948 118.817 96.4548C118.657 96.6048 118.577 96.8648 118.577 97.2348V98.4948H120.407V99.5598H118.577V105.935H117.317ZM128.817 105.935C128.137 105.935 127.602 105.77 127.212 105.44C126.822 105.11 126.627 104.515 126.627 103.655V99.5598H125.337V98.4948H126.627L126.792 96.7098H127.887V98.4948H130.077V99.5598H127.887V103.655C127.887 104.125 127.982 104.445 128.172 104.615C128.362 104.775 128.697 104.855 129.177 104.855H129.957V105.935H128.817ZM131.678 105.935V95.1348H132.938V99.7698C133.188 99.3098 133.543 98.9548 134.003 98.7048C134.463 98.4448 134.963 98.3148 135.503 98.3148C136.363 98.3148 137.053 98.5848 137.573 99.1248C138.093 99.6548 138.353 100.475 138.353 101.585V105.935H137.108V101.72C137.108 100.17 136.483 99.3948 135.233 99.3948C134.583 99.3948 134.038 99.6298 133.598 100.1C133.158 100.56 132.938 101.22 132.938 102.08V105.935H131.678ZM143.607 106.115C142.897 106.115 142.267 105.955 141.717 105.635C141.167 105.305 140.732 104.85 140.412 104.27C140.102 103.69 139.947 103.005 139.947 102.215C139.947 101.435 140.102 100.755 140.412 100.175C140.722 99.5848 141.152 99.1298 141.702 98.8098C142.262 98.4798 142.907 98.3148 143.637 98.3148C144.357 98.3148 144.977 98.4798 145.497 98.8098C146.027 99.1298 146.432 99.5548 146.712 100.085C146.992 100.615 147.132 101.185 147.132 101.795C147.132 101.905 147.127 102.015 147.117 102.125C147.117 102.235 147.117 102.36 147.117 102.5H141.192C141.222 103.07 141.352 103.545 141.582 103.925C141.822 104.295 142.117 104.575 142.467 104.765C142.827 104.955 143.207 105.05 143.607 105.05C144.127 105.05 144.562 104.93 144.912 104.69C145.262 104.45 145.517 104.125 145.677 103.715H146.922C146.722 104.405 146.337 104.98 145.767 105.44C145.207 105.89 144.487 106.115 143.607 106.115ZM143.607 99.3798C143.007 99.3798 142.472 99.5648 142.002 99.9348C141.542 100.295 141.277 100.825 141.207 101.525H145.887C145.857 100.855 145.627 100.33 145.197 99.9498C144.767 99.5698 144.237 99.3798 143.607 99.3798ZM152.771 105.935V98.4948H153.911L154.001 99.5748C154.241 99.1748 154.561 98.8648 154.961 98.6448C155.361 98.4248 155.811 98.3148 156.311 98.3148C156.901 98.3148 157.406 98.4348 157.826 98.6748C158.256 98.9148 158.586 99.2798 158.816 99.7698C159.076 99.3198 159.431 98.9648 159.881 98.7048C160.341 98.4448 160.836 98.3148 161.366 98.3148C162.256 98.3148 162.966 98.5848 163.496 99.1248C164.026 99.6548 164.291 100.475 164.291 101.585V105.935H163.046V101.72C163.046 100.95 162.891 100.37 162.581 99.9798C162.271 99.5898 161.826 99.3948 161.246 99.3948C160.646 99.3948 160.146 99.6298 159.746 100.1C159.356 100.56 159.161 101.22 159.161 102.08V105.935H157.901V101.72C157.901 100.95 157.746 100.37 157.436 99.9798C157.126 99.5898 156.681 99.3948 156.101 99.3948C155.511 99.3948 155.016 99.6298 154.616 100.1C154.226 100.56 154.031 101.22 154.031 102.08V105.935H152.771ZM168.664 106.115C168.044 106.115 167.529 106.01 167.119 105.8C166.709 105.59 166.404 105.31 166.204 104.96C166.004 104.61 165.904 104.23 165.904 103.82C165.904 103.06 166.194 102.475 166.774 102.065C167.354 101.655 168.144 101.45 169.144 101.45H171.154V101.36C171.154 100.71 170.984 100.22 170.644 99.8898C170.304 99.5498 169.849 99.3798 169.279 99.3798C168.789 99.3798 168.364 99.5048 168.004 99.7548C167.654 99.9948 167.434 100.35 167.344 100.82H166.054C166.104 100.28 166.284 99.8248 166.594 99.4548C166.914 99.0848 167.309 98.8048 167.779 98.6148C168.249 98.4148 168.749 98.3148 169.279 98.3148C170.319 98.3148 171.099 98.5948 171.619 99.1548C172.149 99.7048 172.414 100.44 172.414 101.36V105.935H171.289L171.214 104.6C171.004 105.02 170.694 105.38 170.284 105.68C169.884 105.97 169.344 106.115 168.664 106.115ZM168.859 105.05C169.339 105.05 169.749 104.925 170.089 104.675C170.439 104.425 170.704 104.1 170.884 103.7C171.064 103.3 171.154 102.88 171.154 102.44V102.425H169.249C168.509 102.425 167.984 102.555 167.674 102.815C167.374 103.065 167.224 103.38 167.224 103.76C167.224 104.15 167.364 104.465 167.644 104.705C167.934 104.935 168.339 105.05 168.859 105.05ZM174.305 105.935V98.4948H175.445L175.52 99.8298C175.76 99.3598 176.105 98.9898 176.555 98.7198C177.005 98.4498 177.515 98.3148 178.085 98.3148C178.965 98.3148 179.665 98.5848 180.185 99.1248C180.715 99.6548 180.98 100.475 180.98 101.585V105.935H179.72V101.72C179.72 100.17 179.08 99.3948 177.8 99.3948C177.16 99.3948 176.625 99.6298 176.195 100.1C175.775 100.56 175.565 101.22 175.565 102.08V105.935H174.305ZM185.364 106.115C184.744 106.115 184.229 106.01 183.819 105.8C183.409 105.59 183.104 105.31 182.904 104.96C182.704 104.61 182.604 104.23 182.604 103.82C182.604 103.06 182.894 102.475 183.474 102.065C184.054 101.655 184.844 101.45 185.844 101.45H187.854V101.36C187.854 100.71 187.684 100.22 187.344 99.8898C187.004 99.5498 186.549 99.3798 185.979 99.3798C185.489 99.3798 185.064 99.5048 184.704 99.7548C184.354 99.9948 184.134 100.35 184.044 100.82H182.754C182.804 100.28 182.984 99.8248 183.294 99.4548C183.614 99.0848 184.009 98.8048 184.479 98.6148C184.949 98.4148 185.449 98.3148 185.979 98.3148C187.019 98.3148 187.799 98.5948 188.319 99.1548C188.849 99.7048 189.114 100.44 189.114 101.36V105.935H187.989L187.914 104.6C187.704 105.02 187.394 105.38 186.984 105.68C186.584 105.97 186.044 106.115 185.364 106.115ZM185.559 105.05C186.039 105.05 186.449 104.925 186.789 104.675C187.139 104.425 187.404 104.1 187.584 103.7C187.764 103.3 187.854 102.88 187.854 102.44V102.425H185.949C185.209 102.425 184.684 102.555 184.374 102.815C184.074 103.065 183.924 103.38 183.924 103.76C183.924 104.15 184.064 104.465 184.344 104.705C184.634 104.935 185.039 105.05 185.559 105.05ZM193.944 103.595C193.524 103.595 193.139 103.54 192.789 103.43L192.039 104.135C192.149 104.215 192.284 104.285 192.444 104.345C192.614 104.395 192.854 104.445 193.164 104.495C193.474 104.535 193.909 104.58 194.469 104.63C195.469 104.7 196.184 104.93 196.614 105.32C197.044 105.71 197.259 106.22 197.259 106.85C197.259 107.28 197.139 107.69 196.899 108.08C196.669 108.47 196.309 108.79 195.819 109.04C195.339 109.29 194.719 109.415 193.959 109.415C193.289 109.415 192.694 109.325 192.174 109.145C191.654 108.975 191.249 108.71 190.959 108.35C190.669 108 190.524 107.555 190.524 107.015C190.524 106.735 190.599 106.43 190.749 106.1C190.899 105.78 191.179 105.475 191.589 105.185C191.369 105.095 191.179 105 191.019 104.9C190.869 104.79 190.729 104.67 190.599 104.54V104.195L191.874 102.935C191.284 102.435 190.989 101.775 190.989 100.955C190.989 100.465 191.104 100.02 191.334 99.6198C191.564 99.2198 191.899 98.9048 192.339 98.6748C192.779 98.4348 193.314 98.3148 193.944 98.3148C194.374 98.3148 194.764 98.3748 195.114 98.4948H197.859V99.4398L196.464 99.4998C196.754 99.9198 196.899 100.405 196.899 100.955C196.899 101.445 196.779 101.89 196.539 102.29C196.309 102.69 195.974 103.01 195.534 103.25C195.104 103.48 194.574 103.595 193.944 103.595ZM193.944 102.56C194.474 102.56 194.894 102.425 195.204 102.155C195.524 101.875 195.684 101.475 195.684 100.955C195.684 100.445 195.524 100.055 195.204 99.7848C194.894 99.5048 194.474 99.3648 193.944 99.3648C193.404 99.3648 192.974 99.5048 192.654 99.7848C192.344 100.055 192.189 100.445 192.189 100.955C192.189 101.475 192.344 101.875 192.654 102.155C192.974 102.425 193.404 102.56 193.944 102.56ZM191.754 106.895C191.754 107.395 191.964 107.765 192.384 108.005C192.804 108.255 193.329 108.38 193.959 108.38C194.579 108.38 195.074 108.245 195.444 107.975C195.824 107.705 196.014 107.345 196.014 106.895C196.014 106.575 195.884 106.295 195.624 106.055C195.364 105.825 194.884 105.69 194.184 105.65C193.634 105.61 193.159 105.56 192.759 105.5C192.349 105.72 192.079 105.955 191.949 106.205C191.819 106.465 191.754 106.695 191.754 106.895ZM199.28 105.935V98.4948H200.42L200.51 99.5748C200.75 99.1748 201.07 98.8648 201.47 98.6448C201.87 98.4248 202.32 98.3148 202.82 98.3148C203.41 98.3148 203.915 98.4348 204.335 98.6748C204.765 98.9148 205.095 99.2798 205.325 99.7698C205.585 99.3198 205.94 98.9648 206.39 98.7048C206.85 98.4448 207.345 98.3148 207.875 98.3148C208.765 98.3148 209.475 98.5848 210.005 99.1248C210.535 99.6548 210.8 100.475 210.8 101.585V105.935H209.555V101.72C209.555 100.95 209.4 100.37 209.09 99.9798C208.78 99.5898 208.335 99.3948 207.755 99.3948C207.155 99.3948 206.655 99.6298 206.255 100.1C205.865 100.56 205.67 101.22 205.67 102.08V105.935H204.41V101.72C204.41 100.95 204.255 100.37 203.945 99.9798C203.635 99.5898 203.19 99.3948 202.61 99.3948C202.02 99.3948 201.525 99.6298 201.125 100.1C200.735 100.56 200.54 101.22 200.54 102.08V105.935H199.28ZM216.043 106.115C215.333 106.115 214.703 105.955 214.153 105.635C213.603 105.305 213.168 104.85 212.848 104.27C212.538 103.69 212.383 103.005 212.383 102.215C212.383 101.435 212.538 100.755 212.848 100.175C213.158 99.5848 213.588 99.1298 214.138 98.8098C214.698 98.4798 215.343 98.3148 216.073 98.3148C216.793 98.3148 217.413 98.4798 217.933 98.8098C218.463 99.1298 218.868 99.5548 219.148 100.085C219.428 100.615 219.568 101.185 219.568 101.795C219.568 101.905 219.563 102.015 219.553 102.125C219.553 102.235 219.553 102.36 219.553 102.5H213.628C213.658 103.07 213.788 103.545 214.018 103.925C214.258 104.295 214.553 104.575 214.903 104.765C215.263 104.955 215.643 105.05 216.043 105.05C216.563 105.05 216.998 104.93 217.348 104.69C217.698 104.45 217.953 104.125 218.113 103.715H219.358C219.158 104.405 218.773 104.98 218.203 105.44C217.643 105.89 216.923 106.115 216.043 106.115ZM216.043 99.3798C215.443 99.3798 214.908 99.5648 214.438 99.9348C213.978 100.295 213.713 100.825 213.643 101.525H218.323C218.293 100.855 218.063 100.33 217.633 99.9498C217.203 99.5698 216.673 99.3798 216.043 99.3798ZM221.238 105.935V98.4948H222.378L222.453 99.8298C222.693 99.3598 223.038 98.9898 223.488 98.7198C223.938 98.4498 224.448 98.3148 225.018 98.3148C225.898 98.3148 226.598 98.5848 227.118 99.1248C227.648 99.6548 227.913 100.475 227.913 101.585V105.935H226.653V101.72C226.653 100.17 226.013 99.3948 224.733 99.3948C224.093 99.3948 223.558 99.6298 223.128 100.1C222.708 100.56 222.498 101.22 222.498 102.08V105.935H221.238ZM232.762 105.935C232.082 105.935 231.547 105.77 231.157 105.44C230.767 105.11 230.572 104.515 230.572 103.655V99.5598H229.282V98.4948H230.572L230.737 96.7098H231.832V98.4948H234.022V99.5598H231.832V103.655C231.832 104.125 231.927 104.445 232.117 104.615C232.307 104.775 232.642 104.855 233.122 104.855H233.902V105.935H232.762ZM238.473 106.115C237.583 106.115 236.843 105.89 236.253 105.44C235.663 104.99 235.318 104.38 235.218 103.61H236.508C236.588 104 236.793 104.34 237.123 104.63C237.463 104.91 237.918 105.05 238.488 105.05C239.018 105.05 239.408 104.94 239.658 104.72C239.908 104.49 240.033 104.22 240.033 103.91C240.033 103.46 239.868 103.16 239.538 103.01C239.218 102.86 238.763 102.725 238.173 102.605C237.773 102.525 237.373 102.41 236.973 102.26C236.573 102.11 236.238 101.9 235.968 101.63C235.698 101.35 235.563 100.985 235.563 100.535C235.563 99.8848 235.803 99.3548 236.283 98.9448C236.773 98.5248 237.433 98.3148 238.263 98.3148C239.053 98.3148 239.698 98.5148 240.198 98.9148C240.708 99.3048 241.003 99.8648 241.083 100.595H239.838C239.788 100.215 239.623 99.9198 239.343 99.7098C239.073 99.4898 238.708 99.3798 238.248 99.3798C237.798 99.3798 237.448 99.4748 237.198 99.6648C236.958 99.8548 236.838 100.105 236.838 100.415C236.838 100.715 236.993 100.95 237.303 101.12C237.623 101.29 238.053 101.435 238.593 101.555C239.053 101.655 239.488 101.78 239.898 101.93C240.318 102.07 240.658 102.285 240.918 102.575C241.188 102.855 241.323 103.265 241.323 103.805C241.333 104.475 241.078 105.03 240.558 105.47C240.048 105.9 239.353 106.115 238.473 106.115ZM243.558 106.01C243.308 106.01 243.098 105.93 242.928 105.77C242.768 105.6 242.688 105.395 242.688 105.155C242.688 104.915 242.768 104.715 242.928 104.555C243.098 104.385 243.308 104.3 243.558 104.3C243.798 104.3 243.998 104.385 244.158 104.555C244.328 104.715 244.413 104.915 244.413 105.155C244.413 105.395 244.328 105.6 244.158 105.77C243.998 105.93 243.798 106.01 243.558 106.01Z" fill="#343D48"/>
<path d="M54 5.50305H28C12.536 5.50305 0 17.8093 0 32.9898V58.5132C0 73.6938 12.536 86 28 86H54C69.464 86 82 73.6938 82 58.5132V32.9898C82 17.8093 69.464 5.50305 54 5.50305Z" fill="#E4FFEE"/>
<path d="M39.866 64.4032C39.3244 64.4041 38.8002 64.216 38.3868 63.8726C37.9734 63.5292 37.6977 63.0528 37.609 62.5283L37.176 59.9759C36.3333 59.7215 35.5156 59.3929 34.733 58.9942L32.561 60.5108C32.1766 60.7841 31.7137 60.9305 31.239 60.929C30.9386 60.9293 30.641 60.8711 30.3636 60.7577C30.0862 60.6443 29.8345 60.4781 29.623 60.2685L27.323 58.0106C26.9388 57.636 26.703 57.1395 26.6578 56.6098C26.6125 56.0801 26.7608 55.5517 27.076 55.1195L28.599 53.0404C28.1668 52.2532 27.8125 51.4272 27.541 50.5736L24.913 50.1347C24.3769 50.0479 23.8899 49.7762 23.5393 49.3688C23.1887 48.9613 22.9975 48.4445 23 47.9111V44.7178C22.9989 44.1861 23.1904 43.6713 23.5403 43.2654C23.8902 42.8596 24.3757 42.589 24.91 42.5021L27.476 42.0772C27.7376 41.2198 28.0818 40.3887 28.504 39.5954L26.959 37.4631C26.6452 37.0304 26.4977 36.5027 26.5429 35.9734C26.5882 35.444 26.8231 34.9476 27.206 34.5723L29.517 32.3144C29.899 31.938 30.4048 31.7069 30.9442 31.6625C31.4836 31.6181 32.0215 31.7632 32.462 32.0719L34.588 33.5748C35.3894 33.1499 36.2306 32.8019 37.1 32.5354L37.548 29.9554C37.6368 29.4319 37.9118 28.9564 38.3242 28.6132C38.7365 28.2701 39.2594 28.0817 39.8 28.0814H43.054C43.5954 28.0805 44.1196 28.2683 44.533 28.6116C44.9464 28.9548 45.2221 29.4311 45.311 29.9554L45.743 32.4745C46.647 32.7418 47.5221 33.0952 48.356 33.5297L50.505 32.0278C50.8892 31.7546 51.3517 31.6081 51.826 31.6095C52.1264 31.6091 52.424 31.6672 52.7013 31.7804C52.9787 31.8937 53.2305 32.0599 53.442 32.2693L55.742 34.527C56.1265 34.9017 56.3624 35.3986 56.4077 35.9286C56.453 36.4585 56.3046 36.9868 55.989 37.419L54.459 39.5209C54.8843 40.3115 55.2335 41.1395 55.502 41.9938L58.102 42.4266C58.6357 42.5117 59.1204 42.782 59.468 43.1885C59.8157 43.595 60.003 44.1104 59.996 44.6411V47.8356C59.997 48.3671 59.8055 48.8817 59.4559 49.2875C59.1062 49.6933 58.6211 49.9638 58.087 50.0511L55.487 50.4763C55.2188 51.331 54.8696 52.1593 54.444 52.9501L55.974 55.0587C56.2879 55.4913 56.4353 56.0193 56.3901 56.5487C56.3449 57.078 56.1099 57.5744 55.727 57.9497L53.427 60.2076C53.045 60.5841 52.5392 60.8149 51.9999 60.8593C51.4605 60.9037 50.9226 60.7586 50.482 60.4499L48.341 58.9482C47.5351 59.3654 46.6915 59.7081 45.821 59.972L45.381 62.5242C45.2924 63.0487 45.0167 63.5253 44.6033 63.8688C44.1899 64.2122 43.6656 64.4003 43.124 64.3994L39.866 64.4032ZM35.198 56.9218C36.1917 57.4839 37.2575 57.9131 38.367 58.198C38.5617 58.247 38.7376 58.3506 38.8735 58.4959C39.0093 58.6413 39.0991 58.8221 39.132 59.0167L39.673 62.2043C39.6805 62.2509 39.7048 62.2934 39.7415 62.3239C39.7782 62.3543 39.8249 62.3707 39.873 62.3701H43.127C43.1751 62.3707 43.2218 62.3543 43.2585 62.3239C43.2953 62.2934 43.3196 62.2509 43.327 62.2043L43.876 59.0167C43.9077 58.8217 43.9971 58.6401 44.1331 58.4945C44.2692 58.3489 44.4458 58.2458 44.641 58.198C45.7791 57.9113 46.8698 57.4668 47.88 56.8777C48.0538 56.7771 48.2534 56.7279 48.455 56.7361C48.6565 56.7443 48.8514 56.8096 49.016 56.924L51.698 58.7979C51.7313 58.8231 51.772 58.8369 51.814 58.8372C51.8415 58.8375 51.8687 58.8321 51.894 58.8216C51.9193 58.8112 51.9421 58.7959 51.961 58.7764L54.261 56.5185C54.2944 56.4845 54.3148 56.4403 54.319 56.3934C54.3232 56.3464 54.3109 56.2995 54.284 56.2603L52.375 53.6195C52.2585 53.458 52.1921 53.2669 52.184 53.0692C52.1758 52.8715 52.2262 52.6755 52.329 52.5053C52.9288 51.5134 53.3817 50.443 53.674 49.3259C53.7241 49.1346 53.8297 48.9616 53.9779 48.8281C54.1261 48.6946 54.3106 48.6063 54.509 48.5738L57.755 48.0427C57.8027 48.0356 57.8462 48.0119 57.8774 47.9758C57.9087 47.9397 57.9256 47.8938 57.925 47.8464H57.932V44.6519C57.9326 44.6046 57.9157 44.5588 57.8844 44.5227C57.8532 44.4866 57.8097 44.4627 57.762 44.4556L54.516 43.9168C54.3172 43.8861 54.132 43.7983 53.9836 43.6647C53.8353 43.5311 53.7304 43.3576 53.682 43.1657C53.3893 42.049 52.9365 40.9787 52.337 39.9871C52.2343 39.8164 52.184 39.6202 52.1924 39.4222C52.2007 39.2241 52.2673 39.0327 52.384 38.8709L54.293 36.2392C54.3201 36.1999 54.3326 36.1526 54.3284 36.1054C54.3242 36.0582 54.3036 36.0139 54.27 35.9798L51.97 33.7222C51.9508 33.703 51.9279 33.6878 51.9027 33.6774C51.8775 33.6669 51.8504 33.6615 51.823 33.6613C51.7814 33.6639 51.7414 33.6775 51.707 33.7006L49.04 35.5813C48.8755 35.696 48.6806 35.7615 48.479 35.7697C48.2774 35.7778 48.0776 35.7286 47.904 35.6275C46.8697 35.0287 45.7529 34.5789 44.588 34.2924C44.3914 34.2428 44.2136 34.1382 44.0764 33.9913C43.9391 33.8444 43.8484 33.6614 43.815 33.4648L43.274 30.301C43.2668 30.2542 43.2426 30.2116 43.2058 30.1809C43.1691 30.1502 43.1223 30.1336 43.074 30.1342H39.82C39.7718 30.1336 39.725 30.1502 39.6882 30.1809C39.6515 30.2116 39.6273 30.2542 39.62 30.301L39.064 33.511C39.0282 33.7046 38.9373 33.8843 38.8017 34.0292C38.6661 34.1741 38.4915 34.2783 38.298 34.3297C37.1616 34.6207 36.0738 35.0707 35.068 35.6659C34.8929 35.7667 34.692 35.8159 34.4891 35.8078C34.2863 35.7996 34.0901 35.7343 33.924 35.6196L31.257 33.7545C31.2179 33.7263 31.1696 33.713 31.1212 33.7172C31.0728 33.7213 31.0276 33.7426 30.994 33.7771L28.694 36.035C28.6608 36.0692 28.6404 36.1136 28.6364 36.1608C28.6324 36.2079 28.645 36.2549 28.672 36.294L30.596 38.9445C30.7138 39.1043 30.7817 39.2944 30.7913 39.4914C30.8008 39.6884 30.7518 39.8839 30.65 40.0539C30.0573 41.0489 29.6125 42.1218 29.329 43.2403C29.2787 43.4333 29.1721 43.6078 29.0224 43.7424C28.8727 43.877 28.6863 43.966 28.486 43.9983L25.263 44.5292C25.2153 44.5363 25.1719 44.5602 25.1406 44.5963C25.1094 44.6324 25.0925 44.6784 25.093 44.7257V47.919C25.0925 47.9664 25.1094 48.0124 25.1406 48.0484C25.1719 48.0845 25.2153 48.1082 25.263 48.1153L28.533 48.6613C28.7304 48.6962 28.9136 48.7853 29.0615 48.9184C29.2093 49.0515 29.3156 49.223 29.368 49.4131C29.664 50.5286 30.122 51.5965 30.728 52.5839C30.8309 52.7559 30.8812 52.9533 30.8731 53.1526C30.8649 53.3519 30.7986 53.5446 30.682 53.7079L28.782 56.3251C28.755 56.3641 28.7425 56.411 28.7467 56.4581C28.7509 56.5051 28.7715 56.5493 28.805 56.5832L31.105 58.8411C31.1243 58.8601 31.1472 58.8751 31.1724 58.8854C31.1976 58.8957 31.2247 58.901 31.252 58.901C31.2934 58.8987 31.3334 58.8858 31.368 58.8636L34.073 56.9738C34.2475 56.8498 34.4576 56.7835 34.673 56.7845C34.8577 56.7847 35.0392 56.8316 35.2 56.9209L35.198 56.9218ZM33.52 46.2385C33.5202 44.6884 33.9886 43.1732 34.866 41.8845C35.7434 40.5957 36.9903 39.5913 38.4492 38.9982C39.908 38.4051 41.5132 38.25 43.0619 38.5524C44.6105 38.8549 46.033 39.6014 47.1496 40.6974C48.2661 41.7935 49.0265 43.1899 49.3346 44.7101C49.6427 46.2304 49.4846 47.8063 48.8805 49.2384C48.2763 50.6705 47.2531 51.8944 45.9403 52.7557C44.6275 53.617 43.084 54.0768 41.505 54.077C39.3874 54.0759 37.3569 53.2496 35.8596 51.7796C34.3623 50.3095 33.5208 48.3163 33.52 46.2375V46.2385ZM35.607 46.2385C35.607 47.384 35.953 48.5038 36.6013 49.4562C37.2496 50.4087 38.1711 51.1509 39.2492 51.5893C40.3273 52.0276 41.5136 52.1425 42.658 51.919C43.8025 51.6956 44.8538 51.1439 45.6789 50.3339C46.5041 49.5239 47.066 48.4918 47.2937 47.3683C47.5213 46.2448 47.4045 45.0804 46.9579 44.0221C46.5114 42.9637 45.7551 42.0591 44.7849 41.4226C43.8146 40.7862 42.6739 40.4465 41.507 40.4465C39.9424 40.4465 38.4419 41.0566 37.3354 42.1426C36.229 43.2286 35.6073 44.7016 35.607 46.2375V46.2385Z" fill="#40975F"/>
</svg>
