<svg width="370" height="106" viewBox="0 0 370 106" fill="none" xmlns="http://www.w3.org/2000/svg">
<path d="M113.084 13.5134C112.16 13.5134 111.326 13.3334 110.582 12.9734C109.838 12.6014 109.244 12.0434 108.8 11.2994C108.368 10.5554 108.152 9.61336 108.152 8.47336V0.697362H110.456V8.49136C110.456 9.47536 110.69 10.2074 111.158 10.6874C111.638 11.1674 112.298 11.4074 113.138 11.4074C113.966 11.4074 114.62 11.1674 115.1 10.6874C115.58 10.2074 115.82 9.47536 115.82 8.49136V0.697362H118.124V8.47336C118.124 9.61336 117.896 10.5554 117.44 11.2994C116.984 12.0434 116.372 12.6014 115.604 12.9734C114.848 13.3334 114.008 13.5134 113.084 13.5134ZM120.422 13.2974V4.36936H122.456L122.636 5.88136C122.912 5.35336 123.308 4.93336 123.824 4.62136C124.352 4.30936 124.97 4.15336 125.678 4.15336C126.782 4.15336 127.64 4.50136 128.252 5.19736C128.864 5.89336 129.17 6.91336 129.17 8.25736V13.2974H126.866V8.47336C126.866 7.70536 126.71 7.11736 126.398 6.70936C126.086 6.30136 125.6 6.09736 124.94 6.09736C124.292 6.09736 123.758 6.32536 123.338 6.78136C122.93 7.23736 122.726 7.87336 122.726 8.68936V13.2974H120.422ZM131.373 13.2974V0.337363H133.677V13.2974H131.373ZM137.273 2.98336C136.853 2.98336 136.505 2.85736 136.229 2.60536C135.965 2.35336 135.833 2.03536 135.833 1.65136C135.833 1.26736 135.965 0.955363 136.229 0.715362C136.505 0.463363 136.853 0.337363 137.273 0.337363C137.693 0.337363 138.035 0.463363 138.299 0.715362C138.575 0.955363 138.713 1.26736 138.713 1.65136C138.713 2.03536 138.575 2.35336 138.299 2.60536C138.035 2.85736 137.693 2.98336 137.273 2.98336ZM136.121 13.2974V4.36936H138.425V13.2974H136.121ZM140.83 13.2974V4.36936H142.864L143.062 5.57536C143.35 5.14336 143.728 4.80136 144.196 4.54936C144.676 4.28536 145.228 4.15336 145.852 4.15336C147.232 4.15336 148.21 4.68736 148.786 5.75536C149.11 5.26336 149.542 4.87336 150.082 4.58536C150.634 4.29736 151.234 4.15336 151.882 4.15336C153.046 4.15336 153.94 4.50136 154.564 5.19736C155.188 5.89336 155.5 6.91336 155.5 8.25736V13.2974H153.196V8.47336C153.196 7.70536 153.046 7.11736 152.746 6.70936C152.458 6.30136 152.008 6.09736 151.396 6.09736C150.772 6.09736 150.268 6.32536 149.884 6.78136C149.512 7.23736 149.326 7.87336 149.326 8.68936V13.2974H147.022V8.47336C147.022 7.70536 146.872 7.11736 146.572 6.70936C146.272 6.30136 145.81 6.09736 145.186 6.09736C144.574 6.09736 144.076 6.32536 143.692 6.78136C143.32 7.23736 143.134 7.87336 143.134 8.68936V13.2974H140.83ZM158.93 2.98336C158.51 2.98336 158.162 2.85736 157.886 2.60536C157.622 2.35336 157.49 2.03536 157.49 1.65136C157.49 1.26736 157.622 0.955363 157.886 0.715362C158.162 0.463363 158.51 0.337363 158.93 0.337363C159.35 0.337363 159.692 0.463363 159.956 0.715362C160.232 0.955363 160.37 1.26736 160.37 1.65136C160.37 2.03536 160.232 2.35336 159.956 2.60536C159.692 2.85736 159.35 2.98336 158.93 2.98336ZM157.778 13.2974V4.36936H160.082V13.2974H157.778ZM166.464 13.2974C165.528 13.2974 164.778 13.0694 164.214 12.6134C163.65 12.1574 163.368 11.3474 163.368 10.1834V6.29536H161.838V4.36936H163.368L163.638 1.97536H165.672V4.36936H168.084V6.29536H165.672V10.2014C165.672 10.6334 165.762 10.9334 165.942 11.1014C166.134 11.2574 166.458 11.3354 166.914 11.3354H168.03V13.2974H166.464ZM174.172 13.5134C173.272 13.5134 172.474 13.3214 171.778 12.9374C171.082 12.5534 170.536 12.0134 170.14 11.3174C169.744 10.6214 169.546 9.81736 169.546 8.90536C169.546 7.98136 169.738 7.15936 170.122 6.43936C170.518 5.71936 171.058 5.16136 171.742 4.76536C172.438 4.35736 173.254 4.15336 174.19 4.15336C175.066 4.15336 175.84 4.34536 176.512 4.72936C177.184 5.11336 177.706 5.64136 178.078 6.31336C178.462 6.97336 178.654 7.71136 178.654 8.52736C178.654 8.65936 178.648 8.79736 178.636 8.94136C178.636 9.08536 178.63 9.23536 178.618 9.39136H171.832C171.88 10.0874 172.12 10.6334 172.552 11.0294C172.996 11.4254 173.53 11.6234 174.154 11.6234C174.622 11.6234 175.012 11.5214 175.324 11.3174C175.648 11.1014 175.888 10.8254 176.044 10.4894H178.384C178.216 11.0534 177.934 11.5694 177.538 12.0374C177.154 12.4934 176.674 12.8534 176.098 13.1174C175.534 13.3814 174.892 13.5134 174.172 13.5134ZM174.19 6.02536C173.626 6.02536 173.128 6.18736 172.696 6.51136C172.264 6.82336 171.988 7.30336 171.868 7.95136H176.314C176.278 7.36336 176.062 6.89536 175.666 6.54736C175.27 6.19936 174.778 6.02536 174.19 6.02536ZM184.696 13.5134C183.856 13.5134 183.106 13.3094 182.446 12.9014C181.786 12.4934 181.264 11.9354 180.88 11.2274C180.496 10.5194 180.304 9.71536 180.304 8.81536C180.304 7.91536 180.496 7.11736 180.88 6.42136C181.264 5.71336 181.786 5.16136 182.446 4.76536C183.106 4.35736 183.856 4.15336 184.696 4.15336C185.368 4.15336 185.956 4.27936 186.46 4.53136C186.964 4.78336 187.372 5.13736 187.684 5.59336V0.337363H189.988V13.2974H187.936L187.684 12.0194C187.396 12.4154 187.012 12.7634 186.532 13.0634C186.064 13.3634 185.452 13.5134 184.696 13.5134ZM185.182 11.4974C185.926 11.4974 186.532 11.2514 187 10.7594C187.48 10.2554 187.72 9.61336 187.72 8.83336C187.72 8.05336 187.48 7.41736 187 6.92536C186.532 6.42136 185.926 6.16936 185.182 6.16936C184.45 6.16936 183.844 6.41536 183.364 6.90736C182.884 7.39936 182.644 8.03536 182.644 8.81536C182.644 9.59536 182.884 10.2374 183.364 10.7414C183.844 11.2454 184.45 11.4974 185.182 11.4974ZM202.383 13.5134C201.111 13.5134 200.019 13.2434 199.107 12.7034C198.195 12.1514 197.493 11.3894 197.001 10.4174C196.509 9.43336 196.263 8.29936 196.263 7.01536C196.263 5.73136 196.509 4.59736 197.001 3.61336C197.493 2.62936 198.195 1.86136 199.107 1.30936C200.019 0.757363 201.111 0.481363 202.383 0.481363C203.895 0.481363 205.131 0.859363 206.091 1.61536C207.063 2.35936 207.669 3.40936 207.909 4.76536H205.371C205.215 4.08136 204.879 3.54736 204.363 3.16336C203.859 2.76736 203.187 2.56936 202.347 2.56936C201.183 2.56936 200.271 2.96536 199.611 3.75736C198.951 4.54936 198.621 5.63536 198.621 7.01536C198.621 8.39536 198.951 9.48136 199.611 10.2734C200.271 11.0534 201.183 11.4434 202.347 11.4434C203.187 11.4434 203.859 11.2634 204.363 10.9034C204.879 10.5314 205.215 10.0214 205.371 9.37336H207.909C207.669 10.6694 207.063 11.6834 206.091 12.4154C205.131 13.1474 203.895 13.5134 202.383 13.5134ZM214.179 13.5134C213.315 13.5134 212.535 13.3154 211.839 12.9194C211.155 12.5234 210.609 11.9774 210.201 11.2814C209.805 10.5734 209.607 9.75736 209.607 8.83336C209.607 7.90936 209.811 7.09936 210.219 6.40336C210.627 5.69536 211.173 5.14336 211.857 4.74736C212.553 4.35136 213.333 4.15336 214.197 4.15336C215.049 4.15336 215.817 4.35136 216.501 4.74736C217.197 5.14336 217.743 5.69536 218.139 6.40336C218.547 7.09936 218.751 7.90936 218.751 8.83336C218.751 9.75736 218.547 10.5734 218.139 11.2814C217.743 11.9774 217.197 12.5234 216.501 12.9194C215.805 13.3154 215.031 13.5134 214.179 13.5134ZM214.179 11.5154C214.779 11.5154 215.301 11.2934 215.745 10.8494C216.189 10.3934 216.411 9.72136 216.411 8.83336C216.411 7.94536 216.189 7.27936 215.745 6.83536C215.301 6.37936 214.785 6.15136 214.197 6.15136C213.585 6.15136 213.057 6.37936 212.613 6.83536C212.181 7.27936 211.965 7.94536 211.965 8.83336C211.965 9.72136 212.181 10.3934 212.613 10.8494C213.057 11.2934 213.579 11.5154 214.179 11.5154ZM220.811 13.2974V4.36936H222.845L223.025 5.88136C223.301 5.35336 223.697 4.93336 224.213 4.62136C224.741 4.30936 225.359 4.15336 226.067 4.15336C227.171 4.15336 228.029 4.50136 228.641 5.19736C229.253 5.89336 229.559 6.91336 229.559 8.25736V13.2974H227.255V8.47336C227.255 7.70536 227.099 7.11736 226.787 6.70936C226.475 6.30136 225.989 6.09736 225.329 6.09736C224.681 6.09736 224.147 6.32536 223.727 6.78136C223.319 7.23736 223.115 7.87336 223.115 8.68936V13.2974H220.811ZM235.74 13.2974C234.804 13.2974 234.054 13.0694 233.49 12.6134C232.926 12.1574 232.644 11.3474 232.644 10.1834V6.29536H231.114V4.36936H232.644L232.914 1.97536H234.948V4.36936H237.36V6.29536H234.948V10.2014C234.948 10.6334 235.038 10.9334 235.218 11.1014C235.41 11.2574 235.734 11.3354 236.19 11.3354H237.306V13.2974H235.74ZM243.447 13.5134C242.547 13.5134 241.749 13.3214 241.053 12.9374C240.357 12.5534 239.811 12.0134 239.415 11.3174C239.019 10.6214 238.821 9.81736 238.821 8.90536C238.821 7.98136 239.013 7.15936 239.397 6.43936C239.793 5.71936 240.333 5.16136 241.017 4.76536C241.713 4.35736 242.529 4.15336 243.465 4.15336C244.341 4.15336 245.115 4.34536 245.787 4.72936C246.459 5.11336 246.981 5.64136 247.353 6.31336C247.737 6.97336 247.929 7.71136 247.929 8.52736C247.929 8.65936 247.923 8.79736 247.911 8.94136C247.911 9.08536 247.905 9.23536 247.893 9.39136H241.107C241.155 10.0874 241.395 10.6334 241.827 11.0294C242.271 11.4254 242.805 11.6234 243.429 11.6234C243.897 11.6234 244.287 11.5214 244.599 11.3174C244.923 11.1014 245.163 10.8254 245.319 10.4894H247.659C247.491 11.0534 247.209 11.5694 246.813 12.0374C246.429 12.4934 245.949 12.8534 245.373 13.1174C244.809 13.3814 244.167 13.5134 243.447 13.5134ZM243.465 6.02536C242.901 6.02536 242.403 6.18736 241.971 6.51136C241.539 6.82336 241.263 7.30336 241.143 7.95136H245.589C245.553 7.36336 245.337 6.89536 244.941 6.54736C244.545 6.19936 244.053 6.02536 243.465 6.02536ZM249.867 13.2974V4.36936H251.901L252.081 5.88136C252.357 5.35336 252.753 4.93336 253.269 4.62136C253.797 4.30936 254.415 4.15336 255.123 4.15336C256.227 4.15336 257.085 4.50136 257.697 5.19736C258.309 5.89336 258.615 6.91336 258.615 8.25736V13.2974H256.311V8.47336C256.311 7.70536 256.155 7.11736 255.843 6.70936C255.531 6.30136 255.045 6.09736 254.385 6.09736C253.737 6.09736 253.203 6.32536 252.783 6.78136C252.375 7.23736 252.171 7.87336 252.171 8.68936V13.2974H249.867ZM264.796 13.2974C263.86 13.2974 263.11 13.0694 262.546 12.6134C261.982 12.1574 261.7 11.3474 261.7 10.1834V6.29536H260.17V4.36936H261.7L261.97 1.97536H264.004V4.36936H266.416V6.29536H264.004V10.2014C264.004 10.6334 264.094 10.9334 264.274 11.1014C264.466 11.2574 264.79 11.3354 265.246 11.3354H266.362V13.2974H264.796Z" fill="#0F2137"/>
<path d="M112.625 49.9091C111.645 49.9091 110.785 49.6841 110.045 49.2341C109.305 48.7741 108.73 48.1391 108.32 47.3291C107.91 46.5091 107.705 45.5641 107.705 44.4941C107.705 43.4241 107.91 42.4791 108.32 41.6591C108.74 40.8391 109.33 40.1991 110.09 39.7391C110.86 39.2791 111.765 39.0491 112.805 39.0491C113.985 39.0491 114.965 39.3341 115.745 39.9041C116.535 40.4741 117.045 41.2591 117.275 42.2591H115.82C115.68 41.6291 115.345 41.1291 114.815 40.7591C114.295 40.3891 113.625 40.2041 112.805 40.2041C112.035 40.2041 111.365 40.3791 110.795 40.7291C110.225 41.0691 109.78 41.5591 109.46 42.1991C109.15 42.8391 108.995 43.6041 108.995 44.4941C108.995 45.3841 109.15 46.1491 109.46 46.7891C109.77 47.4291 110.2 47.9241 110.75 48.2741C111.3 48.6141 111.94 48.7841 112.67 48.7841C113.79 48.7841 114.635 48.4591 115.205 47.8091C115.775 47.1491 116.1 46.2491 116.18 45.1091H113.15V44.1191H117.47V49.7291H116.315L116.21 48.0041C115.83 48.6141 115.365 49.0841 114.815 49.4141C114.265 49.7441 113.535 49.9091 112.625 49.9091ZM122.733 49.9091C122.023 49.9091 121.393 49.7491 120.843 49.4291C120.293 49.0991 119.858 48.6441 119.538 48.0641C119.228 47.4841 119.073 46.7991 119.073 46.0091C119.073 45.2291 119.228 44.5491 119.538 43.9691C119.848 43.3791 120.278 42.9241 120.828 42.6041C121.388 42.2741 122.033 42.1091 122.763 42.1091C123.483 42.1091 124.103 42.2741 124.623 42.6041C125.153 42.9241 125.558 43.3491 125.838 43.8791C126.118 44.4091 126.258 44.9791 126.258 45.5891C126.258 45.6991 126.253 45.8091 126.243 45.9191C126.243 46.0291 126.243 46.1541 126.243 46.2941H120.318C120.348 46.8641 120.478 47.3391 120.708 47.7191C120.948 48.0891 121.243 48.3691 121.593 48.5591C121.953 48.7491 122.333 48.8441 122.733 48.8441C123.253 48.8441 123.688 48.7241 124.038 48.4841C124.388 48.2441 124.643 47.9191 124.803 47.5091H126.048C125.848 48.1991 125.463 48.7741 124.893 49.2341C124.333 49.6841 123.613 49.9091 122.733 49.9091ZM122.733 43.1741C122.133 43.1741 121.598 43.3591 121.128 43.7291C120.668 44.0891 120.403 44.6191 120.333 45.3191H125.013C124.983 44.6491 124.753 44.1241 124.323 43.7441C123.893 43.3641 123.363 43.1741 122.733 43.1741ZM130.619 49.7291C129.939 49.7291 129.404 49.5641 129.014 49.2341C128.624 48.9041 128.429 48.3091 128.429 47.4491V43.3541H127.139V42.2891H128.429L128.594 40.5041H129.689V42.2891H131.879V43.3541H129.689V47.4491C129.689 47.9191 129.784 48.2391 129.974 48.4091C130.164 48.5691 130.499 48.6491 130.979 48.6491H131.759V49.7291H130.619ZM138.259 53.0291L140.104 49.0091H139.669L136.714 42.2891H138.079L140.539 48.0791L143.149 42.2891H144.454L139.579 53.0291H138.259ZM148.471 49.9091C147.771 49.9091 147.141 49.7491 146.581 49.4291C146.021 49.1091 145.576 48.6591 145.246 48.0791C144.926 47.4891 144.766 46.7991 144.766 46.0091C144.766 45.2191 144.931 44.5341 145.261 43.9541C145.591 43.3641 146.036 42.9091 146.596 42.5891C147.166 42.2691 147.801 42.1091 148.501 42.1091C149.201 42.1091 149.831 42.2691 150.391 42.5891C150.951 42.9091 151.391 43.3641 151.711 43.9541C152.041 44.5341 152.206 45.2191 152.206 46.0091C152.206 46.7991 152.041 47.4891 151.711 48.0791C151.381 48.6591 150.931 49.1091 150.361 49.4291C149.801 49.7491 149.171 49.9091 148.471 49.9091ZM148.471 48.8291C148.901 48.8291 149.301 48.7241 149.671 48.5141C150.041 48.3041 150.341 47.9891 150.571 47.5691C150.801 47.1491 150.916 46.6291 150.916 46.0091C150.916 45.3891 150.801 44.8691 150.571 44.4491C150.351 44.0291 150.056 43.7141 149.686 43.5041C149.316 43.2941 148.921 43.1891 148.501 43.1891C148.071 43.1891 147.671 43.2941 147.301 43.5041C146.931 43.7141 146.631 44.0291 146.401 44.4491C146.171 44.8691 146.056 45.3891 146.056 46.0091C146.056 46.6291 146.171 47.1491 146.401 47.5691C146.631 47.9891 146.926 48.3041 147.286 48.5141C147.656 48.7241 148.051 48.8291 148.471 48.8291ZM156.673 49.9091C155.793 49.9091 155.093 49.6441 154.573 49.1141C154.053 48.5741 153.793 47.7491 153.793 46.6391V42.2891H155.053V46.5041C155.053 48.0541 155.688 48.8291 156.958 48.8291C157.608 48.8291 158.143 48.5991 158.563 48.1391C158.993 47.6691 159.208 47.0041 159.208 46.1441V42.2891H160.468V49.7291H159.328L159.238 48.3941C159.008 48.8641 158.663 49.2341 158.203 49.5041C157.753 49.7741 157.243 49.9091 156.673 49.9091ZM162.542 49.7291V42.2891H163.682L163.787 43.7141C164.017 43.2241 164.367 42.8341 164.837 42.5441C165.307 42.2541 165.887 42.1091 166.577 42.1091V43.4291H166.232C165.792 43.4291 165.387 43.5091 165.017 43.6691C164.647 43.8191 164.352 44.0791 164.132 44.4491C163.912 44.8191 163.802 45.3291 163.802 45.9791V49.7291H162.542ZM175.936 49.9091C175.326 49.9091 174.781 49.7841 174.301 49.5341C173.831 49.2841 173.471 48.9341 173.221 48.4841L173.101 49.7291H171.961V38.9291H173.221V43.5191C173.461 43.1591 173.801 42.8341 174.241 42.5441C174.691 42.2541 175.261 42.1091 175.951 42.1091C176.691 42.1091 177.336 42.2791 177.886 42.6191C178.436 42.9591 178.861 43.4241 179.161 44.0141C179.471 44.6041 179.626 45.2741 179.626 46.0241C179.626 46.7741 179.471 47.4441 179.161 48.0341C178.861 48.6141 178.431 49.0741 177.871 49.4141C177.321 49.7441 176.676 49.9091 175.936 49.9091ZM175.801 48.8141C176.301 48.8141 176.741 48.6991 177.121 48.4691C177.501 48.2291 177.801 47.8991 178.021 47.4791C178.241 47.0591 178.351 46.5691 178.351 46.0091C178.351 45.4491 178.241 44.9591 178.021 44.5391C177.801 44.1191 177.501 43.7941 177.121 43.5641C176.741 43.3241 176.301 43.2041 175.801 43.2041C175.301 43.2041 174.861 43.3241 174.481 43.5641C174.101 43.7941 173.801 44.1191 173.581 44.5391C173.361 44.9591 173.251 45.4491 173.251 46.0091C173.251 46.5691 173.361 47.0591 173.581 47.4791C173.801 47.8991 174.101 48.2291 174.481 48.4691C174.861 48.6991 175.301 48.8141 175.801 48.8141ZM181.38 49.7291V38.9291H182.64V49.7291H181.38ZM188.095 49.9091C187.395 49.9091 186.765 49.7491 186.205 49.4291C185.645 49.1091 185.2 48.6591 184.87 48.0791C184.55 47.4891 184.39 46.7991 184.39 46.0091C184.39 45.2191 184.555 44.5341 184.885 43.9541C185.215 43.3641 185.66 42.9091 186.22 42.5891C186.79 42.2691 187.425 42.1091 188.125 42.1091C188.825 42.1091 189.455 42.2691 190.015 42.5891C190.575 42.9091 191.015 43.3641 191.335 43.9541C191.665 44.5341 191.83 45.2191 191.83 46.0091C191.83 46.7991 191.665 47.4891 191.335 48.0791C191.005 48.6591 190.555 49.1091 189.985 49.4291C189.425 49.7491 188.795 49.9091 188.095 49.9091ZM188.095 48.8291C188.525 48.8291 188.925 48.7241 189.295 48.5141C189.665 48.3041 189.965 47.9891 190.195 47.5691C190.425 47.1491 190.54 46.6291 190.54 46.0091C190.54 45.3891 190.425 44.8691 190.195 44.4491C189.975 44.0291 189.68 43.7141 189.31 43.5041C188.94 43.2941 188.545 43.1891 188.125 43.1891C187.695 43.1891 187.295 43.2941 186.925 43.5041C186.555 43.7141 186.255 44.0291 186.025 44.4491C185.795 44.8691 185.68 45.3891 185.68 46.0091C185.68 46.6291 185.795 47.1491 186.025 47.5691C186.255 47.9891 186.55 48.3041 186.91 48.5141C187.28 48.7241 187.675 48.8291 188.095 48.8291ZM196.972 49.9091C196.272 49.9091 195.642 49.7491 195.082 49.4291C194.522 49.1091 194.077 48.6591 193.747 48.0791C193.427 47.4891 193.267 46.7991 193.267 46.0091C193.267 45.2191 193.432 44.5341 193.762 43.9541C194.092 43.3641 194.537 42.9091 195.097 42.5891C195.667 42.2691 196.302 42.1091 197.002 42.1091C197.702 42.1091 198.332 42.2691 198.892 42.5891C199.452 42.9091 199.892 43.3641 200.212 43.9541C200.542 44.5341 200.707 45.2191 200.707 46.0091C200.707 46.7991 200.542 47.4891 200.212 48.0791C199.882 48.6591 199.432 49.1091 198.862 49.4291C198.302 49.7491 197.672 49.9091 196.972 49.9091ZM196.972 48.8291C197.402 48.8291 197.802 48.7241 198.172 48.5141C198.542 48.3041 198.842 47.9891 199.072 47.5691C199.302 47.1491 199.417 46.6291 199.417 46.0091C199.417 45.3891 199.302 44.8691 199.072 44.4491C198.852 44.0291 198.557 43.7141 198.187 43.5041C197.817 43.2941 197.422 43.1891 197.002 43.1891C196.572 43.1891 196.172 43.2941 195.802 43.5041C195.432 43.7141 195.132 44.0291 194.902 44.4491C194.672 44.8691 194.557 45.3891 194.557 46.0091C194.557 46.6291 194.672 47.1491 194.902 47.5691C195.132 47.9891 195.427 48.3041 195.787 48.5141C196.157 48.7241 196.552 48.8291 196.972 48.8291ZM205.834 49.9091C205.094 49.9091 204.444 49.7391 203.884 49.3991C203.334 49.0591 202.904 48.5941 202.594 48.0041C202.294 47.4141 202.144 46.7441 202.144 45.9941C202.144 45.2441 202.299 44.5791 202.609 43.9991C202.919 43.4091 203.349 42.9491 203.899 42.6191C204.449 42.2791 205.099 42.1091 205.849 42.1091C206.459 42.1091 206.999 42.2341 207.469 42.4841C207.939 42.7341 208.304 43.0841 208.564 43.5341V38.9291H209.824V49.7291H208.684L208.564 48.4991C208.324 48.8591 207.979 49.1841 207.529 49.4741C207.079 49.7641 206.514 49.9091 205.834 49.9091ZM205.969 48.8141C206.469 48.8141 206.909 48.6991 207.289 48.4691C207.679 48.2291 207.979 47.8991 208.189 47.4791C208.409 47.0591 208.519 46.5691 208.519 46.0091C208.519 45.4491 208.409 44.9591 208.189 44.5391C207.979 44.1191 207.679 43.7941 207.289 43.5641C206.909 43.3241 206.469 43.2041 205.969 43.2041C205.479 43.2041 205.039 43.3241 204.649 43.5641C204.269 43.7941 203.969 44.1191 203.749 44.5391C203.539 44.9591 203.434 45.4491 203.434 46.0091C203.434 46.5691 203.539 47.0591 203.749 47.4791C203.969 47.8991 204.269 48.2291 204.649 48.4691C205.039 48.6991 205.479 48.8141 205.969 48.8141ZM218.788 49.7291C218.108 49.7291 217.573 49.5641 217.183 49.2341C216.793 48.9041 216.598 48.3091 216.598 47.4491V43.3541H215.307V42.2891H216.598L216.763 40.5041H217.858V42.2891H220.048V43.3541H217.858V47.4491C217.858 47.9191 217.953 48.2391 218.143 48.4091C218.333 48.5691 218.668 48.6491 219.148 48.6491H219.928V49.7291H218.788ZM224.788 49.9091C224.078 49.9091 223.448 49.7491 222.898 49.4291C222.348 49.0991 221.913 48.6441 221.593 48.0641C221.283 47.4841 221.128 46.7991 221.128 46.0091C221.128 45.2291 221.283 44.5491 221.593 43.9691C221.903 43.3791 222.333 42.9241 222.883 42.6041C223.443 42.2741 224.088 42.1091 224.818 42.1091C225.538 42.1091 226.158 42.2741 226.678 42.6041C227.208 42.9241 227.613 43.3491 227.893 43.8791C228.173 44.4091 228.313 44.9791 228.313 45.5891C228.313 45.6991 228.308 45.8091 228.298 45.9191C228.298 46.0291 228.298 46.1541 228.298 46.2941H222.373C222.403 46.8641 222.533 47.3391 222.763 47.7191C223.003 48.0891 223.298 48.3691 223.648 48.5591C224.008 48.7491 224.388 48.8441 224.788 48.8441C225.308 48.8441 225.743 48.7241 226.093 48.4841C226.443 48.2441 226.698 47.9191 226.858 47.5091H228.103C227.903 48.1991 227.518 48.7741 226.948 49.2341C226.388 49.6841 225.668 49.9091 224.788 49.9091ZM224.788 43.1741C224.188 43.1741 223.653 43.3591 223.183 43.7291C222.723 44.0891 222.458 44.6191 222.388 45.3191H227.068C227.038 44.6491 226.808 44.1241 226.378 43.7441C225.948 43.3641 225.418 43.1741 224.788 43.1741ZM232.833 49.9091C231.943 49.9091 231.203 49.6841 230.613 49.2341C230.023 48.7841 229.678 48.1741 229.578 47.4041H230.868C230.948 47.7941 231.153 48.1341 231.483 48.4241C231.823 48.7041 232.278 48.8441 232.848 48.8441C233.378 48.8441 233.768 48.7341 234.018 48.5141C234.268 48.2841 234.393 48.0141 234.393 47.7041C234.393 47.2541 234.228 46.9541 233.898 46.8041C233.578 46.6541 233.123 46.5191 232.533 46.3991C232.133 46.3191 231.733 46.2041 231.333 46.0541C230.933 45.9041 230.598 45.6941 230.328 45.4241C230.058 45.1441 229.923 44.7791 229.923 44.3291C229.923 43.6791 230.163 43.1491 230.643 42.7391C231.133 42.3191 231.793 42.1091 232.623 42.1091C233.413 42.1091 234.058 42.3091 234.558 42.7091C235.068 43.0991 235.363 43.6591 235.443 44.3891H234.198C234.148 44.0091 233.983 43.7141 233.703 43.5041C233.433 43.2841 233.068 43.1741 232.608 43.1741C232.158 43.1741 231.808 43.2691 231.558 43.4591C231.318 43.6491 231.198 43.8991 231.198 44.2091C231.198 44.5091 231.353 44.7441 231.663 44.9141C231.983 45.0841 232.413 45.2291 232.953 45.3491C233.413 45.4491 233.848 45.5741 234.258 45.7241C234.678 45.8641 235.018 46.0791 235.278 46.3691C235.548 46.6491 235.683 47.0591 235.683 47.5991C235.693 48.2691 235.438 48.8241 234.918 49.2641C234.408 49.6941 233.713 49.9091 232.833 49.9091ZM240.086 49.7291C239.406 49.7291 238.871 49.5641 238.481 49.2341C238.091 48.9041 237.896 48.3091 237.896 47.4491V43.3541H236.606V42.2891H237.896L238.061 40.5041H239.156V42.2891H241.346V43.3541H239.156V47.4491C239.156 47.9191 239.251 48.2391 239.441 48.4091C239.631 48.5691 239.966 48.6491 240.446 48.6491H241.226V49.7291H240.086ZM245.797 49.9091C244.907 49.9091 244.167 49.6841 243.577 49.2341C242.987 48.7841 242.642 48.1741 242.542 47.4041H243.832C243.912 47.7941 244.117 48.1341 244.447 48.4241C244.787 48.7041 245.242 48.8441 245.812 48.8441C246.342 48.8441 246.732 48.7341 246.982 48.5141C247.232 48.2841 247.357 48.0141 247.357 47.7041C247.357 47.2541 247.192 46.9541 246.862 46.8041C246.542 46.6541 246.087 46.5191 245.497 46.3991C245.097 46.3191 244.697 46.2041 244.297 46.0541C243.897 45.9041 243.562 45.6941 243.292 45.4241C243.022 45.1441 242.887 44.7791 242.887 44.3291C242.887 43.6791 243.127 43.1491 243.607 42.7391C244.097 42.3191 244.757 42.1091 245.587 42.1091C246.377 42.1091 247.022 42.3091 247.522 42.7091C248.032 43.0991 248.327 43.6591 248.407 44.3891H247.162C247.112 44.0091 246.947 43.7141 246.667 43.5041C246.397 43.2841 246.032 43.1741 245.572 43.1741C245.122 43.1741 244.772 43.2691 244.522 43.4591C244.282 43.6491 244.162 43.8991 244.162 44.2091C244.162 44.5091 244.317 44.7441 244.627 44.9141C244.947 45.0841 245.377 45.2291 245.917 45.3491C246.377 45.4491 246.812 45.5741 247.222 45.7241C247.642 45.8641 247.982 46.0791 248.242 46.3691C248.512 46.6491 248.647 47.0591 248.647 47.5991C248.657 48.2691 248.402 48.8241 247.882 49.2641C247.372 49.6941 246.677 49.9091 245.797 49.9091ZM257.792 49.9091C257.052 49.9091 256.402 49.7391 255.842 49.3991C255.292 49.0591 254.862 48.5941 254.552 48.0041C254.252 47.4141 254.102 46.7441 254.102 45.9941C254.102 45.2441 254.257 44.5791 254.567 43.9991C254.877 43.4091 255.307 42.9491 255.857 42.6191C256.407 42.2791 257.057 42.1091 257.807 42.1091C258.417 42.1091 258.957 42.2341 259.427 42.4841C259.897 42.7341 260.262 43.0841 260.522 43.5341V38.9291H261.782V49.7291H260.642L260.522 48.4991C260.282 48.8591 259.937 49.1841 259.487 49.4741C259.037 49.7641 258.472 49.9091 257.792 49.9091ZM257.927 48.8141C258.427 48.8141 258.867 48.6991 259.247 48.4691C259.637 48.2291 259.937 47.8991 260.147 47.4791C260.367 47.0591 260.477 46.5691 260.477 46.0091C260.477 45.4491 260.367 44.9591 260.147 44.5391C259.937 44.1191 259.637 43.7941 259.247 43.5641C258.867 43.3241 258.427 43.2041 257.927 43.2041C257.437 43.2041 256.997 43.3241 256.607 43.5641C256.227 43.7941 255.927 44.1191 255.707 44.5391C255.497 44.9591 255.392 45.4491 255.392 46.0091C255.392 46.5691 255.497 47.0591 255.707 47.4791C255.927 47.8991 256.227 48.2291 256.607 48.4691C256.997 48.6991 257.437 48.8141 257.927 48.8141ZM267.181 49.9091C266.471 49.9091 265.841 49.7491 265.291 49.4291C264.741 49.0991 264.306 48.6441 263.986 48.0641C263.676 47.4841 263.521 46.7991 263.521 46.0091C263.521 45.2291 263.676 44.5491 263.986 43.9691C264.296 43.3791 264.726 42.9241 265.276 42.6041C265.836 42.2741 266.481 42.1091 267.211 42.1091C267.931 42.1091 268.551 42.2741 269.071 42.6041C269.601 42.9241 270.006 43.3491 270.286 43.8791C270.566 44.4091 270.706 44.9791 270.706 45.5891C270.706 45.6991 270.701 45.8091 270.691 45.9191C270.691 46.0291 270.691 46.1541 270.691 46.2941H264.766C264.796 46.8641 264.926 47.3391 265.156 47.7191C265.396 48.0891 265.691 48.3691 266.041 48.5591C266.401 48.7491 266.781 48.8441 267.181 48.8441C267.701 48.8441 268.136 48.7241 268.486 48.4841C268.836 48.2441 269.091 47.9191 269.251 47.5091H270.496C270.296 48.1991 269.911 48.7741 269.341 49.2341C268.781 49.6841 268.061 49.9091 267.181 49.9091ZM267.181 43.1741C266.581 43.1741 266.046 43.3591 265.576 43.7291C265.116 44.0891 264.851 44.6191 264.781 45.3191H269.461C269.431 44.6491 269.201 44.1241 268.771 43.7441C268.341 43.3641 267.811 43.1741 267.181 43.1741ZM272.376 49.7291V38.9291H273.636V49.7291H272.376ZM276.466 40.6391C276.216 40.6391 276.006 40.5591 275.836 40.3991C275.676 40.2291 275.596 40.0191 275.596 39.7691C275.596 39.5291 275.676 39.3291 275.836 39.1691C276.006 39.0091 276.216 38.9291 276.466 38.9291C276.706 38.9291 276.911 39.0091 277.081 39.1691C277.251 39.3291 277.336 39.5291 277.336 39.7691C277.336 40.0191 277.251 40.2291 277.081 40.3991C276.911 40.5591 276.706 40.6391 276.466 40.6391ZM275.836 49.7291V42.2891H277.096V49.7291H275.836ZM281.435 49.7291L278.615 42.2891H279.935L282.17 48.5141L284.42 42.2891H285.71L282.89 49.7291H281.435ZM290.076 49.9091C289.366 49.9091 288.736 49.7491 288.186 49.4291C287.636 49.0991 287.201 48.6441 286.881 48.0641C286.571 47.4841 286.416 46.7991 286.416 46.0091C286.416 45.2291 286.571 44.5491 286.881 43.9691C287.191 43.3791 287.621 42.9241 288.171 42.6041C288.731 42.2741 289.376 42.1091 290.106 42.1091C290.826 42.1091 291.446 42.2741 291.966 42.6041C292.496 42.9241 292.901 43.3491 293.181 43.8791C293.461 44.4091 293.601 44.9791 293.601 45.5891C293.601 45.6991 293.596 45.8091 293.586 45.9191C293.586 46.0291 293.586 46.1541 293.586 46.2941H287.661C287.691 46.8641 287.821 47.3391 288.051 47.7191C288.291 48.0891 288.586 48.3691 288.936 48.5591C289.296 48.7491 289.676 48.8441 290.076 48.8441C290.596 48.8441 291.031 48.7241 291.381 48.4841C291.731 48.2441 291.986 47.9191 292.146 47.5091H293.391C293.191 48.1991 292.806 48.7741 292.236 49.2341C291.676 49.6841 290.956 49.9091 290.076 49.9091ZM290.076 43.1741C289.476 43.1741 288.941 43.3591 288.471 43.7291C288.011 44.0891 287.746 44.6191 287.676 45.3191H292.356C292.326 44.6491 292.096 44.1241 291.666 43.7441C291.236 43.3641 290.706 43.1741 290.076 43.1741ZM295.271 49.7291V42.2891H296.411L296.516 43.7141C296.746 43.2241 297.096 42.8341 297.566 42.5441C298.036 42.2541 298.616 42.1091 299.306 42.1091V43.4291H298.961C298.521 43.4291 298.116 43.5091 297.746 43.6691C297.376 43.8191 297.081 44.0791 296.861 44.4491C296.641 44.8191 296.531 45.3291 296.531 45.9791V49.7291H295.271ZM303.787 49.9091C303.077 49.9091 302.447 49.7491 301.897 49.4291C301.347 49.0991 300.912 48.6441 300.592 48.0641C300.282 47.4841 300.127 46.7991 300.127 46.0091C300.127 45.2291 300.282 44.5491 300.592 43.9691C300.902 43.3791 301.332 42.9241 301.882 42.6041C302.442 42.2741 303.087 42.1091 303.817 42.1091C304.537 42.1091 305.157 42.2741 305.677 42.6041C306.207 42.9241 306.612 43.3491 306.892 43.8791C307.172 44.4091 307.312 44.9791 307.312 45.5891C307.312 45.6991 307.307 45.8091 307.297 45.9191C307.297 46.0291 307.297 46.1541 307.297 46.2941H301.372C301.402 46.8641 301.532 47.3391 301.762 47.7191C302.002 48.0891 302.297 48.3691 302.647 48.5591C303.007 48.7491 303.387 48.8441 303.787 48.8441C304.307 48.8441 304.742 48.7241 305.092 48.4841C305.442 48.2441 305.697 47.9191 305.857 47.5091H307.102C306.902 48.1991 306.517 48.7741 305.947 49.2341C305.387 49.6841 304.667 49.9091 303.787 49.9091ZM303.787 43.1741C303.187 43.1741 302.652 43.3591 302.182 43.7291C301.722 44.0891 301.457 44.6191 301.387 45.3191H306.067C306.037 44.6491 305.807 44.1241 305.377 43.7441C304.947 43.3641 304.417 43.1741 303.787 43.1741ZM312.357 49.9091C311.617 49.9091 310.967 49.7391 310.407 49.3991C309.857 49.0591 309.427 48.5941 309.117 48.0041C308.817 47.4141 308.667 46.7441 308.667 45.9941C308.667 45.2441 308.822 44.5791 309.132 43.9991C309.442 43.4091 309.872 42.9491 310.422 42.6191C310.972 42.2791 311.622 42.1091 312.372 42.1091C312.982 42.1091 313.522 42.2341 313.992 42.4841C314.462 42.7341 314.827 43.0841 315.087 43.5341V38.9291H316.347V49.7291H315.207L315.087 48.4991C314.847 48.8591 314.502 49.1841 314.052 49.4741C313.602 49.7641 313.037 49.9091 312.357 49.9091ZM312.492 48.8141C312.992 48.8141 313.432 48.6991 313.812 48.4691C314.202 48.2291 314.502 47.8991 314.712 47.4791C314.932 47.0591 315.042 46.5691 315.042 46.0091C315.042 45.4491 314.932 44.9591 314.712 44.5391C314.502 44.1191 314.202 43.7941 313.812 43.5641C313.432 43.3241 312.992 43.2041 312.492 43.2041C312.002 43.2041 311.562 43.3241 311.172 43.5641C310.792 43.7941 310.492 44.1191 310.272 44.5391C310.062 44.9591 309.957 45.4491 309.957 46.0091C309.957 46.5691 310.062 47.0591 310.272 47.4791C310.492 47.8991 310.792 48.2291 311.172 48.4691C311.562 48.6991 312.002 48.8141 312.492 48.8141ZM324.846 49.9091C324.226 49.9091 323.711 49.8041 323.301 49.5941C322.891 49.3841 322.586 49.1041 322.386 48.7541C322.186 48.4041 322.086 48.0241 322.086 47.6141C322.086 46.8541 322.376 46.2691 322.956 45.8591C323.536 45.4491 324.326 45.2441 325.326 45.2441H327.336V45.1541C327.336 44.5041 327.166 44.0141 326.826 43.6841C326.486 43.3441 326.031 43.1741 325.461 43.1741C324.971 43.1741 324.546 43.2991 324.186 43.5491C323.836 43.7891 323.616 44.1441 323.526 44.6141H322.236C322.286 44.0741 322.466 43.6191 322.776 43.2491C323.096 42.8791 323.491 42.5991 323.961 42.4091C324.431 42.2091 324.931 42.1091 325.461 42.1091C326.501 42.1091 327.281 42.3891 327.801 42.9491C328.331 43.4991 328.596 44.2341 328.596 45.1541V49.7291H327.471L327.396 48.3941C327.186 48.8141 326.876 49.1741 326.466 49.4741C326.066 49.7641 325.526 49.9091 324.846 49.9091ZM325.041 48.8441C325.521 48.8441 325.931 48.7191 326.271 48.4691C326.621 48.2191 326.886 47.8941 327.066 47.4941C327.246 47.0941 327.336 46.6741 327.336 46.2341V46.2191H325.431C324.691 46.2191 324.166 46.3491 323.856 46.6091C323.556 46.8591 323.406 47.1741 323.406 47.5541C323.406 47.9441 323.546 48.2591 323.826 48.4991C324.116 48.7291 324.521 48.8441 325.041 48.8441ZM333.221 49.7291C332.541 49.7291 332.006 49.5641 331.616 49.2341C331.226 48.9041 331.031 48.3091 331.031 47.4491V43.3541H329.741V42.2891H331.031L331.196 40.5041H332.291V42.2891H334.481V43.3541H332.291V47.4491C332.291 47.9191 332.386 48.2391 332.576 48.4091C332.766 48.5691 333.101 48.6491 333.581 48.6491H334.361V49.7291H333.221ZM340.052 49.7291V38.9291H341.312V49.7291H340.052ZM346.722 49.9091C346.012 49.9091 345.382 49.7491 344.832 49.4291C344.282 49.0991 343.847 48.6441 343.527 48.0641C343.217 47.4841 343.062 46.7991 343.062 46.0091C343.062 45.2291 343.217 44.5491 343.527 43.9691C343.837 43.3791 344.267 42.9241 344.817 42.6041C345.377 42.2741 346.022 42.1091 346.752 42.1091C347.472 42.1091 348.092 42.2741 348.612 42.6041C349.142 42.9241 349.547 43.3491 349.827 43.8791C350.107 44.4091 350.247 44.9791 350.247 45.5891C350.247 45.6991 350.242 45.8091 350.232 45.9191C350.232 46.0291 350.232 46.1541 350.232 46.2941H344.307C344.337 46.8641 344.467 47.3391 344.697 47.7191C344.937 48.0891 345.232 48.3691 345.582 48.5591C345.942 48.7491 346.322 48.8441 346.722 48.8441C347.242 48.8441 347.677 48.7241 348.027 48.4841C348.377 48.2441 348.632 47.9191 348.792 47.5091H350.037C349.837 48.1991 349.452 48.7741 348.882 49.2341C348.322 49.6841 347.602 49.9091 346.722 49.9091ZM346.722 43.1741C346.122 43.1741 345.587 43.3591 345.117 43.7291C344.657 44.0891 344.392 44.6191 344.322 45.3191H349.002C348.972 44.6491 348.742 44.1241 348.312 43.7441C347.882 43.3641 347.352 43.1741 346.722 43.1741ZM354.608 49.7291C353.928 49.7291 353.393 49.5641 353.003 49.2341C352.613 48.9041 352.418 48.3091 352.418 47.4491V43.3541H351.128V42.2891H352.418L352.583 40.5041H353.678V42.2891H355.868V43.3541H353.678V47.4491C353.678 47.9191 353.773 48.2391 353.963 48.4091C354.153 48.5691 354.488 48.6491 354.968 48.6491H355.748V49.7291H354.608ZM108.035 75.7291V64.9291H109.295V69.5641C109.545 69.1041 109.9 68.7491 110.36 68.4991C110.82 68.2391 111.32 68.1091 111.86 68.1091C112.72 68.1091 113.41 68.3791 113.93 68.9191C114.45 69.4491 114.71 70.2691 114.71 71.3791V75.7291H113.465V71.5141C113.465 69.9641 112.84 69.1891 111.59 69.1891C110.94 69.1891 110.395 69.4241 109.955 69.8941C109.515 70.3541 109.295 71.0141 109.295 71.8741V75.7291H108.035ZM120.009 75.9091C119.309 75.9091 118.679 75.7491 118.119 75.4291C117.559 75.1091 117.114 74.6591 116.784 74.0791C116.464 73.4891 116.304 72.7991 116.304 72.0091C116.304 71.2191 116.469 70.5341 116.799 69.9541C117.129 69.3641 117.574 68.9091 118.134 68.5891C118.704 68.2691 119.339 68.1091 120.039 68.1091C120.739 68.1091 121.369 68.2691 121.929 68.5891C122.489 68.9091 122.929 69.3641 123.249 69.9541C123.579 70.5341 123.744 71.2191 123.744 72.0091C123.744 72.7991 123.579 73.4891 123.249 74.0791C122.919 74.6591 122.469 75.1091 121.899 75.4291C121.339 75.7491 120.709 75.9091 120.009 75.9091ZM120.009 74.8291C120.439 74.8291 120.839 74.7241 121.209 74.5141C121.579 74.3041 121.879 73.9891 122.109 73.5691C122.339 73.1491 122.454 72.6291 122.454 72.0091C122.454 71.3891 122.339 70.8691 122.109 70.4491C121.889 70.0291 121.594 69.7141 121.224 69.5041C120.854 69.2941 120.459 69.1891 120.039 69.1891C119.609 69.1891 119.209 69.2941 118.839 69.5041C118.469 69.7141 118.169 70.0291 117.939 70.4491C117.709 70.8691 117.594 71.3891 117.594 72.0091C117.594 72.6291 117.709 73.1491 117.939 73.5691C118.169 73.9891 118.464 74.3041 118.824 74.5141C119.194 74.7241 119.589 74.8291 120.009 74.8291ZM125.496 75.7291V68.2891H126.636L126.726 69.3691C126.966 68.9691 127.286 68.6591 127.686 68.4391C128.086 68.2191 128.536 68.1091 129.036 68.1091C129.626 68.1091 130.131 68.2291 130.551 68.4691C130.981 68.7091 131.311 69.0741 131.541 69.5641C131.801 69.1141 132.156 68.7591 132.606 68.4991C133.066 68.2391 133.561 68.1091 134.091 68.1091C134.981 68.1091 135.691 68.3791 136.221 68.9191C136.751 69.4491 137.016 70.2691 137.016 71.3791V75.7291H135.771V71.5141C135.771 70.7441 135.616 70.1641 135.306 69.7741C134.996 69.3841 134.551 69.1891 133.971 69.1891C133.371 69.1891 132.871 69.4241 132.471 69.8941C132.081 70.3541 131.886 71.0141 131.886 71.8741V75.7291H130.626V71.5141C130.626 70.7441 130.471 70.1641 130.161 69.7741C129.851 69.3841 129.406 69.1891 128.826 69.1891C128.236 69.1891 127.741 69.4241 127.341 69.8941C126.951 70.3541 126.756 71.0141 126.756 71.8741V75.7291H125.496ZM142.259 75.9091C141.549 75.9091 140.919 75.7491 140.369 75.4291C139.819 75.0991 139.384 74.6441 139.064 74.0641C138.754 73.4841 138.599 72.7991 138.599 72.0091C138.599 71.2291 138.754 70.5491 139.064 69.9691C139.374 69.3791 139.804 68.9241 140.354 68.6041C140.914 68.2741 141.559 68.1091 142.289 68.1091C143.009 68.1091 143.629 68.2741 144.149 68.6041C144.679 68.9241 145.084 69.3491 145.364 69.8791C145.644 70.4091 145.784 70.9791 145.784 71.5891C145.784 71.6991 145.779 71.8091 145.769 71.9191C145.769 72.0291 145.769 72.1541 145.769 72.2941H139.844C139.874 72.8641 140.004 73.3391 140.234 73.7191C140.474 74.0891 140.769 74.3691 141.119 74.5591C141.479 74.7491 141.859 74.8441 142.259 74.8441C142.779 74.8441 143.214 74.7241 143.564 74.4841C143.914 74.2441 144.169 73.9191 144.329 73.5091H145.574C145.374 74.1991 144.989 74.7741 144.419 75.2341C143.859 75.6841 143.139 75.9091 142.259 75.9091ZM142.259 69.1741C141.659 69.1741 141.124 69.3591 140.654 69.7291C140.194 70.0891 139.929 70.6191 139.859 71.3191H144.539C144.509 70.6491 144.279 70.1241 143.849 69.7441C143.419 69.3641 142.889 69.1741 142.259 69.1741ZM154.844 75.9091C154.134 75.9091 153.494 75.7491 152.924 75.4291C152.364 75.0991 151.919 74.6441 151.589 74.0641C151.269 73.4741 151.109 72.7891 151.109 72.0091C151.109 71.2291 151.269 70.5491 151.589 69.9691C151.919 69.3791 152.364 68.9241 152.924 68.6041C153.494 68.2741 154.134 68.1091 154.844 68.1091C155.724 68.1091 156.464 68.3391 157.064 68.7991C157.674 69.2591 158.059 69.8741 158.219 70.6441H156.929C156.829 70.1841 156.584 69.8291 156.194 69.5791C155.804 69.3191 155.349 69.1891 154.829 69.1891C154.409 69.1891 154.014 69.2941 153.644 69.5041C153.274 69.7141 152.974 70.0291 152.744 70.4491C152.514 70.8691 152.399 71.3891 152.399 72.0091C152.399 72.6291 152.514 73.1491 152.744 73.5691C152.974 73.9891 153.274 74.3091 153.644 74.5291C154.014 74.7391 154.409 74.8441 154.829 74.8441C155.349 74.8441 155.804 74.7191 156.194 74.4691C156.584 74.2091 156.829 73.8441 156.929 73.3741H158.219C158.069 74.1241 157.689 74.7341 157.079 75.2041C156.469 75.6741 155.724 75.9091 154.844 75.9091ZM163.368 75.9091C162.668 75.9091 162.038 75.7491 161.478 75.4291C160.918 75.1091 160.473 74.6591 160.143 74.0791C159.823 73.4891 159.663 72.7991 159.663 72.0091C159.663 71.2191 159.828 70.5341 160.158 69.9541C160.488 69.3641 160.933 68.9091 161.493 68.5891C162.063 68.2691 162.698 68.1091 163.398 68.1091C164.098 68.1091 164.728 68.2691 165.288 68.5891C165.848 68.9091 166.288 69.3641 166.608 69.9541C166.938 70.5341 167.103 71.2191 167.103 72.0091C167.103 72.7991 166.938 73.4891 166.608 74.0791C166.278 74.6591 165.828 75.1091 165.258 75.4291C164.698 75.7491 164.068 75.9091 163.368 75.9091ZM163.368 74.8291C163.798 74.8291 164.198 74.7241 164.568 74.5141C164.938 74.3041 165.238 73.9891 165.468 73.5691C165.698 73.1491 165.813 72.6291 165.813 72.0091C165.813 71.3891 165.698 70.8691 165.468 70.4491C165.248 70.0291 164.953 69.7141 164.583 69.5041C164.213 69.2941 163.818 69.1891 163.398 69.1891C162.968 69.1891 162.568 69.2941 162.198 69.5041C161.828 69.7141 161.528 70.0291 161.298 70.4491C161.068 70.8691 160.953 71.3891 160.953 72.0091C160.953 72.6291 161.068 73.1491 161.298 73.5691C161.528 73.9891 161.823 74.3041 162.183 74.5141C162.553 74.7241 162.948 74.8291 163.368 74.8291ZM168.855 75.7291V64.9291H170.115V75.7291H168.855ZM172.181 75.7291V64.9291H173.441V75.7291H172.181ZM178.851 75.9091C178.141 75.9091 177.511 75.7491 176.961 75.4291C176.411 75.0991 175.976 74.6441 175.656 74.0641C175.346 73.4841 175.191 72.7991 175.191 72.0091C175.191 71.2291 175.346 70.5491 175.656 69.9691C175.966 69.3791 176.396 68.9241 176.946 68.6041C177.506 68.2741 178.151 68.1091 178.881 68.1091C179.601 68.1091 180.221 68.2741 180.741 68.6041C181.271 68.9241 181.676 69.3491 181.956 69.8791C182.236 70.4091 182.376 70.9791 182.376 71.5891C182.376 71.6991 182.371 71.8091 182.361 71.9191C182.361 72.0291 182.361 72.1541 182.361 72.2941H176.436C176.466 72.8641 176.596 73.3391 176.826 73.7191C177.066 74.0891 177.361 74.3691 177.711 74.5591C178.071 74.7491 178.451 74.8441 178.851 74.8441C179.371 74.8441 179.806 74.7241 180.156 74.4841C180.506 74.2441 180.761 73.9191 180.921 73.5091H182.166C181.966 74.1991 181.581 74.7741 181.011 75.2341C180.451 75.6841 179.731 75.9091 178.851 75.9091ZM178.851 69.1741C178.251 69.1741 177.716 69.3591 177.246 69.7291C176.786 70.0891 176.521 70.6191 176.451 71.3191H181.131C181.101 70.6491 180.871 70.1241 180.441 69.7441C180.011 69.3641 179.481 69.1741 178.851 69.1741ZM187.466 75.9091C186.756 75.9091 186.116 75.7491 185.546 75.4291C184.986 75.0991 184.541 74.6441 184.211 74.0641C183.891 73.4741 183.731 72.7891 183.731 72.0091C183.731 71.2291 183.891 70.5491 184.211 69.9691C184.541 69.3791 184.986 68.9241 185.546 68.6041C186.116 68.2741 186.756 68.1091 187.466 68.1091C188.346 68.1091 189.086 68.3391 189.686 68.7991C190.296 69.2591 190.681 69.8741 190.841 70.6441H189.551C189.451 70.1841 189.206 69.8291 188.816 69.5791C188.426 69.3191 187.971 69.1891 187.451 69.1891C187.031 69.1891 186.636 69.2941 186.266 69.5041C185.896 69.7141 185.596 70.0291 185.366 70.4491C185.136 70.8691 185.021 71.3891 185.021 72.0091C185.021 72.6291 185.136 73.1491 185.366 73.5691C185.596 73.9891 185.896 74.3091 186.266 74.5291C186.636 74.7391 187.031 74.8441 187.451 74.8441C187.971 74.8441 188.426 74.7191 188.816 74.4691C189.206 74.2091 189.451 73.8441 189.551 73.3741H190.841C190.691 74.1241 190.311 74.7341 189.701 75.2041C189.091 75.6741 188.346 75.9091 187.466 75.9091ZM195.335 75.7291C194.655 75.7291 194.12 75.5641 193.73 75.2341C193.34 74.9041 193.145 74.3091 193.145 73.4491V69.3541H191.855V68.2891H193.145L193.31 66.5041H194.405V68.2891H196.595V69.3541H194.405V73.4491C194.405 73.9191 194.5 74.2391 194.69 74.4091C194.88 74.5691 195.215 74.6491 195.695 74.6491H196.475V75.7291H195.335ZM205.016 75.9091C204.126 75.9091 203.386 75.6841 202.796 75.2341C202.206 74.7841 201.861 74.1741 201.761 73.4041H203.051C203.131 73.7941 203.336 74.1341 203.666 74.4241C204.006 74.7041 204.461 74.8441 205.031 74.8441C205.561 74.8441 205.951 74.7341 206.201 74.5141C206.451 74.2841 206.576 74.0141 206.576 73.7041C206.576 73.2541 206.411 72.9541 206.081 72.8041C205.761 72.6541 205.306 72.5191 204.716 72.3991C204.316 72.3191 203.916 72.2041 203.516 72.0541C203.116 71.9041 202.781 71.6941 202.511 71.4241C202.241 71.1441 202.106 70.7791 202.106 70.3291C202.106 69.6791 202.346 69.1491 202.826 68.7391C203.316 68.3191 203.976 68.1091 204.806 68.1091C205.596 68.1091 206.241 68.3091 206.741 68.7091C207.251 69.0991 207.546 69.6591 207.626 70.3891H206.381C206.331 70.0091 206.166 69.7141 205.886 69.5041C205.616 69.2841 205.251 69.1741 204.791 69.1741C204.341 69.1741 203.991 69.2691 203.741 69.4591C203.501 69.6491 203.381 69.8991 203.381 70.2091C203.381 70.5091 203.536 70.7441 203.846 70.9141C204.166 71.0841 204.596 71.2291 205.136 71.3491C205.596 71.4491 206.031 71.5741 206.441 71.7241C206.861 71.8641 207.201 72.0791 207.461 72.3691C207.731 72.6491 207.866 73.0591 207.866 73.5991C207.876 74.2691 207.621 74.8241 207.101 75.2641C206.591 75.6941 205.896 75.9091 205.016 75.9091ZM212.141 75.9091C211.521 75.9091 211.006 75.8041 210.596 75.5941C210.186 75.3841 209.881 75.1041 209.681 74.7541C209.481 74.4041 209.381 74.0241 209.381 73.6141C209.381 72.8541 209.671 72.2691 210.251 71.8591C210.831 71.4491 211.621 71.2441 212.621 71.2441H214.631V71.1541C214.631 70.5041 214.461 70.0141 214.121 69.6841C213.781 69.3441 213.326 69.1741 212.756 69.1741C212.266 69.1741 211.841 69.2991 211.481 69.5491C211.131 69.7891 210.911 70.1441 210.821 70.6141H209.531C209.581 70.0741 209.761 69.6191 210.071 69.2491C210.391 68.8791 210.786 68.5991 211.256 68.4091C211.726 68.2091 212.226 68.1091 212.756 68.1091C213.796 68.1091 214.576 68.3891 215.096 68.9491C215.626 69.4991 215.891 70.2341 215.891 71.1541V75.7291H214.766L214.691 74.3941C214.481 74.8141 214.171 75.1741 213.761 75.4741C213.361 75.7641 212.821 75.9091 212.141 75.9091ZM212.336 74.8441C212.816 74.8441 213.226 74.7191 213.566 74.4691C213.916 74.2191 214.181 73.8941 214.361 73.4941C214.541 73.0941 214.631 72.6741 214.631 72.2341V72.2191H212.726C211.986 72.2191 211.461 72.3491 211.151 72.6091C210.851 72.8591 210.701 73.1741 210.701 73.5541C210.701 73.9441 210.841 74.2591 211.121 74.4991C211.411 74.7291 211.816 74.8441 212.336 74.8441ZM217.781 75.7291V68.2891H218.921L219.011 69.3691C219.251 68.9691 219.571 68.6591 219.971 68.4391C220.371 68.2191 220.821 68.1091 221.321 68.1091C221.911 68.1091 222.416 68.2291 222.836 68.4691C223.266 68.7091 223.596 69.0741 223.826 69.5641C224.086 69.1141 224.441 68.7591 224.891 68.4991C225.351 68.2391 225.846 68.1091 226.376 68.1091C227.266 68.1091 227.976 68.3791 228.506 68.9191C229.036 69.4491 229.301 70.2691 229.301 71.3791V75.7291H228.056V71.5141C228.056 70.7441 227.901 70.1641 227.591 69.7741C227.281 69.3841 226.836 69.1891 226.256 69.1891C225.656 69.1891 225.156 69.4241 224.756 69.8941C224.366 70.3541 224.171 71.0141 224.171 71.8741V75.7291H222.911V71.5141C222.911 70.7441 222.756 70.1641 222.446 69.7741C222.136 69.3841 221.691 69.1891 221.111 69.1891C220.521 69.1891 220.026 69.4241 219.626 69.8941C219.236 70.3541 219.041 71.0141 219.041 71.8741V75.7291H217.781ZM231.199 79.0291V68.2891H232.339L232.459 69.5191C232.699 69.1591 233.039 68.8341 233.479 68.5441C233.929 68.2541 234.499 68.1091 235.189 68.1091C235.929 68.1091 236.574 68.2791 237.124 68.6191C237.674 68.9591 238.099 69.4241 238.399 70.0141C238.709 70.6041 238.864 71.2741 238.864 72.0241C238.864 72.7741 238.709 73.4441 238.399 74.0341C238.099 74.6141 237.669 75.0741 237.109 75.4141C236.559 75.7441 235.914 75.9091 235.174 75.9091C234.564 75.9091 234.019 75.7841 233.539 75.5341C233.069 75.2841 232.709 74.9341 232.459 74.4841V79.0291H231.199ZM235.039 74.8141C235.539 74.8141 235.979 74.6991 236.359 74.4691C236.739 74.2291 237.039 73.8991 237.259 73.4791C237.479 73.0591 237.589 72.5691 237.589 72.0091C237.589 71.4491 237.479 70.9591 237.259 70.5391C237.039 70.1191 236.739 69.7941 236.359 69.5641C235.979 69.3241 235.539 69.2041 235.039 69.2041C234.539 69.2041 234.099 69.3241 233.719 69.5641C233.339 69.7941 233.039 70.1191 232.819 70.5391C232.599 70.9591 232.489 71.4491 232.489 72.0091C232.489 72.5691 232.599 73.0591 232.819 73.4791C233.039 73.8991 233.339 74.2291 233.719 74.4691C234.099 74.6991 234.539 74.8141 235.039 74.8141ZM240.618 75.7291V64.9291H241.878V75.7291H240.618ZM247.288 75.9091C246.578 75.9091 245.948 75.7491 245.398 75.4291C244.848 75.0991 244.413 74.6441 244.093 74.0641C243.783 73.4841 243.628 72.7991 243.628 72.0091C243.628 71.2291 243.783 70.5491 244.093 69.9691C244.403 69.3791 244.833 68.9241 245.383 68.6041C245.943 68.2741 246.588 68.1091 247.318 68.1091C248.038 68.1091 248.658 68.2741 249.178 68.6041C249.708 68.9241 250.113 69.3491 250.393 69.8791C250.673 70.4091 250.813 70.9791 250.813 71.5891C250.813 71.6991 250.808 71.8091 250.798 71.9191C250.798 72.0291 250.798 72.1541 250.798 72.2941H244.873C244.903 72.8641 245.033 73.3391 245.263 73.7191C245.503 74.0891 245.798 74.3691 246.148 74.5591C246.508 74.7491 246.888 74.8441 247.288 74.8441C247.808 74.8441 248.243 74.7241 248.593 74.4841C248.943 74.2441 249.198 73.9191 249.358 73.5091H250.603C250.403 74.1991 250.018 74.7741 249.448 75.2341C248.888 75.6841 248.168 75.9091 247.288 75.9091ZM247.288 69.1741C246.688 69.1741 246.153 69.3591 245.683 69.7291C245.223 70.0891 244.958 70.6191 244.888 71.3191H249.568C249.538 70.6491 249.308 70.1241 248.878 69.7441C248.448 69.3641 247.918 69.1741 247.288 69.1741ZM256.858 75.7291V69.3541H255.733V68.2891H256.858V66.9991C256.858 66.2791 257.038 65.7541 257.398 65.4241C257.758 65.0941 258.283 64.9291 258.973 64.9291H259.723V66.0091H259.168C258.788 66.0091 258.518 66.0891 258.358 66.2491C258.198 66.3991 258.118 66.6591 258.118 67.0291V68.2891H259.948V69.3541H258.118V75.7291H256.858ZM261.448 75.7291V68.2891H262.588L262.693 69.7141C262.923 69.2241 263.273 68.8341 263.743 68.5441C264.213 68.2541 264.793 68.1091 265.483 68.1091V69.4291H265.138C264.698 69.4291 264.293 69.5091 263.923 69.6691C263.553 69.8191 263.258 70.0791 263.038 70.4491C262.818 70.8191 262.708 71.3291 262.708 71.9791V75.7291H261.448ZM270.009 75.9091C269.309 75.9091 268.679 75.7491 268.119 75.4291C267.559 75.1091 267.114 74.6591 266.784 74.0791C266.464 73.4891 266.304 72.7991 266.304 72.0091C266.304 71.2191 266.469 70.5341 266.799 69.9541C267.129 69.3641 267.574 68.9091 268.134 68.5891C268.704 68.2691 269.339 68.1091 270.039 68.1091C270.739 68.1091 271.369 68.2691 271.929 68.5891C272.489 68.9091 272.929 69.3641 273.249 69.9541C273.579 70.5341 273.744 71.2191 273.744 72.0091C273.744 72.7991 273.579 73.4891 273.249 74.0791C272.919 74.6591 272.469 75.1091 271.899 75.4291C271.339 75.7491 270.709 75.9091 270.009 75.9091ZM270.009 74.8291C270.439 74.8291 270.839 74.7241 271.209 74.5141C271.579 74.3041 271.879 73.9891 272.109 73.5691C272.339 73.1491 272.454 72.6291 272.454 72.0091C272.454 71.3891 272.339 70.8691 272.109 70.4491C271.889 70.0291 271.594 69.7141 271.224 69.5041C270.854 69.2941 270.459 69.1891 270.039 69.1891C269.609 69.1891 269.209 69.2941 268.839 69.5041C268.469 69.7141 268.169 70.0291 267.939 70.4491C267.709 70.8691 267.594 71.3891 267.594 72.0091C267.594 72.6291 267.709 73.1491 267.939 73.5691C268.169 73.9891 268.464 74.3041 268.824 74.5141C269.194 74.7241 269.589 74.8291 270.009 74.8291ZM275.496 75.7291V68.2891H276.636L276.726 69.3691C276.966 68.9691 277.286 68.6591 277.686 68.4391C278.086 68.2191 278.536 68.1091 279.036 68.1091C279.626 68.1091 280.131 68.2291 280.551 68.4691C280.981 68.7091 281.311 69.0741 281.541 69.5641C281.801 69.1141 282.156 68.7591 282.606 68.4991C283.066 68.2391 283.561 68.1091 284.091 68.1091C284.981 68.1091 285.691 68.3791 286.221 68.9191C286.751 69.4491 287.016 70.2691 287.016 71.3791V75.7291H285.771V71.5141C285.771 70.7441 285.616 70.1641 285.306 69.7741C284.996 69.3841 284.551 69.1891 283.971 69.1891C283.371 69.1891 282.871 69.4241 282.471 69.8941C282.081 70.3541 281.886 71.0141 281.886 71.8741V75.7291H280.626V71.5141C280.626 70.7441 280.471 70.1641 280.161 69.7741C279.851 69.3841 279.406 69.1891 278.826 69.1891C278.236 69.1891 277.741 69.4241 277.341 69.8941C276.951 70.3541 276.756 71.0141 276.756 71.8741V75.7291H275.496ZM295.824 75.7291C295.144 75.7291 294.609 75.5641 294.219 75.2341C293.829 74.9041 293.634 74.3091 293.634 73.4491V69.3541H292.344V68.2891H293.634L293.799 66.5041H294.894V68.2891H297.084V69.3541H294.894V73.4491C294.894 73.9191 294.989 74.2391 295.179 74.4091C295.369 74.5691 295.704 74.6491 296.184 74.6491H296.964V75.7291H295.824ZM298.684 75.7291V64.9291H299.944V69.5641C300.194 69.1041 300.549 68.7491 301.009 68.4991C301.469 68.2391 301.969 68.1091 302.509 68.1091C303.369 68.1091 304.059 68.3791 304.579 68.9191C305.099 69.4491 305.359 70.2691 305.359 71.3791V75.7291H304.114V71.5141C304.114 69.9641 303.489 69.1891 302.239 69.1891C301.589 69.1891 301.044 69.4241 300.604 69.8941C300.164 70.3541 299.944 71.0141 299.944 71.8741V75.7291H298.684ZM310.613 75.9091C309.903 75.9091 309.273 75.7491 308.723 75.4291C308.173 75.0991 307.738 74.6441 307.418 74.0641C307.108 73.4841 306.953 72.7991 306.953 72.0091C306.953 71.2291 307.108 70.5491 307.418 69.9691C307.728 69.3791 308.158 68.9241 308.708 68.6041C309.268 68.2741 309.913 68.1091 310.643 68.1091C311.363 68.1091 311.983 68.2741 312.503 68.6041C313.033 68.9241 313.438 69.3491 313.718 69.8791C313.998 70.4091 314.138 70.9791 314.138 71.5891C314.138 71.6991 314.133 71.8091 314.123 71.9191C314.123 72.0291 314.123 72.1541 314.123 72.2941H308.198C308.228 72.8641 308.358 73.3391 308.588 73.7191C308.828 74.0891 309.123 74.3691 309.473 74.5591C309.833 74.7491 310.213 74.8441 310.613 74.8441C311.133 74.8441 311.568 74.7241 311.918 74.4841C312.268 74.2441 312.523 73.9191 312.683 73.5091H313.928C313.728 74.1991 313.343 74.7741 312.773 75.2341C312.213 75.6841 311.493 75.9091 310.613 75.9091ZM310.613 69.1741C310.013 69.1741 309.478 69.3591 309.008 69.7291C308.548 70.0891 308.283 70.6191 308.213 71.3191H312.893C312.863 70.6491 312.633 70.1241 312.203 69.7441C311.773 69.3641 311.243 69.1741 310.613 69.1741ZM321.923 75.7291L319.103 68.2891H320.423L322.658 74.5141L324.908 68.2891H326.198L323.378 75.7291H321.923ZM328.365 66.6391C328.115 66.6391 327.905 66.5591 327.735 66.3991C327.575 66.2291 327.495 66.0191 327.495 65.7691C327.495 65.5291 327.575 65.3291 327.735 65.1691C327.905 65.0091 328.115 64.9291 328.365 64.9291C328.605 64.9291 328.81 65.0091 328.98 65.1691C329.15 65.3291 329.235 65.5291 329.235 65.7691C329.235 66.0191 329.15 66.2291 328.98 66.3991C328.81 66.5591 328.605 66.6391 328.365 66.6391ZM327.735 75.7291V68.2891H328.995V75.7291H327.735ZM334.609 75.9091C333.899 75.9091 333.259 75.7491 332.689 75.4291C332.129 75.0991 331.684 74.6441 331.354 74.0641C331.034 73.4741 330.874 72.7891 330.874 72.0091C330.874 71.2291 331.034 70.5491 331.354 69.9691C331.684 69.3791 332.129 68.9241 332.689 68.6041C333.259 68.2741 333.899 68.1091 334.609 68.1091C335.489 68.1091 336.229 68.3391 336.829 68.7991C337.439 69.2591 337.824 69.8741 337.984 70.6441H336.694C336.594 70.1841 336.349 69.8291 335.959 69.5791C335.569 69.3191 335.114 69.1891 334.594 69.1891C334.174 69.1891 333.779 69.2941 333.409 69.5041C333.039 69.7141 332.739 70.0291 332.509 70.4491C332.279 70.8691 332.164 71.3891 332.164 72.0091C332.164 72.6291 332.279 73.1491 332.509 73.5691C332.739 73.9891 333.039 74.3091 333.409 74.5291C333.779 74.7391 334.174 74.8441 334.594 74.8441C335.114 74.8441 335.569 74.7191 335.959 74.4691C336.349 74.2091 336.594 73.8441 336.694 73.3741H337.984C337.834 74.1241 337.454 74.7341 336.844 75.2041C336.234 75.6741 335.489 75.9091 334.609 75.9091ZM342.479 75.7291C341.799 75.7291 341.264 75.5641 340.874 75.2341C340.484 74.9041 340.289 74.3091 340.289 73.4491V69.3541H338.999V68.2891H340.289L340.454 66.5041H341.549V68.2891H343.739V69.3541H341.549V73.4491C341.549 73.9191 341.644 74.2391 341.834 74.4091C342.024 74.5691 342.359 74.6491 342.839 74.6491H343.619V75.7291H342.479ZM348.525 75.9091C347.825 75.9091 347.195 75.7491 346.635 75.4291C346.075 75.1091 345.63 74.6591 345.3 74.0791C344.98 73.4891 344.82 72.7991 344.82 72.0091C344.82 71.2191 344.985 70.5341 345.315 69.9541C345.645 69.3641 346.09 68.9091 346.65 68.5891C347.22 68.2691 347.855 68.1091 348.555 68.1091C349.255 68.1091 349.885 68.2691 350.445 68.5891C351.005 68.9091 351.445 69.3641 351.765 69.9541C352.095 70.5341 352.26 71.2191 352.26 72.0091C352.26 72.7991 352.095 73.4891 351.765 74.0791C351.435 74.6591 350.985 75.1091 350.415 75.4291C349.855 75.7491 349.225 75.9091 348.525 75.9091ZM348.525 74.8291C348.955 74.8291 349.355 74.7241 349.725 74.5141C350.095 74.3041 350.395 73.9891 350.625 73.5691C350.855 73.1491 350.97 72.6291 350.97 72.0091C350.97 71.3891 350.855 70.8691 350.625 70.4491C350.405 70.0291 350.11 69.7141 349.74 69.5041C349.37 69.2941 348.975 69.1891 348.555 69.1891C348.125 69.1891 347.725 69.2941 347.355 69.5041C346.985 69.7141 346.685 70.0291 346.455 70.4491C346.225 70.8691 346.11 71.3891 346.11 72.0091C346.11 72.6291 346.225 73.1491 346.455 73.5691C346.685 73.9891 346.98 74.3041 347.34 74.5141C347.71 74.7241 348.105 74.8291 348.525 74.8291ZM354.012 75.7291V68.2891H355.152L355.257 69.7141C355.487 69.2241 355.837 68.8341 356.307 68.5441C356.777 68.2541 357.357 68.1091 358.047 68.1091V69.4291H357.702C357.262 69.4291 356.857 69.5091 356.487 69.6691C356.117 69.8191 355.822 70.0791 355.602 70.4491C355.382 70.8191 355.272 71.3291 355.272 71.9791V75.7291H354.012ZM360.271 79.0291L362.116 75.0091H361.681L358.726 68.2891H360.091L362.551 74.0791L365.161 68.2891H366.466L361.591 79.0291H360.271ZM111.425 101.909C110.725 101.909 110.095 101.749 109.535 101.429C108.975 101.109 108.53 100.659 108.2 100.079C107.88 99.4891 107.72 98.7991 107.72 98.0091C107.72 97.2191 107.885 96.5341 108.215 95.9541C108.545 95.3641 108.99 94.9091 109.55 94.5891C110.12 94.2691 110.755 94.1091 111.455 94.1091C112.155 94.1091 112.785 94.2691 113.345 94.5891C113.905 94.9091 114.345 95.3641 114.665 95.9541C114.995 96.5341 115.16 97.2191 115.16 98.0091C115.16 98.7991 114.995 99.4891 114.665 100.079C114.335 100.659 113.885 101.109 113.315 101.429C112.755 101.749 112.125 101.909 111.425 101.909ZM111.425 100.829C111.855 100.829 112.255 100.724 112.625 100.514C112.995 100.304 113.295 99.9891 113.525 99.5691C113.755 99.1491 113.87 98.6291 113.87 98.0091C113.87 97.3891 113.755 96.8691 113.525 96.4491C113.305 96.0291 113.01 95.7141 112.64 95.5041C112.27 95.2941 111.875 95.1891 111.455 95.1891C111.025 95.1891 110.625 95.2941 110.255 95.5041C109.885 95.7141 109.585 96.0291 109.355 96.4491C109.125 96.8691 109.01 97.3891 109.01 98.0091C109.01 98.6291 109.125 99.1491 109.355 99.5691C109.585 99.9891 109.88 100.304 110.24 100.514C110.61 100.724 111.005 100.829 111.425 100.829ZM117.317 101.729V95.3541H116.192V94.2891H117.317V92.9991C117.317 92.2791 117.497 91.7541 117.857 91.4241C118.217 91.0941 118.742 90.9291 119.432 90.9291H120.182V92.0091H119.627C119.247 92.0091 118.977 92.0891 118.817 92.2491C118.657 92.3991 118.577 92.6591 118.577 93.0291V94.2891H120.407V95.3541H118.577V101.729H117.317ZM128.817 101.729C128.137 101.729 127.602 101.564 127.212 101.234C126.822 100.904 126.627 100.309 126.627 99.4491V95.3541H125.337V94.2891H126.627L126.792 92.5041H127.887V94.2891H130.077V95.3541H127.887V99.4491C127.887 99.9191 127.982 100.239 128.172 100.409C128.362 100.569 128.697 100.649 129.177 100.649H129.957V101.729H128.817ZM131.678 101.729V90.9291H132.938V95.5641C133.188 95.1041 133.543 94.7491 134.003 94.4991C134.463 94.2391 134.963 94.1091 135.503 94.1091C136.363 94.1091 137.053 94.3791 137.573 94.9191C138.093 95.4491 138.353 96.2691 138.353 97.3791V101.729H137.108V97.5141C137.108 95.9641 136.483 95.1891 135.233 95.1891C134.583 95.1891 134.038 95.4241 133.598 95.8941C133.158 96.3541 132.938 97.0141 132.938 97.8741V101.729H131.678ZM143.607 101.909C142.897 101.909 142.267 101.749 141.717 101.429C141.167 101.099 140.732 100.644 140.412 100.064C140.102 99.4841 139.947 98.7991 139.947 98.0091C139.947 97.2291 140.102 96.5491 140.412 95.9691C140.722 95.3791 141.152 94.9241 141.702 94.6041C142.262 94.2741 142.907 94.1091 143.637 94.1091C144.357 94.1091 144.977 94.2741 145.497 94.6041C146.027 94.9241 146.432 95.3491 146.712 95.8791C146.992 96.4091 147.132 96.9791 147.132 97.5891C147.132 97.6991 147.127 97.8091 147.117 97.9191C147.117 98.0291 147.117 98.1541 147.117 98.2941H141.192C141.222 98.8641 141.352 99.3391 141.582 99.7191C141.822 100.089 142.117 100.369 142.467 100.559C142.827 100.749 143.207 100.844 143.607 100.844C144.127 100.844 144.562 100.724 144.912 100.484C145.262 100.244 145.517 99.9191 145.677 99.5091H146.922C146.722 100.199 146.337 100.774 145.767 101.234C145.207 101.684 144.487 101.909 143.607 101.909ZM143.607 95.1741C143.007 95.1741 142.472 95.3591 142.002 95.7291C141.542 96.0891 141.277 96.6191 141.207 97.3191H145.887C145.857 96.6491 145.627 96.1241 145.197 95.7441C144.767 95.3641 144.237 95.1741 143.607 95.1741ZM152.771 101.729V94.2891H153.911L154.001 95.3691C154.241 94.9691 154.561 94.6591 154.961 94.4391C155.361 94.2191 155.811 94.1091 156.311 94.1091C156.901 94.1091 157.406 94.2291 157.826 94.4691C158.256 94.7091 158.586 95.0741 158.816 95.5641C159.076 95.1141 159.431 94.7591 159.881 94.4991C160.341 94.2391 160.836 94.1091 161.366 94.1091C162.256 94.1091 162.966 94.3791 163.496 94.9191C164.026 95.4491 164.291 96.2691 164.291 97.3791V101.729H163.046V97.5141C163.046 96.7441 162.891 96.1641 162.581 95.7741C162.271 95.3841 161.826 95.1891 161.246 95.1891C160.646 95.1891 160.146 95.4241 159.746 95.8941C159.356 96.3541 159.161 97.0141 159.161 97.8741V101.729H157.901V97.5141C157.901 96.7441 157.746 96.1641 157.436 95.7741C157.126 95.3841 156.681 95.1891 156.101 95.1891C155.511 95.1891 155.016 95.4241 154.616 95.8941C154.226 96.3541 154.031 97.0141 154.031 97.8741V101.729H152.771ZM168.664 101.909C168.044 101.909 167.529 101.804 167.119 101.594C166.709 101.384 166.404 101.104 166.204 100.754C166.004 100.404 165.904 100.024 165.904 99.6141C165.904 98.8541 166.194 98.2691 166.774 97.8591C167.354 97.4491 168.144 97.2441 169.144 97.2441H171.154V97.1541C171.154 96.5041 170.984 96.0141 170.644 95.6841C170.304 95.3441 169.849 95.1741 169.279 95.1741C168.789 95.1741 168.364 95.2991 168.004 95.5491C167.654 95.7891 167.434 96.1441 167.344 96.6141H166.054C166.104 96.0741 166.284 95.6191 166.594 95.2491C166.914 94.8791 167.309 94.5991 167.779 94.4091C168.249 94.2091 168.749 94.1091 169.279 94.1091C170.319 94.1091 171.099 94.3891 171.619 94.9491C172.149 95.4991 172.414 96.2341 172.414 97.1541V101.729H171.289L171.214 100.394C171.004 100.814 170.694 101.174 170.284 101.474C169.884 101.764 169.344 101.909 168.664 101.909ZM168.859 100.844C169.339 100.844 169.749 100.719 170.089 100.469C170.439 100.219 170.704 99.8941 170.884 99.4941C171.064 99.0941 171.154 98.6741 171.154 98.2341V98.2191H169.249C168.509 98.2191 167.984 98.3491 167.674 98.6091C167.374 98.8591 167.224 99.1741 167.224 99.5541C167.224 99.9441 167.364 100.259 167.644 100.499C167.934 100.729 168.339 100.844 168.859 100.844ZM174.305 101.729V94.2891H175.445L175.52 95.6241C175.76 95.1541 176.105 94.7841 176.555 94.5141C177.005 94.2441 177.515 94.1091 178.085 94.1091C178.965 94.1091 179.665 94.3791 180.185 94.9191C180.715 95.4491 180.98 96.2691 180.98 97.3791V101.729H179.72V97.5141C179.72 95.9641 179.08 95.1891 177.8 95.1891C177.16 95.1891 176.625 95.4241 176.195 95.8941C175.775 96.3541 175.565 97.0141 175.565 97.8741V101.729H174.305ZM185.364 101.909C184.744 101.909 184.229 101.804 183.819 101.594C183.409 101.384 183.104 101.104 182.904 100.754C182.704 100.404 182.604 100.024 182.604 99.6141C182.604 98.8541 182.894 98.2691 183.474 97.8591C184.054 97.4491 184.844 97.2441 185.844 97.2441H187.854V97.1541C187.854 96.5041 187.684 96.0141 187.344 95.6841C187.004 95.3441 186.549 95.1741 185.979 95.1741C185.489 95.1741 185.064 95.2991 184.704 95.5491C184.354 95.7891 184.134 96.1441 184.044 96.6141H182.754C182.804 96.0741 182.984 95.6191 183.294 95.2491C183.614 94.8791 184.009 94.5991 184.479 94.4091C184.949 94.2091 185.449 94.1091 185.979 94.1091C187.019 94.1091 187.799 94.3891 188.319 94.9491C188.849 95.4991 189.114 96.2341 189.114 97.1541V101.729H187.989L187.914 100.394C187.704 100.814 187.394 101.174 186.984 101.474C186.584 101.764 186.044 101.909 185.364 101.909ZM185.559 100.844C186.039 100.844 186.449 100.719 186.789 100.469C187.139 100.219 187.404 99.8941 187.584 99.4941C187.764 99.0941 187.854 98.6741 187.854 98.2341V98.2191H185.949C185.209 98.2191 184.684 98.3491 184.374 98.6091C184.074 98.8591 183.924 99.1741 183.924 99.5541C183.924 99.9441 184.064 100.259 184.344 100.499C184.634 100.729 185.039 100.844 185.559 100.844ZM193.944 99.3891C193.524 99.3891 193.139 99.3341 192.789 99.2241L192.039 99.9291C192.149 100.009 192.284 100.079 192.444 100.139C192.614 100.189 192.854 100.239 193.164 100.289C193.474 100.329 193.909 100.374 194.469 100.424C195.469 100.494 196.184 100.724 196.614 101.114C197.044 101.504 197.259 102.014 197.259 102.644C197.259 103.074 197.139 103.484 196.899 103.874C196.669 104.264 196.309 104.584 195.819 104.834C195.339 105.084 194.719 105.209 193.959 105.209C193.289 105.209 192.694 105.119 192.174 104.939C191.654 104.769 191.249 104.504 190.959 104.144C190.669 103.794 190.524 103.349 190.524 102.809C190.524 102.529 190.599 102.224 190.749 101.894C190.899 101.574 191.179 101.269 191.589 100.979C191.369 100.889 191.179 100.794 191.019 100.694C190.869 100.584 190.729 100.464 190.599 100.334V99.9891L191.874 98.7291C191.284 98.2291 190.989 97.5691 190.989 96.7491C190.989 96.2591 191.104 95.8141 191.334 95.4141C191.564 95.0141 191.899 94.6991 192.339 94.4691C192.779 94.2291 193.314 94.1091 193.944 94.1091C194.374 94.1091 194.764 94.1691 195.114 94.2891H197.859V95.2341L196.464 95.2941C196.754 95.7141 196.899 96.1991 196.899 96.7491C196.899 97.2391 196.779 97.6841 196.539 98.0841C196.309 98.4841 195.974 98.8041 195.534 99.0441C195.104 99.2741 194.574 99.3891 193.944 99.3891ZM193.944 98.3541C194.474 98.3541 194.894 98.2191 195.204 97.9491C195.524 97.6691 195.684 97.2691 195.684 96.7491C195.684 96.2391 195.524 95.8491 195.204 95.5791C194.894 95.2991 194.474 95.1591 193.944 95.1591C193.404 95.1591 192.974 95.2991 192.654 95.5791C192.344 95.8491 192.189 96.2391 192.189 96.7491C192.189 97.2691 192.344 97.6691 192.654 97.9491C192.974 98.2191 193.404 98.3541 193.944 98.3541ZM191.754 102.689C191.754 103.189 191.964 103.559 192.384 103.799C192.804 104.049 193.329 104.174 193.959 104.174C194.579 104.174 195.074 104.039 195.444 103.769C195.824 103.499 196.014 103.139 196.014 102.689C196.014 102.369 195.884 102.089 195.624 101.849C195.364 101.619 194.884 101.484 194.184 101.444C193.634 101.404 193.159 101.354 192.759 101.294C192.349 101.514 192.079 101.749 191.949 101.999C191.819 102.259 191.754 102.489 191.754 102.689ZM199.28 101.729V94.2891H200.42L200.51 95.3691C200.75 94.9691 201.07 94.6591 201.47 94.4391C201.87 94.2191 202.32 94.1091 202.82 94.1091C203.41 94.1091 203.915 94.2291 204.335 94.4691C204.765 94.7091 205.095 95.0741 205.325 95.5641C205.585 95.1141 205.94 94.7591 206.39 94.4991C206.85 94.2391 207.345 94.1091 207.875 94.1091C208.765 94.1091 209.475 94.3791 210.005 94.9191C210.535 95.4491 210.8 96.2691 210.8 97.3791V101.729H209.555V97.5141C209.555 96.7441 209.4 96.1641 209.09 95.7741C208.78 95.3841 208.335 95.1891 207.755 95.1891C207.155 95.1891 206.655 95.4241 206.255 95.8941C205.865 96.3541 205.67 97.0141 205.67 97.8741V101.729H204.41V97.5141C204.41 96.7441 204.255 96.1641 203.945 95.7741C203.635 95.3841 203.19 95.1891 202.61 95.1891C202.02 95.1891 201.525 95.4241 201.125 95.8941C200.735 96.3541 200.54 97.0141 200.54 97.8741V101.729H199.28ZM216.043 101.909C215.333 101.909 214.703 101.749 214.153 101.429C213.603 101.099 213.168 100.644 212.848 100.064C212.538 99.4841 212.383 98.7991 212.383 98.0091C212.383 97.2291 212.538 96.5491 212.848 95.9691C213.158 95.3791 213.588 94.9241 214.138 94.6041C214.698 94.2741 215.343 94.1091 216.073 94.1091C216.793 94.1091 217.413 94.2741 217.933 94.6041C218.463 94.9241 218.868 95.3491 219.148 95.8791C219.428 96.4091 219.568 96.9791 219.568 97.5891C219.568 97.6991 219.563 97.8091 219.553 97.9191C219.553 98.0291 219.553 98.1541 219.553 98.2941H213.628C213.658 98.8641 213.788 99.3391 214.018 99.7191C214.258 100.089 214.553 100.369 214.903 100.559C215.263 100.749 215.643 100.844 216.043 100.844C216.563 100.844 216.998 100.724 217.348 100.484C217.698 100.244 217.953 99.9191 218.113 99.5091H219.358C219.158 100.199 218.773 100.774 218.203 101.234C217.643 101.684 216.923 101.909 216.043 101.909ZM216.043 95.1741C215.443 95.1741 214.908 95.3591 214.438 95.7291C213.978 96.0891 213.713 96.6191 213.643 97.3191H218.323C218.293 96.6491 218.063 96.1241 217.633 95.7441C217.203 95.3641 216.673 95.1741 216.043 95.1741ZM221.238 101.729V94.2891H222.378L222.453 95.6241C222.693 95.1541 223.038 94.7841 223.488 94.5141C223.938 94.2441 224.448 94.1091 225.018 94.1091C225.898 94.1091 226.598 94.3791 227.118 94.9191C227.648 95.4491 227.913 96.2691 227.913 97.3791V101.729H226.653V97.5141C226.653 95.9641 226.013 95.1891 224.733 95.1891C224.093 95.1891 223.558 95.4241 223.128 95.8941C222.708 96.3541 222.498 97.0141 222.498 97.8741V101.729H221.238ZM232.762 101.729C232.082 101.729 231.547 101.564 231.157 101.234C230.767 100.904 230.572 100.309 230.572 99.4491V95.3541H229.282V94.2891H230.572L230.737 92.5041H231.832V94.2891H234.022V95.3541H231.832V99.4491C231.832 99.9191 231.927 100.239 232.117 100.409C232.307 100.569 232.642 100.649 233.122 100.649H233.902V101.729H232.762ZM238.473 101.909C237.583 101.909 236.843 101.684 236.253 101.234C235.663 100.784 235.318 100.174 235.218 99.4041H236.508C236.588 99.7941 236.793 100.134 237.123 100.424C237.463 100.704 237.918 100.844 238.488 100.844C239.018 100.844 239.408 100.734 239.658 100.514C239.908 100.284 240.033 100.014 240.033 99.7041C240.033 99.2541 239.868 98.9541 239.538 98.8041C239.218 98.6541 238.763 98.5191 238.173 98.3991C237.773 98.3191 237.373 98.2041 236.973 98.0541C236.573 97.9041 236.238 97.6941 235.968 97.4241C235.698 97.1441 235.563 96.7791 235.563 96.3291C235.563 95.6791 235.803 95.1491 236.283 94.7391C236.773 94.3191 237.433 94.1091 238.263 94.1091C239.053 94.1091 239.698 94.3091 240.198 94.7091C240.708 95.0991 241.003 95.6591 241.083 96.3891H239.838C239.788 96.0091 239.623 95.7141 239.343 95.5041C239.073 95.2841 238.708 95.1741 238.248 95.1741C237.798 95.1741 237.448 95.2691 237.198 95.4591C236.958 95.6491 236.838 95.8991 236.838 96.2091C236.838 96.5091 236.993 96.7441 237.303 96.9141C237.623 97.0841 238.053 97.2291 238.593 97.3491C239.053 97.4491 239.488 97.5741 239.898 97.7241C240.318 97.8641 240.658 98.0791 240.918 98.3691C241.188 98.6491 241.323 99.0591 241.323 99.5991C241.333 100.269 241.078 100.824 240.558 101.264C240.048 101.694 239.353 101.909 238.473 101.909ZM243.558 101.804C243.308 101.804 243.098 101.724 242.928 101.564C242.768 101.394 242.688 101.189 242.688 100.949C242.688 100.709 242.768 100.509 242.928 100.349C243.098 100.179 243.308 100.094 243.558 100.094C243.798 100.094 243.998 100.179 244.158 100.349C244.328 100.509 244.413 100.709 244.413 100.949C244.413 101.189 244.328 101.394 244.158 101.564C243.998 101.724 243.798 101.804 243.558 101.804Z" fill="#343D48"/>
<path d="M54 1.29736H28C12.536 1.29736 0 13.6036 0 28.7841V54.3075C0 69.4881 12.536 81.7943 28 81.7943H54C69.464 81.7943 82 69.4881 82 54.3075V28.7841C82 13.6036 69.464 1.29736 54 1.29736Z" fill="#FFF6D3"/>
<path d="M45.534 47.2179C45.4077 47.2179 45.2825 47.1935 45.1658 47.146C45.0491 47.0986 44.9431 47.029 44.8538 46.9413C44.7644 46.8537 44.6935 46.7495 44.6452 46.635C44.5969 46.5204 44.572 46.3976 44.572 46.2736C44.572 46.1496 44.5969 46.0268 44.6452 45.9122C44.6935 45.7976 44.7644 45.6935 44.8538 45.6058C44.9431 45.5181 45.0491 45.4486 45.1658 45.4011C45.2825 45.3536 45.4077 45.3292 45.534 45.3292H49.072C50.6416 45.3351 52.1515 44.7383 53.279 43.6663C53.8298 43.1459 54.268 42.5218 54.5673 41.8313C54.8666 41.1409 55.0208 40.3982 55.0208 39.6478C55.0208 38.8974 54.8666 38.1547 54.5673 37.4642C54.268 36.7737 53.8298 36.1496 53.279 35.6293C52.1515 34.5573 50.6416 33.9605 49.072 33.9664C48.846 33.9664 48.641 33.9752 48.461 33.9929C48.261 34.0125 48.061 34.0413 47.861 34.0793C47.6354 34.1251 47.4006 34.0924 47.1969 33.9867C46.9932 33.881 46.8334 33.7089 46.745 33.5001C46.1574 32.0766 45.1442 30.8612 43.839 30.0142C42.3133 29.0272 40.4913 28.5785 38.6718 28.7417C36.8522 28.9049 35.1431 29.6703 33.825 30.9124C33.096 31.6019 32.516 32.4284 32.1194 33.3427C31.7229 34.257 31.518 35.2403 31.517 36.234C31.517 36.2586 31.517 36.2841 31.517 36.3086V36.3479C31.5154 36.6008 31.4116 36.8427 31.2284 37.0205C31.0452 37.1983 30.7976 37.2975 30.54 37.2962H30.485L30.316 37.2883H30.188C29.0771 37.2846 28.0087 37.7074 27.211 38.4663C26.821 38.8344 26.5108 39.2759 26.2988 39.7645C26.0869 40.2531 25.9777 40.7787 25.9777 41.3097C25.9777 41.8408 26.0869 42.3664 26.2988 42.855C26.5108 43.3436 26.821 43.7851 27.211 44.1532C28.0088 44.912 29.0771 45.3348 30.188 45.3312H34.94C35.1951 45.3312 35.4398 45.4307 35.6202 45.6078C35.8006 45.7849 35.902 46.0251 35.902 46.2755C35.902 46.526 35.8006 46.7662 35.6202 46.9433C35.4398 47.1204 35.1951 47.2199 34.94 47.2199H30.188C28.5552 47.2252 26.9849 46.6042 25.812 45.4892C25.2383 44.9487 24.7819 44.2999 24.4701 43.5819C24.1583 42.8638 23.9976 42.0913 23.9976 41.3107C23.9976 40.5302 24.1583 39.7577 24.4701 39.0396C24.7819 38.3215 25.2383 37.6728 25.812 37.1323C26.8311 36.1603 28.1574 35.5585 29.572 35.4261C29.7751 33.2025 30.7881 31.1253 32.425 29.5754C34.0728 28.0204 36.2107 27.0624 38.487 26.859C40.7633 26.6556 43.0422 27.219 44.949 28.4563C46.3591 29.3725 47.5011 30.6343 48.262 32.1169C48.546 32.0894 48.815 32.0757 49.062 32.0757C51.1537 32.069 53.1653 32.8648 54.668 34.2933C55.4019 34.9857 55.9857 35.8165 56.3846 36.7358C56.7834 37.6552 56.989 38.6441 56.989 39.6434C56.989 40.6426 56.7834 41.6316 56.3846 42.5509C55.9857 43.4703 55.4019 44.301 54.668 44.9935C53.1653 46.422 51.1537 47.2177 49.062 47.2111L45.534 47.2179Z" fill="#333333"/>
<path d="M39.511 36.7524C39.511 36.4949 39.6152 36.2479 39.8007 36.0659C39.9861 35.8838 40.2377 35.7815 40.5 35.7815C40.7623 35.7815 41.0138 35.8838 41.1993 36.0659C41.3848 36.2479 41.489 36.4949 41.489 36.7524V55.3265C41.489 55.584 41.3848 55.831 41.1993 56.0131C41.0138 56.1951 40.7623 56.2974 40.5 56.2974C40.2377 56.2974 39.9861 56.1951 39.8007 56.0131C39.6152 55.831 39.511 55.584 39.511 55.3265V36.7524Z" fill="#333333"/>
<path d="M47.302 41.3476C47.3933 41.4337 47.466 41.5371 47.5156 41.6515C47.5653 41.7658 47.5909 41.8889 47.5909 42.0132C47.5909 42.1375 47.5653 42.2606 47.5156 42.375C47.466 42.4893 47.3933 42.5926 47.302 42.6788C47.1145 42.8556 46.8645 42.9543 46.6045 42.9543C46.3445 42.9543 46.0945 42.8556 45.907 42.6788L40.507 37.4759L35.107 42.6788C34.9195 42.8556 34.6695 42.9543 34.4095 42.9543C34.1495 42.9543 33.8995 42.8556 33.712 42.6788C33.6206 42.5926 33.5479 42.4893 33.4983 42.375C33.4486 42.2606 33.423 42.1375 33.423 42.0132C33.423 41.8889 33.4486 41.7658 33.4983 41.6515C33.5479 41.5371 33.6206 41.4337 33.712 41.3476L39.812 35.4714C39.9995 35.2946 40.2494 35.1958 40.5095 35.1958C40.7695 35.1958 41.0194 35.2946 41.207 35.4714L47.3069 41.3476H47.302Z" fill="#333333"/>
<path d="M39.511 55.3266V38.4251L35.097 42.6756C34.9093 42.8538 34.6582 42.9536 34.397 42.9536C34.1358 42.9536 33.8848 42.8538 33.697 42.6756C33.6058 42.5894 33.5332 42.4861 33.4836 42.3717C33.4341 42.2573 33.4086 42.1343 33.4086 42.01C33.4086 41.8858 33.4341 41.7628 33.4836 41.6484C33.5332 41.534 33.6058 41.4307 33.697 41.3445L39.797 35.4684C39.9849 35.2903 40.2358 35.1908 40.4969 35.1908C40.7581 35.1908 41.0091 35.2903 41.197 35.4684L47.297 41.3445C47.3882 41.4307 47.4608 41.534 47.5104 41.6484C47.5599 41.7628 47.5854 41.8858 47.5854 42.01C47.5854 42.1343 47.5599 42.2573 47.5104 42.3717C47.4608 42.4861 47.3882 42.5894 47.297 42.6756C47.1096 42.8523 46.8598 42.9512 46.6 42.9512C46.3401 42.9512 46.0903 42.8523 45.903 42.6756L41.489 38.4251V55.3266C41.4776 55.5765 41.3683 55.8123 41.1841 55.9852C40.9999 56.1581 40.7549 56.2546 40.5 56.2546C40.2451 56.2546 40.0001 56.1581 39.8159 55.9852C39.6317 55.8123 39.5224 55.5765 39.511 55.3266ZM45.5341 47.218C45.2789 47.218 45.0342 47.1185 44.8538 46.9414C44.6733 46.7643 44.572 46.5239 44.572 46.2735C44.572 46.023 44.6733 45.7828 44.8538 45.6057C45.0342 45.4286 45.2789 45.3292 45.5341 45.3292H49.071C50.6412 45.3353 52.1516 44.738 53.2791 43.6652C53.8299 43.1449 54.268 42.5208 54.5673 41.8303C54.8666 41.1398 55.0209 40.3971 55.0209 39.6467C55.0209 38.8963 54.8666 38.1536 54.5673 37.4631C54.268 36.7726 53.8299 36.1485 53.2791 35.6282C52.1512 34.5561 50.641 33.9595 49.071 33.9654C48.846 33.9654 48.6411 33.9741 48.4611 33.9918C48.2597 34.0103 48.0593 34.0393 47.861 34.0783C47.6354 34.124 47.4006 34.091 47.197 33.9853C46.9934 33.8796 46.8336 33.7078 46.745 33.499C46.1575 32.0752 45.1443 30.8595 43.839 30.0121C42.3134 29.0254 40.4916 28.5768 38.6722 28.74C36.8529 28.9032 35.1441 29.6686 33.826 30.9104C33.097 31.5998 32.5169 32.4263 32.1204 33.3406C31.7238 34.2549 31.5189 35.2382 31.5179 36.2319C31.5179 36.2565 31.5179 36.2831 31.5179 36.3077V36.347C31.5173 36.4722 31.4916 36.5961 31.4421 36.7115C31.3927 36.827 31.3205 36.9317 31.2297 37.0197C31.139 37.1078 31.0315 37.1776 30.9133 37.2249C30.7952 37.2721 30.6686 37.2959 30.541 37.2951H30.486L30.318 37.2884H30.1899C29.079 37.2843 28.0105 37.707 27.213 38.4663C26.8229 38.8342 26.5126 39.2756 26.3007 39.7641C26.0887 40.2527 25.9794 40.7783 25.9794 41.3093C25.9794 41.8403 26.0887 42.3659 26.3007 42.8544C26.5126 43.3429 26.8229 43.7843 27.213 44.1522C28.0106 44.9113 29.079 45.334 30.1899 45.3301H34.942C35.1972 45.3301 35.4418 45.4296 35.6222 45.6067C35.8026 45.7838 35.9041 46.024 35.9041 46.2744C35.9041 46.5249 35.8026 46.7653 35.6222 46.9424C35.4418 47.1195 35.1972 47.2189 34.942 47.2189H30.1899C28.5569 47.2243 26.9863 46.6033 25.813 45.4883C25.2401 44.9474 24.7843 44.2983 24.473 43.5803C24.1617 42.8623 24.0012 42.0901 24.0012 41.3097C24.0012 40.5294 24.1617 39.7571 24.473 39.0391C24.7843 38.3212 25.2401 37.6721 25.813 37.1312C26.8342 36.1598 28.1623 35.5594 29.578 35.4291C29.781 33.2056 30.7936 31.1285 32.4301 29.5784C34.0779 28.0234 36.2158 27.0654 38.4921 26.862C40.7683 26.6586 43.0472 27.2218 44.954 28.4591C46.3644 29.3755 47.5064 30.6377 48.267 32.1207C48.551 32.0932 48.82 32.0795 49.067 32.0795C51.1591 32.0728 53.171 32.8686 54.674 34.2971C55.4079 34.9895 55.9918 35.8205 56.3906 36.7398C56.7895 37.6591 56.9951 38.6479 56.9951 39.6472C56.9951 40.6464 56.7895 41.6355 56.3906 42.5548C55.9918 43.4741 55.4079 44.3051 54.674 44.9975C53.171 46.426 51.1591 47.2216 49.067 47.2149L45.5341 47.218Z" fill="#D6AB00"/>
</svg>
