<svg width="98" height="21" viewBox="0 0 98 21" fill="none" xmlns="http://www.w3.org/2000/svg">
<path opacity="0.8" d="M3.6 12.38H8.16V15H0.18V0.86H3.6V12.38ZM13.9708 3.7C14.8241 3.7 15.5574 3.89333 16.1708 4.28C16.7841 4.66667 17.2374 5.19333 17.5308 5.86V3.84H20.9308V15H17.5308V12.98C17.2374 13.6467 16.7841 14.1733 16.1708 14.56C15.5574 14.9467 14.8241 15.14 13.9708 15.14C13.0508 15.14 12.2241 14.9133 11.4908 14.46C10.7708 13.9933 10.1974 13.3267 9.77078 12.46C9.35745 11.5933 9.15078 10.58 9.15078 9.42C9.15078 8.24667 9.35745 7.23333 9.77078 6.38C10.1974 5.51333 10.7708 4.85333 11.4908 4.4C12.2241 3.93333 13.0508 3.7 13.9708 3.7ZM15.0708 6.7C14.3374 6.7 13.7441 6.94 13.2908 7.42C12.8508 7.9 12.6308 8.56667 12.6308 9.42C12.6308 10.2733 12.8508 10.94 13.2908 11.42C13.7441 11.9 14.3374 12.14 15.0708 12.14C15.7908 12.14 16.3774 11.8933 16.8308 11.4C17.2974 10.9067 17.5308 10.2467 17.5308 9.42C17.5308 8.58 17.2974 7.92 16.8308 7.44C16.3774 6.94667 15.7908 6.7 15.0708 6.7ZM30.3655 3.72C31.6455 3.72 32.6588 4.14667 33.4055 5C34.1655 5.85333 34.5455 7.02667 34.5455 8.52V15H31.1255V8.92C31.1255 8.17333 30.9255 7.59333 30.5255 7.18C30.1388 6.75333 29.6188 6.54 28.9655 6.54C28.2721 6.54 27.7188 6.76 27.3055 7.2C26.9055 7.64 26.7055 8.26667 26.7055 9.08V15H23.2855V3.84H26.7055V5.88C27.0255 5.21333 27.4988 4.68667 28.1255 4.3C28.7655 3.91333 29.5121 3.72 30.3655 3.72ZM41.0411 3.7C41.8944 3.7 42.6278 3.89333 43.2411 4.28C43.8544 4.66667 44.3011 5.19333 44.5811 5.86V0.2H48.0011V15H44.5811V12.98C44.3011 13.6467 43.8544 14.1733 43.2411 14.56C42.6278 14.9467 41.8944 15.14 41.0411 15.14C40.1211 15.14 39.2944 14.9133 38.5611 14.46C37.8411 13.9933 37.2678 13.3267 36.8411 12.46C36.4278 11.5933 36.2211 10.58 36.2211 9.42C36.2211 8.24667 36.4278 7.23333 36.8411 6.38C37.2678 5.51333 37.8411 4.85333 38.5611 4.4C39.2944 3.93333 40.1211 3.7 41.0411 3.7ZM42.1411 6.7C41.4078 6.7 40.8144 6.94 40.3611 7.42C39.9211 7.9 39.7011 8.56667 39.7011 9.42C39.7011 10.2733 39.9211 10.94 40.3611 11.42C40.8144 11.9 41.4078 12.14 42.1411 12.14C42.8611 12.14 43.4478 11.8933 43.9011 11.4C44.3678 10.9067 44.6011 10.2467 44.6011 9.42C44.6011 8.58 44.3678 7.92 43.9011 7.44C43.4478 6.94667 42.8611 6.7 42.1411 6.7ZM54.5958 3.7C55.4491 3.7 56.1824 3.89333 56.7958 4.28C57.4091 4.66667 57.8624 5.19333 58.1558 5.86V3.84H61.5558V14.94C61.5558 15.98 61.3558 16.9133 60.9558 17.74C60.5558 18.58 59.9424 19.2467 59.1158 19.74C58.2891 20.2333 57.2624 20.48 56.0358 20.48C54.3558 20.48 53.0091 20.08 51.9958 19.28C50.9958 18.4933 50.3958 17.42 50.1958 16.06H53.5758C53.6824 16.5133 53.9224 16.8667 54.2958 17.12C54.6824 17.3733 55.1824 17.5 55.7958 17.5C56.5024 17.5 57.0691 17.2933 57.4958 16.88C57.9358 16.48 58.1558 15.8333 58.1558 14.94V12.98C57.8624 13.6467 57.4091 14.1733 56.7958 14.56C56.1824 14.9467 55.4491 15.14 54.5958 15.14C53.6758 15.14 52.8491 14.9133 52.1158 14.46C51.3958 13.9933 50.8224 13.3267 50.3958 12.46C49.9824 11.5933 49.7758 10.58 49.7758 9.42C49.7758 8.24667 49.9824 7.23333 50.3958 6.38C50.8224 5.51333 51.3958 4.85333 52.1158 4.4C52.8491 3.93333 53.6758 3.7 54.5958 3.7ZM55.6958 6.7C54.9624 6.7 54.3691 6.94 53.9158 7.42C53.4758 7.9 53.2558 8.56667 53.2558 9.42C53.2558 10.2733 53.4758 10.94 53.9158 11.42C54.3691 11.9 54.9624 12.14 55.6958 12.14C56.4158 12.14 57.0024 11.8933 57.4558 11.4C57.9224 10.9067 58.1558 10.2467 58.1558 9.42C58.1558 8.58 57.9224 7.92 57.4558 7.44C57.0024 6.94667 56.4158 6.7 55.6958 6.7ZM75.0105 3.84V15H71.5705V12.98C71.2505 13.6333 70.7705 14.1533 70.1305 14.54C69.5038 14.9267 68.7705 15.12 67.9305 15.12C66.6505 15.12 65.6305 14.6933 64.8705 13.84C64.1238 12.9867 63.7505 11.8133 63.7505 10.32V3.84H67.1505V9.9C67.1505 10.66 67.3438 11.2533 67.7305 11.68C68.1305 12.0933 68.6638 12.3 69.3305 12.3C70.0238 12.3 70.5705 12.08 70.9705 11.64C71.3705 11.2 71.5705 10.5733 71.5705 9.76V3.84H75.0105ZM80.7875 5.94C81.2142 5.26 81.7608 4.72 82.4275 4.32C83.1075 3.92 83.8408 3.72 84.6275 3.72V7.38H83.6475C82.7408 7.38 82.0342 7.57333 81.5275 7.96C81.0342 8.34667 80.7875 9 80.7875 9.92V15H77.3675V3.84H80.7875V5.94ZM97.1589 3.84V15H93.7189V12.98C93.3989 13.6333 92.9189 14.1533 92.2789 14.54C91.6522 14.9267 90.9189 15.12 90.0789 15.12C88.7989 15.12 87.7789 14.6933 87.0189 13.84C86.2722 12.9867 85.8989 11.8133 85.8989 10.32V3.84H89.2989V9.9C89.2989 10.66 89.4922 11.2533 89.8789 11.68C90.2789 12.0933 90.8122 12.3 91.4789 12.3C92.1722 12.3 92.7189 12.08 93.1189 11.64C93.5189 11.2 93.7189 10.5733 93.7189 9.76V3.84H97.1589Z" fill="white"/>
</svg>
